<svg width="40" height="40" viewBox="0 0 40 40" fill="none" xmlns="http://www.w3.org/2000/svg">
<circle cx="20" cy="20" r="19" stroke="#C0C5D5" stroke-width="2"/>
<path fill-rule="evenodd" clip-rule="evenodd" d="M19.8001 12.0001C20.2419 12.0001 20.6001 12.3583 20.6001 12.8001V26.8001C20.6001 27.2419 20.2419 27.6001 19.8001 27.6001C19.3583 27.6001 19.0001 27.2419 19.0001 26.8001V12.8001C19.0001 12.3583 19.3583 12.0001 19.8001 12.0001Z" fill="#C0C5D5"/>
<path fill-rule="evenodd" clip-rule="evenodd" d="M12.0001 19.8001C12.0001 19.3583 12.3583 19.0001 12.8001 19.0001L26.8001 19.0001C27.2419 19.0001 27.6001 19.3583 27.6001 19.8001C27.6001 20.2419 27.2419 20.6001 26.8001 20.6001L12.8001 20.6001C12.3583 20.6001 12.0001 20.2419 12.0001 19.8001Z" fill="#C0C5D5"/>
</svg>
