<svg width="320" height="354" viewBox="0 0 320 354" fill="none" xmlns="http://www.w3.org/2000/svg">
<path d="M263.659 281.114C261.865 284.88 258.535 286.917 254.922 288.429C217.387 304.1 179.84 319.725 142.279 335.302C131.659 339.709 122.039 335.533 117.773 325.054C117.453 321.018 114.686 318.021 113.264 314.447C112.495 312.525 111.227 310.834 111.291 308.592C111.573 299.343 109.574 290.389 106.73 281.69C104.642 275.362 102.887 268.726 98.2369 263.486L86.9636 246.769C86.9991 246.555 86.9875 246.337 86.9296 246.128C86.8718 245.92 86.7692 245.726 86.6289 245.562C86.4886 245.397 86.314 245.265 86.1174 245.175C85.9207 245.085 85.7067 245.038 85.4904 245.039C81.6472 240.556 76.3181 237.212 74.23 231.268C74.3972 230.301 74.3398 229.307 74.0622 228.366C73.7845 227.424 73.294 226.558 72.6287 225.836C72.1084 223.598 72.0085 221.283 72.334 219.008C72.7952 215.652 73.6151 212.27 71.6807 209.08L71.4629 207.312C72.065 206.595 72.4237 205.532 73.6791 205.737L128.111 318.649L143.343 312.461L136.732 298.805L137.283 298.165L136.284 297.921L138.026 296.192C138.526 296.807 139.013 297.473 139.512 298.024L145.918 311.462C159.894 305.851 173.294 300.534 186.642 295.103C197.441 290.722 208.42 286.943 218.976 281.87C220.425 281.848 221.818 281.302 222.896 280.332L248.107 270.865C248.94 271.032 249.798 271.07 250.067 270.071C250.155 269.606 250.084 269.124 249.866 268.703C249.648 268.283 249.294 267.948 248.863 267.752C247.582 265.485 246.237 263.205 244.917 260.924C245.071 259.566 243.867 258.798 243.508 257.671C243.567 257.591 243.599 257.494 243.599 257.395C243.599 257.296 243.567 257.199 243.508 257.12L242.714 255.249L242.227 254.365L239.998 249.702C240.165 249.311 240.447 248.98 240.806 248.751C241.164 248.523 241.584 248.408 242.009 248.421C245.468 255.237 248.927 262.039 252.501 269.11L258.061 266.266L262.083 265.203L265.299 263.512L265.568 263.704L265.504 264.012C264.786 269.725 266.119 275.618 263.659 281.114Z" fill="#11142D"/>
<path d="M17.1347 118.701L14.8416 113.935C14.9132 113.745 14.9445 113.541 14.9336 113.338C14.9227 113.135 14.8699 112.936 14.7784 112.755C14.687 112.573 14.5589 112.412 14.4022 112.282C14.2455 112.153 14.0636 112.057 13.868 112.001L13.1762 110.566C11.9932 106.249 10.007 102.195 7.32185 98.6138L6.55322 97.0124C6.61727 93.7714 4.59322 91.3118 3.19687 88.6984C2.04628 86.6683 1.36608 84.4058 1.20645 82.0778C1.04681 79.7497 1.41181 77.4156 2.27451 75.2474C3.42746 72.1601 4.58041 69.0856 5.72054 65.9982C7.29416 63.3978 9.83098 61.5239 12.7791 60.7843C20.4584 59.1959 27.9353 56.7509 35.0694 53.4952L38.6307 52.3038C39.5915 52.6881 40.4242 52.6881 40.9366 51.612C41.7312 50.9741 42.7389 50.6626 43.7549 50.7409C46.3624 50.7166 48.8956 49.8692 50.9929 48.3197C55.9626 46.1792 61.1053 44.465 66.3655 43.1955C67.6465 43.6055 68.8379 42.9137 69.9908 42.5422C79.9062 39.378 89.8215 36.2394 99.6728 32.8959C105.54 30.9102 111.625 29.5267 117.172 26.6315C118.841 25.6686 120.689 25.0583 122.604 24.8381C122.981 25.0027 123.407 25.019 123.797 24.8836C124.186 24.7483 124.51 24.4713 124.705 24.1078L130.111 22.3144C130.492 22.4882 130.925 22.5108 131.322 22.3776C131.719 22.2445 132.051 21.9654 132.25 21.597L136.401 20.1878C136.862 20.7131 137.079 20.4569 137.233 19.9444L137.387 19.7395H137.643C137.83 19.8356 138.035 19.8932 138.244 19.9091C138.454 19.9249 138.665 19.8987 138.864 19.8318C139.063 19.765 139.247 19.6589 139.405 19.5198C139.563 19.3808 139.691 19.2115 139.783 19.0221C141.496 18.1156 143.357 17.5213 145.278 17.267C145.641 17.4411 146.057 17.4661 146.438 17.3368C146.819 17.2075 147.133 16.9341 147.315 16.5753L149.044 16.0244C154.169 15.1277 159.293 14.3591 164.532 15.5248C165.111 15.5841 165.671 15.76 166.18 16.0418C166.688 16.3236 167.135 16.7055 167.492 17.1646L168.401 18.1254C168.324 18.306 168.287 18.5009 168.29 18.6972C168.294 18.8934 168.339 19.0867 168.422 19.2644C168.506 19.4421 168.626 19.6002 168.774 19.7284C168.923 19.8566 169.097 19.9521 169.285 20.0085C170.157 21.1209 170.711 22.4492 170.886 23.8517C170.738 24.2213 170.738 24.6337 170.886 25.0034C171.034 25.3731 171.319 25.6716 171.681 25.8373C174.535 32.0086 177.066 38.3242 179.264 44.7584C179.181 44.939 179.135 45.1343 179.128 45.3331C179.121 45.5318 179.153 45.7299 179.224 45.9159C179.294 46.1019 179.401 46.272 179.538 46.4164C179.674 46.5608 179.838 46.6765 180.02 46.7569C180.937 48.1654 181.552 49.7488 181.827 51.4071C181.658 51.7828 181.379 52.0981 181.026 52.3109C180.674 52.5238 180.265 52.6241 179.854 52.5984L166.544 20.0341L12.177 79.5133C13.9064 82.7159 15.29 85.2524 16.6607 87.8017C27.0244 109.81 37.465 131.767 48.4692 153.456C48.6998 156.107 45.9071 158.055 46.7142 160.834C44.7798 159.758 44.3314 161.296 43.8574 162.551C42.871 165.216 41.9743 167.919 41.0391 170.609L38.7973 169.84C40.8726 165.51 37.7724 162.154 36.581 158.49C34.0189 150.253 29.7659 142.81 25.4487 135.431C25.2566 135.021 25.0644 134.624 24.8594 134.214C24.7928 132.844 24.4472 131.503 23.8436 130.271C23.24 129.04 22.3912 127.945 21.3494 127.053C19.955 125.138 18.89 123.003 18.198 120.738C18.3773 119.777 18.2236 119.008 17.1347 118.701ZM48.5076 54.6481L49.4172 56.8771C61.1516 52.0988 73.1422 47.9867 84.6076 42.555L83.8518 40.6846L48.5076 54.6481Z" fill="#11142D"/>
<path d="M46.662 160.872C45.8678 158.092 48.6477 156.145 48.4171 153.493C51.624 153.107 54.8735 153.271 58.025 153.98L28.0996 90.0943L150.068 40.4023L206.742 165.587C204.872 166.342 203.501 166.97 202.079 167.483C164.057 181.147 126.019 194.812 87.9631 208.476C85.0935 209.501 83.4538 208.95 82.4161 206.17C81.9934 204.992 81.4041 203.877 80.8789 202.737C77.8983 196.229 74.9092 189.73 71.9115 183.239C71.9115 190.926 74.0381 198.228 73.705 205.773C72.4239 205.568 72.0909 206.631 71.4888 207.349C70.0028 197.203 69.2213 186.955 66.7489 176.975C65.6224 171.678 63.7505 166.567 61.1891 161.795C59.844 159.476 58.2812 157.362 55.5397 156.53L55.4629 156.402L55.5781 156.53C54.3666 156.015 53.0325 155.859 51.735 156.081C51.3891 155.723 51.1073 155.799 50.8767 156.197C50.2881 156.197 49.7092 156.346 49.194 156.631C48.6788 156.915 48.244 157.326 47.9303 157.823C49.2113 161.667 51.7734 165.369 51.0432 169.853H48.6605C48.0071 166.829 47.3282 163.857 46.662 160.872ZM181.429 166.407C181.083 163.511 182.71 160.001 178.866 157.606C178.687 159.766 178.331 161.908 177.803 164.011C177.227 165.728 177.931 168.738 174.088 168.559C174.46 162.474 178.367 156.222 173.076 150.265C171.795 152.558 173.14 154.646 172.051 156.376L169.669 156.453C169.233 151.61 170.668 146.204 165.172 142.169C165.172 146.179 165.249 149.471 165.172 152.738C164.967 160.091 164.941 160.091 162.226 160.424C161.444 159.258 162.033 158.016 162.059 156.799C162.238 149.855 162.969 142.848 160.957 136.046C160.086 133.061 158.831 130.063 154.27 130.05C155.436 135.29 156.589 140.158 156.474 145.167C156.256 155.594 150.478 162.487 141.908 167.457C140.738 168.111 139.427 168.469 138.087 168.5C136.748 168.531 135.421 168.235 134.222 167.636C130.122 165.894 125.997 164.177 121.744 162.845C119.708 162.205 117.261 160.872 115.147 163.229C115.416 165.125 116.8 166.163 118.029 167.252C121.705 170.25 125.68 172.86 129.892 175.041C136.579 178.884 136.592 178.794 135.529 186.57C135.469 186.872 135.511 187.185 135.647 187.461C135.784 187.737 136.008 187.959 136.284 188.095C136.778 188.071 137.268 187.994 137.745 187.864C149.402 183.649 160.996 179.243 172.743 175.271C176.727 173.926 179.712 172.12 180.98 168.008L183.312 168.226C183.427 169.148 182.594 170.122 183.76 171.223L202.976 164.293L148.506 43.9765L31.9299 91.5035L82.3905 199.112C86.7205 192.386 92.1649 187.89 97.571 183.252C92.3699 171.287 87.3226 159.579 82.1984 147.947C79.316 147.793 76.882 148.715 74.3455 148.28C68.6577 147.306 65.2501 142.963 66.3774 137.89L68.6833 138.211C69.0292 144.296 73.0773 147.075 79.8925 145.205C83.1463 144.308 84.3633 145.205 85.5291 148.049C89.6413 157.939 94.3299 167.624 98.0322 177.667C100.594 184.457 106.321 186.967 111.47 190.657C117.799 195.192 123.73 193.219 129.892 190.593C133.043 189.312 133.594 187.211 131.826 184.7C128.547 180.088 125.857 174.951 120.399 172.21C118.481 171.097 116.751 169.688 115.275 168.033C113.687 166.432 111.291 164.805 112.636 162.064C114.135 159.002 117.03 159.053 119.925 159.643C124.805 160.799 129.534 162.518 134.017 164.767C135.436 165.514 137.044 165.825 138.64 165.661C140.236 165.497 141.747 164.865 142.984 163.844C149.748 158.656 154.155 152.315 153.399 143.207C152.885 136.248 151.366 129.4 148.89 122.876C144.406 111.347 140.025 99.7406 135.336 88.288C134.145 85.38 133.517 81.7034 129.61 80.6914C130.11 78.9876 131.634 79.5769 132.761 79.2822C135.926 81.4472 137.181 84.8932 138.488 88.2496C143.151 100.151 147.698 112.103 152.297 124.042C152.835 125.426 153.066 127.027 155.077 127.232C160.535 127.808 162.764 131.588 164.045 136.327C164.352 137.608 164.378 138.825 165.697 139.492C168.413 140.862 169.707 143.617 171.705 145.615C174.626 148.523 176.919 152.02 179.904 154.723C184.618 159.04 185.63 161.884 183.325 168.264C183.171 167.111 182.646 166.394 181.429 166.407ZM99.3516 185.494C93.9456 189.696 89.1032 193.834 85.7084 199.432C84.3633 201.674 83.441 203.967 86.2465 206.119L115.839 195.589C109.919 192.97 104.375 189.576 99.3516 185.494Z" fill="#11142D"/>
<path d="M179.803 52.6362C180.214 52.6619 180.623 52.5616 180.975 52.3487C181.328 52.1358 181.607 51.8205 181.776 51.4448C185.619 59.1311 188.04 67.3426 191.704 75.9129C194.266 71.9288 196.405 68.5469 198.634 65.2546C202.644 59.3489 206.974 53.7251 212.623 49.2414C219.31 43.9507 225.037 42.9258 229.828 46.1028C234.875 49.4336 236.861 56.1334 235.042 63.7813C232.159 76.0282 225.754 86.7762 219.925 97.6651C219.362 98.7284 218.234 99.5739 218.567 101.009C239.218 109.579 244.304 117.816 242.625 140.298C248.454 144.321 251.964 149.868 252.092 157.272H249.684C248.096 152.417 247.686 146.909 242.549 143.924C241.152 145.205 241.472 146.665 241.114 147.946C239.013 155.312 237.476 163.319 231.058 168.059C226.715 171.249 225.664 175.079 225.024 179.588C224.627 182.458 224.601 185.379 224.409 188.274C222.423 188.274 222.769 189.837 222.475 190.99C220.745 186.634 221.719 182.253 222.308 177.859C222.718 174.772 222.859 171.736 219.502 169.904C212.405 166.06 209.549 159.655 209.382 151.969C209.318 148.523 209.664 145.051 209.818 141.592C210.638 139.03 209.882 136.263 211.188 133.816H213.482C213.123 139.491 212.674 145.167 212.431 150.842C212.188 156.517 213.712 161.935 218.196 165.92C223.32 170.429 228.841 169.109 231.954 162.755C221.924 161.871 217.594 157.772 218.081 149.637C218.401 144.193 220.297 141.016 223.64 141.195C221.924 145.64 219.797 150.022 221.808 154.787C224.14 160.334 228.88 160.129 233.914 159.822C238.744 148.753 241.434 137.403 239.308 125.31C237.181 113.217 228.675 105.326 216.39 104.032C214.737 106.85 212.892 109.784 211.265 112.846C210.151 114.985 207.819 116.689 208.485 119.545L206.154 119.712C202.734 111.372 199.223 103.058 195.906 94.6803C190.525 80.6784 184.581 66.8815 179.803 52.6362ZM206.974 114.562C209.433 110.322 211.419 107.017 213.302 103.648C219.707 92.2335 226.471 81.0115 230.673 68.534C232.403 63.4098 233.953 58.0934 231.685 52.649C229.546 47.5248 225.28 45.7313 220.156 47.8066C216.945 49.1804 214.033 51.1692 211.586 53.661C204.36 60.758 199.057 69.2514 193.971 77.9113C193.649 78.3628 193.446 78.8884 193.381 79.4393C193.316 79.9903 193.391 80.5487 193.6 81.0627C197.917 91.9004 202.234 102.687 206.974 114.562Z" fill="#11142D"/>
<path d="M38.7203 169.879L40.9621 170.648C40.5266 172.915 40.2063 175.234 39.617 177.463C39.0918 179.487 40.1679 179.858 41.7308 180.025C41.7503 180.42 41.8808 180.801 42.1074 181.125C42.334 181.449 42.6475 181.703 43.0118 181.857L38.7972 182.997C37.5161 191.964 36.376 201.06 34.954 210.091C33.7754 217.777 32.3151 225.361 30.9828 232.996C30.6241 232.471 30.8034 231.562 29.6248 231.395C29.074 232.766 28.7409 233.957 30.9059 234.252C30.2782 244.808 29.2533 255.351 29.4839 265.958C30.1116 294.295 35.4664 321.914 41.8973 349.38C42.2304 350.763 43.4602 352.326 41.0902 353.069C39.8092 352.903 39.5017 351.865 39.284 350.955C30.7009 314.753 23.5783 278.346 27.5111 240.862C29.1124 225.617 31.8667 210.501 34.1085 195.333C35.159 188.3 36.2607 181.242 37.3624 174.26C37.4432 172.709 37.91 171.203 38.7203 169.879Z" fill="#11142D"/>
<path d="M265.272 263.563L262.057 265.254C262.851 263.973 262.249 262.91 261.775 261.744C259.994 257.375 258.316 252.969 256.535 248.613C252.692 239.146 248.772 229.692 244.916 220.302H239.651C230.428 215.882 228.826 211.27 232.26 198.831L228.48 197.461C229.505 197.345 230.197 196.884 230.171 195.731C232.016 196.117 233.935 195.918 235.661 195.162C237.388 194.407 238.836 193.133 239.805 191.517C234.117 188.878 230.12 185.316 231.055 178.706C231.299 176.989 231.337 174.607 234.988 175.106C232.426 181.922 234.271 186.764 241.393 189.006C242.725 187.702 243.749 186.118 244.391 184.368C247.261 178.744 248.234 172.557 249.656 166.434H252.026C251.946 167.94 252.312 169.437 253.077 170.738C263.658 187.174 261.916 203.482 248.209 217.676C247.92 218.03 247.655 218.402 247.414 218.79C253.294 233.714 259.956 248.357 265.272 263.563ZM247.607 211.411C247.607 210.668 247.696 209.925 247.747 209.169C250.86 209.797 252.539 208.35 253.756 205.544C257.291 197.422 258.226 189.185 255.242 180.756C254.37 178.309 253.781 175.542 251.501 173.825C250.348 174.658 250.527 175.721 250.22 176.631C248.004 184.202 245.032 191.363 238.601 196.436C236.479 198.108 234.886 200.358 234.015 202.916C233.145 205.473 233.033 208.228 233.694 210.848C234.847 214.691 237.281 217.163 241.381 217.573C245.48 217.983 247.312 215.011 249.579 212.193L247.607 211.411Z" fill="#11142D"/>
<path d="M214.468 1.03716C208.267 10.7091 202.938 21.0856 195.828 30.2579L193.945 29.105C199.723 19.6252 205.475 10.1198 211.342 0.678469C211.906 -0.231077 212.943 -0.333563 214.468 1.03716Z" fill="#00DAB3"/>
<path d="M15.443 168.125C15.712 172.865 16.9418 176.862 16.0451 181.935L1.26172 171.328C6.10409 169.355 10.6134 169.329 15.443 168.125Z" fill="#D8E8FB"/>
<path d="M98.2363 263.562C102.835 268.802 104.642 275.438 106.73 281.766C109.574 290.439 111.572 299.394 111.29 308.668C111.226 310.91 112.494 312.601 113.263 314.523C114.685 318.097 117.452 321.094 117.772 325.13C113.852 318.148 110.24 311.294 109.817 302.814C109.176 288.85 104.36 275.912 98.2363 263.562Z" fill="#11142D"/>
<path d="M117.146 26.6328C111.599 29.528 105.514 30.9115 99.6472 32.8972C89.7959 36.2407 79.8806 39.3793 69.9652 42.5435C68.8123 42.915 67.6593 43.6068 66.3398 43.1968C76.7164 39.1103 87.4259 36.0229 98.0202 32.5641C104.361 30.4888 110.767 28.6056 117.146 26.6328Z" fill="#11142D"/>
<path d="M213.75 318.02C218.977 320.582 223.281 324.425 228.059 328.268C224.793 329.229 215.697 322.926 213.75 318.02Z" fill="#11142D"/>
<path d="M202.119 34.0613C208.05 31.102 212.88 27.9122 219.529 26.0547C217.005 30.628 205.834 35.8163 202.119 34.0613Z" fill="#00DAB3"/>
<path d="M5.71988 66C4.57975 69.0873 3.4268 72.1619 2.27385 75.2492C1.41115 77.4174 1.04615 79.7515 1.20579 82.0796C1.36543 84.4076 2.04563 86.6701 3.19621 88.7002C4.59256 91.2623 6.61661 93.8244 6.55256 97.0142C4.61817 93.1711 2.2226 89.597 0.86469 85.6129C-1.65898 78.2212 1.76144 71.9697 5.71988 66Z" fill="#11142D"/>
<path d="M25.3965 135.457C29.7136 142.862 33.9539 150.304 36.5288 158.516C32.3351 151.072 28.6169 143.371 25.3965 135.457Z" fill="#11142D"/>
<path d="M35.0696 53.4688C27.9355 56.7245 20.4586 59.1695 12.7793 60.7579C20.0303 57.8114 27.4786 55.3757 35.0696 53.4688Z" fill="#11142D"/>
<path d="M319.999 192.027C317.616 196.498 317.014 196.998 313.594 197.369C314.644 194.384 315.964 192.373 319.999 192.027Z" fill="#11142D"/>
<path d="M252.054 166.42H249.684V157.234H252.092C252.877 160.248 252.863 163.413 252.054 166.42Z" fill="#11142D"/>
<path d="M199.697 319.121C201.568 322.964 200.415 326.205 197.135 327.269C196.354 324.168 197.904 321.965 199.697 319.121Z" fill="#11142D"/>
<path d="M263.66 281.112C266.12 275.616 264.787 269.723 265.479 264.035C266.402 269.89 267.362 275.744 263.66 281.112Z" fill="#11142D"/>
<path d="M305.436 230.257C305.18 231.807 304.322 232.922 302.759 232.934C302.414 232.956 302.068 232.905 301.744 232.785C301.42 232.665 301.124 232.478 300.877 232.237C300.629 231.995 300.435 231.704 300.307 231.383C300.179 231.062 300.119 230.718 300.133 230.372C300.136 229.736 300.391 229.126 300.843 228.677C301.294 228.229 301.905 227.977 302.541 227.977C302.882 227.93 303.228 227.953 303.56 228.043C303.892 228.133 304.202 228.29 304.472 228.503C304.743 228.715 304.967 228.98 305.133 229.282C305.298 229.583 305.402 229.915 305.436 230.257Z" fill="#00DAB3"/>
<path d="M43.0994 181.818C42.7351 181.664 42.4216 181.411 42.195 181.087C41.9684 180.763 41.8378 180.381 41.8184 179.986C43.3647 179.407 44.7631 178.492 45.9129 177.307C47.0626 176.122 47.935 174.696 48.467 173.133C49.7481 173.133 50.1068 174.068 50.3117 175.106C49.8377 176.777 48.9147 178.286 47.6432 179.469C46.3717 180.653 44.8002 181.465 43.0994 181.818Z" fill="#11142D"/>
<path d="M164.507 15.5758C159.306 14.41 154.157 15.1786 149.02 16.0754C154.105 13.6286 159.255 12.8471 164.507 15.5758Z" fill="#11142D"/>
<path d="M7.32227 98.6133C10.0075 102.194 11.9936 106.249 13.1767 110.566C10.7288 106.844 8.76171 102.828 7.32227 98.6133Z" fill="#11142D"/>
<path d="M71.6817 209.094C73.6289 212.284 72.7962 215.666 72.335 219.022C71.6824 215.755 71.4627 212.417 71.6817 209.094Z" fill="#11142D"/>
<path d="M21.2969 127.066C22.3388 127.958 23.1875 129.053 23.7911 130.285C24.3947 131.516 24.7404 132.858 24.807 134.227C23.185 132.09 21.9929 129.658 21.2969 127.066Z" fill="#11142D"/>
<path d="M50.9938 48.3477C48.8965 49.8971 46.3633 50.7445 43.7559 50.7689C45.9612 49.4395 48.4325 48.6128 50.9938 48.3477Z" fill="#11142D"/>
<path d="M72.6292 225.848C73.2945 226.57 73.785 227.435 74.0627 228.377C74.3403 229.319 74.3977 230.312 74.2305 231.279C73.055 229.723 72.4858 227.793 72.6292 225.848Z" fill="#11142D"/>
<path d="M50.249 175.171C50.044 174.133 49.711 173.211 48.4043 173.198L48.6477 171.52H51.0433C51.2506 172.143 51.2863 172.812 51.1465 173.454C51.0068 174.096 50.6968 174.689 50.249 175.171Z" fill="#11142D"/>
<path d="M30.9424 234.212C28.8414 233.892 29.1745 232.726 29.6613 231.355C30.8399 231.522 30.6605 232.432 31.0192 232.957L30.9424 234.212Z" fill="#11142D"/>
<path d="M51.042 171.444H48.6465V169.805H51.0292L51.042 171.444Z" fill="#11142D"/>
<path d="M147.289 16.6293C147.107 16.9881 146.792 17.2615 146.412 17.3908C146.031 17.5201 145.614 17.4951 145.252 17.3211C145.472 17.0026 145.789 16.7635 146.156 16.6389C146.523 16.5144 146.92 16.511 147.289 16.6293Z" fill="#11142D"/>
<path d="M139.757 19.0744C139.665 19.2638 139.537 19.4331 139.379 19.5721C139.221 19.7112 139.037 19.8173 138.838 19.8841C138.639 19.951 138.428 19.9773 138.218 19.9614C138.009 19.9456 137.804 19.8879 137.617 19.7918C137.871 19.4836 138.206 19.2528 138.584 19.126C138.962 18.9991 139.369 18.9812 139.757 19.0744Z" fill="#11142D"/>
<path d="M169.233 20.0238C169.045 19.9673 168.871 19.8719 168.723 19.7437C168.574 19.6155 168.454 19.4573 168.371 19.2796C168.287 19.1019 168.242 18.9086 168.239 18.7124C168.235 18.5161 168.273 18.3213 168.349 18.1406C168.687 18.3094 168.958 18.587 169.118 18.9287C169.279 19.2704 169.319 19.6562 169.233 20.0238Z" fill="#11142D"/>
<path d="M17.1348 118.703C18.2237 119.011 18.4158 119.779 18.1468 120.753C17.8137 120.087 17.4678 119.382 17.1348 118.703Z" fill="#11142D"/>
<path d="M40.9368 51.6136C40.4243 52.6897 39.6557 52.6897 38.6309 52.3054C38.9403 52.0269 39.3075 51.8205 39.7062 51.7009C40.1049 51.5813 40.5252 51.5515 40.9368 51.6136Z" fill="#11142D"/>
<path d="M85.4902 245.051C85.7066 245.05 85.9206 245.096 86.1172 245.186C86.3139 245.276 86.4884 245.408 86.6287 245.573C86.769 245.738 86.8717 245.931 86.9295 246.14C86.9873 246.348 86.9989 246.567 86.9635 246.78C86.5901 246.643 86.2585 246.411 86.0005 246.108C85.7425 245.805 85.5668 245.441 85.4902 245.051Z" fill="#11142D"/>
<path d="M171.628 25.8762C171.266 25.7106 170.981 25.412 170.834 25.0424C170.686 24.6727 170.686 24.2603 170.834 23.8906C171.166 24.0878 171.425 24.3894 171.568 24.7485C171.712 25.1075 171.733 25.504 171.628 25.8762Z" fill="#11142D"/>
<path d="M132.237 21.5971C132.038 21.9655 131.706 22.2445 131.309 22.3777C130.912 22.5109 130.479 22.4883 130.098 22.3144C130.349 22.0038 130.684 21.7712 131.063 21.6442C131.442 21.5171 131.849 21.5008 132.237 21.5971Z" fill="#11142D"/>
<path d="M179.968 46.7953C179.786 46.715 179.622 46.5992 179.485 46.4549C179.348 46.3105 179.241 46.1404 179.171 45.9544C179.101 45.7684 179.068 45.5703 179.075 45.3715C179.082 45.1728 179.129 44.9775 179.212 44.7969C179.521 45.0178 179.759 45.3256 179.893 45.6814C180.028 46.0371 180.054 46.4248 179.968 46.7953Z" fill="#11142D"/>
<path d="M124.679 24.1075C124.485 24.471 124.161 24.748 123.771 24.8833C123.382 25.0186 122.956 25.0023 122.578 24.8377C122.809 24.5132 123.136 24.2686 123.512 24.1378C123.889 24.0069 124.296 23.9964 124.679 24.1075Z" fill="#11142D"/>
<path d="M13.8678 112C14.0634 112.056 14.2452 112.152 14.4019 112.282C14.5586 112.411 14.6867 112.572 14.7782 112.754C14.8697 112.936 14.9225 113.134 14.9334 113.338C14.9442 113.541 14.9129 113.744 14.8414 113.934C14.4998 113.751 14.2229 113.467 14.0487 113.121C13.8744 112.775 13.8113 112.383 13.8678 112Z" fill="#11142D"/>
<path d="M168.376 18.1795L167.467 17.2188C167.714 17.2287 167.947 17.3348 168.117 17.5142C168.287 17.6937 168.38 17.9324 168.376 18.1795Z" fill="#11142D"/>
<path d="M50.9023 156.174C51.1329 155.777 51.4148 155.7 51.7606 156.058L50.9023 156.174Z" fill="#D8E8FB"/>
<path d="M137.208 19.9453C137.054 20.4577 136.836 20.7139 136.375 20.1887L137.208 19.9453Z" fill="#11142D"/>
<path d="M55.5526 156.507L55.4375 156.379L55.5142 156.507H55.5526Z" fill="#D8E8FB"/>
<path d="M228.482 197.434L232.261 198.805C228.828 211.244 230.43 215.856 239.653 220.276C245.777 235.648 251.904 250.987 258.036 266.291L252.476 269.135C248.902 262.063 245.443 255.261 241.985 248.446C235.772 234.213 228.598 220.455 221.488 206.351L112.598 250.38C112.598 251.405 112.496 251.661 112.598 251.943C120.49 267.264 128.385 282.586 136.285 297.907L136.733 298.791L143.344 312.447L128.112 318.647L73.6802 205.748C74.0132 198.203 71.8867 190.914 71.8867 183.215C74.8844 189.714 77.8735 196.213 80.8541 202.712C81.3793 203.852 81.9686 204.967 82.3913 206.146C83.429 208.925 85.0687 209.476 87.9383 208.451C125.96 194.727 163.999 181.063 202.054 167.458C203.476 166.945 204.847 166.318 206.717 165.562L150.069 40.4032L28.1004 90.0952L58.0257 153.981C54.8743 153.272 51.6248 153.108 48.4179 153.494C37.4393 131.806 26.9731 109.836 16.6094 87.8405C18.8128 87.8405 20.4525 86.4186 22.4253 85.6756C66.4337 68.8084 110.416 51.9113 154.374 34.9844C154.976 38.0589 156.449 40.4288 159.754 41.1078C163.277 41.8252 165.532 39.9036 167.351 37.2646C167.914 38.3663 168.568 39.4424 169.029 40.5826C175.007 55.7331 180.985 70.8879 186.963 86.047C185.452 87.4178 186.259 88.6988 186.963 90.1208C190.499 97.1665 193.958 104.212 197.442 111.335C199.723 119.021 203.041 126.426 206.013 133.894C207.063 136.533 207.14 139.736 209.856 141.581C209.702 145.039 209.356 148.511 209.42 151.957C209.587 159.643 212.444 166.049 219.541 169.892C222.897 171.724 222.756 174.76 222.346 177.847C221.757 182.241 220.783 186.622 222.513 190.991C222.871 192.487 223.609 193.865 224.654 194.994C225.7 196.122 227.018 196.963 228.482 197.434ZM97.3796 219.392L101.223 226.015L152.849 204.006C149.723 197.691 149.698 197.601 144.087 199.894C133.223 204.25 122.309 208.541 111.548 213.089C107.013 215.023 102.119 216.291 97.3796 219.392Z" fill="#D8E8FB"/>
<path d="M239.974 249.687L242.203 254.35L242.69 255.234L243.484 257.105C243.381 257.341 243.317 257.591 243.292 257.847C241.776 258.008 240.247 258.008 238.731 257.847C225.165 255.08 215.673 259.936 210.241 272.721C209.19 275.18 207.551 275.705 204.873 275.026C194.276 272.144 183.442 270.215 172.501 269.262C163.944 268.672 157.129 270.965 151.633 277.87C147.162 283.507 143.69 289.976 138.054 294.665C131.648 282.354 125.089 270.056 118.723 257.694C117.8 255.913 116.225 254.337 116.327 251.827L220.092 209.859C221.373 212.293 222.385 214.381 223.436 216.482L239.974 249.687ZM140.616 255.875C137.554 256.208 135.12 257.489 135.184 260.653C135.189 261.328 135.335 261.995 135.614 262.609C135.893 263.224 136.298 263.773 136.803 264.222C137.308 264.67 137.902 265.007 138.545 265.211C139.189 265.415 139.868 265.481 140.539 265.406C143.101 265.342 145.522 264.125 145.509 260.896C145.497 257.668 143.434 256.323 140.616 255.875Z" fill="#00DAB3"/>
<path d="M219.015 281.857C208.498 286.982 197.468 290.709 186.669 295.091C173.32 300.522 159.921 305.839 145.944 311.45L139.539 298.011C140.948 296.32 142.383 294.617 143.779 292.887C147.994 287.763 151.466 281.947 156.18 277.194C158.806 274.483 162.275 272.744 166.018 272.262C172.078 271.391 177.971 272.48 183.825 273.543C195.687 275.529 207.588 277.72 219.015 281.857Z" fill="#00DAB3"/>
<path d="M239.973 249.689L223.409 216.459C222.359 214.358 221.295 212.27 220.065 209.836L116.3 251.803C116.198 254.365 117.774 255.89 118.696 257.67C125.101 270.033 131.57 282.331 138.027 294.629V296.179L136.285 297.908C128.385 282.587 120.489 267.266 112.598 251.944C112.483 251.726 112.598 251.406 112.598 250.381L221.487 206.352C228.649 220.443 235.822 234.214 241.984 248.447C241.563 248.43 241.147 248.539 240.789 248.761C240.43 248.982 240.146 249.306 239.973 249.689Z" fill="#11142D"/>
<path d="M248.134 270.853L222.923 280.32C219.759 277.668 215.236 278.475 211.637 276.131C213.469 273.044 215.224 270.11 216.953 267.164C219.899 262.04 224.409 260.016 230.161 260.08C233.769 260.067 237.372 260.349 240.934 260.925C242.215 261.156 243.612 261.873 244.944 260.925C246.225 263.205 247.506 265.486 248.89 267.753C249.068 268.289 249.092 268.864 248.959 269.412C248.825 269.96 248.539 270.46 248.134 270.853Z" fill="#00DAB3"/>
<path d="M244.968 260.913C243.687 261.861 242.278 261.143 240.959 260.913C237.397 260.337 233.793 260.054 230.185 260.067C224.433 260.067 219.937 262.066 216.977 267.152C215.248 270.111 213.493 273.044 211.661 276.119C215.299 278.463 219.783 277.656 222.947 280.308C221.869 281.277 220.477 281.824 219.027 281.845C207.613 277.707 195.712 275.517 183.811 273.48C177.957 272.481 172.064 271.392 166.004 272.199C162.261 272.68 158.792 274.42 156.166 277.131C151.413 281.884 147.98 287.661 143.765 292.824C142.369 294.54 140.934 296.244 139.525 297.948C139.025 297.346 138.539 296.731 138.039 296.116V294.566C143.676 289.89 147.147 283.421 151.618 277.784C157.114 270.879 163.929 268.586 172.487 269.176C183.427 270.129 194.261 272.058 204.859 274.94C207.536 275.619 209.176 275.094 210.226 272.634C215.645 259.824 225.151 254.994 238.717 257.761C240.233 257.922 241.761 257.922 243.277 257.761L243.521 257.569C243.892 258.786 245.096 259.555 244.968 260.913Z" fill="#FAFAFC"/>
<path d="M258.035 266.293C251.912 250.92 245.784 235.582 239.652 220.277H244.969C248.812 229.667 252.732 239.122 256.588 248.589C258.368 252.944 260.047 257.351 261.827 261.719C262.301 262.885 262.903 263.987 262.109 265.229L258.035 266.293Z" fill="#FAFAFC"/>
<path d="M248.133 270.851C248.54 270.457 248.828 269.955 248.961 269.404C249.095 268.853 249.07 268.276 248.889 267.738C249.32 267.934 249.673 268.269 249.892 268.689C250.11 269.11 250.181 269.591 250.093 270.057C249.824 271.056 248.965 271.018 248.133 270.851Z" fill="#11142D"/>
<path d="M136.734 298.806L136.285 297.922L137.284 298.165L136.734 298.806Z" fill="#11142D"/>
<path d="M243.534 257.656L243.291 257.848C243.316 257.592 243.38 257.341 243.483 257.105C243.55 257.179 243.591 257.273 243.601 257.372C243.61 257.472 243.587 257.571 243.534 257.656Z" fill="#11142D"/>
<path d="M186.964 86.0099C180.985 70.8508 175.007 55.696 169.029 40.5454C168.568 39.4053 167.914 38.3292 167.351 37.2403C167.415 33.5509 166.147 30.6941 162.227 29.9383C158.102 29.1313 155.821 31.4243 154.387 34.9857C110.395 51.887 66.4125 68.7841 22.4383 85.6769C20.5039 86.4199 18.8258 87.8418 16.6223 87.8418C15.2516 85.2797 13.8681 82.7176 12.1387 79.5534L166.505 20.0742L179.815 52.6385C184.594 66.8838 190.538 80.6807 195.995 94.657C199.275 103.048 202.785 111.311 206.243 119.689C207.281 124.608 210.368 128.797 211.24 133.78C209.959 136.227 210.689 139.02 209.869 141.556C207.191 139.699 207.115 136.496 206.026 133.87C203.054 126.401 199.736 119.048 197.455 111.311C199.877 111.554 200.082 110.465 199.159 108.569C195.863 101.805 192.587 95.0328 189.334 88.2517C189.114 87.7349 188.791 87.269 188.383 86.8832C187.975 86.4974 187.492 86.2001 186.964 86.0099Z" fill="#FAFAFC"/>
<path d="M48.6853 169.816V171.455L48.4419 173.133C47.9099 174.697 47.0375 176.122 45.8878 177.307C44.738 178.493 43.3395 179.408 41.7932 179.987C40.2304 179.859 39.1543 179.487 39.6795 177.425C40.2688 175.196 40.5891 172.877 41.0246 170.61C41.9598 167.92 42.8565 165.217 43.8429 162.552C44.3169 161.271 44.7653 159.759 46.6997 160.835C47.3274 163.859 48.0063 166.831 48.6853 169.816Z" fill="#FAFAFC"/>
<path d="M48.5078 54.662L83.852 40.6602L84.6078 42.5305C73.1424 47.9621 61.1518 52.0743 49.4174 56.8527L48.5078 54.662Z" fill="#FAFAFC"/>
<path d="M66.4553 137.918C65.3279 143.042 68.7355 147.333 74.4234 148.307C76.9855 148.743 79.3939 147.82 82.2762 147.974C87.3236 159.606 92.3965 171.315 97.6489 183.28C92.2428 187.917 86.7983 192.414 82.4684 199.139L32.0078 91.5309L148.583 44.0039L203.054 164.32L183.838 171.251C182.672 170.149 183.505 169.175 183.39 168.253C185.695 161.848 184.671 159.029 179.969 154.712C176.984 151.971 174.691 148.512 171.77 145.604C169.772 143.606 168.478 140.851 165.762 139.481C164.481 138.815 164.481 137.546 164.11 136.316C162.829 131.577 160.587 127.797 155.142 127.221C153.131 127.016 152.901 125.415 152.363 124.031C147.764 112.092 143.216 100.14 138.553 88.2386C137.272 84.9207 135.991 81.4747 132.826 79.2713C132.191 78.2091 131.822 77.0094 131.75 75.774C131.917 70.1246 128.906 66.6785 123.321 65.8715C119.131 65.4222 114.902 66.234 111.177 68.203C106.713 70.1166 102.093 71.6424 97.367 72.7635C87.5029 75.4409 77.9847 79.0022 70.1191 85.8559C60.6265 94.1186 58.1156 103.791 62.279 115.576C64.2786 121.434 66.6579 127.155 69.4017 132.704C68.5434 134.702 66.4937 135.74 66.4553 137.918Z" fill="#00DAB3"/>
<path d="M129.676 80.6797C133.519 81.6917 134.211 85.3684 135.402 88.2763C140.091 99.7418 144.472 111.335 148.955 122.865C151.432 129.371 152.955 136.202 153.478 143.144C154.233 152.201 149.827 158.593 143.063 163.781C141.825 164.802 140.314 165.434 138.718 165.598C137.123 165.763 135.514 165.451 134.095 164.704C129.613 162.455 124.884 160.736 120.004 159.58C117.109 158.99 114.213 158.939 112.715 162.001C111.369 164.742 113.765 166.369 115.354 167.971C116.83 169.625 118.56 171.035 120.478 172.147C125.935 174.888 128.625 180.025 131.905 184.637C133.673 187.199 133.122 189.21 129.97 190.53C123.808 193.092 117.877 195.129 111.549 190.594C106.425 186.904 100.621 184.394 98.1106 177.604C94.4084 167.561 89.7197 157.876 85.6075 147.986C84.4418 145.181 83.2248 144.245 79.9709 145.142C73.1557 147.013 69.1076 144.233 68.7617 138.135L69.3126 137.11C72.6689 131.986 79.0614 131.781 83.6603 128.796C82.1231 124.825 80.6755 121.353 79.4201 117.817C77.8444 113.334 76.4608 108.85 77.1398 103.931C77.9084 98.5248 80.6242 96.4623 86.0175 96.885C87.8238 97.0629 89.6457 97.0026 91.4363 96.7056C101.877 94.7328 112.1 92.0042 121.618 87.149C124.756 85.5989 127.716 83.767 129.676 80.6797ZM126.832 126.49C128.432 127.025 130.179 126.906 131.693 126.16C133.206 125.414 134.364 124.101 134.915 122.506C135.761 119.188 133.634 117.638 125.704 116.024C123.578 113.334 124.551 109.004 120.58 106.288C119.632 110.413 121.861 113.193 122.476 116.242C122.495 116.731 122.624 117.21 122.854 117.642C123.085 118.074 123.41 118.449 123.806 118.737C124.201 119.026 124.657 119.221 125.139 119.308C125.621 119.395 126.117 119.371 126.588 119.239C128.689 118.983 130.752 119.15 132.046 121.135C131.994 124.594 127.793 123.928 126.832 126.49ZM132.814 108.683C132.43 106.967 132.174 104.956 129.893 104.84C129.513 104.803 129.129 104.857 128.774 104.999C128.419 105.14 128.103 105.364 127.852 105.653C127.602 105.941 127.423 106.285 127.333 106.656C127.242 107.028 127.242 107.415 127.331 107.787C127.511 109.619 127.972 111.489 130.355 111.451C131.93 111.463 132.725 110.349 132.814 108.722V108.683ZM100.314 116.05C98.7255 116.383 97.4444 117.177 97.8288 119.086C98.1746 120.802 98.5077 122.929 100.993 122.685C101.346 122.686 101.694 122.609 102.013 122.459C102.332 122.309 102.614 122.09 102.838 121.818C103.062 121.546 103.224 121.228 103.31 120.886C103.396 120.544 103.406 120.187 103.337 119.841C103.12 118.099 102.902 116.242 100.314 116.088V116.05ZM133.621 141.581C130.303 142.362 127.613 140.799 124.334 140.735C126.755 145.309 130.957 145.706 133.609 141.619L133.621 141.581ZM101.595 112.232C98.2643 110.823 96.1121 112.732 93.0376 115.23C97.4188 116.383 99.2763 113.68 101.608 112.27L101.595 112.232ZM126.883 94.4638C123.463 93.5671 120.836 95.4758 120.849 99.05C123.333 98.2711 125.468 96.6489 126.883 94.4638Z" fill="#FAFAFC"/>
<path d="M129.675 80.6789C127.754 83.7663 124.795 85.5982 121.669 87.1995C112.151 92.0547 101.928 94.7833 91.4873 96.7562C89.6967 97.0531 87.8748 97.1134 86.0685 96.9355C80.6752 96.5127 77.9594 98.5752 77.1908 103.981C76.5118 108.836 77.8953 113.384 79.471 117.868C80.7521 121.404 82.174 124.875 83.7113 128.846C79.1123 131.831 72.7199 132.049 69.3635 137.16L68.8127 138.185L66.5068 137.878C66.5068 135.7 68.5949 134.662 69.4148 132.664C66.671 127.116 64.2917 121.394 62.2921 115.536C58.1287 103.699 60.6396 94.0787 70.1322 85.816C77.9978 78.9623 87.516 75.401 97.3801 72.7236C102.106 71.6025 106.726 70.0767 111.19 68.1631C114.916 66.1942 119.144 65.3823 123.334 65.8316C128.92 66.6386 131.93 70.0847 131.764 75.7341C131.835 76.9695 132.205 78.1692 132.84 79.2313C131.661 79.5644 130.137 78.9751 129.675 80.6789Z" fill="#11142D"/>
<path d="M181.019 167.997C179.738 172.109 176.766 173.915 172.782 175.26C161.034 179.231 149.441 183.638 137.783 187.853C137.306 187.982 136.817 188.06 136.323 188.083C136.047 187.948 135.823 187.725 135.686 187.45C135.549 187.174 135.507 186.861 135.567 186.559C136.63 178.77 136.618 178.809 129.93 175.03C125.719 172.849 121.743 170.238 118.068 167.241C116.787 166.152 115.506 165.114 115.186 163.218C117.299 160.861 119.746 162.193 121.783 162.834C126.036 164.115 130.161 165.883 134.26 167.625C135.459 168.224 136.786 168.52 138.126 168.489C139.465 168.458 140.777 168.1 141.947 167.446C150.517 162.475 156.294 155.583 156.512 145.155C156.628 140.147 155.475 135.279 154.309 130.039C158.869 130.039 160.125 133.05 160.996 136.034C163.007 142.837 162.277 149.844 162.098 156.787C162.098 158.004 161.483 159.247 162.264 160.413C164.98 160.08 165.006 160.08 165.211 152.727C165.3 149.46 165.211 146.168 165.211 142.158C170.706 146.18 169.271 151.599 169.707 156.442C169.348 158.747 168.157 161.028 169.336 164C172.73 162.027 171.705 158.876 172.09 156.313C173.179 154.584 171.782 152.47 173.115 150.203C178.405 156.16 174.498 162.411 174.127 168.496C177.97 168.676 177.265 165.665 177.842 163.948C178.37 161.846 178.725 159.704 178.905 157.543C182.748 160.003 181.108 163.449 181.467 166.344L181.019 167.997Z" fill="#FAFAFC"/>
<path d="M99.3519 185.496C104.375 189.578 109.92 192.972 115.839 195.591L86.2468 206.121C83.4413 203.969 84.3636 201.676 85.7087 199.434C89.0779 193.836 93.9459 189.698 99.3519 185.496Z" fill="#FAFAFC"/>
<path d="M172.064 156.352C171.68 158.914 172.705 162.014 169.31 164.038C168.131 161.066 169.31 158.786 169.681 156.48L172.064 156.352Z" fill="#11142D"/>
<path d="M181.02 167.995L181.429 166.406C182.711 166.406 183.172 167.111 183.364 168.213L181.02 167.995Z" fill="#11142D"/>
<path d="M206.973 114.562C202.234 102.687 197.916 91.8747 193.574 81.0627C193.365 80.5486 193.29 79.9902 193.355 79.4393C193.42 78.8883 193.623 78.3627 193.945 77.9112C199.069 69.2513 204.334 60.758 211.56 53.661C214.007 51.1692 216.919 49.1803 220.13 47.8066C225.254 45.7312 229.546 47.5247 231.659 52.6489C233.927 58.0934 232.377 63.3842 230.647 68.534C226.445 81.0114 219.656 92.2334 213.276 103.648C211.419 107.017 209.433 110.322 206.973 114.562Z" fill="#FAFAFC"/>
<path d="M208.524 119.521C207.858 116.639 210.189 114.961 211.304 112.821C212.892 109.76 214.737 106.826 216.428 104.008C228.713 105.289 237.245 113.295 239.346 125.286C241.447 137.277 238.782 148.729 233.953 159.798C228.918 160.105 224.178 160.31 221.847 154.763C219.823 149.998 221.962 145.616 223.679 141.171C220.335 140.992 218.439 144.169 218.119 149.613C217.632 157.748 221.962 161.847 231.993 162.731C228.88 169.136 223.384 170.417 218.234 165.895C213.699 161.911 212.213 156.633 212.47 150.817C212.726 145.001 213.161 139.467 213.52 133.792L214.161 129.578C214.699 128.719 214.686 128.053 213.494 127.861C210.138 126.067 210.535 122.083 208.524 119.521Z" fill="#FAFAFC"/>
<path d="M249.683 157.234V166.419C248.3 172.492 247.288 178.679 244.418 184.354C243.776 186.103 242.752 187.688 241.42 188.991C234.272 186.75 232.453 181.907 235.015 175.092C231.364 174.592 231.326 176.975 231.082 178.692C230.147 185.328 234.144 188.94 239.832 191.502C238.863 193.119 237.415 194.393 235.688 195.148C233.962 195.903 232.043 196.102 230.198 195.717C228.195 194.805 226.477 193.366 225.228 191.554L224.536 189.389C224.536 189.26 224.703 189.12 224.677 189.004C224.613 188.747 224.532 188.494 224.434 188.248C224.626 185.353 224.651 182.432 225.049 179.563C225.689 175.066 226.739 171.236 231.082 168.033C237.488 163.306 239.038 155.287 241.139 147.921C241.497 146.64 241.138 145.128 242.573 143.898C247.685 146.883 248.095 152.392 249.683 157.234Z" fill="#FAFAFC"/>
<path d="M208.523 119.523C210.534 122.086 210.137 126.07 213.455 127.863C213.374 128.183 213.395 128.52 213.514 128.828C213.633 129.135 213.846 129.398 214.121 129.58L213.481 133.794H211.187C210.316 128.811 207.229 124.622 206.191 119.703L208.523 119.523Z" fill="#11142D"/>
<path d="M224.473 188.239C224.572 188.485 224.653 188.738 224.717 188.995C224.717 189.11 224.627 189.251 224.576 189.379C224.389 189.759 224.357 190.197 224.486 190.601C224.615 191.004 224.895 191.342 225.268 191.544C226.517 193.356 228.235 194.795 230.238 195.707C230.238 196.86 229.572 197.322 228.547 197.437C227.073 196.968 225.745 196.126 224.692 194.993C223.639 193.859 222.897 192.473 222.539 190.968C222.77 189.802 222.424 188.201 224.473 188.239Z" fill="#11142D"/>
<path d="M247.608 211.387L249.568 212.168C247.301 214.961 245.456 217.971 241.369 217.549C237.283 217.126 234.887 214.628 233.683 210.823C233.022 208.204 233.134 205.449 234.004 202.891C234.875 200.334 236.467 198.083 238.59 196.411C244.995 191.287 247.992 184.177 250.209 176.606C250.478 175.697 250.298 174.633 251.49 173.801C253.77 175.517 254.359 178.284 255.23 180.731C258.215 189.161 257.28 197.385 253.744 205.52C252.527 208.325 250.849 209.773 247.736 209.145C245.78 208.581 244.062 207.394 242.843 205.763C241.293 202.727 244.277 200.28 244.303 197.321C239.948 198.179 238.602 201.42 240.37 205.981C240.881 207.512 241.849 208.851 243.142 209.818C244.436 210.784 245.994 211.331 247.608 211.387Z" fill="#FAFAFC"/>
<path d="M247.608 211.386C245.996 211.328 244.441 210.779 243.15 209.813C241.859 208.847 240.893 207.509 240.383 205.979L242.855 205.762C244.074 207.392 245.793 208.58 247.749 209.144C247.698 209.899 247.659 210.643 247.608 211.386Z" fill="#11142D"/>
<path d="M97.3789 219.394C102.119 216.294 107.012 215.026 111.586 213.091C122.359 208.543 133.261 204.252 144.124 199.896C149.735 197.655 149.761 197.693 152.887 204.009L101.261 226.017L97.3789 219.394Z" fill="#00DAB3"/>
<path d="M154.412 34.9866C155.808 31.4252 158.127 29.1322 162.252 29.9392C166.185 30.695 167.453 33.5518 167.376 37.2412C165.557 39.9058 163.303 41.8273 159.78 41.0843C156.487 40.431 155.014 38.0995 154.412 34.9866Z" fill="#11142D"/>
<path d="M186.963 86.0078C187.487 86.1981 187.967 86.4942 188.373 86.8776C188.778 87.261 189.1 87.7237 189.32 88.2369C192.574 95.0179 195.849 101.79 199.145 108.554C200.068 110.45 199.863 111.539 197.441 111.296C193.957 104.224 190.498 97.1273 186.963 90.0815C186.258 88.6596 185.451 87.3785 186.963 86.0078Z" fill="#11142D"/>
<path d="M140.615 255.875C143.433 256.298 145.508 257.656 145.508 260.897C145.508 264.138 143.113 265.342 140.538 265.406C139.867 265.481 139.188 265.415 138.544 265.211C137.9 265.007 137.307 264.67 136.802 264.222C136.297 263.774 135.892 263.225 135.613 262.61C135.334 261.995 135.188 261.328 135.183 260.653C135.119 257.515 137.553 256.234 140.615 255.875Z" fill="#FAFAFC"/>
<path d="M126.831 126.491C127.791 123.929 131.955 124.557 132.07 121.136C130.789 119.151 128.714 118.984 126.613 119.24C126.141 119.372 125.646 119.396 125.164 119.309C124.682 119.222 124.226 119.027 123.83 118.738C123.434 118.45 123.109 118.075 122.879 117.643C122.649 117.211 122.519 116.732 122.501 116.243C121.911 113.194 119.657 110.414 120.605 106.289C124.55 109.005 123.577 113.335 125.729 116.025C133.595 117.639 135.785 119.189 134.94 122.507C134.389 124.108 133.227 125.426 131.707 126.172C130.188 126.919 128.434 127.034 126.831 126.491Z" fill="#11142D"/>
<path d="M132.812 108.723C132.722 110.35 131.928 111.464 130.327 111.477C127.944 111.477 127.483 109.645 127.303 107.813C127.214 107.442 127.214 107.054 127.305 106.683C127.395 106.312 127.573 105.968 127.824 105.679C128.075 105.391 128.391 105.167 128.746 105.025C129.101 104.884 129.485 104.83 129.865 104.867C132.235 104.995 132.427 107.006 132.812 108.723Z" fill="#11142D"/>
<path d="M100.312 116.09C102.874 116.18 103.117 118.101 103.335 119.933C103.403 120.279 103.394 120.636 103.308 120.977C103.221 121.319 103.06 121.638 102.836 121.91C102.612 122.182 102.33 122.401 102.011 122.551C101.692 122.701 101.343 122.778 100.991 122.777C98.5055 122.969 98.1725 120.894 97.8266 119.177C97.4423 117.217 98.7233 116.423 100.312 116.09Z" fill="#11142D"/>
<path d="M133.606 141.619C130.941 145.757 126.752 145.308 124.318 140.773C127.598 140.837 130.288 142.4 133.606 141.619Z" fill="#11142D"/>
<path d="M101.606 112.272C99.2747 113.668 97.4172 116.384 93.0488 115.27C96.1233 112.772 98.2755 110.863 101.606 112.272Z" fill="#11142D"/>
<path d="M126.881 94.4659C125.466 96.651 123.332 98.2731 120.848 99.052C120.835 95.5163 123.461 93.6076 126.881 94.4659Z" fill="#11142D"/>
<path d="M214.121 129.576C213.845 129.394 213.633 129.132 213.514 128.824C213.394 128.516 213.374 128.179 213.455 127.859C214.646 128.052 214.659 128.718 214.121 129.576Z" fill="#11142D"/>
<path d="M225.203 191.544C224.831 191.342 224.551 191.004 224.422 190.601C224.293 190.197 224.325 189.759 224.512 189.379L225.203 191.544Z" fill="#11142D"/>
<path d="M242.855 205.762L240.382 205.98C238.614 201.42 239.96 198.179 244.315 197.32C244.289 200.28 241.305 202.726 242.855 205.762Z" fill="#11142D"/>
</svg>
