<svg width="11" height="18" viewBox="0 0 11 18" fill="none" xmlns="http://www.w3.org/2000/svg">
<path d="M2.48163 17.6438L10.2466 9.66491C10.3388 9.56992 10.4039 9.46702 10.442 9.3562C10.4807 9.24538 10.5001 9.12665 10.5001 9C10.5001 8.87335 10.4807 8.75462 10.442 8.6438C10.4039 8.53298 10.3388 8.43008 10.2466 8.33509L2.48163 0.332454C2.26657 0.110818 1.99776 0 1.67518 0C1.3526 0 1.0761 0.118734 0.845683 0.356201C0.615268 0.593668 0.500061 0.870712 0.500061 1.18734C0.500061 1.50396 0.615268 1.781 0.845683 2.01847L7.61988 9L0.845683 15.9815C0.63063 16.2032 0.523102 16.4761 0.523102 16.8003C0.523102 17.1252 0.638309 17.4063 0.868724 17.6438C1.09914 17.8813 1.36796 18 1.67518 18C1.9824 18 2.25121 17.8813 2.48163 17.6438Z" fill="#11142D"/>
</svg>
