<svg width="25" height="24" viewBox="0 0 25 24" fill="none" xmlns="http://www.w3.org/2000/svg">
<path d="M15.5184 20.6438L7.7534 12.6649C7.66123 12.5699 7.5961 12.467 7.558 12.3562C7.51929 12.2454 7.49994 12.1266 7.49994 12C7.49994 11.8734 7.51929 11.7546 7.558 11.6438C7.5961 11.533 7.66123 11.4301 7.7534 11.3351L15.5184 3.33245C15.7334 3.11082 16.0022 3 16.3248 3C16.6474 3 16.9239 3.11873 17.1543 3.3562C17.3847 3.59367 17.4999 3.87071 17.4999 4.18734C17.4999 4.50396 17.3847 4.781 17.1543 5.01847L10.3801 12L17.1543 18.9815C17.3694 19.2032 17.4769 19.4761 17.4769 19.8003C17.4769 20.1252 17.3617 20.4063 17.1313 20.6438C16.9009 20.8813 16.632 21 16.3248 21C16.0176 21 15.7488 20.8813 15.5184 20.6438Z" fill="#11142D"/>
</svg>
