<svg width="36" height="36" viewBox="0 0 36 36" fill="none" xmlns="http://www.w3.org/2000/svg">
<path fill-rule="evenodd" clip-rule="evenodd" d="M21.6403 5.52186C18.9415 4.73322 16.0598 4.8408 13.4273 5.8285C10.7948 6.81619 8.55348 8.63074 7.0395 11C6.74212 11.4654 6.12377 11.6016 5.65839 11.3042C5.19301 11.0068 5.05682 10.3885 5.3542 9.92308C7.1011 7.18932 9.68723 5.0956 12.7247 3.95596C15.7622 2.81631 19.0873 2.69217 22.2013 3.60215C25.3153 4.51213 28.0504 6.40718 29.9963 9.00307C31.9421 11.599 32.9939 14.7558 32.994 18C32.994 21.2442 31.9421 24.401 29.9963 26.9969C28.0504 29.5928 25.3153 31.4879 22.2013 32.3979C19.0873 33.3078 15.7622 33.1837 12.7247 32.044C9.68723 30.9044 7.1011 28.8107 5.3542 26.0769C5.05682 25.6115 5.19301 24.9932 5.65839 24.6958C6.12377 24.3984 6.74212 24.5346 7.0395 25C8.55348 27.3693 10.7948 29.1838 13.4273 30.1715C16.0598 31.1592 18.9415 31.2668 21.6403 30.4781C24.3391 29.6895 26.7095 28.0471 28.3959 25.7973C30.0824 23.5476 30.994 20.8117 30.994 18C30.9939 15.1883 30.0824 12.4524 28.3959 10.2027C26.7095 7.95289 24.3391 6.31051 21.6403 5.52186ZM16.216 12.9853C16.6065 12.5948 17.2396 12.5948 17.6302 12.9853L21.9379 17.2929C22.1254 17.4804 22.2308 17.7348 22.2308 18C22.2308 18.2652 22.1254 18.5196 21.9379 18.7071L17.6302 23.0149C17.2397 23.4054 16.6065 23.4054 16.216 23.0149C15.8254 22.6244 15.8254 21.9912 16.216 21.6007L18.8166 19L4 19C3.44772 19 3 18.5523 3 18C3 17.4477 3.44772 17 4 17L18.8165 17L16.216 14.3995C15.8254 14.009 15.8254 13.3758 16.216 12.9853Z" fill="#409B89"/>
</svg>
