<svg width="36" height="36" viewBox="0 0 36 36" fill="none" xmlns="http://www.w3.org/2000/svg">
<path fill-rule="evenodd" clip-rule="evenodd" d="M14.8725 2.64229C18.1941 1.67165 21.7409 1.80407 24.9809 3.01969C28.2209 4.23531 30.9794 6.46861 32.8428 9.38462C33.1401 9.85 33.0039 10.4683 32.5386 10.7657C32.0732 11.0631 31.4548 10.9269 31.1574 10.4615C29.527 7.91003 27.1133 5.9559 24.2783 4.89223C21.4433 3.82856 18.3399 3.71269 15.4335 4.56201C12.5271 5.41132 9.97436 7.18003 8.1582 9.60286C6.34205 12.0257 5.36035 14.972 5.36035 18C5.36035 21.028 6.34205 23.9743 8.1582 26.3971C9.97436 28.82 12.5271 30.5887 15.4335 31.438C18.3399 32.2873 21.4433 32.1714 24.2783 31.1078C27.1133 30.0441 29.527 28.09 31.1574 25.5385C31.4548 25.0731 32.0732 24.9369 32.5386 25.2343C33.0039 25.5317 33.1401 26.15 32.8427 26.6154C30.9794 29.5314 28.2208 31.7647 24.9809 32.9803C21.7409 34.1959 18.1941 34.3284 14.8725 33.3577C11.5509 32.3871 8.6335 30.3657 6.5579 27.5967C4.48229 24.8278 3.36035 21.4605 3.36035 18C3.36035 14.5395 4.48229 11.1722 6.5579 8.40327C8.63351 5.63432 11.5509 3.61294 14.8725 2.64229ZM25.9369 12.6777C26.3274 12.2872 26.9606 12.2872 27.3511 12.6777L31.9665 17.293C32.357 17.6835 32.357 18.3167 31.9665 18.7072L27.3511 23.3227C26.9606 23.7132 26.3274 23.7132 25.9369 23.3227C25.5464 22.9322 25.5463 22.299 25.9369 21.9085L28.8452 19.0001L12.7978 19.0001C12.2455 19.0001 11.7978 18.5524 11.7978 18.0001C11.7978 17.4478 12.2455 17.0001 12.7978 17.0001L28.8451 17.0001L25.9369 14.0919C25.5464 13.7014 25.5463 13.0683 25.9369 12.6777Z" fill="#409B89"/>
</svg>
