<svg width="24" height="24" viewBox="0 0 24 24" fill="none" xmlns="http://www.w3.org/2000/svg">
<path fill-rule="evenodd" clip-rule="evenodd" d="M9.54414 1.6336C11.7862 0.978412 14.1803 1.06779 16.3673 1.88834C18.5543 2.70888 20.4163 4.21636 21.6741 6.18467C21.912 6.55697 21.803 7.05165 21.4307 7.28955C21.0584 7.52746 20.5637 7.41851 20.3258 7.0462C19.2544 5.3695 17.6682 4.08535 15.8052 3.38637C13.9422 2.68739 11.9028 2.61125 9.99292 3.16937C8.083 3.72749 6.4055 4.88978 5.21203 6.48193C4.01855 8.07408 3.37344 10.0102 3.37344 12C3.37344 13.9899 4.01855 15.926 5.21203 17.5182C6.4055 19.1103 8.083 20.2726 9.99292 20.8307C11.9028 21.3888 13.9422 21.3127 15.8052 20.6137C17.6682 19.9147 19.2544 18.6306 20.3258 16.9539C20.5637 16.5816 21.0584 16.4726 21.4307 16.7105C21.803 16.9485 21.912 17.4431 21.6741 17.8154C20.4163 19.7837 18.5543 21.2912 16.3673 22.1118C14.1803 22.9323 11.7862 23.0217 9.54414 22.3665C7.30205 21.7113 5.33282 20.3469 3.93178 18.4778C2.53075 16.6088 1.77344 14.3359 1.77344 12C1.77344 9.66419 2.53075 7.3913 3.93178 5.52226C5.33282 3.65322 7.30205 2.28878 9.54414 1.6336ZM16.8635 8.35759C17.1759 8.04517 17.6824 8.04516 17.9949 8.35758L21.0718 11.4344C21.2218 11.5845 21.3061 11.7879 21.3061 12.0001C21.3061 12.2123 21.2218 12.4158 21.0718 12.5658L17.9949 15.6428C17.6825 15.9552 17.1759 15.9552 16.8635 15.6428C16.5511 15.3304 16.5511 14.8239 16.8635 14.5114L18.5748 12.8001L8.19842 12.8001C7.75659 12.8001 7.39842 12.442 7.39842 12.0001C7.39842 11.5583 7.75659 11.2001 8.19842 11.2001L18.5747 11.2001L16.8635 9.48896C16.5511 9.17654 16.5511 8.67001 16.8635 8.35759Z" fill="#409B89"/>
</svg>
