<svg width="25" height="25" viewBox="0 0 25 25" fill="none" xmlns="http://www.w3.org/2000/svg">
<path fill-rule="evenodd" clip-rule="evenodd" d="M12.3 4.5C12.7418 4.5 13.1 4.85817 13.1 5.3V19.3C13.1 19.7418 12.7418 20.1 12.3 20.1C11.8582 20.1 11.5 19.7418 11.5 19.3V5.3C11.5 4.85817 11.8582 4.5 12.3 4.5Z" fill="white"/>
<path fill-rule="evenodd" clip-rule="evenodd" d="M4.5 12.3C4.5 11.8582 4.85817 11.5 5.3 11.5L19.3 11.5C19.7418 11.5 20.1 11.8582 20.1 12.3C20.1 12.7418 19.7418 13.1 19.3 13.1L5.3 13.1C4.85817 13.1 4.5 12.7418 4.5 12.3Z" fill="white"/>
</svg>
