<svg width="36" height="36" viewBox="0 0 36 36" fill="none" xmlns="http://www.w3.org/2000/svg">
<path d="M15.7058 20.8783H17.1496L16.4254 19.1942L15.7058 20.8783Z" fill="#C91C2E"/>
<path fill-rule="evenodd" clip-rule="evenodd" d="M10.1285 0H25.8715C33.2875 0 36 2.71251 36 10.1285V25.8718C36 33.2876 33.2826 36 25.8666 36H10.1285C2.7125 36 0 33.2876 0 25.8718V10.1285C0 2.71251 2.7125 0 10.1285 0ZM17.9999 12.0104C14.6958 12.0104 12.0076 9.32211 12.0076 6.01807H12.8541C12.8541 8.8554 15.1623 11.1639 17.9999 11.1639C20.8374 11.1639 23.1456 8.8554 23.1456 6.01807H23.9921C23.9921 9.32211 21.3039 12.0104 17.9999 12.0104ZM15.3504 21.7272L14.9222 22.7072H13.9471L16.0207 18.003H16.8631L18.9284 22.7072H17.9272L17.5043 21.7272H15.3504ZM31.0399 22.7039H31.9824V18.003H31.0399V22.7039ZM27.2895 20.6839H29.0262V19.8273H27.2895V18.8637H29.8106V18.006H26.3474V22.7067H29.9016V21.8494H27.2895V20.6839ZM23.5451 21.2395L22.4765 18.0029H21.6974L20.6287 21.2395L19.5889 18.0051H18.5726L20.213 22.7094H21.0035L22.0737 19.6193L23.1434 22.7094H23.9411L25.5774 18.0051H24.5872L23.5451 21.2395ZM12.5086 20.697C12.5086 21.4623 12.1286 21.8711 11.4385 21.8711C10.7447 21.8711 10.3627 21.4507 10.3627 20.6644V18.0057H9.40772V20.697C9.40772 22.0211 10.1433 22.7802 11.4256 22.7802C12.7205 22.7802 13.4632 22.0065 13.4632 20.6581V18.0029H12.5086V20.697ZM7.12911 18.003H8.08368V22.7097H7.12911V20.7984H4.97251V22.7097H4.01758V18.003H4.97251V19.9018H7.12911V18.003Z" fill="#C91C2E"/>
</svg>
