<svg width="24" height="24" viewBox="0 0 24 24" fill="none" xmlns="http://www.w3.org/2000/svg">
<path fill-rule="evenodd" clip-rule="evenodd" d="M14.5761 3.16932C12.6662 2.6112 10.6268 2.68734 8.76383 3.38633C6.90084 4.08531 5.31468 5.36945 4.24325 7.04616C4.00534 7.41847 3.51067 7.52742 3.13836 7.28951C2.76606 7.0516 2.6571 6.55693 2.89501 6.18462C4.15278 4.21631 6.01479 2.70884 8.20178 1.88829C10.3888 1.06775 12.7828 0.978368 15.0249 1.63355C17.267 2.28874 19.2362 3.65317 20.6373 5.52221C22.0383 7.39125 22.7956 9.66415 22.7956 12C22.7956 14.3359 22.0383 16.6088 20.6373 18.4778C19.2363 20.3468 17.267 21.7113 15.0249 22.3665C12.7828 23.0216 10.3888 22.9323 8.20178 22.1117C6.01479 21.2912 4.15278 19.7837 2.89501 17.8154C2.6571 17.4431 2.76606 16.9484 3.13836 16.7105C3.51067 16.4726 4.00535 16.5815 4.24325 16.9539C5.31468 18.6306 6.90084 19.9147 8.76383 20.6137C10.6268 21.3127 12.6662 21.3888 14.5761 20.8307C16.4861 20.2726 18.1636 19.1103 19.357 17.5181C20.5505 15.926 21.1956 13.9898 21.1956 12C21.1956 10.0102 20.5505 8.07403 19.357 6.48189C18.1636 4.88974 16.4861 3.72744 14.5761 3.16932ZM10.665 8.35746C10.9774 8.04504 11.484 8.04504 11.7964 8.35745L14.8733 11.4343C15.0234 11.5843 15.1076 11.7878 15.1076 12C15.1076 12.2122 15.0234 12.4157 14.8733 12.5657L11.7964 15.6427C11.484 15.9551 10.9775 15.9551 10.665 15.6427C10.3526 15.3303 10.3526 14.8237 10.665 14.5113L12.3763 12.8L1.99995 12.8C1.55812 12.8 1.19995 12.4418 1.19995 12C1.19995 11.5582 1.55812 11.2 1.99995 11.2L12.3762 11.2L10.665 9.48884C10.3526 9.17642 10.3526 8.66989 10.665 8.35746Z" fill="#409B89"/>
</svg>
