<svg width="24" height="24" viewBox="0 0 24 24" fill="none" xmlns="http://www.w3.org/2000/svg">
<path d="M16.8883 15.4027C19.5624 13.9344 21.5895 12.8156 21.7643 12.7286C22.3232 12.4314 22.9005 11.6446 21.7643 11.0335C21.3974 10.8413 19.4223 9.75737 16.8883 8.35944L13.3754 11.9072L16.8883 15.4026V15.4027Z" fill="#FFD900"/>
<path d="M13.3755 11.9072L2.18994 23.1805C2.45249 23.2153 2.7489 23.1457 3.09836 22.9535C3.83205 22.5519 11.6099 18.3044 16.8884 15.4035L13.3755 11.9072Z" fill="#F43249"/>
<path d="M13.3751 11.9071L16.888 8.37685C16.888 8.37685 3.88473 1.28042 3.09798 0.861509C2.80158 0.685954 2.46941 0.633806 2.17218 0.685954L13.3751 11.9071Z" fill="#00EE76"/>
<path d="M13.3751 11.9072L2.1722 0.685974C1.71754 0.791093 1.33331 1.19279 1.33331 2.01429V21.8522C1.33331 22.6041 1.63063 23.1456 2.18959 23.1979L13.3751 11.9072Z" fill="#00D3FF"/>
</svg>
