<svg width="24" height="24" viewBox="0 0 24 24" fill="none" xmlns="http://www.w3.org/2000/svg">
<path d="M12 2C11.7165 2 11.4388 2.08112 11.1999 2.23378C10.964 2.38448 10.7755 2.5987 10.6561 2.85169L8.38758 7.43159C8.38312 7.44059 8.37885 7.44968 8.37477 7.45886C8.37376 7.46114 8.37217 7.46312 8.37015 7.46459C8.36814 7.46607 8.36577 7.46699 8.36329 7.46726C8.35458 7.46823 8.3459 7.46935 8.33724 7.47064L3.34227 8.21063C3.06619 8.23747 2.80293 8.34108 2.58242 8.50998C2.35426 8.68475 2.18167 8.92193 2.08556 9.19279C1.98945 9.46364 1.97394 9.75656 2.04091 10.0361C2.10763 10.3145 2.25336 10.5677 2.46053 10.7653L6.11681 14.293L6.12514 14.3009C6.13036 14.3058 6.13428 14.3119 6.13654 14.3187C6.1388 14.3254 6.13933 14.3327 6.13808 14.3397L6.13727 14.3444L5.266 19.4435L5.26578 19.4448C5.21792 19.7211 5.24844 20.0052 5.3539 20.2651C5.45952 20.5253 5.63607 20.7507 5.86347 20.9156C6.09086 21.0804 6.35996 21.1782 6.64015 21.1976C6.91995 21.2171 7.19958 21.1577 7.44732 21.0263L7.44838 21.0257L11.9488 18.6472C11.9649 18.6402 11.9824 18.6365 12 18.6365C12.0177 18.6365 12.0351 18.6402 12.0513 18.6472L16.5516 21.0257C16.7995 21.1573 17.0799 21.2171 17.3598 21.1976C17.64 21.1782 17.9091 21.0804 18.1365 20.9156C18.3639 20.7507 18.5405 20.5253 18.6461 20.2651C18.7515 20.0054 18.7821 19.7213 18.7343 19.4451L18.734 19.4435L17.8627 14.3444L17.8619 14.3397C17.8607 14.3327 17.8612 14.3254 17.8635 14.3187C17.8657 14.3119 17.8696 14.3058 17.8749 14.3009L17.8832 14.293L21.5371 10.7675L21.5395 10.7652C21.7466 10.5677 21.8924 10.3145 21.9591 10.0361C22.0261 9.75655 22.0105 9.46364 21.9144 9.19279C21.8183 8.92193 21.6457 8.68475 21.4176 8.50998C21.1971 8.34108 20.9338 8.23747 20.6577 8.21063L15.6628 7.47064C15.6541 7.46935 15.6454 7.46823 15.6367 7.46726C15.6342 7.46699 15.6319 7.46607 15.6298 7.46459C15.6278 7.46312 15.6262 7.46114 15.6252 7.45886C15.6212 7.44968 15.6169 7.44059 15.6124 7.43159L13.3439 2.85173C13.2245 2.59872 13.036 2.38449 12.8001 2.23378C12.5612 2.08112 12.2835 2 12 2Z" fill="#FFAB00"/>
</svg>
