<svg width="24" height="24" viewBox="0 0 24 24" fill="none" xmlns="http://www.w3.org/2000/svg">
<path d="M15.9115 3.89207C14.6913 3.30416 13.3542 2.99923 11.9998 3C10.3719 3.00054 8.77442 3.44261 7.37788 4.27913C5.98128 5.11568 4.83774 6.31537 4.06905 7.75044C3.30037 9.18551 2.93533 10.8022 3.01281 12.4283C3.08495 13.9425 3.53824 15.412 4.32822 16.7015L3.04139 20.1251C2.95944 20.3432 3.00097 20.5884 3.15015 20.7673C3.29932 20.9462 3.53311 21.0311 3.76231 20.9897L8.24833 20.1785C9.41231 20.7131 10.6778 20.9935 11.9604 20.9999C13.3148 21.0066 14.6533 20.7075 15.8761 20.1249C17.0989 19.5423 18.1744 18.6912 19.0225 17.6351C19.8705 16.5789 20.4693 15.345 20.7741 14.0253C21.0789 12.7055 21.0819 11.334 20.7828 10.013C20.4838 8.69192 19.8904 7.4554 19.047 6.39558C18.2035 5.33577 17.1317 4.48 15.9115 3.89207Z" fill="#006174"/>
</svg>
