<svg width="36" height="36" viewBox="0 0 36 36" fill="none" xmlns="http://www.w3.org/2000/svg">
<path d="M25.3324 23.104C29.3435 20.9016 32.3843 19.2233 32.6464 19.0928C33.4848 18.647 34.3507 17.4669 32.6464 16.5502C32.0961 16.2619 29.1334 14.636 25.3324 12.5391L20.063 17.8607L25.3324 23.1039V23.104Z" fill="#FFD900"/>
<path d="M20.0634 17.8608L3.28516 34.7708C3.67898 34.823 4.12359 34.7186 4.64779 34.4304C5.74832 33.828 17.415 27.4567 25.3328 23.1054L20.0634 17.8608Z" fill="#F43249"/>
<path d="M20.0627 17.8607L25.332 12.5652C25.332 12.5652 5.82712 1.9206 4.64701 1.29223C4.20239 1.0289 3.70415 0.950678 3.2583 1.0289L20.0627 17.8607Z" fill="#00EE76"/>
<path d="M20.0627 17.8608L3.25834 1.02905C2.57634 1.18673 2 1.78927 2 3.02153V32.7784C2 33.9062 2.44597 34.7186 3.28441 34.7969L20.0627 17.8608Z" fill="#00D3FF"/>
</svg>
