<svg width="147" height="30" viewBox="0 0 147 30" fill="none" xmlns="http://www.w3.org/2000/svg">
<path d="M48.3122 25.3837C46.1624 25.3837 44.2196 24.9153 42.484 23.9785C40.7681 23.0416 39.417 21.756 38.4309 20.1216C37.4644 18.4672 36.9812 16.6135 36.9812 14.5605C36.9812 12.5075 37.4644 10.6637 38.4309 9.0293C39.417 7.37493 40.7681 6.07934 42.484 5.14252C44.2196 4.20571 46.1624 3.7373 48.3122 3.7373C50.4621 3.7373 52.3949 4.20571 54.1109 5.14252C55.8268 6.07934 57.1778 7.37493 58.164 9.0293C59.1502 10.6637 59.6432 12.5075 59.6432 14.5605C59.6432 16.6135 59.1502 18.4672 58.164 20.1216C57.1778 21.756 55.8268 23.0416 54.1109 23.9785C52.3949 24.9153 50.4621 25.3837 48.3122 25.3837ZM48.3122 21.2577C49.5351 21.2577 50.6396 20.9787 51.6257 20.4206C52.6119 19.8425 53.3811 19.0452 53.9333 18.0287C54.5053 17.0122 54.7913 15.8561 54.7913 14.5605C54.7913 13.2649 54.5053 12.1088 53.9333 11.0923C53.3811 10.0757 52.6119 9.28842 51.6257 8.73032C50.6396 8.15229 49.5351 7.86327 48.3122 7.86327C47.0894 7.86327 45.9849 8.15229 44.9987 8.73032C44.0125 9.28842 43.2335 10.0757 42.6615 11.0923C42.1093 12.1088 41.8331 13.2649 41.8331 14.5605C41.8331 15.8561 42.1093 17.0122 42.6615 18.0287C43.2335 19.0452 44.0125 19.8425 44.9987 20.4206C45.9849 20.9787 47.0894 21.2577 48.3122 21.2577Z" fill="#11142D"/>
<path d="M73.1561 25.3837C71.0457 25.3837 69.1326 24.9252 67.4167 24.0084C65.7205 23.0715 64.3793 21.7859 63.3931 20.1515C62.4267 18.4971 61.9435 16.6334 61.9435 14.5605C61.9435 12.4875 62.4267 10.6338 63.3931 8.99941C64.3793 7.34503 65.7205 6.05941 67.4167 5.14252C69.1326 4.20571 71.0556 3.7373 73.1857 3.7373C74.9805 3.7373 76.5978 4.05622 78.0376 4.69405C79.4972 5.33188 80.72 6.24876 81.7062 7.44469L78.6293 10.3149C77.229 8.68049 75.4933 7.86327 73.4224 7.86327C72.1404 7.86327 70.9964 8.15229 69.9906 8.73032C68.9847 9.28842 68.1957 10.0757 67.6238 11.0923C67.0715 12.1088 66.7954 13.2649 66.7954 14.5605C66.7954 15.8561 67.0715 17.0122 67.6238 18.0287C68.1957 19.0452 68.9847 19.8425 69.9906 20.4206C70.9964 20.9787 72.1404 21.2577 73.4224 21.2577C75.4933 21.2577 77.229 20.4305 78.6293 18.7762L81.7062 21.6464C80.72 22.8623 79.4972 23.7891 78.0376 24.4269C76.5781 25.0648 74.951 25.3837 73.1561 25.3837Z" fill="#11142D"/>
<path d="M93.9069 4.09608C95.7412 4.09608 97.3289 4.40503 98.6701 5.02293C100.031 5.64083 101.076 6.51785 101.806 7.65398C102.536 8.79012 102.901 10.1355 102.901 11.6903C102.901 13.225 102.536 14.5705 101.806 15.7265C101.076 16.8627 100.031 17.7397 98.6701 18.3576C97.3289 18.9555 95.7412 19.2545 93.9069 19.2545H89.7355V25.0249H84.9427V4.09608H93.9069ZM93.6407 15.3079C95.0805 15.3079 96.1751 14.999 96.9246 14.3811C97.6741 13.7433 98.0488 12.8463 98.0488 11.6903C98.0488 10.5143 97.6741 9.6173 96.9246 8.99941C96.1751 8.36158 95.0805 8.04266 93.6407 8.04266H89.7355V15.3079H93.6407Z" fill="#11142D"/>
<path d="M106.322 4.09608H111.115V25.0249H106.322V4.09608Z" fill="#11142D"/>
<path d="M126.059 25.3837C123.909 25.3837 121.967 24.9153 120.231 23.9785C118.515 23.0416 117.164 21.756 116.178 20.1216C115.211 18.4672 114.728 16.6135 114.728 14.5605C114.728 12.5075 115.211 10.6637 116.178 9.0293C117.164 7.37493 118.515 6.07934 120.231 5.14252C121.967 4.20571 123.909 3.7373 126.059 3.7373C128.209 3.7373 130.142 4.20571 131.858 5.14252C133.574 6.07934 134.925 7.37493 135.911 9.0293C136.897 10.6637 137.39 12.5075 137.39 14.5605C137.39 16.6135 136.897 18.4672 135.911 20.1216C134.925 21.756 133.574 23.0416 131.858 23.9785C130.142 24.9153 128.209 25.3837 126.059 25.3837ZM126.059 21.2577C127.282 21.2577 128.387 20.9787 129.373 20.4206C130.359 19.8425 131.128 19.0452 131.68 18.0287C132.252 17.0122 132.538 15.8561 132.538 14.5605C132.538 13.2649 132.252 12.1088 131.68 11.0923C131.128 10.0757 130.359 9.28842 129.373 8.73032C128.387 8.15229 127.282 7.86327 126.059 7.86327C124.836 7.86327 123.732 8.15229 122.746 8.73032C121.76 9.28842 120.981 10.0757 120.409 11.0923C119.856 12.1088 119.58 13.2649 119.58 14.5605C119.58 15.8561 119.856 17.0122 120.409 18.0287C120.981 19.0452 121.76 19.8425 122.746 20.4206C123.732 20.9787 124.836 21.2577 126.059 21.2577Z" fill="#11142D"/>
<path d="M144.226 25.2265C143.445 25.2265 142.787 24.9568 142.253 24.4174C141.719 23.878 141.453 23.2038 141.453 22.3947C141.453 21.5663 141.719 20.9017 142.253 20.4008C142.787 19.8807 143.445 19.6206 144.226 19.6206C145.008 19.6206 145.665 19.8807 146.199 20.4008C146.733 20.9017 147 21.5663 147 22.3947C147 23.2038 146.733 23.878 146.199 24.4174C145.665 24.9568 145.008 25.2265 144.226 25.2265Z" fill="#006174"/>
<path fill-rule="evenodd" clip-rule="evenodd" d="M29.5849 14.9492C29.5849 23.2053 22.9621 29.8983 14.7924 29.8983C6.6228 29.8983 0 23.2053 0 14.9492C0 6.69296 6.6228 0 14.7924 0C22.9621 0 29.5849 6.69296 29.5849 14.9492ZM25.887 14.9492C25.887 21.1413 20.9199 26.161 14.7927 26.161C8.66546 26.161 3.69836 21.1413 3.69836 14.9492C3.69836 8.75701 8.66546 3.73729 14.7927 3.73729C20.9199 3.73729 25.887 8.75701 25.887 14.9492Z" fill="#006174"/>
<path d="M19.4151 7.95763C18.0468 7.03364 16.438 6.54047 14.7923 6.54047C12.5855 6.54047 10.4691 7.42641 8.90869 9.00338C7.34825 10.5804 6.4716 12.7192 6.4716 14.9494C6.4716 16.6125 6.9596 18.2383 7.8739 19.6211C8.78819 21.0039 10.0877 22.0817 11.6081 22.7182C13.1286 23.3546 14.8016 23.5211 16.4156 23.1967C18.0297 22.8722 19.5123 22.0714 20.676 20.8954C20.7853 20.7849 20.8912 20.6717 20.9939 20.5557H14.7927C14.0681 20.5558 13.347 20.4124 12.671 20.1296C11.6572 19.7056 10.7905 18.9872 10.1807 18.0653C9.57093 17.1435 9.24535 16.0596 9.24517 14.9507C9.24493 13.4644 9.82876 12.0388 10.8683 10.9874C11.9078 9.93603 13.318 9.34485 14.7887 9.34388H20.9947C20.5304 8.81924 20.0004 8.35282 19.4151 7.95763Z" fill="#006174"/>
<ellipse cx="19.4149" cy="14.9492" rx="3.69811" ry="3.73729" fill="#11142D"/>
</svg>
