<svg width="236" height="48" viewBox="0 0 236 48" fill="none" xmlns="http://www.w3.org/2000/svg">
<path d="M77.562 40.752C74.1106 40.752 70.9916 40 68.2051 38.496C65.4503 36.992 63.2813 34.928 61.6981 32.304C60.1465 29.648 59.3707 26.672 59.3707 23.376C59.3707 20.08 60.1465 17.12 61.6981 14.496C63.2813 11.84 65.4503 9.76 68.2051 8.256C70.9916 6.752 74.1106 6 77.562 6C81.0135 6 84.1166 6.752 86.8714 8.256C89.6262 9.76 91.7952 11.84 93.3785 14.496C94.9617 17.12 95.7533 20.08 95.7533 23.376C95.7533 26.672 94.9617 29.648 93.3785 32.304C91.7952 34.928 89.6262 36.992 86.8714 38.496C84.1166 40 81.0135 40.752 77.562 40.752ZM77.562 34.128C79.5252 34.128 81.2984 33.68 82.8817 32.784C84.4649 31.856 85.6998 30.576 86.5864 28.944C87.5047 27.312 87.9638 25.456 87.9638 23.376C87.9638 21.296 87.5047 19.44 86.5864 17.808C85.6998 16.176 84.4649 14.912 82.8817 14.016C81.2984 13.088 79.5252 12.624 77.562 12.624C75.5988 12.624 73.8256 13.088 72.2424 14.016C70.6591 14.912 69.4084 16.176 68.4901 17.808C67.6035 19.44 67.1602 21.296 67.1602 23.376C67.1602 25.456 67.6035 27.312 68.4901 28.944C69.4084 30.576 70.6591 31.856 72.2424 32.784C73.8256 33.68 75.5988 34.128 77.562 34.128Z" fill="#11142D"/>
<path d="M117.447 40.752C114.059 40.752 110.988 40.016 108.233 38.544C105.51 37.04 103.357 34.976 101.774 32.352C100.222 29.696 99.4462 26.704 99.4462 23.376C99.4462 20.048 100.222 17.072 101.774 14.448C103.357 11.792 105.51 9.728 108.233 8.256C110.988 6.752 114.075 6 117.495 6C120.376 6 122.973 6.512 125.284 7.536C127.628 8.56 129.591 10.032 131.174 11.952L126.234 16.56C123.986 13.936 121.2 12.624 117.875 12.624C115.817 12.624 113.98 13.088 112.365 14.016C110.75 14.912 109.484 16.176 108.566 17.808C107.679 19.44 107.236 21.296 107.236 23.376C107.236 25.456 107.679 27.312 108.566 28.944C109.484 30.576 110.75 31.856 112.365 32.784C113.98 33.68 115.817 34.128 117.875 34.128C121.2 34.128 123.986 32.8 126.234 30.144L131.174 34.752C129.591 36.704 127.628 38.192 125.284 39.216C122.941 40.24 120.329 40.752 117.447 40.752Z" fill="#11142D"/>
<path d="M150.762 6.576C153.707 6.576 156.256 7.072 158.409 8.064C160.594 9.056 162.272 10.464 163.443 12.288C164.615 14.112 165.201 16.272 165.201 18.768C165.201 21.232 164.615 23.392 163.443 25.248C162.272 27.072 160.594 28.48 158.409 29.472C156.256 30.432 153.707 30.912 150.762 30.912H144.065V40.176H136.37V6.576H150.762ZM150.334 24.576C152.646 24.576 154.403 24.08 155.606 23.088C156.81 22.064 157.411 20.624 157.411 18.768C157.411 16.88 156.81 15.44 155.606 14.448C154.403 13.424 152.646 12.912 150.334 12.912H144.065V24.576H150.334Z" fill="#11142D"/>
<path d="M170.694 6.576H178.389V40.176H170.694V6.576Z" fill="#11142D"/>
<path d="M202.38 40.752C198.929 40.752 195.81 40 193.024 38.496C190.269 36.992 188.1 34.928 186.516 32.304C184.965 29.648 184.189 26.672 184.189 23.376C184.189 20.08 184.965 17.12 186.516 14.496C188.1 11.84 190.269 9.76 193.024 8.256C195.81 6.752 198.929 6 202.38 6C205.832 6 208.935 6.752 211.69 8.256C214.445 9.76 216.614 11.84 218.197 14.496C219.78 17.12 220.572 20.08 220.572 23.376C220.572 26.672 219.78 29.648 218.197 32.304C216.614 34.928 214.445 36.992 211.69 38.496C208.935 40 205.832 40.752 202.38 40.752ZM202.38 34.128C204.344 34.128 206.117 33.68 207.7 32.784C209.283 31.856 210.518 30.576 211.405 28.944C212.323 27.312 212.782 25.456 212.782 23.376C212.782 21.296 212.323 19.44 211.405 17.808C210.518 16.176 209.283 14.912 207.7 14.016C206.117 13.088 204.344 12.624 202.38 12.624C200.417 12.624 198.644 13.088 197.061 14.016C195.477 14.912 194.227 16.176 193.308 17.808C192.422 19.44 191.979 21.296 191.979 23.376C191.979 25.456 192.422 27.312 193.308 28.944C194.227 30.576 195.477 31.856 197.061 32.784C198.644 33.68 200.417 34.128 202.38 34.128Z" fill="#11142D"/>
<path d="M231.547 40.5C230.292 40.5 229.237 40.067 228.38 39.201C227.523 38.3351 227.094 37.2526 227.094 35.9536C227.094 34.6237 227.523 33.5567 228.38 32.7526C229.237 31.9175 230.292 31.5 231.547 31.5C232.802 31.5 233.858 31.9175 234.715 32.7526C235.572 33.5567 236 34.6237 236 35.9536C236 37.2526 235.572 38.3351 234.715 39.201C233.858 40.067 232.802 40.5 231.547 40.5Z" fill="#006174"/>
<path fill-rule="evenodd" clip-rule="evenodd" d="M47.4968 24C47.4968 37.2548 36.8643 48 23.7484 48C10.6325 48 0 37.2548 0 24C0 10.7452 10.6325 0 23.7484 0C36.8643 0 47.4968 10.7452 47.4968 24ZM41.5599 24C41.5599 33.9411 33.5855 42 23.7486 42C13.9116 42 5.93725 33.9411 5.93725 24C5.93725 14.0589 13.9116 6 23.7486 6C33.5855 6 41.5599 14.0589 41.5599 24Z" fill="#006174"/>
<path d="M31.1699 12.775C28.9731 11.2916 26.3903 10.4999 23.7483 10.4999C20.2054 10.4999 16.8076 11.9222 14.3024 14.4539C11.7972 16.9857 10.3898 20.4195 10.3898 23.9999C10.3898 26.6699 11.1733 29.28 12.6411 31.5001C14.1089 33.7201 16.1953 35.4505 18.6362 36.4723C21.0771 37.494 23.7631 37.7614 26.3544 37.2405C28.9457 36.7196 31.3259 35.4338 33.1941 33.5458C33.3698 33.3683 33.5402 33.1862 33.7052 32.9998H23.7484C22.5854 32.9997 21.4278 32.7695 20.3428 32.3156C18.7151 31.6349 17.3238 30.4815 16.3448 29.0016C15.3658 27.5216 14.8431 25.7814 14.8428 24.0012C14.8424 21.615 15.7798 19.3264 17.4487 17.6384C19.1176 15.9504 21.3815 15.0013 23.7427 14.9998L33.705 14.9998C32.9598 14.1578 32.1091 13.4093 31.1699 12.775Z" fill="#006174"/>
<ellipse cx="31.1696" cy="24" rx="5.9371" ry="6" fill="#11142D"/>
</svg>
