<?xml version="1.0" encoding="utf-8"?>
<!-- Generator: Adobe Illustrator 25.4.1, SVG Export Plug-In . SVG Version: 6.00 Build 0)  -->
<svg version="1.1" id="Слой_1" xmlns="http://www.w3.org/2000/svg" xmlns:xlink="http://www.w3.org/1999/xlink" x="0px" y="0px"
	 viewBox="0 0 320 353" style="enable-background:new 0 0 320 353;" xml:space="preserve">
<style type="text/css">
	.st0{fill:#D8E8FB;}
	.st1{fill:#00DAB3;}
	.st2{fill:#FAFAFC;}
	.st3{fill:#3F6875;}
</style>
<path class="st0" d="M15.4,167.9c0.3,4.7,1.5,8.7,0.6,13.8L1.3,171.1C6.1,169.1,10.6,169.1,15.4,167.9z"/>
<path class="st0" d="M50.8,155.9c0.2-0.4,0.5-0.5,0.9-0.1L50.8,155.9z"/>
<path class="st0" d="M55.5,156.3l-0.1-0.1L55.5,156.3L55.5,156.3z"/>
<path class="st0" d="M228.1,197.1l3.8,1.4c-3.4,12.4-1.8,17,7.4,21.4c6.1,15.3,12.2,30.7,18.4,45.9l-5.6,2.8
	c-3.6-7.1-7-13.9-10.5-20.7c-6.2-14.2-13.4-27.9-20.5-42l-108.7,44c0,1-0.1,1.3,0,1.6c7.9,15.3,15.8,30.6,23.7,45.9l0.4,0.9
	l6.6,13.6l-15.2,6.2L73.6,205.4c0.3-7.5-1.8-14.8-1.8-22.5c3,6.5,6,13,9,19.5c0.5,1.1,1.1,2.3,1.5,3.4c1,2.8,2.7,3.3,5.5,2.3
	c38-13.7,75.9-27.3,113.9-40.9c1.4-0.5,2.8-1.1,4.7-1.9l-56.6-125L28.1,90l29.9,63.8c-3.1-0.7-6.4-0.9-9.6-0.5
	c-11-21.7-21.4-43.6-31.8-65.6c2.2,0,3.8-1.4,5.8-2.2c43.9-16.8,87.9-33.7,131.7-50.6c0.6,3.1,2.1,5.4,5.4,6.1
	c3.5,0.7,5.8-1.2,7.6-3.8c0.6,1.1,1.2,2.2,1.7,3.3c6,15.1,11.9,30.3,17.9,45.4c-1.5,1.4-0.7,2.6,0,4.1c3.5,7,7,14.1,10.5,21.2
	c2.3,7.7,5.6,15.1,8.6,22.5c1,2.6,1.1,5.8,3.8,7.7c-0.2,3.5-0.5,6.9-0.4,10.4c0.2,7.7,3,14.1,10.1,17.9c3.4,1.8,3.2,4.9,2.8,7.9
	c-0.6,4.4-1.6,8.8,0.2,13.1c0.4,1.5,1.1,2.9,2.1,4C225.3,195.8,226.7,196.7,228.1,197.1z M97.2,219l3.8,6.6l51.5-22
	c-3.1-6.3-3.1-6.4-8.7-4.1c-10.8,4.3-21.7,8.6-32.5,13.2C106.8,214.7,102,216,97.2,219z"/>
<g>
	<path class="st1" d="M214.1,1c-1.5-1.4-2.6-1.3-3.1-0.4c-5.9,9.4-11.6,18.9-17.4,28.4l1.9,1.2C202.6,21.1,207.9,10.7,214.1,1z"/>
	<path class="st1" d="M219.2,26c-6.6,1.9-11.5,5-17.4,8C205.5,35.8,216.7,30.6,219.2,26z"/>
	<path class="st1" d="M304.7,228.9c-0.2-0.3-0.4-0.6-0.7-0.8c-0.3-0.2-0.6-0.4-0.9-0.5c-0.3-0.1-0.7-0.1-1-0.1
		c-0.6,0-1.2,0.3-1.7,0.7c-0.5,0.4-0.7,1.1-0.7,1.7c0,0.3,0,0.7,0.2,1c0.1,0.3,0.3,0.6,0.6,0.9s0.5,0.4,0.9,0.5
		c0.3,0.1,0.7,0.2,1,0.1c1.6,0,2.4-1.1,2.7-2.7C304.9,229.6,304.8,229.2,304.7,228.9z"/>
	<path class="st1" d="M151.4,277.4c5.5-6.9,12.3-9.2,20.8-8.6c10.9,1,21.7,2.9,32.3,5.8c2.7,0.7,4.3,0.2,5.4-2.3
		c5.4-12.8,14.9-17.6,28.4-14.8c1.5,0.2,3,0.2,4.6,0c0-0.3,0.1-0.5,0.2-0.7l-0.8-1.9l-0.5-0.9l-2.2-4.7l-16.5-33.2
		c-1-2.1-2.1-4.2-3.3-6.6l-103.6,41.9c-0.1,2.5,1.5,4.1,2.4,5.9c6.4,12.3,12.9,24.6,19.3,36.9C143.5,289.5,146.9,283.1,151.4,277.4z
		 M138.3,264.8c-0.6-0.2-1.2-0.5-1.7-1c-0.5-0.4-0.9-1-1.2-1.6c-0.3-0.6-0.4-1.3-0.4-2c-0.1-3.2,2.4-4.4,5.4-4.8
		c2.8,0.4,4.9,1.8,4.9,5c0,3.2-2.4,4.4-5,4.5C139.6,265.1,139,265,138.3,264.8z"/>
	<path class="st1" d="M165.8,271.8c-3.7,0.5-7.2,2.2-9.8,4.9c-4.7,4.7-8.2,10.6-12.4,15.7c-1.4,1.7-2.8,3.4-4.2,5.1l6.4,13.4
		c14-5.6,27.3-10.9,40.7-16.3c10.8-4.4,21.8-8.1,32.3-13.2c-11.4-4.1-23.3-6.3-35.1-8.3C177.7,272.1,171.8,271,165.8,271.8z"/>
	<path class="st1" d="M244.6,260.5c-1.3,0.9-2.7,0.2-4,0c-3.6-0.6-7.2-0.9-10.8-0.8c-5.7-0.1-10.2,2-13.2,7.1
		c-1.7,2.9-3.5,5.9-5.3,9c3.6,2.3,8.1,1.5,11.3,4.2l25.2-9.5c0.4-0.4,0.7-0.9,0.8-1.4c0.1-0.5,0.1-1.1-0.1-1.7
		C247.1,265.1,245.8,262.8,244.6,260.5z"/>
	<path class="st1" d="M82.1,147.7c-2.9-0.2-5.3,0.8-7.8,0.3c-5.7-1-9.1-5.3-8-10.4c0-2.2,2.1-3.2,2.9-5.2
		c-2.7-5.5-5.1-11.3-7.1-17.1C58,103.6,60.5,94,70,85.7c7.9-6.8,17.4-10.4,27.2-13.1c4.7-1.1,9.3-2.6,13.8-4.6
		c3.7-2,7.9-2.8,12.1-2.3c5.6,0.8,8.6,4.2,8.4,9.9c0.1,1.2,0.4,2.4,1.1,3.5c3.2,2.2,4.4,5.6,5.7,9c4.7,11.9,9.2,23.8,13.8,35.7
		c0.5,1.4,0.8,3,2.8,3.2c5.4,0.6,7.7,4.3,9,9.1c0.4,1.2,0.4,2.5,1.6,3.2c2.7,1.4,4,4.1,6,6.1c2.9,2.9,5.2,6.4,8.2,9.1
		c4.7,4.3,5.7,7.1,3.4,13.5c0.1,0.9-0.7,1.9,0.4,3l19.2-6.9L148.4,43.9L32,91.4l50.4,107.4c4.3-6.7,9.8-11.2,15.2-15.8
		C92.3,171,87.2,159.4,82.1,147.7z"/>
	<path class="st1" d="M143.9,199.6c-10.8,4.3-21.7,8.6-32.5,13.2c-4.6,1.9-9.5,3.2-14.2,6.3l3.9,6.6l51.5-22
		C149.5,197.4,149.5,197.3,143.9,199.6z"/>
</g>
<g>
	<path class="st2" d="M242.9,257.4c-1.5,0.2-3,0.2-4.6,0c-13.5-2.8-23,2.1-28.4,14.9c-1,2.5-2.7,3-5.4,2.3
		c-10.6-2.9-21.4-4.8-32.3-5.8c-8.5-0.6-15.3,1.7-20.8,8.6c-4.5,5.6-7.9,12.1-13.6,16.8v1.5c0.5,0.6,1,1.2,1.5,1.8
		c1.4-1.7,2.8-3.4,4.2-5.1c4.2-5.2,7.6-10.9,12.4-15.7c2.6-2.7,6.1-4.4,9.8-4.9c6-0.8,11.9,0.3,17.8,1.3c11.9,2,23.8,4.2,35.2,8.4
		c1.4,0,2.8-0.6,3.9-1.5c-3.2-2.6-7.6-1.8-11.3-4.2c1.8-3.1,3.6-6,5.3-9c3-5.1,7.4-7.1,13.2-7.1c3.6,0,7.2,0.3,10.8,0.8
		c1.3,0.2,2.7,0.9,4,0c0.1-1.4-1.1-2.1-1.4-3.3L242.9,257.4z"/>
	<path class="st2" d="M261.4,261.3c-1.8-4.4-3.5-8.8-5.2-13.1c-3.8-9.5-7.8-18.9-11.6-28.3h-5.3c6.1,15.3,12.2,30.6,18.4,45.9
		l4.1-1.1C262.5,263.6,261.9,262.5,261.4,261.3z"/>
	<path class="st2" d="M162,29.9c3.9,0.8,5.2,3.6,5.1,7.3c0.6,1.1,1.2,2.2,1.7,3.3c6,15.1,11.9,30.3,17.9,45.4c0.5,0.2,1,0.5,1.4,0.9
		c0.4,0.4,0.7,0.9,0.9,1.4c3.2,6.8,6.5,13.5,9.8,20.3c0.9,1.9,0.7,3-1.7,2.7c2.3,7.7,5.6,15.1,8.6,22.5c1.1,2.6,1.2,5.8,3.8,7.7
		c0.8-2.5,0.1-5.3,1.4-7.8c-0.9-5-4-9.2-5-14.1c-3.5-8.4-7-16.6-10.2-25c-5.4-14-11.4-27.7-16.2-42L166.2,20L12.1,79.4
		c1.7,3.2,3.1,5.7,4.5,8.3c2.2,0,3.9-1.4,5.8-2.2c43.9-16.9,87.8-33.7,131.7-50.6C155.6,31.4,157.9,29.1,162,29.9z"/>
	<path class="st2" d="M43.8,162.3c-1,2.7-1.9,5.4-2.8,8c-0.4,2.3-0.8,4.6-1.3,6.8c-0.5,2.1,0.5,2.4,2.1,2.6c1.5-0.6,2.9-1.5,4.1-2.7
		c1.1-1.2,2-2.6,2.6-4.2l0.2-1.7v-1.6c-0.7-3-1.4-5.9-2-9C44.7,159.5,44.2,161,43.8,162.3z"/>
	<path class="st2" d="M84.5,42.5l-0.8-1.9l-35.3,14l0.9,2.2C61.1,52,73,47.9,84.5,42.5z"/>
	<path class="st2" d="M120.3,171.9c-1.9-1.1-3.6-2.5-5.1-4.2c-1.6-1.6-4-3.2-2.6-6c1.5-3.1,4.4-3,7.3-2.4c4.9,1.2,9.6,2.9,14.1,5.1
		c1.4,0.7,3,1.1,4.6,0.9c1.6-0.2,3.1-0.8,4.3-1.8c6.8-5.2,11.2-11.6,10.4-20.6c-0.5-6.9-2-13.8-4.5-20.2
		c-4.5-11.5-8.9-23.1-13.5-34.5c-1.2-2.9-1.9-6.6-5.7-7.6c-2,3.1-4.9,4.9-8,6.5c-9.5,4.8-19.7,7.6-30.1,9.5
		c-1.8,0.3-3.6,0.4-5.4,0.2c-5.4-0.4-8.1,1.6-8.9,7c-0.7,4.9,0.7,9.4,2.3,13.9c1.3,3.5,2.7,7,4.2,11c-4.6,3-11,3.2-14.3,8.3l-0.5,1
		c0.3,6.1,4.4,8.9,11.2,7c3.2-0.9,4.5,0,5.6,2.8c4.1,9.9,8.8,19.5,12.5,29.6c2.5,6.8,8.3,9.3,13.4,13c6.3,4.5,12.2,2.5,18.4-0.1
		c3.1-1.3,3.7-3.3,1.9-5.9C128.4,179.7,125.7,174.6,120.3,171.9z M133.4,141.4c-2.6,4.1-6.8,3.7-9.3-0.9
		C127.4,140.6,130.1,142.1,133.4,141.4L133.4,141.4z M127.1,106.5c0.1-0.4,0.3-0.7,0.5-1c0.2-0.3,0.6-0.5,0.9-0.7
		c0.4-0.1,0.7-0.2,1.1-0.2c2.3,0.1,2.5,2.1,2.9,3.8v0c-0.1,1.6-0.9,2.7-2.5,2.7c-2.4,0-2.8-1.8-3-3.7
		C127,107.2,127,106.9,127.1,106.5z M126.7,94.3c-1.4,2.2-3.5,3.8-6,4.6C120.6,95.3,123.3,93.4,126.7,94.3z M120.4,106.1
		c4,2.7,3,7,5.1,9.7c7.9,1.6,10,3.2,9.2,6.5c-0.5,1.6-1.7,2.9-3.2,3.6s-3.3,0.9-4.9,0.3c1-2.6,5.2-1.9,5.2-5.3
		c-1.3-2-3.4-2.1-5.4-1.9c-0.5,0.1-1,0.2-1.4,0.1c-0.5-0.1-0.9-0.3-1.3-0.6c-0.4-0.3-0.7-0.7-1-1.1c-0.2-0.4-0.4-0.9-0.4-1.4
		C121.7,113,119.4,110.2,120.4,106.1z M92.9,115c3.1-2.5,5.2-4.4,8.5-3l0,0C99.1,113.5,97.3,116.2,92.9,115z M103.1,120.7
		c-0.1,0.3-0.2,0.7-0.5,0.9c-0.2,0.3-0.5,0.5-0.8,0.6c-0.3,0.2-0.7,0.2-1,0.2c-2.5,0.2-2.8-1.9-3.2-3.6c-0.4-1.9,0.9-2.7,2.5-3v0
		c2.6,0.2,2.8,2,3,3.7C103.2,120,103.2,120.4,103.1,120.7z"/>
	<path class="st2" d="M135.4,186.3c-0.1,0.3,0,0.6,0.1,0.9c0.1,0.3,0.4,0.5,0.6,0.6c0.5,0,1-0.1,1.5-0.2
		c11.6-4.2,23.2-8.6,34.9-12.6c4-1.3,6.9-3.1,8.2-7.3l0.4-1.7c-0.4-2.9,1.3-6.3-2.6-8.8c-0.2,2.2-0.5,4.3-1.1,6.4
		c-0.6,1.7,0.1,4.7-3.7,4.5c0.4-6.1,4.3-12.3-1-18.3c-1.3,2.3,0.1,4.4-1,6.1c-0.4,2.6,0.6,5.7-2.8,7.7c-1.2-3,0-5.2,0.4-7.5
		c-0.4-4.8,1-10.2-4.5-14.3c0,4,0.1,7.3,0,10.6c-0.2,7.3-0.2,7.3-2.9,7.7c-0.8-1.2-0.2-2.4-0.2-3.6c0.2-6.9,0.9-13.9-1.1-20.7
		c-0.9-3-2.1-6-6.7-6c1.2,5.2,2.3,10.1,2.2,15.1c-0.2,10.4-6,17.3-14.5,22.3c-1.2,0.7-2.5,1-3.8,1c-1.3,0-2.7-0.3-3.9-0.9
		c-4.1-1.7-8.2-3.5-12.5-4.8c-2-0.6-4.5-2-6.6,0.4c0.3,1.9,1.6,2.9,2.9,4c3.7,3,7.6,5.6,11.8,7.8
		C136.4,178.5,136.4,178.5,135.4,186.3z"/>
	<path class="st2" d="M85.6,199.1c-1.3,2.2-2.3,4.5,0.5,6.7l29.5-10.5c-5.9-2.6-11.4-6-16.5-10.1C93.8,189.4,88.9,193.5,85.6,199.1z
		"/>
	<path class="st2" d="M206.7,114.4c2.5-4.2,4.4-7.5,6.3-10.9c6.4-11.4,13.1-22.6,17.3-35.1c1.7-5.1,3.3-10.4,1-15.9
		c-2.1-5.1-6.4-6.9-11.5-4.8c-3.2,1.4-6.1,3.4-8.6,5.8c-7.2,7.1-12.5,15.6-17.6,24.2c-0.3,0.5-0.5,1-0.6,1.5c-0.1,0.6,0,1.1,0.2,1.6
		C197.6,91.7,201.9,102.5,206.7,114.4z"/>
	<path class="st2" d="M216.1,103.8c-1.7,2.8-3.5,5.7-5.1,8.8c-1.1,2.1-3.4,3.8-2.8,6.7c2,2.6,1.6,6.5,5,8.3c1.2,0.2,1.2,0.9,0.7,1.7
		l-0.6,4.2c-0.4,5.7-0.8,11.2-1,17c-0.3,5.8,1.2,11.1,5.8,15.1c5.1,4.5,10.6,3.2,13.7-3.2c-10-0.9-14.3-5-13.9-13.1
		c0.3-5.4,2.2-8.6,5.6-8.4c-1.7,4.4-3.8,8.8-1.8,13.6c2.3,5.5,7.1,5.3,12.1,5c4.8-11.1,7.5-22.5,5.4-34.5
		C236.9,113.1,228.4,105.1,216.1,103.8z"/>
	<path class="st2" d="M230.7,167.8c-4.3,3.2-5.4,7-6,11.5c-0.4,2.9-0.4,5.8-0.6,8.7c0.1,0.2,0.2,0.5,0.2,0.8c0,0.1-0.1,0.3-0.1,0.4
		l0.7,2.2c1.2,1.8,3,3.2,5,4.2c1.8,0.4,3.8,0.2,5.5-0.6c1.7-0.8,3.2-2,4.1-3.6c-5.7-2.6-9.7-6.2-8.7-12.8c0.2-1.7,0.3-4.1,3.9-3.6
		c-2.6,6.8-0.7,11.6,6.4,13.9c1.3-1.3,2.4-2.9,3-4.6c2.9-5.7,3.9-11.8,5.3-17.9V157c-1.6-4.8-2-10.3-7.1-13.3
		c-1.4,1.2-1.1,2.7-1.4,4C238.7,155,237.1,163.1,230.7,167.8z"/>
	<path class="st2" d="M238.2,196.1c-2.1,1.7-3.7,3.9-4.6,6.5c-0.9,2.6-1,5.3-0.3,7.9c1.2,3.8,3.6,6.3,7.7,6.7
		c4.1,0.4,5.9-2.6,8.2-5.4l-2-0.8c-1.6-0.1-3.2-0.6-4.5-1.6c-1.3-1-2.3-2.3-2.8-3.8c-1.8-4.6-0.4-7.8,3.9-8.6c0,3-3,5.4-1.5,8.4
		c1.2,1.6,2.9,2.8,4.9,3.4c3.1,0.6,4.8-0.8,6-3.6c3.5-8.1,4.5-16.3,1.5-24.7c-0.9-2.4-1.5-5.2-3.7-6.9c-1.2,0.8-1,1.9-1.3,2.8
		C247.6,183.9,244.6,191,238.2,196.1z"/>
	<path class="st2" d="M140.3,265c2.6-0.1,5-1.3,5-4.5c0-3.2-2.1-4.6-4.9-5c-3.1,0.4-5.5,1.6-5.4,4.8c0,0.7,0.2,1.3,0.4,2
		c0.3,0.6,0.7,1.2,1.2,1.6c0.5,0.4,1.1,0.8,1.7,1C139,265,139.6,265.1,140.3,265z"/>
</g>
<g>
	<path class="st3" d="M265.1,263.6l0.1-0.3l-0.3-0.2l0,0c-5.3-15.2-12-29.8-17.8-44.7c0.2-0.4,0.5-0.8,0.8-1.1
		c13.7-14.2,15.4-30.5,4.9-46.9c-0.8-1.3-1.1-2.8-1-4.3h-2.4c-1.4,6.1-2.4,12.3-5.3,17.9c-0.6,1.7-1.7,3.3-3,4.6
		c-7.1-2.2-9-7.1-6.4-13.9c-3.6-0.5-3.7,1.9-3.9,3.6c-0.9,6.6,3.1,10.2,8.7,12.8c-1,1.6-2.4,2.9-4.1,3.6c-1.7,0.7-3.6,0.9-5.4,0.6
		c0,0,0,0,0,0c-2-0.9-3.7-2.3-5-4.2c0,0-0.1-0.1-0.1-0.1l-0.6-2c0,0,0-0.1,0-0.1c0.1-0.1,0.1-0.3,0.1-0.4c-0.1-0.3-0.1-0.5-0.2-0.8
		c0,0,0,0-0.1,0c0.2-2.9,0.2-5.8,0.6-8.6c0.6-4.5,1.7-8.3,6-11.5c6.4-4.7,7.9-12.7,10-20.1c0.4-1.3,0-2.7,1.4-4
		c5.1,3,5.5,8.5,7.1,13.3v9.1h2.4c0.8-3,0.8-6.2,0-9.2h0c-0.1-7.4-3.6-12.9-9.5-16.9c1.7-22.4-3.4-30.7-24-39.2
		c-0.3-1.4,0.8-2.3,1.4-3.3c5.8-10.9,12.2-21.6,15.1-33.8c1.8-7.6-0.2-14.3-5.2-17.7c-4.8-3.2-10.5-2.1-17.2,3.1
		c-5.6,4.5-10,10.1-14,16c-2.2,3.3-4.4,6.7-6.9,10.6c-3.7-8.5-6.1-16.7-9.9-24.4c0,0,0,0,0-0.1c-0.3-1.7-0.9-3.2-1.8-4.6
		c0,0,0,0,0,0c0.1-0.3,0-0.7-0.1-1c-0.1-0.3-0.4-0.6-0.7-0.9c0,0,0,0,0-0.1c-2.2-6.4-4.7-12.7-7.6-18.9c0,0,0,0,0,0
		c0.1-0.4,0.1-0.7-0.1-1.1c-0.1-0.3-0.4-0.6-0.7-0.8c0,0,0,0,0-0.1c-0.2-1.4-0.7-2.7-1.6-3.8c0,0,0,0,0,0c0.1-0.4,0-0.7-0.1-1.1
		c-0.2-0.3-0.4-0.6-0.7-0.8c0,0,0,0,0,0l0,0c0-0.2-0.1-0.4-0.2-0.6c-0.1-0.2-0.3-0.2-0.6-0.3l-0.1-0.1c-0.4-0.5-0.8-0.8-1.3-1.1
		c-0.5-0.3-1.1-0.5-1.6-0.5c-0.1,0-0.1,0-0.2,0c-5.1-2.6-10.2-1.8-15.1,0.5c0,0-0.1,0-0.1,0l-1.7,0.5c0,0,0,0,0,0
		c-0.4-0.1-0.8-0.1-1.1,0c-0.3,0.1-0.6,0.3-0.9,0.6c0,0,0,0,0,0c-1.9,0.3-3.8,0.8-5.5,1.8c0,0,0,0,0,0.1c-0.4-0.1-0.8-0.1-1.2,0.1
		c-0.4,0.1-0.7,0.3-0.9,0.6c0,0,0,0,0,0h-0.3l-0.2,0.2c-0.1,0.3-0.2,0.5-0.4,0.5c0.2,0,0.3-0.2,0.4-0.5l-0.8,0.2c0,0,0,0,0,0
		l-4.1,1.4c-0.2,0.4-0.5,0.6-0.9,0.8c-0.2,0.1-0.4,0.1-0.6,0.1c0.2,0,0.4,0,0.6-0.1c0.4-0.1,0.7-0.4,0.9-0.8c-0.4-0.1-0.8-0.1-1.2,0
		c-0.4,0.1-0.7,0.4-1,0.7c0,0,0,0,0,0l-5.4,1.8c-0.2,0.4-0.5,0.6-0.9,0.8c-0.2,0.1-0.4,0.1-0.6,0.1c0.2,0,0.4,0,0.6-0.1
		c0.4-0.1,0.7-0.4,0.9-0.8c-0.4-0.1-0.8-0.1-1.2,0c-0.4,0.1-0.7,0.4-0.9,0.7c0,0,0,0,0,0c-1.9,0.2-3.7,0.8-5.4,1.8
		c-5.5,2.9-11.6,4.3-17.5,6.3c-9.8,3.3-19.7,6.5-29.6,9.6c-0.9,0.3-1.8,0.7-2.7,0.8c0.9,0,1.8-0.5,2.7-0.8
		c9.9-3.2,19.8-6.3,29.6-9.6c5.9-2,11.9-3.4,17.5-6.3c-6.4,2-12.8,3.8-19.1,5.9C87.3,36,76.6,39,66.2,43.1c0,0,0,0,0,0
		c-5.2,1.3-10.4,3-15.3,5.1c0,0,0,0,0,0c-2.5,0.3-4.9,1.1-7.1,2.4c0,0,0,0-0.1,0c-1-0.1-2,0.2-2.8,0.9l0,0c-0.4-0.1-0.8,0-1.2,0.1
		c-0.4,0.1-0.8,0.3-1.1,0.6c0.4,0.1,0.7,0.2,1,0.2c-0.3,0-0.7-0.1-1-0.2L35,53.4c-7.1,3.3-14.6,5.7-22.3,7.3c-2.9,0.7-5.5,2.6-7,5.2
		C4.6,69,3.4,72,2.3,75.1C1.4,77.3,1,79.6,1.2,82c0.2,2.3,0.8,4.6,2,6.6c0,0,0,0.1,0,0.1c0,0,0-0.1,0-0.1c-1.1-2-1.8-4.3-2-6.6
		c-0.2-2.3,0.2-4.7,1.1-6.8C3.4,72,4.6,69,5.7,65.9c-4,6-7.4,12.2-4.8,19.6c1.4,4,3.7,7.5,5.7,11.4c0-1.6-0.5-3.1-1.2-4.5
		c0.7,1.4,1.2,2.8,1.2,4.5l0.8,1.6c0,0,0,0,0,0c1.4,4.2,3.4,8.2,5.8,11.9c0,0,0,0,0,0l0.7,1.4c0.2,0.1,0.4,0.2,0.5,0.3
		c0.2,0.1,0.3,0.3,0.4,0.5c0.1,0.2,0.1,0.4,0.2,0.6c0,0.2,0,0.4-0.1,0.6l2.3,4.8c0,0,0.1,0,0.1,0c0,0-0.1,0-0.1,0
		c0.3,0.7,0.7,1.4,1,2c0.1-0.3,0.1-0.6,0.1-0.9c0,0.3,0,0.6,0,0.9c0.7,2.3,1.8,4.4,3.1,6.3c1,0.9,1.9,2,2.5,3.2
		c0.6,1.2,0.9,2.6,1,3.9c0.2,0.4,0.4,0.8,0.6,1.2c4.3,7.4,8.6,14.8,11.1,23c1.2,3.7,4.3,7,2.2,11.3l2.2,0.8c0.9-2.7,1.8-5.4,2.8-8
		c0.5-1.2,0.9-2.7,2.8-1.7c0,0,0,0,0,0.1c0.7,3,1.3,5.9,2,8.9h0v1.6H51l0-1.6h0c0.7-4.5-1.8-8.2-3.1-12c0.3-0.5,0.7-0.9,1.3-1.2
		s1.1-0.4,1.7-0.4c0.2-0.4,0.5-0.5,0.9-0.1c1.3-0.2,2.6-0.1,3.8,0.4l0,0c2.7,0.8,4.3,2.9,5.6,5.3c2.6,4.8,4.4,9.9,5.6,15.2
		c2.5,9.9,3.2,20.2,4.7,30.3c0,0,0,0,0,0l0.2,1.8c0.3,0.5,0.6,1.1,0.8,1.6c-0.2-0.5-0.4-1.1-0.8-1.6c-0.2,3.3,0,6.6,0.7,9.9
		c-0.3,2.3-0.2,4.6,0.3,6.8c0.7,0.7,1.2,1.6,1.4,2.5c0.1,0.5,0.2,1,0.3,1.5c0-0.5-0.1-1-0.3-1.4c-0.3-0.9-0.8-1.8-1.4-2.5
		c-0.1,1.9,0.4,3.9,1.6,5.4c0,0,0,0,0,0c2.1,5.9,7.4,9.3,11.2,13.7c0.2,0,0.4,0,0.6,0.1c0.2,0.1,0.4,0.2,0.5,0.4
		c0.1,0.2,0.2,0.4,0.3,0.6c0,0.1,0,0.2,0.1,0.3c0-0.1,0-0.2-0.1-0.3c-0.1-0.2-0.2-0.4-0.3-0.6c-0.1-0.2-0.3-0.3-0.5-0.4
		c-0.2-0.1-0.4-0.1-0.6-0.1c0.1,0.4,0.3,0.8,0.5,1.1c0.3,0.3,0.6,0.5,1,0.7c0,0,0,0,0,0l11.3,16.7c4.6,5.2,6.4,11.9,8.5,18.2
		c2.8,8.7,4.8,17.6,4.6,26.9c-0.1,2.2,1.2,3.9,2,5.8c1.4,3.6,4.2,6.6,4.5,10.6c4.3,10.5,13.9,14.6,24.5,10.2
		c37.5-15.6,75-31.2,112.5-46.8c3.6-1.5,6.9-3.5,8.7-7.3c0.9-1.9,1.2-3.9,1.4-5.8c-0.2,2-0.6,3.9-1.4,5.8c3.7-5.3,2.7-11.1,1.8-17
		C265.1,263.7,265.1,263.6,265.1,263.6z M233.7,202.6c0.9-2.6,2.5-4.8,4.6-6.5c6.4-5.1,9.4-12.2,11.6-19.8c0.3-0.9,0.1-2,1.3-2.8
		c2.3,1.7,2.9,4.5,3.7,6.9c3,8.4,2,16.6-1.5,24.8c-1.2,2.8-2.9,4.2-6,3.6c0,0,0,0.1,0,0.1c0,0,0-0.1,0-0.1c-2-0.6-3.7-1.7-4.9-3.4
		l0,0c-1.5-3,1.4-5.5,1.5-8.4c-4.3,0.9-5.7,4.1-3.9,8.6c0.5,1.5,1.5,2.9,2.8,3.8c1.3,1,2.8,1.5,4.5,1.6c0,0,0,0,0,0c0,0,0,0,0,0
		l2,0.8c-2.3,2.8-4.1,5.8-8.2,5.4c-4.1-0.4-6.5-2.9-7.7-6.7C232.7,207.9,232.8,205.2,233.7,202.6z M193.7,77.8
		c5.1-8.6,10.4-17.1,17.6-24.2c2.4-2.5,5.3-4.5,8.6-5.8c5.1-2.1,9.4-0.3,11.5,4.8c2.3,5.4,0.7,10.7-1,15.9
		c-4.2,12.5-10.9,23.7-17.3,35.1c-1.9,3.4-3.9,6.7-6.3,10.9c-4.7-11.9-9-22.6-13.4-33.4c-0.2-0.5-0.3-1.1-0.2-1.6
		S193.3,78.2,193.7,77.8z M83.7,40.6l0.8,1.9C73,47.9,61.1,52,49.3,56.8l-0.9-2.2L83.7,40.6z M31.9,91.4l116.4-47.5L202.7,164
		l-19.2,6.9c-1.2-1.1-0.3-2.1-0.4-3l-2.3-0.2c-1.3,4.1-4.2,5.9-8.2,7.3c-11.7,4-23.3,8.4-34.9,12.6c-0.5,0.1-1,0.2-1.5,0.2
		c-0.3-0.1-0.5-0.4-0.6-0.6c-0.1-0.3-0.2-0.6-0.1-0.9c1.1-7.8,1-7.7-5.6-11.5c-4.2-2.2-8.2-4.8-11.8-7.8c-1.2-1.1-2.6-2.1-2.9-4
		c2.1-2.4,4.6-1,6.6-0.4c4.2,1.3,8.4,3,12.5,4.8c1.2,0.6,2.5,0.9,3.9,0.9c1.3,0,2.6-0.4,3.8-1c8.6-5,14.3-11.8,14.5-22.3
		c0.1-5-1-9.9-2.2-15.1c4.6,0,5.8,3,6.7,6c2,6.8,1.3,13.8,1.1,20.7c0,1.2-0.6,2.5,0.2,3.6c2.7-0.3,2.7-0.3,2.9-7.7
		c0.1-3.3,0-6.5,0-10.6c5.5,4,4.1,9.4,4.5,14.3l1.2,0l-1.2,0.1c-0.4,2.3-1.5,4.6-0.4,7.5c3.4-2,2.4-5.1,2.7-7.7
		c1.1-1.7-0.3-3.8,1-6.1c5.3,5.9,1.4,12.2,1,18.3c3.8,0.2,3.1-2.8,3.7-4.5c0.5-2.1,0.9-4.2,1.1-6.4c3.8,2.4,2.2,5.9,2.6,8.8
		c0,0,0,0,0,0l-0.4,1.6l2.3,0.2c0,0,0,0,0,0.1c0,0,0,0,0-0.1l0,0c0,0,0,0,0,0c2.3-6.3,1.2-9.1-3.4-13.4c-3-2.7-5.3-6.2-8.2-9.1
		c-2-2-3.3-4.7-6-6.1c-1.3-0.7-1.3-1.9-1.6-3.2c-1.3-4.7-3.5-8.5-9-9.1c-2-0.2-2.2-1.8-2.8-3.2c-4.6-11.9-9.1-23.9-13.8-35.7
		c-1.3-3.4-2.6-6.8-5.7-9c-0.7,0.2-1.5,0-2.2,0.3c0.7-0.3,1.5-0.1,2.3-0.3c-0.6-1.1-1-2.3-1.1-3.5c0.2-5.6-2.8-9.1-8.4-9.9
		c-4.2-0.4-8.4,0.4-12.1,2.3c-4.5,1.9-9.1,3.4-13.8,4.6c-9.8,2.7-19.4,6.2-27.2,13.1c-9.5,8.2-12,17.9-7.8,29.7
		c2,5.8,4.4,11.6,7.1,17.1c-0.8,2-2.9,3-2.9,5.2l2.3,0.3l0.5-1c3.4-5.1,9.7-5.3,14.3-8.3c-1.5-4-3-7.4-4.2-11c-1.6-4.5-3-9-2.3-13.9
		c0.8-5.4,3.5-7.5,8.9-7c1.8,0.2,3.6,0.1,5.4-0.2c10.4-2,20.6-4.7,30.1-9.5c3.1-1.6,6.1-3.4,8-6.5c3.9,1,4.5,4.7,5.7,7.6
		c4.7,11.4,9.1,23,13.5,34.5c2.5,6.5,4,13.4,4.5,20.3c0.8,9.1-3.6,15.4-10.4,20.6c-1.2,1-2.7,1.6-4.3,1.8c-1.6,0.2-3.2-0.1-4.6-0.9
		c-4.5-2.2-9.2-4-14.1-5.1c-2.9-0.6-5.8-0.6-7.3,2.4c-1.3,2.7,1,4.4,2.6,6c1.5,1.7,3.2,3.1,5.1,4.2c5.4,2.7,8.1,7.9,11.4,12.5
		c1.8,2.5,1.2,4.6-1.9,5.9c-6.2,2.6-12.1,4.6-18.4,0.1c-5.1-3.7-10.9-6.2-13.4-13c-3.7-10-8.4-19.7-12.5-29.6
		c-1.2-2.8-2.4-3.7-5.6-2.8c-6.8,1.9-10.8-0.9-11.2-7l-2.3-0.3c-1.1,5.1,2.3,9.4,8,10.4c2.5,0.4,5-0.5,7.8-0.3
		c5.1,11.6,10.2,23.3,15.3,35.2c-5.4,4.6-10.8,9.1-15.2,15.8L31.9,91.4z M181.6,166.2c-0.1,0-0.3,0-0.4,0
		C181.3,166.1,181.5,166.2,181.6,166.2z M115.7,195.3l-29.5,10.5c-2.8-2.1-1.9-4.4-0.5-6.7c3.4-5.6,8.2-9.7,13.6-13.9
		C104.2,189.3,109.7,192.7,115.7,195.3z M257.7,265.9l-5.6,2.8c-3.6-7.1-7-13.9-10.5-20.7c0,0,0,0,0,0c-6.1-14.2-13.3-27.9-20.5-42
		l-108.7,44c0,1-0.1,1.3,0,1.6c7.9,15.3,15.8,30.6,23.7,45.9l1.7-1.7v-1.5c-6.4-12.3-12.9-24.6-19.3-36.9c-0.9-1.8-2.5-3.3-2.4-5.9
		l103.6-41.9c1.2,2.4,2.3,4.5,3.3,6.6l16.5,33.2c0.2-0.4,0.5-0.7,0.8-0.9c0,0,0,0,0,0c-0.4,0.2-0.6,0.6-0.8,0.9l2.2,4.7l0.5,0.9
		l0.8,1.9c0,0.1,0,0.1,0.1,0.2c0-0.1,0-0.1-0.1-0.2c-0.1,0.2-0.2,0.5-0.2,0.7l0.2-0.2c0.4,1.1,1.6,1.9,1.4,3.2
		c1.3,2.3,2.7,4.6,3.9,6.8c0,0,0,0,0,0c0.2,0.5,0.2,1.1,0.1,1.6c-0.1,0.5-0.4,1.1-0.8,1.4c0.5,0.1,1,0.2,1.4-0.1
		c-0.4,0.2-0.9,0.2-1.4,0.1l-25.2,9.5c-1.1,1-2.5,1.5-3.9,1.5c-10.5,5.1-21.5,8.8-32.3,13.2c-13.3,5.4-26.7,10.7-40.7,16.3
		l-6.4-13.4c-0.5-0.5-1-1.2-1.5-1.8l-1.7,1.7l0,0l0.4,0.9l0,0l6.6,13.6l-15.2,6.2L73.6,205.5c0,0,0,0,0,0c0.3-7.5-1.8-14.8-1.8-22.5
		c3,6.5,6,13,9,19.5c0.5,1.1,1.1,2.3,1.5,3.4c1,2.8,2.7,3.3,5.5,2.3c38-13.6,76-27.3,113.9-40.9c1.4-0.5,2.8-1.1,4.7-1.9l-56.6-125
		L28.1,90l29.9,63.8c-3.1-0.7-6.4-0.9-9.5-0.5c0,0,0,0,0,0c-11-21.7-21.4-43.6-31.8-65.6c-1.4-2.5-2.7-5.1-4.5-8.3L166.3,20
		l13.3,32.5c0.4,0,0.8-0.1,1.2-0.3c0,0,0,0,0,0c-0.4,0.2-0.8,0.3-1.2,0.3c4.8,14.2,10.7,28,16.1,42c3.3,8.4,6.8,16.7,10.2,25l0,0
		c1,4.9,4.1,9.1,5,14.1h2.3l0.6-4.2c0.5-0.9,0.5-1.5-0.7-1.7c0,0.2-0.1,0.3,0,0.5c0-0.2,0-0.3,0-0.5c-3.3-1.8-2.9-5.8-4.9-8.3l0,0
		c-0.6-2.8,1.7-4.5,2.8-6.7c1.6-3.1,3.5-6,5.1-8.8c12.3,1.3,20.8,9.2,22.9,21.2c2.1,12.1-0.6,23.4-5.4,34.5c-5,0.3-9.8,0.5-12.1-5
		c-2-4.8,0.1-9.1,1.8-13.6c-3.3-0.2-5.2,3-5.6,8.4c-0.5,8.1,3.8,12.2,13.9,13.1c-3.1,6.3-8.6,7.7-13.7,3.2c-4.5-4-6-9.4-5.8-15.1
		c0.2-5.7,0.7-11.3,1-17h-2.3c-1.3,2.4-0.6,5.2-1.4,7.8c-0.2,3.5-0.5,6.9-0.4,10.4c0.2,7.7,3,14.1,10.1,17.9
		c3.4,1.8,3.2,4.9,2.8,7.9c-0.6,4.4-1.6,8.8,0.2,13.1c0.1-0.6,0.1-1.3,0.3-1.8c-0.2,0.5-0.2,1.2-0.3,1.8c0.4,1.5,1.1,2.9,2.2,4
		c1.1,1.1,2.4,2,3.8,2.4c0.2,0,0.5-0.1,0.7-0.2c-0.2,0.1-0.5,0.1-0.7,0.2l3.8,1.4c-3.4,12.4-1.8,17,7.4,21.4h5.3
		c3.9,9.4,7.8,18.8,11.6,28.3c1.8,4.3,3.5,8.7,5.2,13.1c0.5,1.1,1.1,2.2,0.3,3.5L257.7,265.9z M243.2,257
		C243.2,257,243.2,257,243.2,257C243.2,257,243.2,257,243.2,257C243.2,257,243.2,257,243.2,257z"/>
	<path class="st3" d="M38.7,182.7l4.2-1.1c-0.4-0.2-0.7-0.4-0.9-0.7c-0.2-0.3-0.4-0.7-0.4-1.1c-1.6-0.2-2.6-0.5-2.1-2.6
		c0.6-2.2,0.9-4.5,1.3-6.8l-2.2-0.8c-0.8,1.3-1.3,2.8-1.4,4.4c-1.1,7-2.2,14-3.2,21c-2.2,15.1-5,30.2-6.6,45.5
		c-3.9,37.4,3.2,73.8,11.8,109.9c0.2,0.9,0.5,1.9,1.8,2.1c2.4-0.7,1.1-2.3,0.8-3.7c-6.4-27.4-11.8-55-12.4-83.3
		c-0.2-10.6,0.8-21.1,1.4-31.7c-2.2-0.3-1.8-1.5-1.3-2.9c0,0,0,0,0,0c-0.5,1.3-0.8,2.5,1.3,2.8l0.1-1.3c0,0,0,0,0,0
		c1.3-7.6,2.8-15.1,4-22.8C36.3,200.7,37.5,191.7,38.7,182.7z"/>
	<path class="st3" d="M111.1,308.2c0.3-9.3-1.7-18.2-4.6-26.9c-2.1-6.3-3.9-12.9-8.5-18.2c6.1,12.3,10.9,25.2,11.6,39.2
		c0.4,8.5,4,15.3,7.9,22.3c-0.3-4-3.1-7-4.5-10.6C112.3,312.1,111.1,310.4,111.1,308.2z"/>
	<path class="st3" d="M227.7,327.8c-4.8-3.8-9.1-7.7-14.3-10.2C215.4,322.4,224.4,328.7,227.7,327.8z"/>
	<path class="st3" d="M25.4,135.2c3.2,7.9,6.9,15.6,11.1,23C33.9,150.1,29.7,142.6,25.4,135.2z"/>
	<path class="st3" d="M12.8,60.7c7.7-1.6,15.1-4,22.3-7.3C27.4,55.3,20,57.7,12.8,60.7z"/>
	<path class="st3" d="M313.1,197.1c3.4-0.4,4-0.9,6.4-5.3C315.5,192.1,314.2,194.1,313.1,197.1z"/>
	<path class="st3" d="M196.8,326.8c3.3-1.1,4.4-4.3,2.6-8.1C197.6,321.5,196,323.7,196.8,326.8z"/>
	<path class="st3" d="M21.3,126.9c0.7,2.6,1.9,5,3.5,7.2c-0.1-1.4-0.4-2.7-1-3.9C23.2,128.9,22.3,127.8,21.3,126.9z"/>
	<path class="st3" d="M48.6,171.3l-0.2,1.7c0,0,0,0,0,0c-0.5,1.5-1.4,2.9-2.5,4.1c-1.1,1.2-2.5,2.1-4.1,2.7c0,0.4,0.1,0.8,0.4,1.1
		c0.2,0.3,0.5,0.6,0.9,0.7c1.7-0.4,3.3-1.2,4.5-2.3c1.3-1.2,2.2-2.7,2.7-4.4c0,0,0,0,0,0c0.4-0.5,0.7-1,0.8-1.6
		c0.1-0.6,0.1-1.3-0.1-1.9H48.6z"/>
	<path class="st3" d="M14.8,112.6c-0.1-0.2-0.2-0.3-0.4-0.5c-0.2-0.1-0.3-0.2-0.5-0.3c-0.1,0.4,0,0.8,0.2,1.1
		c0.2,0.3,0.5,0.6,0.8,0.8c0.1-0.2,0.1-0.4,0.1-0.6C14.9,113,14.8,112.8,14.8,112.6z"/>
	<path class="st3" d="M162,29.9c-4.1-0.8-6.4,1.5-7.8,5c0.6,3.1,2.1,5.4,5.4,6.1c3.5,0.7,5.8-1.2,7.6-3.8
		C167.2,33.5,165.9,30.6,162,29.9z"/>
	<path class="st3" d="M189,88.1c-0.2-0.5-0.5-1-0.9-1.4c-0.4-0.4-0.9-0.7-1.4-0.9c-1.5,1.4-0.7,2.6,0,4.1c3.5,7,7,14.1,10.5,21.2
		c2.4,0.2,2.6-0.8,1.7-2.7C195.5,101.6,192.3,94.9,189,88.1z"/>
	<path class="st3" d="M122.7,117.5c0.2,0.4,0.6,0.8,0.9,1.1c0.4,0.3,0.9,0.5,1.3,0.6c0.5,0.1,1,0.1,1.4-0.1c2.1-0.3,4.2-0.1,5.4,1.9
		c-0.1,3.4-4.3,2.8-5.2,5.3c1.6,0.5,3.4,0.4,4.9-0.3c1.5-0.7,2.7-2.1,3.2-3.7c0.8-3.3-1.3-4.9-9.2-6.5c-2.1-2.7-1.2-7-5.1-9.7
		c-0.9,4.1,1.3,6.9,1.9,9.9C122.3,116.5,122.5,117,122.7,117.5z"/>
	<path class="st3" d="M130.1,111.3c1.6,0,2.4-1.1,2.5-2.8c-0.4-1.7-0.6-3.7-2.9-3.8c-0.4,0-0.8,0-1.1,0.2c-0.4,0.1-0.7,0.4-0.9,0.7
		s-0.4,0.6-0.5,1c-0.1,0.4-0.1,0.8,0,1.1C127.3,109.5,127.7,111.3,130.1,111.3z"/>
	<path class="st3" d="M97.7,119c0.3,1.7,0.7,3.8,3.2,3.6c0.4,0,0.7-0.1,1-0.2c0.3-0.2,0.6-0.4,0.8-0.6c0.2-0.3,0.4-0.6,0.5-0.9
		c0.1-0.3,0.1-0.7,0-1c-0.2-1.8-0.5-3.7-3-3.8C98.6,116.2,97.3,117,97.7,119z"/>
	<path class="st3" d="M124.1,140.6c2.4,4.5,6.6,5,9.3,0.8C130.1,142.2,127.4,140.6,124.1,140.6z"/>
	<path class="st3" d="M101.4,112.1c-3.3-1.4-5.5,0.5-8.5,3C97.3,116.2,99.1,113.5,101.4,112.1z"/>
	<path class="st3" d="M126.7,94.3c-3.4-0.9-6,1-6,4.6C123.1,98.1,125.3,96.5,126.7,94.3z"/>
</g>
</svg>
