<svg width="42" height="42" viewBox="0 0 42 42" fill="none" xmlns="http://www.w3.org/2000/svg">
<rect x="0.5" y="0.5" width="41" height="41" rx="20.5" fill="white"/>
<path fill-rule="evenodd" clip-rule="evenodd" d="M12 15.1367C12 14.6949 12.3582 14.3367 12.8 14.3367H28.8C29.2418 14.3367 29.6 14.6949 29.6 15.1367C29.6 15.5785 29.2418 15.9367 28.8 15.9367H12.8C12.3582 15.9367 12 15.5785 12 15.1367Z" fill="#E24414"/>
<path fill-rule="evenodd" clip-rule="evenodd" d="M15.6 15.2V27.7C15.6 27.826 15.6511 27.951 15.749 28.0464C15.8476 28.1425 15.9854 28.2 16.1333 28.2H25.4667C25.6146 28.2 25.7524 28.1425 25.851 28.0464C25.9489 27.951 26 27.826 26 27.7V15.2H27.6V27.7C27.6 28.2636 27.3702 28.7999 26.968 29.192C26.5664 29.5835 26.026 29.8 25.4667 29.8H16.1333C15.574 29.8 15.0336 29.5835 14.632 29.192C14.2298 28.7999 14 28.2636 14 27.7V15.2H15.6Z" fill="#E24414"/>
<path fill-rule="evenodd" clip-rule="evenodd" d="M18.4 14.3333V15H16.8V14.3333C16.8 13.4493 17.2214 12.6014 17.9716 11.9763C18.7217 11.3512 19.7391 11 20.8 11C21.8609 11 22.8783 11.3512 23.6284 11.9763C24.3786 12.6014 24.8 13.4493 24.8 14.3333V15H23.2V14.3333C23.2 13.9776 23.0326 13.5625 22.6041 13.2055C22.1671 12.8413 21.5213 12.6 20.8 12.6C20.0787 12.6 19.4329 12.8413 18.9959 13.2055C18.5674 13.5625 18.4 13.9776 18.4 14.3333Z" fill="#E24414"/>
<path fill-rule="evenodd" clip-rule="evenodd" d="M18.8 18.2C19.2418 18.2 19.6 18.5582 19.6 19V24.3333C19.6 24.7752 19.2418 25.1333 18.8 25.1333C18.3582 25.1333 18 24.7752 18 24.3333V19C18 18.5582 18.3582 18.2 18.8 18.2Z" fill="#E24414"/>
<path fill-rule="evenodd" clip-rule="evenodd" d="M22.8 18.2C23.2418 18.2 23.6 18.5582 23.6 19V24.3333C23.6 24.7752 23.2418 25.1333 22.8 25.1333C22.3582 25.1333 22 24.7752 22 24.3333V19C22 18.5582 22.3582 18.2 22.8 18.2Z" fill="#E24414"/>
<rect x="0.5" y="0.5" width="41" height="41" rx="20.5" stroke="#E24414"/>
</svg>
