<svg width="40" height="40" viewBox="0 0 40 40" fill="none" xmlns="http://www.w3.org/2000/svg">
<circle cx="20" cy="20" r="19" fill="white" stroke="#006174" stroke-width="2"/>
<path fill-rule="evenodd" clip-rule="evenodd" d="M19.8001 12C20.242 12 20.6001 12.3582 20.6001 12.8V26.8C20.6001 27.2418 20.242 27.6 19.8001 27.6C19.3583 27.6 19.0001 27.2418 19.0001 26.8V12.8C19.0001 12.3582 19.3583 12 19.8001 12Z" fill="#006174"/>
<path fill-rule="evenodd" clip-rule="evenodd" d="M12.0001 19.8C12.0001 19.3582 12.3583 19 12.8001 19L26.8001 19C27.242 19 27.6001 19.3582 27.6001 19.8C27.6001 20.2418 27.242 20.6 26.8001 20.6L12.8001 20.6C12.3583 20.6 12.0001 20.2418 12.0001 19.8Z" fill="#006174"/>
</svg>
