<svg width="24" height="24" viewBox="0 0 24 24" fill="none" xmlns="http://www.w3.org/2000/svg">
<path fill-rule="evenodd" clip-rule="evenodd" d="M4 20.5217C4 20.0799 4.35817 19.7217 4.8 19.7217H17.8C18.2418 19.7217 18.6 20.0799 18.6 20.5217C18.6 20.9635 18.2418 21.3217 17.8 21.3217H4.8C4.35817 21.3217 4 20.9635 4 20.5217Z" fill="#C0C5D5"/>
<path fill-rule="evenodd" clip-rule="evenodd" d="M17.116 4.6C17.0497 4.6 16.984 4.61309 16.923 4.63843C16.8619 4.66377 16.8067 4.70082 16.7604 4.74728L16.7573 4.75045L8.19681 13.2515L7.77388 15.8126L10.3097 15.358L18.8534 6.82296C18.9001 6.77688 18.937 6.72224 18.962 6.66226C18.9871 6.60228 19 6.53807 19 6.47329C19 6.40852 18.9871 6.34431 18.962 6.28433C18.937 6.22435 18.9001 6.1697 18.8535 6.12363L18.8511 6.12132L17.4739 4.7496L17.4716 4.74728C17.4253 4.70082 17.3701 4.66377 17.3091 4.63843C17.248 4.61309 17.1824 4.6 17.116 4.6ZM16.3097 3.16061C16.5653 3.05456 16.8393 3 17.116 3C17.3927 3 17.6667 3.05456 17.9223 3.16061C18.1773 3.26644 18.409 3.42148 18.6041 3.617L18.6054 3.61829L19.9779 4.98538L19.9791 4.98657C20.1755 5.18085 20.3315 5.41203 20.4381 5.66692C20.545 5.92233 20.6 6.1964 20.6 6.47329C20.6 6.75018 20.545 7.02426 20.4381 7.27967C20.3316 7.53433 20.1757 7.76532 19.9797 7.95949L19.9779 7.96121L11.2631 16.6672C11.1476 16.7826 10.9996 16.8598 10.8389 16.8886L6.94118 17.5874C6.68537 17.6333 6.42324 17.5521 6.23822 17.3696C6.05319 17.1871 5.96835 16.9261 6.01069 16.6697L6.66031 12.7357C6.6877 12.5698 6.76663 12.4168 6.88591 12.2984L15.6267 3.61829L15.6284 3.61653C15.8234 3.42123 16.0549 3.26635 16.3097 3.16061Z" fill="#C0C5D5"/>
</svg>
