<svg width="24" height="24" viewBox="0 0 24 24" fill="none" xmlns="http://www.w3.org/2000/svg">
<rect y="3" width="24" height="17.1429" rx="2" fill="white"/>
<mask id="mask0_7575_143850" style="mask-type:luminance" maskUnits="userSpaceOnUse" x="0" y="3" width="24" height="18">
<rect y="3" width="24" height="17.1429" rx="2" fill="white"/>
</mask>
<g mask="url(#mask0_7575_143850)">
<path fill-rule="evenodd" clip-rule="evenodd" d="M0 14.4286H24V3H0V14.4286Z" fill="#E54252"/>
<path fill-rule="evenodd" clip-rule="evenodd" d="M0 20.143H24V14.4287H0V20.143Z" fill="#5CBE6B"/>
<path fill-rule="evenodd" clip-rule="evenodd" d="M0 3H3.42857V5.57143L2.85714 6.42857L3.42857 7.28571V9L2.85714 9.85714L3.42857 10.7143V12.4286L2.85714 13.2857L3.42857 14.1429V15.8571L2.85714 16.7143L3.42857 17.5714V20.1429H0V3Z" fill="white"/>
<path fill-rule="evenodd" clip-rule="evenodd" d="M-0.571498 4.71436L-1.71436 6.42864L-0.571498 8.14293L-1.71436 9.85721L-0.571498 11.5715L-1.71436 13.2858L-0.571498 15.0001L-1.71436 16.7144L-0.571498 18.4286L0.571359 16.7144L-0.571498 15.0001L0.571359 13.2858L-0.571498 11.5715L0.571359 9.85721L-0.571498 8.14293L0.571359 6.42864L-0.571498 4.71436Z" fill="#E54252"/>
<path fill-rule="evenodd" clip-rule="evenodd" d="M0.571411 4.71429L1.71427 3L2.85713 4.71429L1.71427 6.42857L0.571411 4.71429ZM1.71427 9.85714L0.571411 8.14286L1.71427 6.42857L2.85713 8.14286L1.71427 9.85714ZM1.71427 13.2857L0.571411 11.5714L1.71427 9.85714L2.85713 11.5714L1.71427 13.2857ZM1.71427 16.7143L2.85713 15L1.71427 13.2857L0.571411 15L1.71427 16.7143ZM1.71427 16.7143L2.85713 18.4286L1.71427 20.1429L0.571411 18.4286L1.71427 16.7143Z" fill="#E54252"/>
</g>
</svg>
