<svg width="24" height="24" viewBox="0 0 24 24" fill="none" xmlns="http://www.w3.org/2000/svg">
<rect y="3" width="24" height="17.1429" rx="2" fill="white"/>
<mask id="mask0_7575_143847" style="mask-type:luminance" maskUnits="userSpaceOnUse" x="0" y="3" width="24" height="18">
<rect y="3" width="24" height="17.1429" rx="2" fill="white"/>
</mask>
<g mask="url(#mask0_7575_143847)">
<path fill-rule="evenodd" clip-rule="evenodd" d="M0 8.71429H24V3H0V8.71429Z" fill="#24AAD5"/>
<path fill-rule="evenodd" clip-rule="evenodd" d="M0 20.1428H24V14.4285H0V20.1428Z" fill="#21BF75"/>
<path fill-rule="evenodd" clip-rule="evenodd" d="M0 14.4286H24V8.71436H0V14.4286Z" fill="#ED1845"/>
<g filter="url(#filter0_d_7575_143847)">
<path fill-rule="evenodd" clip-rule="evenodd" d="M11.9999 13.2857C12.3525 13.2857 12.6801 13.1793 12.9526 12.9969C12.921 12.999 12.8892 13 12.8571 13C12.0681 13 11.4285 12.3604 11.4285 11.5715C11.4285 10.7825 12.0681 10.1429 12.8571 10.1429C12.8892 10.1429 12.921 10.144 12.9526 10.146C12.6801 9.96359 12.3525 9.85718 11.9999 9.85718C11.0532 9.85718 10.2856 10.6247 10.2856 11.5715C10.2856 12.5182 11.0532 13.2857 11.9999 13.2857ZM13.7142 11.5715C13.7142 11.8871 13.4584 12.1429 13.1428 12.1429C12.8272 12.1429 12.5714 11.8871 12.5714 11.5715C12.5714 11.2559 12.8272 11 13.1428 11C13.4584 11 13.7142 11.2559 13.7142 11.5715Z" fill="white"/>
</g>
</g>
<defs>
<filter id="filter0_d_7575_143847" x="10.2856" y="9.85718" width="3.42859" height="4.42847" filterUnits="userSpaceOnUse" color-interpolation-filters="sRGB">
<feFlood flood-opacity="0" result="BackgroundImageFix"/>
<feColorMatrix in="SourceAlpha" type="matrix" values="0 0 0 0 0 0 0 0 0 0 0 0 0 0 0 0 0 0 127 0" result="hardAlpha"/>
<feOffset dy="1"/>
<feColorMatrix type="matrix" values="0 0 0 0 0 0 0 0 0 0 0 0 0 0 0 0 0 0 0.06 0"/>
<feBlend mode="normal" in2="BackgroundImageFix" result="effect1_dropShadow_7575_143847"/>
<feBlend mode="normal" in="SourceGraphic" in2="effect1_dropShadow_7575_143847" result="shape"/>
</filter>
</defs>
</svg>
