<svg width="24" height="24" viewBox="0 0 24 24" fill="none" xmlns="http://www.w3.org/2000/svg">
<rect y="3" width="24" height="17.1429" rx="2" fill="white"/>
<mask id="mask0_7575_143846" style="mask-type:luminance" maskUnits="userSpaceOnUse" x="0" y="3" width="24" height="18">
<rect y="3" width="24" height="17.1429" rx="2" fill="white"/>
</mask>
<g mask="url(#mask0_7575_143846)">
<rect y="3" width="24" height="17.1429" fill="#043CAE"/>
<path fill-rule="evenodd" clip-rule="evenodd" d="M11.1918 6.66532L11.9999 6.42862L12.8081 6.66532L12.5714 5.85719L12.8081 5.04907L11.9999 5.28577L11.1918 5.04907L11.4285 5.85719L11.1918 6.66532ZM11.1918 18.0939L11.9999 17.8572L12.8081 18.0939L12.5714 17.2858L12.8081 16.4776L11.9999 16.7143L11.1918 16.4776L11.4285 17.2858L11.1918 18.0939ZM17.7142 12.1429L16.9061 12.3796L17.1428 11.5715L16.9061 10.7634L17.7142 11.0001L18.5224 10.7634L18.2857 11.5715L18.5224 12.3796L17.7142 12.1429ZM5.47754 12.3796L6.28566 12.1429L7.09378 12.3796L6.85709 11.5715L7.09378 10.7634L6.28566 11.0001L5.47754 10.7634L5.71423 11.5715L5.47754 12.3796ZM16.9487 9.28577L16.1405 9.52246L16.3772 8.71434L16.1405 7.90622L16.9487 8.14291L17.7568 7.90622L17.5201 8.71434L17.7568 9.52246L16.9487 9.28577ZM6.24311 15.2367L7.05123 15.0001L7.85935 15.2367L7.62266 14.4286L7.85935 13.6205L7.05123 13.8572L6.24311 13.6205L6.4798 14.4286L6.24311 15.2367ZM14.8571 7.19419L14.049 7.43089L14.2857 6.62276L14.049 5.81464L14.8571 6.05133L15.6652 5.81464L15.4285 6.62276L15.6652 7.43089L14.8571 7.19419ZM8.33468 17.3283L9.1428 17.0916L9.95093 17.3283L9.71423 16.5202L9.95093 15.7121L9.1428 15.9488L8.33468 15.7121L8.57138 16.5202L8.33468 17.3283ZM16.9487 15.0001L16.1405 15.2367L16.3772 14.4286L16.1405 13.6205L16.9487 13.8572L17.7568 13.6205L17.5201 14.4286L17.7568 15.2367L16.9487 15.0001ZM6.24311 9.52246L7.05123 9.28577L7.85935 9.52246L7.62266 8.71434L7.85935 7.90622L7.05123 8.14291L6.24311 7.90622L6.4798 8.71434L6.24311 9.52246ZM14.8571 17.0916L14.049 17.3283L14.2857 16.5202L14.049 15.7121L14.8571 15.9488L15.6652 15.7121L15.4285 16.5202L15.6652 17.3283L14.8571 17.0916ZM8.33468 7.43089L9.1428 7.19419L9.95093 7.43089L9.71423 6.62276L9.95093 5.81464L9.1428 6.05133L8.33468 5.81464L8.57138 6.62276L8.33468 7.43089Z" fill="#FFD429"/>
</g>
</svg>
