<svg width="24" height="24" viewBox="0 0 24 24" fill="none" xmlns="http://www.w3.org/2000/svg">
<rect x="0.25" y="3.25" width="23.5" height="16.6429" rx="1.75" fill="white" stroke="#F5F5F5" stroke-width="0.5"/>
<mask id="mask0_7575_143849" style="mask-type:luminance" maskUnits="userSpaceOnUse" x="0" y="3" width="24" height="18">
<rect x="0.25" y="3.25" width="23.5" height="16.6429" rx="1.75" fill="white" stroke="white" stroke-width="0.5"/>
</mask>
<g mask="url(#mask0_7575_143849)">
<path fill-rule="evenodd" clip-rule="evenodd" d="M0 8.71429H24V3H0V8.71429Z" fill="#04AAC8"/>
<path fill-rule="evenodd" clip-rule="evenodd" d="M0 20.143H24V14.4287H0V20.143Z" fill="#23C840"/>
<path fill-rule="evenodd" clip-rule="evenodd" d="M3.99993 7.57164C4.35246 7.57164 4.68013 7.46523 4.95258 7.28278C4.92101 7.28486 4.88917 7.28592 4.85707 7.28592C4.06809 7.28592 3.4285 6.64633 3.4285 5.85735C3.4285 5.06837 4.06809 4.42878 4.85707 4.42878C4.88917 4.42878 4.92101 4.42984 4.95258 4.43192C4.68013 4.24947 4.35246 4.14307 3.99993 4.14307C3.05316 4.14307 2.28564 4.91058 2.28564 5.85735C2.28564 6.80413 3.05316 7.57164 3.99993 7.57164ZM6.85707 7.00021C6.85707 7.3158 6.60124 7.57164 6.28564 7.57164C5.97005 7.57164 5.71422 7.3158 5.71422 7.00021C5.71422 6.68462 5.97005 6.42878 6.28564 6.42878C6.60124 6.42878 6.85707 6.68462 6.85707 7.00021ZM8.57136 5.28592C8.88695 5.28592 9.14279 5.03009 9.14279 4.7145C9.14279 4.3989 8.88695 4.14307 8.57136 4.14307C8.25577 4.14307 7.99993 4.3989 7.99993 4.7145C7.99993 5.03009 8.25577 5.28592 8.57136 5.28592ZM11.4285 4.7145C11.4285 5.03009 11.1727 5.28592 10.8571 5.28592C10.5415 5.28592 10.2856 5.03009 10.2856 4.7145C10.2856 4.3989 10.5415 4.14307 10.8571 4.14307C11.1727 4.14307 11.4285 4.3989 11.4285 4.7145ZM10.8571 7.57164C11.1727 7.57164 11.4285 7.3158 11.4285 7.00021C11.4285 6.68462 11.1727 6.42878 10.8571 6.42878C10.5415 6.42878 10.2856 6.68462 10.2856 7.00021C10.2856 7.3158 10.5415 7.57164 10.8571 7.57164ZM9.14279 7.00021C9.14279 7.3158 8.88695 7.57164 8.57136 7.57164C8.25577 7.57164 7.99993 7.3158 7.99993 7.00021C7.99993 6.68462 8.25577 6.42878 8.57136 6.42878C8.88695 6.42878 9.14279 6.68462 9.14279 7.00021Z" fill="white"/>
</g>
</svg>
