<svg width="24" height="24" viewBox="0 0 24 24" fill="none" xmlns="http://www.w3.org/2000/svg">
<rect y="3" width="24" height="17.1429" rx="2" fill="white"/>
<mask id="mask0_7575_143852" style="mask-type:luminance" maskUnits="userSpaceOnUse" x="0" y="3" width="24" height="18">
<rect y="3" width="24" height="17.1429" rx="2" fill="white"/>
</mask>
<g mask="url(#mask0_7575_143852)">
<rect y="3" width="24" height="17.1429" fill="#F22A46"/>
<path fill-rule="evenodd" clip-rule="evenodd" d="M12 14.4286C13.5779 14.4286 14.8571 13.1495 14.8571 11.5715C14.8571 9.99354 13.5779 8.71436 12 8.71436C10.422 8.71436 9.14282 9.99354 9.14282 11.5715C9.14282 13.1495 10.422 14.4286 12 14.4286Z" fill="#FFF04D"/>
<path fill-rule="evenodd" clip-rule="evenodd" d="M10.6014 17.6996L12.0001 15.6117L13.3988 17.6996L13.7531 15.2116L15.9191 16.4858L15.1589 14.0905L17.6633 14.2987L15.939 12.4705L18.2858 11.5715L15.939 10.6724L17.6633 8.84421L15.1589 9.05243L15.9191 6.65711L13.7531 7.93135L13.3988 5.44336L12.0001 7.53124L10.6014 5.44336L10.2471 7.93135L8.08099 6.65711L8.84128 9.05243L6.33684 8.84421L8.06113 10.6724L5.71436 11.5715L8.06113 12.4705L6.33684 14.2987L8.84128 14.0905L8.08099 16.4858L10.2471 15.2116L10.6014 17.6996ZM16.0001 11.5715C16.0001 13.7806 14.2092 15.5715 12.0001 15.5715C9.79093 15.5715 8.00007 13.7806 8.00007 11.5715C8.00007 9.36234 9.79093 7.57148 12.0001 7.57148C14.2092 7.57148 16.0001 9.36234 16.0001 11.5715Z" fill="#FFF04D"/>
</g>
</svg>
