<svg width="24" height="24" viewBox="0 0 24 24" fill="none" xmlns="http://www.w3.org/2000/svg">
<rect y="3" width="24" height="17.1429" rx="2" fill="white"/>
<mask id="mask0_7575_143851" style="mask-type:luminance" maskUnits="userSpaceOnUse" x="0" y="3" width="24" height="18">
<rect y="3" width="24" height="17.1429" rx="2" fill="white"/>
</mask>
<g mask="url(#mask0_7575_143851)">
<rect y="3" width="24" height="17.1429" fill="#30C6E0"/>
<path fill-rule="evenodd" clip-rule="evenodd" d="M12 15.0002C13.8935 15.0002 15.4286 13.4652 15.4286 11.5716C15.4286 9.67809 13.8935 8.14307 12 8.14307C10.1064 8.14307 8.57141 9.67809 8.57141 11.5716C8.57141 13.4652 10.1064 15.0002 12 15.0002Z" fill="#FFCD4B"/>
<path fill-rule="evenodd" clip-rule="evenodd" d="M10.6014 17.6996L12.0001 15.6117L13.3988 17.6996L13.7531 15.2116L15.9191 16.4858L15.1589 14.0905L17.6633 14.2987L15.939 12.4705L18.2858 11.5715L15.939 10.6724L17.6633 8.84421L15.1589 9.05243L15.9191 6.65711L13.7531 7.93135L13.3988 5.44336L12.0001 7.53124L10.6014 5.44336L10.2471 7.93135L8.08099 6.65711L8.84128 9.05243L6.33684 8.84421L8.06113 10.6724L5.71436 11.5715L8.06113 12.4705L6.33684 14.2987L8.84128 14.0905L8.08099 16.4858L10.2471 15.2116L10.6014 17.6996ZM16.0001 11.5715C16.0001 13.7806 14.2092 15.5715 12.0001 15.5715C9.79093 15.5715 8.00007 13.7806 8.00007 11.5715C8.00007 9.36234 9.79093 7.57148 12.0001 7.57148C14.2092 7.57148 16.0001 9.36234 16.0001 11.5715Z" fill="#FFCD4B"/>
<path fill-rule="evenodd" clip-rule="evenodd" d="M1.14282 4.4764C1.14282 4.2923 1.29206 4.14307 1.47616 4.14307H1.95235C2.13644 4.14307 2.28568 4.2923 2.28568 4.4764V4.95259C2.28568 5.13669 2.13644 5.28592 1.95235 5.28592H1.47616C1.29206 5.28592 1.14282 5.13669 1.14282 4.95259V4.4764ZM1.14282 6.76211C1.14282 6.57802 1.29206 6.42878 1.47616 6.42878H1.95235C2.13644 6.42878 2.28568 6.57802 2.28568 6.76211V7.2383C2.28568 7.4224 2.13644 7.57164 1.95235 7.57164H1.47616C1.29206 7.57164 1.14282 7.4224 1.14282 7.2383V6.76211ZM1.47616 8.7145C1.29206 8.7145 1.14282 8.86373 1.14282 9.04783V9.52402C1.14282 9.70811 1.29206 9.85735 1.47616 9.85735H1.95235C2.13644 9.85735 2.28568 9.70811 2.28568 9.52402V9.04783C2.28568 8.86373 2.13644 8.7145 1.95235 8.7145H1.47616ZM1.14282 11.3335C1.14282 11.1494 1.29206 11.0002 1.47616 11.0002H1.95235C2.13644 11.0002 2.28568 11.1494 2.28568 11.3335V11.8097C2.28568 11.9938 2.13644 12.1431 1.95235 12.1431H1.47616C1.29206 12.1431 1.14282 11.9938 1.14282 11.8097V11.3335ZM1.47616 13.2859C1.29206 13.2859 1.14282 13.4352 1.14282 13.6193V14.0954C1.14282 14.2795 1.29206 14.4288 1.47616 14.4288H1.95235C2.13644 14.4288 2.28568 14.2795 2.28568 14.0954V13.6193C2.28568 13.4352 2.13644 13.2859 1.95235 13.2859H1.47616ZM1.14282 15.905C1.14282 15.7209 1.29206 15.5716 1.47616 15.5716H1.95235C2.13644 15.5716 2.28568 15.7209 2.28568 15.905V16.3812C2.28568 16.5653 2.13644 16.7145 1.95235 16.7145H1.47616C1.29206 16.7145 1.14282 16.5653 1.14282 16.3812V15.905ZM1.47616 17.8574C1.29206 17.8574 1.14282 18.0066 1.14282 18.1907V18.6669C1.14282 18.851 1.29206 19.0002 1.47616 19.0002H1.95235C2.13644 19.0002 2.28568 18.851 2.28568 18.6669V18.1907C2.28568 18.0066 2.13644 17.8574 1.95235 17.8574H1.47616ZM2.28568 17.0478C2.28568 16.8637 2.43492 16.7145 2.61901 16.7145H3.0952C3.2793 16.7145 3.42854 16.8637 3.42854 17.0478V17.524C3.42854 17.7081 3.2793 17.8574 3.0952 17.8574H2.61901C2.43492 17.8574 2.28568 17.7081 2.28568 17.524V17.0478ZM2.61901 14.4288C2.43492 14.4288 2.28568 14.578 2.28568 14.7621V15.2383C2.28568 15.4224 2.43492 15.5716 2.61901 15.5716H3.0952C3.2793 15.5716 3.42854 15.4224 3.42854 15.2383V14.7621C3.42854 14.578 3.2793 14.4288 3.0952 14.4288H2.61901ZM2.28568 12.4764C2.28568 12.2923 2.43492 12.1431 2.61901 12.1431H3.0952C3.2793 12.1431 3.42854 12.2923 3.42854 12.4764V12.9526C3.42854 13.1367 3.2793 13.2859 3.0952 13.2859H2.61901C2.43492 13.2859 2.28568 13.1367 2.28568 12.9526V12.4764ZM2.61901 9.85735C2.43492 9.85735 2.28568 10.0066 2.28568 10.1907V10.6669C2.28568 10.851 2.43492 11.0002 2.61901 11.0002H3.0952C3.2793 11.0002 3.42854 10.851 3.42854 10.6669V10.1907C3.42854 10.0066 3.2793 9.85735 3.0952 9.85735H2.61901ZM2.28568 7.90497C2.28568 7.72088 2.43492 7.57164 2.61901 7.57164H3.0952C3.2793 7.57164 3.42854 7.72088 3.42854 7.90497V8.38116C3.42854 8.56526 3.2793 8.71449 3.0952 8.71449H2.61901C2.43492 8.71449 2.28568 8.56526 2.28568 8.38116V7.90497ZM2.61901 5.28592C2.43492 5.28592 2.28568 5.43516 2.28568 5.61926V6.09545C2.28568 6.27954 2.43492 6.42878 2.61901 6.42878H3.0952C3.2793 6.42878 3.42854 6.27954 3.42854 6.09545V5.61926C3.42854 5.43516 3.2793 5.28592 3.0952 5.28592H2.61901Z" fill="#FFCD4B"/>
</g>
</svg>
