<svg width="24" height="24" viewBox="0 0 24 24" fill="none" xmlns="http://www.w3.org/2000/svg">
<rect y="3" width="24" height="17.1429" rx="2" fill="white"/>
<mask id="mask0_7575_143845" style="mask-type:luminance" maskUnits="userSpaceOnUse" x="0" y="3" width="24" height="18">
<rect y="3" width="24" height="17.1429" rx="2" fill="white"/>
</mask>
<g mask="url(#mask0_7575_143845)">
<path fill-rule="evenodd" clip-rule="evenodd" d="M24 3H0V4.14286H24V3ZM24 5.28571H0V6.42857H24V5.28571ZM0 7.57143H24V8.71429H0V7.57143ZM24 9.85714H0V11H24V9.85714ZM0 12.1429H24V13.2857H0V12.1429ZM24 14.4286H0V15.5714H24V14.4286ZM0 16.7143H24V17.8571H0V16.7143ZM24 19H0V20.1429H24V19Z" fill="#D02F44"/>
<rect y="3" width="10.2857" height="8" fill="#46467F"/>
<g filter="url(#filter0_d_7575_143845)">
<path fill-rule="evenodd" clip-rule="evenodd" d="M2.28568 4.71425C2.28568 5.02984 2.02984 5.28568 1.71425 5.28568C1.39866 5.28568 1.14282 5.02984 1.14282 4.71425C1.14282 4.39866 1.39866 4.14282 1.71425 4.14282C2.02984 4.14282 2.28568 4.39866 2.28568 4.71425ZM4.57139 4.71425C4.57139 5.02984 4.31556 5.28568 3.99997 5.28568C3.68437 5.28568 3.42854 5.02984 3.42854 4.71425C3.42854 4.39866 3.68437 4.14282 3.99997 4.14282C4.31556 4.14282 4.57139 4.39866 4.57139 4.71425ZM6.28568 5.28568C6.60127 5.28568 6.85711 5.02984 6.85711 4.71425C6.85711 4.39866 6.60127 4.14282 6.28568 4.14282C5.97009 4.14282 5.71425 4.39866 5.71425 4.71425C5.71425 5.02984 5.97009 5.28568 6.28568 5.28568ZM9.14282 4.71425C9.14282 5.02984 8.88699 5.28568 8.57139 5.28568C8.2558 5.28568 7.99997 5.02984 7.99997 4.71425C7.99997 4.39866 8.2558 4.14282 8.57139 4.14282C8.88699 4.14282 9.14282 4.39866 9.14282 4.71425ZM2.85711 6.42854C3.1727 6.42854 3.42854 6.1727 3.42854 5.85711C3.42854 5.54152 3.1727 5.28568 2.85711 5.28568C2.54152 5.28568 2.28568 5.54152 2.28568 5.85711C2.28568 6.1727 2.54152 6.42854 2.85711 6.42854ZM5.71425 5.85711C5.71425 6.1727 5.45841 6.42854 5.14282 6.42854C4.82723 6.42854 4.57139 6.1727 4.57139 5.85711C4.57139 5.54152 4.82723 5.28568 5.14282 5.28568C5.45841 5.28568 5.71425 5.54152 5.71425 5.85711ZM7.42854 6.42854C7.74413 6.42854 7.99997 6.1727 7.99997 5.85711C7.99997 5.54152 7.74413 5.28568 7.42854 5.28568C7.11295 5.28568 6.85711 5.54152 6.85711 5.85711C6.85711 6.1727 7.11295 6.42854 7.42854 6.42854ZM9.14282 6.99997C9.14282 7.31556 8.88699 7.57139 8.57139 7.57139C8.2558 7.57139 7.99997 7.31556 7.99997 6.99997C7.99997 6.68437 8.2558 6.42854 8.57139 6.42854C8.88699 6.42854 9.14282 6.68437 9.14282 6.99997ZM6.28568 7.57139C6.60127 7.57139 6.85711 7.31556 6.85711 6.99997C6.85711 6.68437 6.60127 6.42854 6.28568 6.42854C5.97009 6.42854 5.71425 6.68437 5.71425 6.99997C5.71425 7.31556 5.97009 7.57139 6.28568 7.57139ZM4.57139 6.99997C4.57139 7.31556 4.31556 7.57139 3.99997 7.57139C3.68437 7.57139 3.42854 7.31556 3.42854 6.99997C3.42854 6.68437 3.68437 6.42854 3.99997 6.42854C4.31556 6.42854 4.57139 6.68437 4.57139 6.99997ZM1.71425 7.57139C2.02984 7.57139 2.28568 7.31556 2.28568 6.99997C2.28568 6.68437 2.02984 6.42854 1.71425 6.42854C1.39866 6.42854 1.14282 6.68437 1.14282 6.99997C1.14282 7.31556 1.39866 7.57139 1.71425 7.57139ZM3.42854 8.14282C3.42854 8.45841 3.1727 8.71425 2.85711 8.71425C2.54152 8.71425 2.28568 8.45841 2.28568 8.14282C2.28568 7.82723 2.54152 7.57139 2.85711 7.57139C3.1727 7.57139 3.42854 7.82723 3.42854 8.14282ZM5.14282 8.71425C5.45841 8.71425 5.71425 8.45841 5.71425 8.14282C5.71425 7.82723 5.45841 7.57139 5.14282 7.57139C4.82723 7.57139 4.57139 7.82723 4.57139 8.14282C4.57139 8.45841 4.82723 8.71425 5.14282 8.71425ZM7.99997 8.14282C7.99997 8.45841 7.74413 8.71425 7.42854 8.71425C7.11295 8.71425 6.85711 8.45841 6.85711 8.14282C6.85711 7.82723 7.11295 7.57139 7.42854 7.57139C7.74413 7.57139 7.99997 7.82723 7.99997 8.14282ZM8.57139 9.85711C8.88699 9.85711 9.14282 9.60127 9.14282 9.28568C9.14282 8.97009 8.88699 8.71425 8.57139 8.71425C8.2558 8.71425 7.99997 8.97009 7.99997 9.28568C7.99997 9.60127 8.2558 9.85711 8.57139 9.85711ZM6.85711 9.28568C6.85711 9.60127 6.60127 9.85711 6.28568 9.85711C5.97009 9.85711 5.71425 9.60127 5.71425 9.28568C5.71425 8.97009 5.97009 8.71425 6.28568 8.71425C6.60127 8.71425 6.85711 8.97009 6.85711 9.28568ZM3.99997 9.85711C4.31556 9.85711 4.57139 9.60127 4.57139 9.28568C4.57139 8.97009 4.31556 8.71425 3.99997 8.71425C3.68437 8.71425 3.42854 8.97009 3.42854 9.28568C3.42854 9.60127 3.68437 9.85711 3.99997 9.85711ZM2.28568 9.28568C2.28568 9.60127 2.02984 9.85711 1.71425 9.85711C1.39866 9.85711 1.14282 9.60127 1.14282 9.28568C1.14282 8.97009 1.39866 8.71425 1.71425 8.71425C2.02984 8.71425 2.28568 8.97009 2.28568 9.28568Z" fill="url(#paint0_linear_7575_143845)"/>
</g>
</g>
<defs>
<filter id="filter0_d_7575_143845" x="1.14282" y="4.14282" width="8" height="6.71436" filterUnits="userSpaceOnUse" color-interpolation-filters="sRGB">
<feFlood flood-opacity="0" result="BackgroundImageFix"/>
<feColorMatrix in="SourceAlpha" type="matrix" values="0 0 0 0 0 0 0 0 0 0 0 0 0 0 0 0 0 0 127 0" result="hardAlpha"/>
<feOffset dy="1"/>
<feColorMatrix type="matrix" values="0 0 0 0 0 0 0 0 0 0 0 0 0 0 0 0 0 0 0.06 0"/>
<feBlend mode="normal" in2="BackgroundImageFix" result="effect1_dropShadow_7575_143845"/>
<feBlend mode="normal" in="SourceGraphic" in2="effect1_dropShadow_7575_143845" result="shape"/>
</filter>
<linearGradient id="paint0_linear_7575_143845" x1="1.14282" y1="4.14282" x2="1.14282" y2="9.85711" gradientUnits="userSpaceOnUse">
<stop stop-color="white"/>
<stop offset="1" stop-color="#F0F0F0"/>
</linearGradient>
</defs>
</svg>
