<svg width="24" height="24" viewBox="0 0 24 24" fill="none" xmlns="http://www.w3.org/2000/svg">
<rect x="0.25" y="3.25" width="23.5" height="16.6429" rx="1.75" fill="white" stroke="#F5F5F5" stroke-width="0.5"/>
<mask id="mask0_7575_143854" style="mask-type:luminance" maskUnits="userSpaceOnUse" x="0" y="3" width="24" height="18">
<rect x="0.25" y="3.25" width="23.5" height="16.6429" rx="1.75" fill="white" stroke="white" stroke-width="0.5"/>
</mask>
<g mask="url(#mask0_7575_143854)">
<path fill-rule="evenodd" clip-rule="evenodd" d="M0 8.71429H24V3H0V8.71429Z" fill="#D9101C"/>
<path fill-rule="evenodd" clip-rule="evenodd" d="M0 20.143H24V14.4287H0V20.143Z" fill="#0F7811"/>
<path fill-rule="evenodd" clip-rule="evenodd" d="M11.4286 10.4284C11.4286 10.744 11.1727 10.9998 10.8571 10.9998C10.5416 10.9998 10.2857 10.744 10.2857 10.4284C10.2857 10.1128 10.5416 9.85693 10.8571 9.85693C11.1727 9.85693 11.4286 10.1128 11.4286 10.4284ZM12.5714 11.5712C12.5714 11.6746 12.544 11.8941 12.496 12.1426H13.1429C13.4584 12.1426 13.7143 12.3985 13.7143 12.7141C13.7143 13.0297 13.4584 13.2855 13.1429 13.2855H12H10.8571C10.5416 13.2855 10.2857 13.0297 10.2857 12.7141C10.2857 12.3985 10.5416 12.1426 10.8571 12.1426H11.504C11.456 11.8941 11.4286 11.6746 11.4286 11.5712C11.4286 11.2556 11.6844 10.9998 12 10.9998C12.3156 10.9998 12.5714 11.2556 12.5714 11.5712ZM13.7143 10.4284C13.7143 10.744 13.4584 10.9998 13.1429 10.9998C12.8273 10.9998 12.5714 10.744 12.5714 10.4284C12.5714 10.1128 12.8273 9.85693 13.1429 9.85693C13.4584 9.85693 13.7143 10.1128 13.7143 10.4284ZM15.4286 12.1426C15.7442 12.1426 16 11.8868 16 11.5712C16 11.2556 15.7442 10.9998 15.4286 10.9998C15.113 10.9998 14.8571 11.2556 14.8571 11.5712C14.8571 11.8868 15.113 12.1426 15.4286 12.1426ZM9.14286 11.5712C9.14286 11.8868 8.88702 12.1426 8.57143 12.1426C8.25584 12.1426 8 11.8868 8 11.5712C8 11.2556 8.25584 10.9998 8.57143 10.9998C8.88702 10.9998 9.14286 11.2556 9.14286 11.5712Z" fill="#FAD14E"/>
</g>
</svg>
