<svg width="24" height="24" viewBox="0 0 24 24" fill="none" xmlns="http://www.w3.org/2000/svg">
<rect y="3" width="24" height="17.1429" rx="2" fill="white"/>
<mask id="mask0_7575_143855" style="mask-type:luminance" maskUnits="userSpaceOnUse" x="0" y="3" width="24" height="18">
<rect y="3" width="24" height="17.1429" rx="2" fill="white"/>
</mask>
<g mask="url(#mask0_7575_143855)">
<path fill-rule="evenodd" clip-rule="evenodd" d="M0 20.1429H24V3H0V20.1429Z" fill="#30C375"/>
<rect x="3.42859" y="3" width="3.42857" height="17.1429" fill="#DE414F"/>
<path fill-rule="evenodd" clip-rule="evenodd" d="M5.14287 6.42878C6.08965 6.42878 6.85716 5.91711 6.85716 5.28592C6.85716 4.65474 6.08965 4.14307 5.14287 4.14307C4.1961 4.14307 3.42859 4.65474 3.42859 5.28592C3.42859 5.91711 4.1961 6.42878 5.14287 6.42878Z" fill="white"/>
<mask id="mask1_7575_143855" style="mask-type:luminance" maskUnits="userSpaceOnUse" x="3" y="4" width="4" height="3">
<path fill-rule="evenodd" clip-rule="evenodd" d="M5.14287 6.42878C6.08965 6.42878 6.85716 5.91711 6.85716 5.28592C6.85716 4.65474 6.08965 4.14307 5.14287 4.14307C4.1961 4.14307 3.42859 4.65474 3.42859 5.28592C3.42859 5.91711 4.1961 6.42878 5.14287 6.42878Z" fill="white"/>
</mask>
<g mask="url(#mask1_7575_143855)">
<path fill-rule="evenodd" clip-rule="evenodd" d="M5.14284 5.85721C5.45843 5.85721 5.71427 5.60138 5.71427 5.28578C5.71427 4.97019 5.45843 4.71436 5.14284 4.71436C4.82725 4.71436 4.57141 4.97019 4.57141 5.28578C4.57141 5.60138 4.82725 5.85721 5.14284 5.85721Z" fill="#DD404F"/>
<rect x="3.42859" y="4.14307" width="1.71429" height="1.14286" fill="#FBAF29"/>
<rect x="5.14282" y="5.28613" width="1.71429" height="1.14286" fill="#FBAF29"/>
</g>
<path fill-rule="evenodd" clip-rule="evenodd" d="M5.14287 19.0001C6.08965 19.0001 6.85716 18.4884 6.85716 17.8572C6.85716 17.226 6.08965 16.7144 5.14287 16.7144C4.1961 16.7144 3.42859 17.226 3.42859 17.8572C3.42859 18.4884 4.1961 19.0001 5.14287 19.0001Z" fill="white"/>
<mask id="mask2_7575_143855" style="mask-type:luminance" maskUnits="userSpaceOnUse" x="3" y="16" width="4" height="3">
<path fill-rule="evenodd" clip-rule="evenodd" d="M5.14287 19.0001C6.08965 19.0001 6.85716 18.4884 6.85716 17.8572C6.85716 17.226 6.08965 16.7144 5.14287 16.7144C4.1961 16.7144 3.42859 17.226 3.42859 17.8572C3.42859 18.4884 4.1961 19.0001 5.14287 19.0001Z" fill="white"/>
</mask>
<g mask="url(#mask2_7575_143855)">
<path fill-rule="evenodd" clip-rule="evenodd" d="M5.14284 18.4285C5.45843 18.4285 5.71427 18.1727 5.71427 17.8571C5.71427 17.5415 5.45843 17.2856 5.14284 17.2856C4.82725 17.2856 4.57141 17.5415 4.57141 17.8571C4.57141 18.1727 4.82725 18.4285 5.14284 18.4285Z" fill="#DD404F"/>
<rect x="3.42859" y="16.7144" width="1.71429" height="1.14286" fill="#FBAF29"/>
<rect x="5.14282" y="17.8574" width="1.71429" height="1.14286" fill="#FBAF29"/>
</g>
<path fill-rule="evenodd" clip-rule="evenodd" d="M5.14287 13.2857C6.08965 13.2857 6.85716 12.774 6.85716 12.1429C6.85716 11.5117 6.08965 11 5.14287 11C4.1961 11 3.42859 11.5117 3.42859 12.1429C3.42859 12.774 4.1961 13.2857 5.14287 13.2857Z" fill="#28AE67"/>
<mask id="mask3_7575_143855" style="mask-type:luminance" maskUnits="userSpaceOnUse" x="3" y="11" width="4" height="3">
<path fill-rule="evenodd" clip-rule="evenodd" d="M5.14287 13.2857C6.08965 13.2857 6.85716 12.774 6.85716 12.1429C6.85716 11.5117 6.08965 11 5.14287 11C4.1961 11 3.42859 11.5117 3.42859 12.1429C3.42859 12.774 4.1961 13.2857 5.14287 13.2857Z" fill="white"/>
</mask>
<g mask="url(#mask3_7575_143855)">
<path fill-rule="evenodd" clip-rule="evenodd" d="M5.14286 12.7141C5.77404 12.7141 6.28571 12.4583 6.28571 12.1427C6.28571 11.8271 5.77404 11.5713 5.14286 11.5713C4.51167 11.5713 4 11.8271 4 12.1427C4 12.4583 4.51167 12.7141 5.14286 12.7141Z" fill="#DD404F"/>
</g>
<path fill-rule="evenodd" clip-rule="evenodd" d="M5.14287 15.5716C6.08965 15.5716 6.85716 15.3157 6.85716 15.0001C6.85716 14.6845 6.08965 14.4287 5.14287 14.4287C4.1961 14.4287 3.42859 14.6845 3.42859 15.0001C3.42859 15.3157 4.1961 15.5716 5.14287 15.5716Z" fill="#28AE67"/>
<mask id="mask4_7575_143855" style="mask-type:luminance" maskUnits="userSpaceOnUse" x="3" y="14" width="4" height="2">
<path fill-rule="evenodd" clip-rule="evenodd" d="M5.14287 15.5716C6.08965 15.5716 6.85716 15.3157 6.85716 15.0001C6.85716 14.6845 6.08965 14.4287 5.14287 14.4287C4.1961 14.4287 3.42859 14.6845 3.42859 15.0001C3.42859 15.3157 4.1961 15.5716 5.14287 15.5716Z" fill="white"/>
</mask>
<g mask="url(#mask4_7575_143855)">
</g>
<path fill-rule="evenodd" clip-rule="evenodd" d="M5.14287 9.857C6.08965 9.857 6.85716 9.34533 6.85716 8.71415C6.85716 8.08296 6.08965 7.57129 5.14287 7.57129C4.1961 7.57129 3.42859 8.08296 3.42859 8.71415C3.42859 9.34533 4.1961 9.857 5.14287 9.857Z" fill="#FBAF29"/>
<mask id="mask5_7575_143855" style="mask-type:luminance" maskUnits="userSpaceOnUse" x="3" y="7" width="4" height="3">
<path fill-rule="evenodd" clip-rule="evenodd" d="M5.14287 9.857C6.08965 9.857 6.85716 9.34533 6.85716 8.71415C6.85716 8.08296 6.08965 7.57129 5.14287 7.57129C4.1961 7.57129 3.42859 8.08296 3.42859 8.71415C3.42859 9.34533 4.1961 9.857 5.14287 9.857Z" fill="white"/>
</mask>
<g mask="url(#mask5_7575_143855)">
<path fill-rule="evenodd" clip-rule="evenodd" d="M5.14284 9.28544C5.45843 9.28544 5.71427 9.0296 5.71427 8.71401C5.71427 8.39842 5.45843 8.14258 5.14284 8.14258C4.82725 8.14258 4.57141 8.39842 4.57141 8.71401C4.57141 9.0296 4.82725 9.28544 5.14284 9.28544Z" fill="#DD404F"/>
<rect x="3.42859" y="7.57129" width="1.14286" height="2.28571" fill="#28AE67"/>
<rect x="5.71436" y="7.57129" width="1.14286" height="2.28571" fill="#28AE67"/>
</g>
<path fill-rule="evenodd" clip-rule="evenodd" d="M12.7051 6.63264C12.5022 6.87439 12.5338 7.23482 12.7755 7.43768C13.0173 7.64054 13.3777 7.60901 13.5806 7.36725C13.7834 7.12549 13.7519 6.76506 13.5101 6.5622C13.2684 6.35935 12.908 6.39088 12.7051 6.63264ZM11.2244 8.84792C10.9827 8.64506 10.6222 8.67659 10.4194 8.91835C10.2165 9.16011 10.2481 9.52054 10.4898 9.7234C10.7316 9.92626 11.092 9.89472 11.2949 9.65296C11.4977 9.41121 11.4662 9.05078 11.2244 8.84792V8.84792ZM10.0816 7.70506C9.83981 7.5022 9.47938 7.53374 9.27652 7.77549C9.07367 8.01725 9.1052 8.37768 9.34696 8.58054C9.58871 8.7834 9.94915 8.75186 10.152 8.51011C10.3549 8.26835 10.3233 7.90792 10.0816 7.70506V7.70506ZM12.3673 5.41935C12.1255 5.21649 11.7651 5.24802 11.5622 5.48978C11.3594 5.73154 11.3909 6.09197 11.6327 6.29483C11.8744 6.49768 12.2349 6.46615 12.4377 6.22439C12.6406 5.98264 12.609 5.6222 12.3673 5.41935V5.41935ZM11.7959 7.13363C11.5541 6.93077 11.1937 6.96231 10.9908 7.20406C10.788 7.44582 10.8195 7.80625 11.0612 8.00911C11.303 8.21197 11.6634 8.18044 11.8663 7.93868C12.0691 7.69692 12.0376 7.33649 11.7959 7.13363V7.13363Z" fill="white"/>
<path fill-rule="evenodd" clip-rule="evenodd" d="M14.9795 11.1006C13.6183 12.4618 11.4114 12.4618 10.0502 11.1006C9.91832 10.9687 9.79921 10.8289 9.69287 10.6826C11.0558 11.6737 12.9749 11.5546 14.2042 10.3253C15.4335 9.09599 15.5526 7.17693 14.5615 5.81396C14.7078 5.9203 14.8476 6.03941 14.9795 6.17131C16.3407 7.53249 16.3407 9.73941 14.9795 11.1006Z" fill="white"/>
</g>
</svg>
