<svg width="14" height="21" viewBox="0 0 14 21" fill="none" xmlns="http://www.w3.org/2000/svg">
<g id="Group 2580">
<g id="Vector">
<path fill-rule="evenodd" clip-rule="evenodd" d="M2.33328 2.29922C2.06692 2.29922 1.79995 2.53223 1.79995 2.88383V18.1146C1.79995 18.4662 2.06692 18.6992 2.33328 18.6992H11.6666C11.933 18.6992 12.2 18.4662 12.2 18.1146V2.88383C12.2 2.53223 11.933 2.29922 11.6666 2.29922H2.33328ZM0.199951 2.88383C0.199951 1.70603 1.12689 0.699219 2.33328 0.699219H11.6666C12.873 0.699219 13.8 1.70603 13.8 2.88383V18.1146C13.8 19.2924 12.873 20.2992 11.6666 20.2992H2.33328C1.12689 20.2992 0.199951 19.2924 0.199951 18.1146V2.88383Z" 
fill="#006174"/>
<path fill-rule="evenodd" clip-rule="evenodd" d="M5.1999 16.0377C5.1999 15.5958 5.55807 15.2377 5.9999 15.2377H7.9999C8.44172 15.2377 8.7999 15.5958 8.7999 16.0377C8.7999 16.4795 8.44172 16.8377 7.9999 16.8377H5.9999C5.55807 16.8377 5.1999 16.4795 5.1999 16.0377Z" 
fill="#006174"/>
</g>
</g>
</svg>
