<svg width="24" height="24" viewBox="0 0 24 24" fill="none" xmlns="http://www.w3.org/2000/svg">
<path fill-rule="evenodd" clip-rule="evenodd" d="M7.33328 3.79971C7.06692 3.79971 6.79995 4.03272 6.79995 4.38432V19.6151C6.79995 19.9667 7.06692 20.1997 7.33328 20.1997H16.6666C16.933 20.1997 17.2 19.9667 17.2 19.6151V4.38432C17.2 4.03272 16.933 3.79971 16.6666 3.79971H7.33328ZM5.19995 4.38432C5.19995 3.20652 6.12689 2.19971 7.33328 2.19971H16.6666C17.873 2.19971 18.8 3.20652 18.8 4.38432V19.6151C18.8 20.7929 17.873 21.7997 16.6666 21.7997H7.33328C6.12689 21.7997 5.19995 20.7929 5.19995 19.6151V4.38432Z" fill="white"/>
<path fill-rule="evenodd" clip-rule="evenodd" d="M10.1999 17.5382C10.1999 17.0963 10.5581 16.7382 10.9999 16.7382H12.9999C13.4417 16.7382 13.7999 17.0963 13.7999 17.5382C13.7999 17.98 13.4417 18.3382 12.9999 18.3382H10.9999C10.5581 18.3382 10.1999 17.98 10.1999 17.5382Z" fill="white"/>
</svg>
