<svg width="24" height="24" viewBox="0 0 24 24" fill="none" xmlns="http://www.w3.org/2000/svg">
<path fill-rule="evenodd" clip-rule="evenodd" d="M19.6 4.69922H4.39995C3.19995 4.69922 2.19995 5.69922 2.19995 6.89922V17.1992C2.19995 18.3992 3.19995 19.3992 4.39995 19.3992H19.6C20.8 19.3992 21.7999 18.3992 21.7999 17.1992V6.89922C21.7999 5.69922 20.8 4.69922 19.6 4.69922ZM20.2 17.0992C20.2 17.3992 19.9 17.6992 19.6 17.6992H4.39995C4.09995 17.6992 3.79995 17.3992 3.79995 17.0992V11.0992H20.2V17.0992ZM20.2 9.49922H3.79995V6.89922C3.79995 6.59922 4.09995 6.29922 4.39995 6.29922H19.6C19.9 6.29922 20.2 6.59922 20.2 6.89922V9.49922Z" fill="#00DAB3"/>
<path fill-rule="evenodd" clip-rule="evenodd" d="M15.5 15.9992H17.6C18 15.9992 18.4 15.5992 18.4 15.1992C18.4 14.7992 18 14.3992 17.6 14.3992H15.5C15.1 14.3992 14.7 14.7992 14.7 15.1992C14.7 15.5992 15 15.9992 15.5 15.9992Z" fill="#00DAB3"/>
</svg>
