<svg width="24" height="24" viewBox="0 0 24 24" fill="none" xmlns="http://www.w3.org/2000/svg">
<path fill-rule="evenodd" clip-rule="evenodd" d="M19.6 4.69995H4.39995C3.19995 4.69995 2.19995 5.69995 2.19995 6.89995V17.2C2.19995 18.4 3.19995 19.4 4.39995 19.4H19.6C20.8 19.4 21.7999 18.4 21.7999 17.2V6.89995C21.7999 5.69995 20.8 4.69995 19.6 4.69995ZM20.2 17.1C20.2 17.4 19.9 17.7 19.6 17.7H4.39995C4.09995 17.7 3.79995 17.4 3.79995 17.1V11.1H20.2V17.1ZM20.2 9.49995H3.79995V6.89995C3.79995 6.59995 4.09995 6.29995 4.39995 6.29995H19.6C19.9 6.29995 20.2 6.59995 20.2 6.89995V9.49995Z" 
fill="#006174"/>
<path fill-rule="evenodd" clip-rule="evenodd" d="M15.5 16H17.6C18 16 18.4 15.6 18.4 15.2C18.4 14.8 18 14.4 17.6 14.4H15.5C15.1 14.4 14.7 14.8 14.7 15.2C14.7 15.6 15 16 15.5 16Z" 
fill="#006174"/>
</svg>
