<svg width="24" height="24" viewBox="0 0 24 24" fill="none" xmlns="http://www.w3.org/2000/svg">
<path d="M3.25 5.25C3.25 4.91848 3.3817 4.60054 3.61612 4.36612C3.85054 4.1317 4.16848 4 4.5 4H19.5C19.8315 4 20.1495 4.1317 20.3839 4.36612C20.6183 4.60054 20.75 4.91848 20.75 5.25H3.25ZM12 15.25C12.663 15.25 13.2989 14.9866 13.7678 14.5178C14.2366 14.0489 14.5 13.413 14.5 12.75C14.5 12.087 14.2366 11.4511 13.7678 10.9822C13.2989 10.5134 12.663 10.25 12 10.25C11.337 10.25 10.7011 10.5134 10.2322 10.9822C9.76339 11.4511 9.5 12.087 9.5 12.75C9.5 13.413 9.76339 14.0489 10.2322 14.5178C10.7011 14.9866 11.337 15.25 12 15.25Z" fill="#006174"/>
<path d="M2 7.75C2 7.41848 2.1317 7.10054 2.36612 6.86612C2.60054 6.6317 2.91848 6.5 3.25 6.5H20.75C21.0815 6.5 21.3995 6.6317 21.6339 6.86612C21.8683 7.10054 22 7.41848 22 7.75V17.75C22 18.0815 21.8683 18.3995 21.6339 18.6339C21.3995 18.8683 21.0815 19 20.75 19H3.25C2.91848 19 2.60054 18.8683 2.36612 18.6339C2.1317 18.3995 2 18.0815 2 17.75V7.75ZM5.75 7.75C5.75 8.41304 5.48661 9.04893 5.01777 9.51777C4.54893 9.98661 3.91304 10.25 3.25 10.25V15.25C3.91304 15.25 4.54893 15.5134 5.01777 15.9822C5.48661 16.4511 5.75 17.087 5.75 17.75H18.25C18.25 17.087 18.5134 16.4511 18.9822 15.9822C19.4511 15.5134 20.087 15.25 20.75 15.25V10.25C20.087 10.25 19.4511 9.98661 18.9822 9.51777C18.5134 9.04893 18.25 8.41304 18.25 7.75H5.75Z" fill="#006174"/>
</svg>
