<svg width="24" height="25" viewBox="0 0 24 25" fill="none" xmlns="http://www.w3.org/2000/svg">
<path d="M15.5455 2.5H8.27273C7.66996 2.5 7.09189 2.73945 6.66567 3.16567C6.23945 3.59189 6 4.16996 6 4.77273V20.2273C6 20.83 6.23945 21.4081 6.66567 21.8343C7.09189 22.2606 7.66996 22.5 8.27273 22.5H15.5455C16.1482 22.5 16.7263 22.2606 17.1525 21.8343C17.5787 21.4081 17.8182 20.83 17.8182 20.2273V4.77273C17.8182 4.16996 17.5787 3.59189 17.1525 3.16567C16.7263 2.73945 16.1482 2.5 15.5455 2.5ZM11.9091 21.5909C11.1545 21.5909 10.5455 20.9818 10.5455 20.2273C10.5455 19.4727 11.1545 18.8636 11.9091 18.8636C12.6636 18.8636 13.2727 19.4727 13.2727 20.2273C13.2727 20.9818 12.6636 21.5909 11.9091 21.5909ZM16 17.9545H7.81818V5.22727H16V17.9545Z" fill="#006174"/>
</svg>
