<svg width="48" height="48" viewBox="0 0 48 48" fill="none" xmlns="http://www.w3.org/2000/svg">
<path d="M22.5471 5.14986C23.0096 4.14717 23.2409 3.64583 23.5601 3.48945C23.8376 3.35353 24.1624 3.35353 24.4399 3.48945C24.7591 3.64583 24.9904 4.14717 25.4529 5.14986L29.8319 14.6435C29.9688 14.9402 30.0372 15.0886 30.141 15.2027C30.233 15.3037 30.3446 15.3848 30.469 15.441C30.6097 15.5045 30.7719 15.5238 31.0964 15.5622L41.4786 16.7932C42.5751 16.9232 43.1234 16.9882 43.3708 17.2436C43.5858 17.4655 43.6861 17.7743 43.6426 18.0802C43.5926 18.4322 43.1872 18.8071 42.3765 19.5568L34.7007 26.6551C34.4608 26.877 34.3408 26.9879 34.2644 27.122C34.1968 27.2406 34.1541 27.3718 34.1391 27.5075C34.1222 27.6609 34.154 27.8212 34.2177 28.1417L36.2552 38.3961C36.4704 39.4791 36.578 40.0207 36.4117 40.3348C36.267 40.6079 36.0043 40.7988 35.6999 40.8519C35.3497 40.9131 34.868 40.6434 33.9044 40.1041L24.7815 34.9975C24.4964 34.8378 24.3538 34.758 24.2027 34.7268C24.069 34.6991 23.931 34.6991 23.7973 34.7268C23.6462 34.758 23.5036 34.8378 23.2185 34.9975L14.0956 40.1041C13.132 40.6434 12.6503 40.9131 12.3001 40.8519C11.9957 40.7988 11.733 40.6079 11.5883 40.3348C11.422 40.0207 11.5296 39.4791 11.7448 38.3961L13.7823 28.1417C13.846 27.8212 13.8778 27.6609 13.8609 27.5075C13.8459 27.3718 13.8032 27.2406 13.7356 27.122C13.6592 26.9879 13.5392 26.877 13.2993 26.6551L5.62349 19.5568C4.81279 18.8071 4.40744 18.4322 4.35738 18.0802C4.31387 17.7743 4.41422 17.4655 4.62923 17.2436C4.87662 16.9882 5.42489 16.9232 6.52142 16.7932L16.9036 15.5622C17.2281 15.5238 17.3903 15.5045 17.531 15.441C17.6554 15.3848 17.767 15.3037 17.859 15.2027C17.9628 15.0886 18.0312 14.9402 18.1681 14.6435L22.5471 5.14986Z" fill="#FFAB00"/>
</svg>
