<svg width="128" height="128" viewBox="0 0 128 128" fill="none" xmlns="http://www.w3.org/2000/svg">
<path d="M43.6276 42.007L43.1668 56.0776L41.8462 119.664C64.8185 119.888 111.609 120.202 114.994 119.664C121.374 118.65 119.799 120.528 119.893 114.397L117.332 40.214L110.763 25.0861C110.541 21.8737 110.095 14.7094 110.095 11.7511C110.095 7.47536 110.763 8.05315 106.978 8.05315C90.7599 8.01579 57.5457 8.08794 54.4272 8.05315C49.9902 8.00365 51.04 7.47539 51.0871 11.1908V26.2067L43.6276 42.007Z" fill="#006174"/>
<path d="M43.6276 56.2384V42.007L51.0871 26.2067V11.1908C50.9015 10.1822 51.3098 8.14276 54.4272 8.05312C57.5446 7.96347 90.7599 8.01576 106.978 8.05312C108.017 8.05311 110.095 8.7927 110.095 11.7511C110.095 14.7094 110.541 21.8737 110.763 25.0861L117.332 40.214L119.893 114.397C119.67 115.928 118.379 119.126 114.994 119.664C111.609 120.202 64.8185 119.888 41.8462 119.664L43.4859 61.2811" stroke="#11142D" stroke-linecap="round" stroke-linejoin="round"/>
<path d="M58.1013 23.6935H85.9353" stroke="#11142D" stroke-linecap="round"/>
<path d="M91.2795 23.6935L103.749 23.6935" stroke="#11142D" stroke-linecap="round"/>
<path d="M95.7329 110.139L108.203 110.139" stroke="#11142D" stroke-linecap="round"/>
<rect width="6.29859" height="8.11309" rx="3.14929" transform="matrix(0.999235 0.0391035 -0.0386015 0.999255 84.9453 60.1163)" fill="#FAFAFC" stroke="#11142D" stroke-width="2"/>
<rect width="6.29995" height="8.13651" rx="3.14997" transform="matrix(0.982283 -0.187405 0.185079 0.982724 70.4421 60.8727)" fill="#FAFAFC" stroke="#11142D" stroke-width="2"/>
<rect width="8.15619" height="6.65091" rx="3.32546" transform="matrix(0.909452 -0.415809 0.411372 0.911467 94.2517 72.1732)" fill="#FAFAFC" stroke="#11142D" stroke-width="2"/>
<rect width="6.31428" height="7.70796" rx="3.15714" transform="matrix(0.782555 -0.622582 0.617643 0.786459 59.9827 71.873)" fill="#FAFAFC" stroke="#11142D" stroke-width="2"/>
<path d="M71.0868 80.1472C71.4928 80.028 71.7799 79.6661 71.8035 79.2436C72.0187 75.3993 75.8695 72.0783 80.9253 72.0783C85.875 72.0783 89.6779 75.267 90.0295 79.0085C90.0712 79.4529 90.4024 79.8158 90.8411 79.8979C91.0398 79.9351 91.2386 79.9802 91.4372 80.0335C95.8828 81.2274 98.5712 86.139 97.2516 91.117C95.9324 96.0932 91.1746 99.0003 86.7321 97.8073C84.8014 97.2888 83.2138 96.0821 82.1327 94.4704C81.9443 94.1895 81.6268 94.0229 81.2887 94.0275C80.9505 94.0321 80.6376 94.2073 80.4569 94.4931C79.4158 96.1402 77.8598 97.3636 75.9591 97.874C71.6777 99.0238 67.0141 96.1195 65.688 91.117C64.379 86.1792 66.9028 81.3758 71.0868 80.1472Z" fill="#FAFAFC" stroke="#11142D" stroke-width="2" stroke-linejoin="round"/>
<path d="M67.8099 94.33H68.9027L68.8059 93.2414C68.7474 92.5829 68.632 91.9216 68.4568 91.2634C66.7624 84.8989 60.1285 81.1981 53.6759 82.9383C52.3587 83.2935 51.1473 83.8488 50.0682 84.562C48.2342 83.2621 45.8578 82.7574 43.5169 83.3887C43.5119 83.3901 43.5069 83.3914 43.5019 83.3928C40.9196 80.8846 37.1795 79.3311 33.0505 79.3311C25.4505 79.3311 19.0242 84.6599 19.0242 91.537C19.0242 92.2094 19.0867 92.8698 19.207 93.5137L19.3596 94.33H20.19H67.8099Z" fill="white" stroke="#11142D" stroke-width="2"/>
<path d="M14.2348 92.33C13.7702 92.33 13.3668 92.65 13.2611 93.1023L7.02625 119.772C6.95677 120.07 7.02684 120.382 7.21653 120.621C7.40622 120.861 7.69475 121 8 121H77.4737C77.7776 121 78.065 120.862 78.2547 120.625C78.4445 120.387 78.5161 120.077 78.4493 119.78L72.4371 93.1101C72.3343 92.654 71.9291 92.33 71.4616 92.33H14.2348Z" fill="#11142D" stroke="#11142D" stroke-width="2" stroke-linejoin="round"/>
<path d="M50.9737 99.6265C52.934 101.747 52.934 105.184 50.9737 107.304L49.7465 108.632L49.7728 108.66L42.6475 116.309L34.3965 107.319C32.4435 105.19 32.4553 101.753 34.4229 99.6409C36.3905 97.5287 39.5688 97.5415 41.5217 99.6695L42.6741 100.925L43.8749 99.6265C45.8351 97.5064 49.0134 97.5064 50.9737 99.6265Z" fill="white"/>
</svg>
