<svg width="128" height="128" viewBox="0 0 128 128" fill="none" xmlns="http://www.w3.org/2000/svg">
<path d="M63.5154 8.34385C63.9841 7.88117 64.7391 7.88604 65.2018 8.35472L119.656 63.5154C120.119 63.9841 120.114 64.7391 119.645 65.2018L64.4846 119.656C64.0159 120.119 63.2609 120.114 62.7982 119.645L8.34385 64.4846C7.88117 64.0159 7.88604 63.2609 8.35472 62.7982L63.5154 8.34385Z" fill="#006174"/>
<path d="M43.1862 59.5703L39.9667 70.1013L62.0664 48.4096C63.6601 46.8453 66.2203 46.8691 67.7846 48.4629C69.3489 50.0567 69.3251 52.6168 67.7313 54.1811L49.5886 71.9889L49.6329 72.0323C49.7572 71.8649 49.8961 71.7049 50.0497 71.5542L72.211 49.802C73.8014 48.241 76.3561 48.2648 77.9171 49.8552C79.4781 51.4455 79.4543 54.0002 77.8639 55.5612L55.7025 77.3134C55.5734 77.4401 55.438 77.5564 55.2972 77.6623L55.3311 77.7029L72.4639 60.8864C74.0576 59.3222 76.6177 59.346 78.182 60.9397C79.7462 62.5334 79.7224 65.0935 78.1287 66.6578L59.8649 84.5843L59.8824 84.6018L73.4346 71.2998C75.0197 69.7441 77.5658 69.7678 79.1216 71.3528C80.6773 72.9379 80.6536 75.484 79.0686 77.0398L56.8879 98.8109C56.4364 99.2541 55.9069 99.5691 55.3445 99.7563L51.3569 103.11L38.1868 112.005L20.6267 93.6364L25.4788 85.7805L25.7917 85.12L34.422 56.8909C35.1619 54.4707 37.7236 53.1086 40.1438 53.8485C42.564 54.5884 43.9261 57.1501 43.1862 59.5703Z" fill="white" stroke="#11142D" stroke-linejoin="round"/>
<path d="M12.48 101.278L20.544 92.224L39.36 112.384L30.3522 120L12.48 101.278Z" fill="#11142D"/>
<path d="M26.8652 22.2407C26.8652 21.7303 27.279 21.3165 27.7895 21.3165C28.2999 21.3165 28.7137 21.7303 28.7137 22.2407V26.8618C28.7137 27.3722 28.2999 27.786 27.7895 27.786C27.279 27.786 26.8652 27.3722 26.8652 26.8618V22.2407Z" fill="#11142D"/>
<path d="M20.8576 30.0965C20.3471 30.0965 19.9333 29.6828 19.9333 29.1723C19.9333 28.6619 20.3471 28.2481 20.8576 28.2481L25.4786 28.2481C25.9891 28.2481 26.4029 28.6619 26.4029 29.1723C26.4029 29.6828 25.9891 30.0965 25.4786 30.0965L20.8576 30.0965Z" fill="#11142D"/>
<path d="M26.8652 31.4828C26.8652 30.9724 27.279 30.5586 27.7895 30.5586C28.2999 30.5586 28.7137 30.9724 28.7137 31.4828V36.1039C28.7137 36.6143 28.2999 37.0281 27.7895 37.0281C27.279 37.0281 26.8652 36.6143 26.8652 36.1039V31.4828Z" fill="#11142D"/>
<path d="M30.0998 30.0965C29.5893 30.0965 29.1755 29.6828 29.1755 29.1723C29.1755 28.6619 29.5893 28.2481 30.0998 28.2481L34.7208 28.2481C35.2313 28.2481 35.645 28.6619 35.645 29.1723C35.645 29.6828 35.2313 30.0965 34.7208 30.0965L30.0998 30.0965Z" fill="#11142D"/>
<path d="M92.979 39.3L93.9545 39.0803L92.979 39.3C93.0835 39.7638 93.4456 40.126 93.9094 40.2304L102.259 42.1113L93.9094 43.9922C93.4456 44.0967 93.0835 44.4589 92.979 44.9227L91.0981 53.2725L89.2172 44.9227C89.1127 44.4589 88.7505 44.0967 88.2868 43.9922L88.067 44.9678L88.2868 43.9922L79.9369 42.1113L88.2868 40.2304C88.7506 40.126 89.1127 39.7638 89.2172 39.3L91.0981 30.9502L92.979 39.3Z" fill="#11142D" stroke="#11142D" stroke-width="2" stroke-linejoin="round"/>
<path d="M98.5715 104.034C98.5715 105.992 96.9843 107.579 95.0263 107.579C93.0682 107.579 91.481 105.992 91.481 104.034C91.481 102.076 93.0682 100.488 95.0263 100.488C96.9843 100.488 98.5715 102.076 98.5715 104.034Z" stroke="#11142D" stroke-width="4"/>
<path d="M108.658 90.1705C108.658 91.1914 107.831 92.019 106.81 92.019C105.789 92.019 104.961 91.1914 104.961 90.1705C104.961 89.1497 105.789 88.3221 106.81 88.3221C107.831 88.3221 108.658 89.1497 108.658 90.1705Z" fill="#11142D"/>
</svg>
