<svg width="128" height="128" viewBox="0 0 128 128" fill="none" xmlns="http://www.w3.org/2000/svg">
<path d="M70.2222 8C74.9355 8.00553 79.4541 9.86888 82.7869 13.1813C86.1196 16.4938 87.9944 20.9848 88 25.6693C88.0055 29.4957 86.748 33.2183 84.4202 36.266L84.4186 36.2709M70.2222 8C65.509 8.00553 60.9904 9.86888 57.6576 13.1813C54.3248 16.4938 52.45 20.9848 52.4445 25.6693C52.4388 29.4975 53.697 33.2218 56.0259 36.2709M70.2222 8L70.2216 8.5C70.2218 8.5 70.222 8.5 70.2222 8.5M70.2222 8L70.2228 8.5C70.2226 8.5 70.2224 8.5 70.2222 8.5M56.0259 36.2709C56.0259 36.2709 56.5107 36.9054 56.5899 36.9969L69.8936 52.5912L70.2222 52.206M56.0259 36.2709L56.4232 35.9674L56.4232 35.9674L56.4235 35.9677L56.4245 35.969L56.4285 35.9743L56.444 35.9945L56.4997 36.0673C56.5462 36.1279 56.609 36.2097 56.6742 36.2943C56.7395 36.379 56.8067 36.4658 56.8622 36.5368C56.89 36.5724 56.9144 36.6032 56.9338 36.6276L56.9578 36.6574L56.9654 36.6666C56.9662 36.6676 56.9669 36.6684 56.9673 36.6689L56.9681 36.6698L56.9703 36.6724L70.2222 52.206M56.0259 36.2709L56.4232 35.9673L56.4232 35.9673C54.1609 33.0054 52.939 29.388 52.9445 25.67L52.9445 25.6699C52.9499 21.1188 54.7713 16.755 58.0101 13.536C61.2488 10.3169 65.6406 8.50553 70.2222 8.5M70.2222 52.206L70.5508 52.5912L83.861 36.9889M70.2222 52.206L83.4773 36.6683L83.861 36.9889M83.861 36.9889C83.9321 36.9037 84.4186 36.2709 84.4186 36.2709M83.861 36.9889L83.4806 36.6644L83.4786 36.6667C83.5091 36.6299 83.6381 36.464 83.7708 36.2922L83.9453 36.066L83.9712 36.0324M84.4186 36.2709L84.4062 36.2614L84.0222 35.9662L84.0221 35.9662L84.0221 35.9663L84.0218 35.9666L84.0208 35.9679L84.0167 35.9732L84.0012 35.9934L83.9712 36.0324M84.4186 36.2709L83.9445 36.112L83.9461 36.1071L83.9712 36.0324M83.9712 36.0324L83.9725 36.0285L84.0228 35.9626C86.284 33.0019 87.5054 29.3862 87.5 25.67V25.6699C87.4946 21.1188 85.6732 16.755 82.4344 13.536C79.1956 10.3169 74.8038 8.50553 70.2222 8.5M77.1869 25.6693V25.6701L77.1868 25.6849L77.1868 25.6856L76.6868 25.6838L77.1869 25.6693ZM77.1869 25.6693C77.1869 25.6292 77.1865 25.5891 77.1858 25.5491M77.1869 25.6693L75.2867 20.9154C76.4382 22.1278 77.1551 23.7555 77.1858 25.5491M77.1858 25.5491L76.6859 25.5577L77.1858 25.549C77.1858 25.549 77.1858 25.5491 77.1858 25.5491ZM70.275 18.7443C70.2414 18.744 70.2078 18.744 70.1742 18.7443L74.6735 21.0099C73.5254 19.926 71.9769 19.2569 70.2713 19.2443L70.2751 18.7443C70.2751 18.7443 70.2751 18.7443 70.275 18.7443Z" fill="#006174" stroke="#11142D"/>
<rect x="11.5555" y="61.7953" width="13.3333" height="1.76378" rx="0.88189" fill="#11142D"/>
<rect x="8" y="73.2598" width="16.8889" height="1.76378" rx="0.88189" fill="#11142D"/>
<rect x="12.4445" y="84.7244" width="12.4444" height="1.76378" rx="0.88189" fill="#11142D"/>
<rect x="8" y="96.189" width="16.8889" height="1.76378" rx="0.88189" fill="#11142D"/>
<rect x="23.6111" y="59.6496" width="55.8889" height="44.8583" rx="0.5" fill="#006174" stroke="#11142D"/>
<rect x="23.6111" y="59.6496" width="55.8889" height="16.6378" rx="0.5" fill="#11142D" stroke="#11142D"/>
<rect x="66.6666" y="86.4882" width="7.11111" height="1.76378" rx="0.88189" fill="#11142D"/>
<rect x="62.2222" y="94.4252" width="10.6667" height="1.76378" rx="0.88189" fill="#11142D"/>
<rect x="44.9445" y="59.6496" width="14.1111" height="24.5748" rx="0.5" fill="white" stroke="#11142D"/>
<rect x="79.6111" y="93.1614" width="34.5556" height="11.3465" rx="0.5" fill="#11142D" stroke="#11142D"/>
<path d="M108.055 70.928L108.055 70.9281L108.06 70.9335L114.051 78.1518C114.126 78.2416 114.167 78.3546 114.167 78.4712V93.4252C114.167 93.7013 113.943 93.9252 113.667 93.9252H80.1111C79.8349 93.9252 79.6111 93.7013 79.6111 93.4252V62.7953C79.6111 62.5191 79.8349 62.2953 80.1111 62.2953H100.855C101.006 62.2953 101.149 62.3637 101.244 62.4814L108.055 70.928Z" fill="#006174" stroke="#11142D"/>
<path d="M87.111 71.6142C87.111 71.0619 87.5587 70.6142 88.111 70.6142H95.9743C96.272 70.6142 96.5542 70.7468 96.7442 70.9761L99.9999 74.9044L104.631 80.0294C104.797 80.2132 104.889 80.4521 104.889 80.6998V85.4882C104.889 86.0405 104.441 86.4882 103.889 86.4882H88.111C87.5587 86.4882 87.111 86.0405 87.111 85.4882V71.6142Z" fill="white" stroke="#11142D"/>
<rect x="16.8888" y="104.126" width="103.111" height="8.8189" rx="2" fill="#006174" stroke="#11142D"/>
<path d="M54.1112 110.299C54.1112 115.097 50.1887 119 45.3334 119C40.4781 119 36.5557 115.097 36.5557 110.299C36.5557 105.501 40.4781 101.598 45.3334 101.598C50.1887 101.598 54.1112 105.501 54.1112 110.299Z" fill="white" stroke="#11142D" stroke-width="2"/>
<ellipse cx="45.3334" cy="110.299" rx="3.55556" ry="3.52756" fill="#11142D"/>
<path d="M107.444 110.299C107.444 115.097 103.522 119 98.6666 119C93.8113 119 89.8888 115.097 89.8888 110.299C89.8888 105.501 93.8113 101.598 98.6666 101.598C103.522 101.598 107.444 105.501 107.444 110.299Z" fill="white" stroke="#11142D" stroke-width="2"/>
<ellipse cx="98.6668" cy="110.299" rx="3.55556" ry="3.52756" fill="#11142D"/>
<path d="M31.577 40.1678C31.577 39.936 31.764 39.748 31.9947 39.748C32.2253 39.748 32.4123 39.936 32.4123 40.1678V42.2667C32.4123 42.4985 32.2253 42.6865 31.9947 42.6865C31.764 42.6865 31.577 42.4985 31.577 42.2667V40.1678Z" fill="#11142D"/>
<path d="M28.862 43.7359C28.6313 43.7359 28.4443 43.548 28.4443 43.3161C28.4443 43.0843 28.6313 42.8963 28.862 42.8963L30.9502 42.8963C31.1808 42.8963 31.3678 43.0843 31.3678 43.3161C31.3678 43.548 31.1808 43.7359 30.9502 43.7359L28.862 43.7359Z" fill="#11142D"/>
<path d="M31.577 44.3656C31.577 44.1337 31.764 43.9458 31.9947 43.9458C32.2253 43.9458 32.4123 44.1337 32.4123 44.3656V46.4644C32.4123 46.6963 32.2253 46.8842 31.9947 46.8842C31.764 46.8842 31.577 46.6963 31.577 46.4644V44.3656Z" fill="#11142D"/>
<path d="M33.0385 43.7359C32.8078 43.7359 32.6208 43.548 32.6208 43.3161C32.6208 43.0843 32.8078 42.8964 33.0385 42.8964L35.1267 42.8964C35.3573 42.8964 35.5443 43.0843 35.5443 43.3161C35.5443 43.548 35.3573 43.7359 35.1267 43.7359L33.0385 43.7359Z" fill="#11142D"/>
<path d="M18.9286 17.3922C18.9286 17.0439 19.2095 16.7615 19.556 16.7615C19.9026 16.7615 20.1835 17.0439 20.1835 17.3922V20.5454C20.1835 20.8937 19.9026 21.1761 19.556 21.1761C19.2095 21.1761 18.9286 20.8937 18.9286 20.5454V17.3922Z" fill="#11142D"/>
<path d="M14.8496 22.7528C14.5031 22.7528 14.2222 22.4704 14.2222 22.1221C14.2222 21.7738 14.5031 21.4915 14.8496 21.4915L17.9869 21.4915C18.3334 21.4915 18.6143 21.7738 18.6143 22.1221C18.6143 22.4704 18.3334 22.7528 17.9869 22.7528L14.8496 22.7528Z" fill="#11142D"/>
<path d="M18.9286 23.6988C18.9286 23.3505 19.2095 23.0681 19.556 23.0681C19.9026 23.0681 20.1835 23.3505 20.1835 23.6988V26.8521C20.1835 27.2004 19.9026 27.4827 19.556 27.4827C19.2095 27.4827 18.9286 27.2004 18.9286 26.8521V23.6988Z" fill="#11142D"/>
<path d="M21.1242 22.7528C20.7776 22.7528 20.4967 22.4704 20.4967 22.1221C20.4967 21.7738 20.7776 21.4915 21.1242 21.4915L24.2614 21.4915C24.6079 21.4915 24.8889 21.7738 24.8889 22.1221C24.8889 22.4704 24.6079 22.7528 24.2614 22.7528L21.1242 22.7528Z" fill="#11142D"/>
</svg>
