<svg width="128" height="128" viewBox="0 0 128 128" fill="none" xmlns="http://www.w3.org/2000/svg">
<rect x="99.875" y="82.375" width="15.75" height="20.125" rx="7.875" fill="#11142D"/>
<path d="M34.0237 11.279C34.3647 9.6594 35.7936 8.5 37.4487 8.5H99.8349C101.454 8.5 102.862 9.61083 103.239 11.1857L112.209 48.6857C112.736 50.886 111.068 53 108.805 53H29.5547C27.3316 53 25.6718 50.9544 26.1298 48.779L34.0237 11.279Z" fill="#006174" stroke="#11142D"/>
<path d="M41.4187 19.7821C42.1255 15.9953 45.4307 13.25 49.2828 13.25H88.5586C92.3543 13.25 95.6274 15.9173 96.3938 19.6348L101.393 43.8848C102.416 48.8481 98.6253 53.5 93.5576 53.5H44.7564C39.75 53.5 35.9736 48.9536 36.8922 44.0321L41.4187 19.7821Z" fill="white"/>
<path d="M18.5 65.625C18.5 54.5793 27.4543 45.625 38.5 45.625H100C111.046 45.625 120 54.5793 120 65.625V81.375C120 85.7933 116.418 89.375 112 89.375H18.5V65.625Z" fill="#006174"/>
<path d="M18.5 65.625C18.5 54.5793 27.4543 45.625 38.5 45.625H100C111.046 45.625 120 54.5793 120 65.625V81.375C120 85.7933 116.418 89.375 112 89.375H18.5V65.625Z" stroke="#11142D"/>
<path d="M50.7442 75.2644C51.3517 73.7458 52.8225 72.75 54.4581 72.75H84.9169C86.5525 72.75 88.0233 73.7458 88.6308 75.2644L90.6808 80.3894C91.7318 83.0169 89.7967 85.875 86.9669 85.875H52.4081C49.5783 85.875 47.6432 83.0169 48.6942 80.3894L50.7442 75.2644Z" fill="white"/>
<circle cx="106" cy="63.125" r="6" fill="white" stroke="#11142D" stroke-width="2"/>
<rect x="57.8762" y="69.2502" width="10.5" height="1.75" rx="0.875" transform="rotate(-90.0072 57.8762 69.2502)" fill="#11142D"/>
<rect x="61.3762" y="69.2502" width="10.5" height="1.75" rx="0.875" transform="rotate(-90.0072 61.3762 69.2502)" fill="#11142D"/>
<rect x="64.8762" y="69.2502" width="10.5" height="1.75" rx="0.875" transform="rotate(-90.0072 64.8762 69.2502)" fill="#11142D"/>
<rect x="68.3762" y="69.2502" width="10.5" height="1.75" rx="0.875" transform="rotate(-90.0072 68.3762 69.2502)" fill="#11142D"/>
<rect x="71.8762" y="69.2502" width="10.5" height="1.75" rx="0.875" transform="rotate(-90.0072 71.8762 69.2502)" fill="#11142D"/>
<rect x="75.3762" y="69.2502" width="10.5" height="1.75" rx="0.875" transform="rotate(-90.0072 75.3762 69.2502)" fill="#11142D"/>
<rect x="83.25" y="80.625" width="27.125" height="1.75" rx="0.875001" transform="rotate(180 83.25 80.625)" fill="#11142D"/>
<rect x="24.625" y="99" width="11.375" height="21" rx="5.6875" fill="#11142D"/>
<rect x="12.375" y="68.375" width="36.75" height="42.875" rx="16" fill="#11142D"/>
<rect x="26.375" y="81.5" width="8.75" height="2.625" rx="1.3125" fill="white"/>
<path fill-rule="evenodd" clip-rule="evenodd" d="M40.3358 100.75C40.3617 100.414 40.375 100.073 40.375 99.7292C40.375 93.5275 36.0657 88.5 30.75 88.5C25.4343 88.5 21.125 93.5275 21.125 99.7292C21.125 100.073 21.1383 100.414 21.1642 100.75H40.3358Z" fill="#FAFAFC"/>
<rect x="13.25" y="56.125" width="35.875" height="8.75" rx="4.375" fill="#11142D"/>
<rect x="8" y="59.625" width="46.375" height="1.75" rx="0.875" fill="#11142D"/>
<circle cx="30.75" cy="60.5" r="11.375" fill="#11142D"/>
<circle cx="30.75" cy="60.5" r="5.125" fill="white" stroke="#11142D" stroke-width="2"/>
<path d="M85.2573 20.8676C85.2573 20.5265 85.5339 20.25 85.875 20.25C86.2161 20.25 86.4926 20.5265 86.4926 20.8676V23.9559C86.4926 24.297 86.2161 24.5735 85.875 24.5735C85.5339 24.5735 85.2573 24.297 85.2573 23.9559V20.8676Z" fill="#11142D"/>
<path d="M81.2426 26.1177C80.9015 26.1177 80.625 25.8411 80.625 25.5C80.625 25.1589 80.9015 24.8824 81.2426 24.8824L84.3309 24.8824C84.672 24.8824 84.9485 25.1589 84.9485 25.5C84.9485 25.8411 84.672 26.1177 84.3309 26.1177L81.2426 26.1177Z" fill="#11142D"/>
<path d="M85.2573 27.0441C85.2573 26.703 85.5339 26.4265 85.875 26.4265C86.2161 26.4265 86.4926 26.703 86.4926 27.0441V30.1324C86.4926 30.4735 86.2161 30.75 85.875 30.75C85.5339 30.75 85.2573 30.4735 85.2573 30.1324V27.0441Z" fill="#11142D"/>
<path d="M87.4192 26.1177C87.078 26.1177 86.8015 25.8411 86.8015 25.5C86.8015 25.1589 87.078 24.8824 87.4192 24.8824L90.5074 24.8824C90.8485 24.8824 91.125 25.1589 91.125 25.5C91.125 25.8411 90.8485 26.1177 90.5074 26.1177L87.4192 26.1177Z" fill="#11142D"/>
</svg>
