<svg width="128" height="128" viewBox="0 0 128 128" fill="none" xmlns="http://www.w3.org/2000/svg">
<path d="M34.5947 50.4499C34.4825 49.2755 35.4059 48.2597 36.5856 48.2597H96.8332C98.0129 48.2597 98.9363 49.2755 98.8241 50.4499L93.0908 110.476C92.9928 111.502 92.1308 112.286 91.0999 112.286H42.3189C41.288 112.286 40.426 111.502 40.328 110.476L34.5947 50.4499Z" fill="#11142D"/>
<mask id="path-2-inside-1_260_7029" fill="white">
<path fill-rule="evenodd" clip-rule="evenodd" d="M48.8001 76.7157C51.6367 76.7157 54.1018 75.1252 55.3523 72.7874V78.7599C55.3523 86.9622 62.0016 93.6115 70.2039 93.6115C78.4061 93.6115 85.0554 86.9622 85.0554 78.7599V72.2966C86.4175 73.9115 88.456 74.9372 90.734 74.9372C93.229 74.9372 95.4366 73.7067 96.783 71.8195L93.0908 110.476C92.9928 111.502 92.1308 112.286 91.0999 112.286H42.3189C41.288 112.286 40.426 111.502 40.328 110.476L34.5947 50.4499C34.4825 49.2755 35.4059 48.2597 36.5856 48.2597H41.3744V69.29C41.3744 73.3911 44.699 76.7157 48.8001 76.7157ZM98.1597 57.4058L98.8241 50.4499C98.8876 49.7848 98.619 49.1705 98.1597 48.7629V57.4058Z"/>
</mask>
<path fill-rule="evenodd" clip-rule="evenodd" d="M48.8001 76.7157C51.6367 76.7157 54.1018 75.1252 55.3523 72.7874V78.7599C55.3523 86.9622 62.0016 93.6115 70.2039 93.6115C78.4061 93.6115 85.0554 86.9622 85.0554 78.7599V72.2966C86.4175 73.9115 88.456 74.9372 90.734 74.9372C93.229 74.9372 95.4366 73.7067 96.783 71.8195L93.0908 110.476C92.9928 111.502 92.1308 112.286 91.0999 112.286H42.3189C41.288 112.286 40.426 111.502 40.328 110.476L34.5947 50.4499C34.4825 49.2755 35.4059 48.2597 36.5856 48.2597H41.3744V69.29C41.3744 73.3911 44.699 76.7157 48.8001 76.7157ZM98.1597 57.4058L98.8241 50.4499C98.8876 49.7848 98.619 49.1705 98.1597 48.7629V57.4058Z" fill="#006174"/>
<path d="M55.3523 72.7874H56.3523C56.3523 72.3288 56.0403 71.9289 55.5955 71.8174C55.1506 71.7059 54.6869 71.9113 54.4706 72.3158L55.3523 72.7874ZM85.0554 72.2966L85.8197 71.6519C85.549 71.3309 85.1065 71.2132 84.7121 71.3574C84.3177 71.5015 84.0554 71.8767 84.0554 72.2966H85.0554ZM96.783 71.8195L97.7785 71.9146C97.8215 71.4642 97.5568 71.0411 97.1329 70.8827C96.7091 70.7244 96.2318 70.8704 95.969 71.2387L96.783 71.8195ZM93.0908 110.476L94.0863 110.571V110.571L93.0908 110.476ZM40.328 110.476L41.3234 110.381L40.328 110.476ZM34.5947 50.4499L33.5992 50.545L34.5947 50.4499ZM41.3744 48.2597H42.3744C42.3744 47.7074 41.9267 47.2597 41.3744 47.2597V48.2597ZM98.8241 50.4499L97.8286 50.3548V50.3548L98.8241 50.4499ZM98.1597 57.4058H97.1597C97.1597 57.9396 97.579 58.3793 98.1121 58.4047C98.6453 58.4301 99.1044 58.0323 99.1552 57.5009L98.1597 57.4058ZM98.1597 48.7629L98.8236 48.015C98.5292 47.7537 98.1088 47.6894 97.7498 47.8508C97.3907 48.0122 97.1597 48.3692 97.1597 48.7629H98.1597ZM54.4706 72.3158C53.3871 74.3413 51.2533 75.7157 48.8001 75.7157V77.7157C52.0201 77.7157 54.8166 75.9092 56.2341 73.2591L54.4706 72.3158ZM56.3523 78.7599V72.7874H54.3523V78.7599H56.3523ZM70.2039 92.6115C62.5539 92.6115 56.3523 86.4099 56.3523 78.7599H54.3523C54.3523 87.5145 61.4493 94.6115 70.2039 94.6115V92.6115ZM84.0554 78.7599C84.0554 86.4099 77.8538 92.6115 70.2039 92.6115V94.6115C78.9584 94.6115 86.0554 87.5145 86.0554 78.7599H84.0554ZM84.0554 72.2966V78.7599H86.0554V72.2966H84.0554ZM90.734 73.9372C88.763 73.9372 87 73.0511 85.8197 71.6519L84.291 72.9414C85.835 74.7719 88.1489 75.9372 90.734 75.9372V73.9372ZM95.969 71.2387C94.8021 72.8742 92.8922 73.9372 90.734 73.9372V75.9372C93.5657 75.9372 96.071 74.5393 97.5971 72.4003L95.969 71.2387ZM95.7876 71.7245L92.0954 110.381L94.0863 110.571L97.7785 71.9146L95.7876 71.7245ZM92.0954 110.381C92.0463 110.894 91.6153 111.286 91.0999 111.286V113.286C92.6463 113.286 93.9393 112.11 94.0863 110.571L92.0954 110.381ZM91.0999 111.286H42.3189V113.286H91.0999V111.286ZM42.3189 111.286C41.8035 111.286 41.3724 110.894 41.3234 110.381L39.3325 110.571C39.4795 112.11 40.7725 113.286 42.3189 113.286V111.286ZM41.3234 110.381L35.5902 50.3548L33.5992 50.545L39.3325 110.571L41.3234 110.381ZM35.5902 50.3548C35.5341 49.7676 35.9958 49.2597 36.5856 49.2597V47.2597C34.8161 47.2597 33.431 48.7834 33.5992 50.545L35.5902 50.3548ZM36.5856 49.2597H41.3744V47.2597H36.5856V49.2597ZM42.3744 69.29V48.2597H40.3744V69.29H42.3744ZM48.8001 75.7157C45.2513 75.7157 42.3744 72.8388 42.3744 69.29H40.3744C40.3744 73.9434 44.1467 77.7157 48.8001 77.7157V75.7157ZM97.8286 50.3548L97.1643 57.3107L99.1552 57.5009L99.8196 50.545L97.8286 50.3548ZM97.4959 49.5107C97.7281 49.7169 97.8604 50.0228 97.8286 50.3548L99.8196 50.545C99.9149 49.5468 99.5099 48.6242 98.8236 48.015L97.4959 49.5107ZM97.1597 48.7629V57.4058H99.1597V48.7629H97.1597Z" fill="#11142D" mask="url(#path-2-inside-1_260_7029)"/>
<mask id="path-4-inside-2_260_7029" fill="white">
<path fill-rule="evenodd" clip-rule="evenodd" d="M98.388 46.4812C98.9263 46.4812 99.3691 46.0548 99.3749 45.5166C99.3765 45.3714 99.3773 45.226 99.3773 45.0805C99.3773 25.3547 84.9229 9 66.6664 9C48.4099 9 33.9556 25.3547 33.9556 45.0805C33.9556 45.226 33.9564 45.3714 33.9579 45.5166C33.9637 46.0548 34.4066 46.4812 34.9449 46.4812C35.5109 46.4812 35.9626 46.0114 35.9573 45.4453C35.9561 45.3239 35.9556 45.2023 35.9556 45.0805C35.9556 26.2584 49.7053 11 66.6664 11C83.6276 11 97.3773 26.2584 97.3773 45.0805C97.3773 45.2023 97.3767 45.3239 97.3756 45.4453C97.3702 46.0114 97.822 46.4812 98.388 46.4812Z"/>
</mask>
<path fill-rule="evenodd" clip-rule="evenodd" d="M98.388 46.4812C98.9263 46.4812 99.3691 46.0548 99.3749 45.5166C99.3765 45.3714 99.3773 45.226 99.3773 45.0805C99.3773 25.3547 84.9229 9 66.6664 9C48.4099 9 33.9556 25.3547 33.9556 45.0805C33.9556 45.226 33.9564 45.3714 33.9579 45.5166C33.9637 46.0548 34.4066 46.4812 34.9449 46.4812C35.5109 46.4812 35.9626 46.0114 35.9573 45.4453C35.9561 45.3239 35.9556 45.2023 35.9556 45.0805C35.9556 26.2584 49.7053 11 66.6664 11C83.6276 11 97.3773 26.2584 97.3773 45.0805C97.3773 45.2023 97.3767 45.3239 97.3756 45.4453C97.3702 46.0114 97.822 46.4812 98.388 46.4812Z" fill="#11142D"/>
<path d="M97.3756 45.4453L96.3756 45.4359L97.3756 45.4453ZM99.3749 45.5166L100.375 45.5274L99.3749 45.5166ZM98.3773 45.0805C98.3773 45.2224 98.3765 45.3642 98.375 45.5057L100.375 45.5274C100.376 45.3786 100.377 45.2296 100.377 45.0805H98.3773ZM66.6664 10C84.2736 10 98.3773 25.8048 98.3773 45.0805H100.377C100.377 24.9047 85.5722 8 66.6664 8V10ZM34.9556 45.0805C34.9556 25.8048 49.0592 10 66.6664 10V8C47.7607 8 32.9556 24.9047 32.9556 45.0805H34.9556ZM34.9579 45.5057C34.9563 45.3642 34.9556 45.2224 34.9556 45.0805H32.9556C32.9556 45.2296 32.9564 45.3786 32.958 45.5274L34.9579 45.5057ZM34.9556 45.0805C34.9556 45.2054 34.9562 45.3302 34.9573 45.4548L36.9572 45.4359C36.9561 45.3176 36.9556 45.1991 36.9556 45.0805H34.9556ZM66.6664 10C49.0576 10 34.9556 25.8065 34.9556 45.0805H36.9556C36.9556 26.7102 50.353 12 66.6664 12V10ZM98.3773 45.0805C98.3773 25.8065 84.2753 10 66.6664 10V12C82.9799 12 96.3773 26.7102 96.3773 45.0805H98.3773ZM98.3755 45.4548C98.3767 45.3302 98.3773 45.2054 98.3773 45.0805H96.3773C96.3773 45.1991 96.3767 45.3176 96.3756 45.4359L98.3755 45.4548ZM34.9449 47.4812C36.0844 47.4812 36.9677 46.5402 36.9572 45.4359L34.9573 45.4548C34.9574 45.4611 34.9563 45.4651 34.955 45.4683C34.9535 45.472 34.9512 45.4756 34.9484 45.4784C34.9457 45.4812 34.944 45.4818 34.9445 45.4816C34.9447 45.4815 34.9452 45.4813 34.9458 45.4812C34.9464 45.4811 34.9462 45.4812 34.9449 45.4812V47.4812ZM96.3756 45.4359C96.3652 46.5402 97.2485 47.4812 98.388 47.4812V45.4812C98.3866 45.4812 98.3865 45.4811 98.3871 45.4812C98.3876 45.4813 98.3881 45.4815 98.3884 45.4816C98.3888 45.4818 98.3871 45.4812 98.3845 45.4784C98.3817 45.4756 98.3794 45.472 98.3778 45.4683C98.3765 45.4651 98.3755 45.4611 98.3755 45.4548L96.3756 45.4359ZM32.958 45.5274C32.9699 46.6292 33.8742 47.4812 34.9449 47.4812V45.4812C34.9432 45.4812 34.944 45.481 34.9457 45.4817C34.9469 45.4822 34.9479 45.4829 34.9491 45.484C34.9503 45.4851 34.9525 45.4878 34.9546 45.4926C34.9571 45.4981 34.9578 45.5033 34.9579 45.5057L32.958 45.5274ZM98.375 45.5057C98.375 45.5033 98.3758 45.4981 98.3782 45.4926C98.3803 45.4878 98.3826 45.4851 98.3838 45.484C98.385 45.4829 98.386 45.4822 98.3872 45.4817C98.3889 45.481 98.3897 45.4812 98.388 45.4812V47.4812C99.4587 47.4812 100.363 46.6292 100.375 45.5274L98.375 45.5057Z" fill="#11142D" mask="url(#path-4-inside-2_260_7029)"/>
<mask id="path-6-inside-3_260_7029" fill="white">
<path fill-rule="evenodd" clip-rule="evenodd" d="M44.3956 48.2589L43.9913 63.5286C43.8645 68.3182 47.7126 72.2695 52.5039 72.2695C55.5449 72.2695 58.2137 70.6754 59.7201 68.2773V78.6974C59.7201 84.9697 64.8048 90.0545 71.0771 90.0545C77.3495 90.0545 82.4342 84.9697 82.4342 78.6974V69.5892C83.6981 70.7039 85.3579 71.3802 87.1757 71.3802C90.9373 71.3802 94.0596 68.4737 94.3285 64.7217L95.5086 48.2589H44.3956Z"/>
</mask>
<path fill-rule="evenodd" clip-rule="evenodd" d="M44.3956 48.2589L43.9913 63.5286C43.8645 68.3182 47.7126 72.2695 52.5039 72.2695C55.5449 72.2695 58.2137 70.6754 59.7201 68.2773V78.6974C59.7201 84.9697 64.8048 90.0545 71.0771 90.0545C77.3495 90.0545 82.4342 84.9697 82.4342 78.6974V69.5892C83.6981 70.7039 85.3579 71.3802 87.1757 71.3802C90.9373 71.3802 94.0596 68.4737 94.3285 64.7217L95.5086 48.2589H44.3956Z" fill="white"/>
<path d="M43.9913 63.5286L42.9917 63.5022L43.9913 63.5286ZM44.3956 48.2589V47.2589H43.4217L43.3959 48.2324L44.3956 48.2589ZM59.7201 68.2773H60.7201V64.8053L58.8733 67.7454L59.7201 68.2773ZM82.4342 69.5892L83.0956 68.8392L81.4342 67.3738V69.5892H82.4342ZM94.3285 64.7217L93.3311 64.6502V64.6502L94.3285 64.7217ZM95.5086 48.2589L96.5061 48.3304L96.5829 47.2589H95.5086V48.2589ZM44.991 63.5551L45.3952 48.2853L43.3959 48.2324L42.9917 63.5022L44.991 63.5551ZM52.5039 71.2695C48.2753 71.2695 44.8791 67.7822 44.991 63.5551L42.9917 63.5022C42.85 68.8542 47.15 73.2695 52.5039 73.2695V71.2695ZM58.8733 67.7454C57.5422 69.8645 55.1867 71.2695 52.5039 71.2695V73.2695C55.9032 73.2695 58.8852 71.4864 60.5669 68.8092L58.8733 67.7454ZM60.7201 78.6974V68.2773H58.7201V78.6974H60.7201ZM71.0771 89.0545C65.3571 89.0545 60.7201 84.4174 60.7201 78.6974H58.7201C58.7201 85.522 64.2525 91.0545 71.0771 91.0545V89.0545ZM81.4342 78.6974C81.4342 84.4175 76.7972 89.0545 71.0771 89.0545V91.0545C77.9017 91.0545 83.4342 85.522 83.4342 78.6974H81.4342ZM81.4342 69.5892V78.6974H83.4342V69.5892H81.4342ZM87.1757 70.3802C85.6107 70.3802 84.1839 69.799 83.0956 68.8392L81.7727 70.3391C83.2123 71.6088 85.1051 72.3802 87.1757 72.3802V70.3802ZM93.3311 64.6502C93.0997 67.879 90.4127 70.3802 87.1757 70.3802V72.3802C91.4618 72.3802 95.0195 69.0684 95.326 64.7932L93.3311 64.6502ZM94.5112 48.1874L93.3311 64.6502L95.326 64.7932L96.5061 48.3304L94.5112 48.1874ZM95.5086 47.2589H44.3956V49.2589H95.5086V47.2589Z" fill="#11142D" mask="url(#path-6-inside-3_260_7029)"/>
<path d="M77.0663 79.3832C77.0663 80.812 75.933 81.9399 74.5719 81.9399C73.2108 81.9399 72.0774 80.812 72.0774 79.3832C72.0774 77.9544 73.2108 76.8265 74.5719 76.8265C75.933 76.8265 77.0663 77.9544 77.0663 79.3832Z" stroke="#11142D" stroke-width="2"/>
<path d="M54.9414 52.2352C54.9414 52.0041 55.1255 51.8167 55.3525 51.8167C55.5796 51.8167 55.7636 52.0041 55.7636 52.2352V54.3274C55.7636 54.5585 55.5796 54.7458 55.3525 54.7458C55.1255 54.7458 54.9414 54.5585 54.9414 54.3274V52.2352Z" fill="#11142D"/>
<path d="M52.2688 55.7921C52.0417 55.7921 51.8577 55.6048 51.8577 55.3737C51.8577 55.1426 52.0417 54.9553 52.2688 54.9553L54.3244 54.9553C54.5514 54.9553 54.7355 55.1426 54.7355 55.3737C54.7355 55.6048 54.5514 55.7921 54.3244 55.7921L52.2688 55.7921Z" fill="#11142D"/>
<path d="M54.9414 56.4199C54.9414 56.1888 55.1255 56.0014 55.3525 56.0014C55.5796 56.0014 55.7636 56.1888 55.7636 56.4199V58.5121C55.7636 58.7432 55.5796 58.9305 55.3525 58.9305C55.1255 58.9305 54.9414 58.7432 54.9414 58.5121V56.4199Z" fill="#11142D"/>
<path d="M56.3799 55.7921C56.1528 55.7921 55.9688 55.6048 55.9688 55.3737C55.9687 55.1426 56.1528 54.9553 56.3799 54.9553L58.4354 54.9553C58.6625 54.9553 58.8466 55.1426 58.8466 55.3737C58.8466 55.6048 58.6625 55.7921 58.4354 55.7921L56.3799 55.7921Z" fill="#11142D"/>
<path fill-rule="evenodd" clip-rule="evenodd" d="M112.137 95.4801L91.7103 83.4755L99.5724 69.6143L102.598 71.3924L98.4469 78.7112C98.3274 78.922 98.3998 79.1924 98.6088 79.3152C98.8177 79.438 99.084 79.3666 99.2035 79.1558L103.355 71.837L107.138 74.0601L102.113 82.9192C101.993 83.13 102.066 83.4004 102.275 83.5231C102.483 83.6459 102.75 83.5746 102.869 83.3638L107.894 74.5048L111.677 76.7279L107.526 84.0467C107.406 84.2575 107.479 84.5279 107.688 84.6507C107.897 84.7735 108.163 84.7021 108.282 84.4913L112.434 77.1725L116.973 79.8404L111.075 90.2397C110.955 90.4505 111.028 90.7209 111.237 90.8437C111.446 90.9665 111.712 90.8951 111.831 90.6844L117.73 80.2851L120 81.6189L112.137 95.4801Z" fill="#11142D"/>
<path d="M111.053 97.3916C109.963 99.3132 107.536 99.9636 105.631 98.8443L92.1012 90.8929C90.1967 89.7736 89.5362 87.3085 90.6261 85.387L91.2734 84.2459L111.701 96.2505L111.053 97.3916Z" fill="#11142D"/>
<path fill-rule="evenodd" clip-rule="evenodd" d="M87.0001 115.619C89.5722 117.131 92.847 115.872 93.7582 113.021L101.109 90.0255L85.743 108.466C83.8736 110.709 84.4758 114.135 87.0001 115.619ZM90.5667 109.501C89.5221 108.887 88.1864 109.251 87.5834 110.315C86.9803 111.378 87.3382 112.737 88.3828 113.351C89.4274 113.965 90.7631 113.601 91.3662 112.538C91.9693 111.474 91.6113 110.115 90.5667 109.501Z" fill="#11142D"/>
<mask id="path-16-outside-4_260_7029" maskUnits="userSpaceOnUse" x="11.616" y="16.9136" width="12" height="18" fill="black">
<rect fill="white" x="11.616" y="16.9136" width="12" height="18"/>
<path fill-rule="evenodd" clip-rule="evenodd" d="M13.616 18.9136V30.4503C13.616 31.6565 14.5938 32.6344 15.8 32.6344C17.0062 32.6344 17.9841 31.6565 17.9841 30.4503V18.9136H13.616ZM17.9842 18.9136V25.2361C17.9842 26.0977 18.6826 26.7961 19.5442 26.7961C20.4058 26.7961 21.1042 26.0977 21.1042 25.2361V18.9136H17.9842Z"/>
</mask>
<path fill-rule="evenodd" clip-rule="evenodd" d="M13.616 18.9136V30.4503C13.616 31.6565 14.5938 32.6344 15.8 32.6344C17.0062 32.6344 17.9841 31.6565 17.9841 30.4503V18.9136H13.616ZM17.9842 18.9136V25.2361C17.9842 26.0977 18.6826 26.7961 19.5442 26.7961C20.4058 26.7961 21.1042 26.0977 21.1042 25.2361V18.9136H17.9842Z" fill="white"/>
<path d="M13.616 18.9136V16.9136H11.616V18.9136H13.616ZM17.9841 18.9136H19.9841V16.9136H17.9841V18.9136ZM17.9842 18.9136V16.9136H15.9842V18.9136H17.9842ZM21.1042 18.9136H23.1042V16.9136H21.1042V18.9136ZM11.616 18.9136V30.4503H15.616V18.9136H11.616ZM11.616 30.4503C11.616 32.7611 13.4892 34.6344 15.8 34.6344V30.6344C15.6984 30.6344 15.616 30.552 15.616 30.4503H11.616ZM15.8 34.6344C18.1108 34.6344 19.9841 32.7611 19.9841 30.4503H15.9841C15.9841 30.552 15.9017 30.6344 15.8 30.6344V34.6344ZM19.9841 30.4503V18.9136H15.9841V30.4503H19.9841ZM17.9841 16.9136H13.616V20.9136H17.9841V16.9136ZM15.9842 18.9136V25.2361H19.9842V18.9136H15.9842ZM15.9842 25.2361C15.9842 27.2023 17.578 28.7961 19.5442 28.7961V24.7961C19.7872 24.7961 19.9842 24.9931 19.9842 25.2361H15.9842ZM19.5442 28.7961C21.5103 28.7961 23.1042 27.2023 23.1042 25.2361H19.1042C19.1042 24.9931 19.3012 24.7961 19.5442 24.7961V28.7961ZM23.1042 25.2361V18.9136H19.1042V25.2361H23.1042ZM21.1042 16.9136H17.9842V20.9136H21.1042V16.9136Z" fill="#11142D" mask="url(#path-16-outside-4_260_7029)"/>
<rect x="8" y="12.3086" width="2.49605" height="5.08104" fill="#11142D" stroke="#11142D" stroke-linejoin="round"/>
<rect x="22.9763" y="35.1751" width="6.86415" height="18.4202" fill="#11142D" stroke="#11142D" stroke-linejoin="round"/>
<rect x="24.2246" y="31.9992" width="4.36809" height="3.17565" fill="#11142D"/>
<rect x="27.3445" y="37.7158" width="0.624013" height="5.71618" rx="0.312007" fill="white"/>
<path d="M42.3208 14.5318H45.1289V27.2353H26.4084V31.9992" stroke="#11142D" stroke-width="2" stroke-linecap="round"/>
<rect x="12.9922" y="36.4454" width="4.99211" height="5.08104" rx="2.49605" fill="white" stroke="#11142D" stroke-width="2"/>
<rect x="10.4961" y="9.13274" width="31.8247" height="10.7972" rx="1" fill="white"/>
<path d="M12.9921 19.93H11.4961C10.9438 19.93 10.4961 19.4822 10.4961 18.93V10.1327C10.4961 9.58046 10.9438 9.13274 11.4961 9.13274H41.3208C41.8731 9.13274 42.3208 9.58046 42.3208 10.1327V18.93C42.3208 19.4822 41.8731 19.93 41.3208 19.93H21.7283" stroke="#11142D" stroke-width="2" stroke-linecap="round" stroke-linejoin="round"/>
</svg>
