<svg width="128" height="128" viewBox="0 0 128 128" fill="none" xmlns="http://www.w3.org/2000/svg">
<path d="M8.97388 76.7081H23.6039V105.846H8.97388V76.7081Z" fill="#11142D" stroke="#11142D"/>
<path d="M111.558 23.0556C122.814 35.2489 122.814 55.018 111.558 67.2112L104.511 74.8447L104.662 75.0094L63.7462 119L16.3665 67.2934C5.15205 55.0548 5.22012 35.2858 16.5186 23.1381C27.817 10.9905 46.0673 11.0642 57.2818 23.3028L63.8991 30.5244L70.7941 23.0556C82.0506 10.8624 100.301 10.8624 111.558 23.0556Z" fill="#006174"/>
<path d="M37.719 62.493H47.0946L52.143 55.4706L57.0884 63.3315L64.1974 50.6493L73.9851 67.7336L79.2395 58.9294H92.8393" stroke="#11142D" stroke-width="2" stroke-linejoin="round"/>
<path d="M50.5975 74.5071L23.3979 79.2237V102.282C30.5413 104.728 46.7236 109.996 54.3065 111.506C63.7852 113.392 64.0943 110.877 83.5667 105.217C103.039 99.5571 99.8452 95.5743 99.124 93.7925C98.0653 91.1769 92.5645 91.3818 89.6454 92.2203L69.6578 96.0983C68.2841 95.9236 63.4103 95.8988 55.6459 93.7925C47.9188 91.6962 51.5248 84.8835 56.2641 86.4557C59.8121 87.6326 70.482 89.0759 71.6153 82.8921C72.522 77.945 64.9185 75.7299 61.0034 75.2408C57.2119 74.57 52.4864 74.4722 50.5975 74.5071Z" fill="white" stroke="#11142D" stroke-linejoin="round"/>
<path d="M95.1059 43.7974C104.552 43.7974 112.209 36.0077 112.209 26.3987C112.209 16.7897 104.552 9 95.1059 9C90.7587 9 86.7902 10.65 83.7728 13.368L80.1167 18.0138C78.7696 20.5006 78.0032 23.3586 78.0032 26.3987C78.0032 36.0077 85.6603 43.7974 95.1059 43.7974Z" fill="white"/>
<path d="M80.1167 18.0138C78.7696 20.5006 78.0032 23.3586 78.0032 26.3987C78.0032 36.0077 85.6603 43.7974 95.1059 43.7974C104.552 43.7974 112.209 36.0077 112.209 26.3987C112.209 16.7897 104.552 9 95.1059 9C90.7587 9 86.7902 10.65 83.7728 13.368" stroke="#11142D" stroke-width="2" stroke-linecap="round"/>
<path d="M94.5056 19.0673C94.5056 18.8468 94.6829 18.668 94.9016 18.668C95.1203 18.668 95.2976 18.8468 95.2976 19.0673V33.7807C95.2976 34.0013 95.1203 34.1801 94.9016 34.1801C94.6829 34.1801 94.5056 34.0013 94.5056 33.7807V19.0673Z" fill="#11142D"/>
<path d="M87.7774 26.7246C87.5568 26.7246 87.3779 26.5443 87.3779 26.3218C87.3779 26.0993 87.5568 25.9189 87.7774 25.9189L102.227 25.9189C102.447 25.9189 102.626 26.0993 102.626 26.3218C102.626 26.5443 102.447 26.7246 102.227 26.7246L87.7774 26.7246Z" fill="#11142D"/>
</svg>
