<svg width="128" height="128" viewBox="0 0 128 128" fill="none" xmlns="http://www.w3.org/2000/svg">
<path d="M69.4371 85.372C64.2176 91.8647 52.2202 93.1272 46.6021 92.9468L46.0583 96.1932H24.8544C18.8739 96.1932 13.9806 102.145 15.6117 110.261C16.9165 116.754 31.0163 119.82 37.3593 120C56.2072 120 97.1651 119.892 110.214 119.459C121.087 116.429 120.544 106.654 118.913 102.145L104.777 81.0435L96.6214 85.372L102.602 103.768C94.9904 99.8003 77.2662 89.2676 69.4371 85.372Z" fill="#11142D" stroke="#11142D" stroke-linecap="round" stroke-linejoin="round"/>
<path d="M58.5631 118.377V108.638C59.288 108.638 60.9553 108.746 61.8252 109.179C62.9126 109.72 62.3689 109.179 64 107.556C65.3049 106.257 67.8058 106.654 68.8932 107.014C73.2427 108.998 82.7029 113.399 85.7476 115.13C88.7922 116.862 88.466 118.016 87.9223 118.377H58.5631Z" fill="#FAFAFC" stroke="#11142D"/>
<path d="M28.6603 105.932C31.56 105.391 37.7943 104.309 39.5341 104.309C41.7088 104.309 47.6894 104.85 49.8642 105.391C52.0389 105.932 53.8144 107.072 56.3884 108.097C59.1069 109.179 61.4629 110.441 62.369 110.802" stroke="#FAFAFC" stroke-width="0.5" stroke-linecap="round"/>
<path d="M40.6213 36.1352L39.5339 65.3526L40.6213 64.8116L49.3203 49.6618V25.314C49.3203 22.7169 50.4077 20.9855 50.9514 20.4444L72.699 32.3478L82.4854 43.7101L85.7475 38.8406V33.4299L71.0679 25.314C64.7249 22.9694 51.4951 18.172 49.3203 17.7391C46.6019 17.198 45.5145 17.7391 44.4271 20.4444C43.7418 22.1495 41.3462 31.446 40.6213 36.1352Z" fill="white" stroke="#11142D" stroke-linecap="round" stroke-linejoin="round"/>
<path d="M76.0049 27.4782C76.0049 34.9692 69.9022 41.0459 62.369 41.0459C54.8358 41.0459 48.733 34.9692 48.733 27.4782C48.733 19.9873 54.8358 13.9106 62.369 13.9106C69.9022 13.9106 76.0049 19.9873 76.0049 27.4782Z" fill="#11142D" stroke="#11142D"/>
<path d="M73.83 14.4927C73.83 17.8002 71.1352 20.4855 67.8058 20.4855C64.4764 20.4855 61.7815 17.8002 61.7815 14.4927C61.7815 11.1853 64.4764 8.49998 67.8058 8.49998C71.1352 8.49998 73.83 11.1853 73.83 14.4927Z" fill="#11142D" stroke="#11142D"/>
<path d="M54.7574 45.8744C54.7574 48.0386 51.4952 48.9404 49.8642 49.6618C49.8642 66.9758 66.1748 58.3188 65.6311 50.7439L65.835 45.8744L66.1749 42.0869L68.3497 40.4638L69.9808 38.8406L71.0681 37.2174L72.1555 32.3478L71.0681 28.0193L64.5438 26.9372L58.0196 23.6908L50.4078 26.9372C49.3205 30.7246 49.7605 36.631 50.4078 37.7584C52.5826 41.5459 54.7574 39.9227 54.7574 45.8744Z" fill="#FAFAFC"/>
<path d="M49.8642 49.6618L49.6619 49.2045L49.3642 49.3362V49.6618H49.8642ZM50.4078 37.7584L50.8414 37.5095H50.8414L50.4078 37.7584ZM50.4078 26.9372L50.2117 26.4773C50.0733 26.5363 49.9688 26.6546 49.9273 26.7992L50.4078 26.9372ZM65.6311 50.7439L65.1316 50.723L65.1304 50.7514L65.1324 50.7797L65.6311 50.7439ZM64.5438 26.9372L64.321 27.3848L64.3881 27.4182L64.462 27.4304L64.5438 26.9372ZM71.0681 28.0193L71.5531 27.8975L71.4732 27.5797L71.1499 27.526L71.0681 28.0193ZM58.0196 23.6908L58.2423 23.2432L58.0357 23.1404L57.8235 23.2309L58.0196 23.6908ZM72.1555 32.3478L72.6435 32.4568L72.6693 32.341L72.6404 32.226L72.1555 32.3478ZM71.0681 37.2174L71.4835 37.4957L71.5357 37.4178L71.5561 37.3263L71.0681 37.2174ZM69.9808 38.8406L70.3335 39.195L70.3686 39.16L70.3962 39.1188L69.9808 38.8406ZM68.3497 40.4638L68.6488 40.8644L68.6772 40.8432L68.7024 40.8182L68.3497 40.4638ZM66.1749 42.0869L65.8759 41.6862L65.6969 41.8198L65.6769 42.0422L66.1749 42.0869ZM65.835 45.8744L65.337 45.8297L65.336 45.8416L65.3355 45.8535L65.835 45.8744ZM50.0664 50.1191C50.8131 49.7888 52.1257 49.344 53.1716 48.7426C54.2191 48.1403 55.2574 47.245 55.2574 45.8744H54.2574C54.2574 46.668 53.6646 47.3057 52.6732 47.8757C51.6803 48.4466 50.5463 48.8134 49.6619 49.2045L50.0664 50.1191ZM55.2574 45.8744C55.2574 44.3616 55.1199 43.2892 54.8598 42.4757C54.5945 41.6459 54.2078 41.1052 53.7508 40.6504C52.8373 39.7413 51.8858 39.3283 50.8414 37.5095L49.9742 38.0074C51.1046 39.976 52.3279 40.6451 53.0454 41.3592C53.404 41.716 53.6969 42.1221 53.9073 42.7803C54.123 43.4547 54.2574 44.4113 54.2574 45.8744H55.2574ZM50.8414 37.5095C50.794 37.4268 50.7296 37.2625 50.6613 36.9995C50.5952 36.7446 50.5322 36.4248 50.4763 36.0507C50.3646 35.3029 50.2842 34.3613 50.2572 33.3322C50.2028 31.2661 50.3646 28.8997 50.8884 27.0752L49.9273 26.7992C49.3638 28.7621 49.2019 31.2426 49.2575 33.3584C49.2854 34.4203 49.3685 35.4033 49.4873 36.1985C49.5467 36.5958 49.6159 36.952 49.6934 37.2507C49.7689 37.5413 49.8598 37.8082 49.9742 38.0074L50.8414 37.5095ZM65.1324 50.7797C65.2553 52.4912 64.424 54.3242 63.0261 55.8699C61.6324 57.411 59.7305 58.6024 57.8366 59.0496C55.952 59.4946 54.1229 59.1979 52.7559 57.8451C51.3708 56.4744 50.3642 53.9276 50.3642 49.6618H49.3642C49.3642 54.053 50.3963 56.9169 52.0525 58.5559C53.7267 60.2127 55.9413 60.5247 58.0664 60.0228C60.1823 59.5232 62.2561 58.2122 63.7678 56.5407C65.2752 54.8738 66.2789 52.7841 66.1299 50.7081L65.1324 50.7797ZM64.462 27.4304L70.9863 28.5126L71.1499 27.526L64.6256 26.4439L64.462 27.4304ZM50.604 27.3971L58.2158 24.1507L57.8235 23.2309L50.2117 26.4773L50.604 27.3971ZM57.7969 24.1385L64.321 27.3848L64.7665 26.4895L58.2423 23.2432L57.7969 24.1385ZM70.5832 28.1411L71.6706 32.4696L72.6404 32.226L71.5531 27.8975L70.5832 28.1411ZM71.6675 32.2388L70.5801 37.1084L71.5561 37.3263L72.6435 32.4568L71.6675 32.2388ZM70.6527 36.9391L69.5654 38.5623L70.3962 39.1188L71.4835 37.4957L70.6527 36.9391ZM69.6281 38.4862L67.997 40.1093L68.7024 40.8182L70.3335 39.195L69.6281 38.4862ZM68.0506 40.0631L65.8759 41.6862L66.474 42.4876L68.6488 40.8644L68.0506 40.0631ZM65.6769 42.0422L65.337 45.8297L66.333 45.9191L66.6729 42.1316L65.6769 42.0422ZM65.3355 45.8535L65.1316 50.723L66.1307 50.7649L66.3346 45.8953L65.3355 45.8535Z" fill="#11142D"/>
<path d="M79.7671 51.285L71.6118 50.2029C69.0021 54.9642 67.8058 62.6473 70.5244 68.058L77.0487 66.4348L89.5535 71.3043H90.6409L100.427 78.8792C101.515 78.5185 103.798 77.4725 104.233 76.1739C104.777 74.5507 104.777 66.9758 103.689 63.7295C102.82 61.1324 97.1652 51.8261 94.4467 47.4976L92.8156 41.0048L86.2913 37.7584L82.4854 43.7101L90.0972 47.4976L94.4467 65.3526L91.1846 64.8116L79.7671 51.285Z" fill="#FAFAFC" stroke="#11142D" stroke-linecap="round" stroke-linejoin="round"/>
<path d="M39.893 73.2623C38.685 64.8466 40.0359 55.9016 48.4749 50.1023L51.3828 48.862C51.2468 49.7608 51.1228 50.9518 51.0771 52.0901C51.045 52.8931 51.0509 53.6887 51.124 54.348C51.1604 54.6772 51.215 54.9865 51.296 55.252C51.3739 55.5072 51.4914 55.774 51.6862 55.9679C52.0356 56.3156 52.7311 56.721 53.6484 56.9895C54.5801 57.2622 55.7759 57.4048 57.1456 57.1896C59.8581 56.7634 63.1703 54.9495 66.4402 50.1618H71.4033C70.7212 51.8835 69.9618 54.4756 69.5932 57.418C69.1789 60.7256 69.2537 64.5133 70.5202 68.0176C68.9393 70.9121 67.5888 73.6282 67.1755 76.3699C66.7647 79.0958 67.2828 81.8156 69.3066 84.7456C68.9276 85.0663 68.5603 85.3795 68.2022 85.6847C65.3642 88.1042 63.1103 90.0258 60.2655 91.2714C57.0228 92.6913 52.9738 93.2415 46.3844 92.4817C44.6974 89.108 41.075 81.4958 39.893 73.2623Z" fill="#006174" stroke="#11142D" stroke-linecap="round"/>
<path d="M100.427 76.1739L103.689 81.0435L97.7086 84.2899C97.3461 82.4863 96.1863 78.5546 94.4465 77.2561C91.4018 76.3904 90.2782 73.649 90.097 72.3865C89.5533 69.6812 88.5747 63.1884 89.0096 58.8599C89.4446 54.5314 92.0905 57.4171 93.3591 59.401L100.427 76.1739Z" fill="#FAFAFC" stroke="#11142D" stroke-linecap="round"/>
<path d="M58.0194 30.7246C57.263 31.5412 55.3341 32.6845 53.6699 30.7246" stroke="#11142D" stroke-linecap="round" stroke-linejoin="round"/>
<path d="M63.4563 37.2174C62.3216 38.034 59.4283 39.1772 56.932 37.2174" stroke="#11142D" stroke-linecap="round" stroke-linejoin="round"/>
<path d="M66.7185 30.7246C65.9621 31.5412 64.0332 32.6845 62.369 30.7246" stroke="#11142D" stroke-linecap="round" stroke-linejoin="round"/>
<path d="M22.8314 65.5645L22.8314 65.5645L29.1271 66.9758L22.8314 68.3871C22.3836 68.4875 22.0304 68.8366 21.9282 69.2881L20.5049 75.5762L19.0815 69.2881C18.9793 68.8366 18.6261 68.4875 18.1783 68.3871L11.8827 66.9758L18.1783 65.5645C18.6261 65.4641 18.9793 65.1151 19.0815 64.6636L20.5049 58.3754L21.9282 64.6636C22.0304 65.1151 22.3837 65.4641 22.8314 65.5645Z" fill="#11142D" stroke="#11142D" stroke-width="2" stroke-linejoin="round"/>
<path d="M22.5375 18.6315L18.5567 17.7391L22.5375 16.8467C22.9694 16.7499 23.3102 16.4132 23.4088 15.9775L22.4464 15.7597L23.4088 15.9775L24.3107 11.9931L25.2126 15.9775C25.3112 16.4132 25.6521 16.7499 26.0839 16.8467L30.0647 17.7391L26.0839 18.6315L26.3027 19.6073L26.0839 18.6315C25.6521 18.7283 25.3112 19.065 25.2126 19.5007L24.3107 23.4852L23.4088 19.5007L22.4335 19.7215L23.4088 19.5007C23.3102 19.065 22.9693 18.7283 22.5375 18.6315Z" fill="#11142D" stroke="#11142D" stroke-width="2" stroke-linejoin="round"/>
<path d="M111.385 20.8582C111.385 20.6093 111.589 20.4034 111.845 20.4034C112.101 20.4034 112.304 20.6093 112.304 20.8582V25.6323C112.304 25.8812 112.101 26.0871 111.845 26.0871C111.589 26.0871 111.385 25.8812 111.385 25.6323V20.8582Z" fill="#11142D" stroke="#11142D"/>
<path d="M104.649 28.4741C104.393 28.4741 104.189 28.2682 104.189 28.0193C104.189 27.7704 104.393 27.5645 104.649 27.5645L109.446 27.5645C109.702 27.5645 109.905 27.7704 109.905 28.0193C109.905 28.2682 109.702 28.4741 109.446 28.4741L104.649 28.4741Z" fill="#11142D" stroke="#11142D"/>
<path d="M111.385 30.4064C111.385 30.1575 111.589 29.9516 111.845 29.9516C112.101 29.9516 112.304 30.1575 112.304 30.4064V35.1805C112.304 35.4294 112.101 35.6353 111.845 35.6353C111.589 35.6353 111.385 35.4294 111.385 35.1805V30.4064Z" fill="#11142D" stroke="#11142D"/>
<path d="M114.243 28.4741C113.987 28.4741 113.784 28.2682 113.784 28.0193C113.784 27.7704 113.987 27.5645 114.243 27.5645L119.041 27.5645C119.297 27.5645 119.5 27.7704 119.5 28.0193C119.5 28.2682 119.297 28.4741 119.041 28.4741L114.243 28.4741Z" fill="#11142D" stroke="#11142D"/>
</svg>
