<svg width="128" height="128" viewBox="0 0 128 128" fill="none" xmlns="http://www.w3.org/2000/svg">
<path d="M31.7877 15.4698L32.4725 12.2727L33.1572 15.4698C33.2447 15.8781 33.558 16.2342 34.0061 16.3404L37.2796 17.1159L34.0061 17.8915C33.558 17.9976 33.2447 18.3537 33.1572 18.762L32.4725 21.9591L31.7877 18.762C31.7003 18.3537 31.3869 17.9976 30.9388 17.8915L27.6654 17.1159L30.9388 16.3404C31.3869 16.2342 31.7003 15.8781 31.7877 15.4698Z" fill="#11142D" stroke="#11142D" stroke-width="2" stroke-linejoin="round"/>
<path d="M24.0168 44.9087L24.0168 44.9087C23.5628 45.0163 23.2447 45.3773 23.1559 45.7918L22.2756 49.9022L21.3953 45.7918C21.3065 45.3773 20.9885 45.0163 20.5344 44.9087L20.5344 44.9087L16.3926 43.9275L20.5344 42.9462L20.5344 42.9462C20.9885 42.8386 21.3065 42.4776 21.3953 42.0631L22.2756 37.9527L23.1559 42.0631C23.2447 42.4776 23.5628 42.8386 24.0168 42.9462L28.1586 43.9275L24.0168 44.9087Z" fill="#11142D" stroke="#11142D" stroke-width="2" stroke-linejoin="round"/>
<path d="M106.611 40.6188L106.611 40.6188C106.157 40.7264 105.839 41.0874 105.75 41.5019L104.87 45.6123L103.99 41.5019C103.901 41.0874 103.583 40.7264 103.129 40.6188L103.129 40.6188L98.9869 39.6375L103.129 38.6563L103.129 38.6563C103.583 38.5487 103.901 38.1877 103.99 37.7732L104.87 33.6628L105.75 37.7732C105.839 38.1877 106.157 38.5487 106.611 38.6563L110.753 39.6375L106.611 40.6188Z" fill="#11142D" stroke="#11142D" stroke-width="2" stroke-linejoin="round"/>
<path d="M55.4155 91.652V85.7535H70.7107V91.652H75.8091L64.0828 115.246H61.5336L49.2974 91.652H55.4155Z" fill="white" stroke="#11142D" stroke-linecap="round" stroke-linejoin="round"/>
<path fill-rule="evenodd" clip-rule="evenodd" d="M50.227 90.5795C37.8873 90.5795 27.884 100.583 27.884 112.922C27.884 114.453 28.0379 115.947 28.331 117.391H98.8149C99.108 115.947 99.2618 114.453 99.2618 112.922C99.2618 100.583 89.2585 90.5795 76.9189 90.5795H50.227Z" fill="#006174"/>
<ellipse cx="62.5532" cy="23.5507" rx="16.3149" ry="15.5507" fill="#11142D"/>
<rect x="32.9822" y="19.7971" width="59.1416" height="64.3477" rx="25" fill="#11142D"/>
<path d="M37.101 53.5434C38.2938 53.5434 39.3379 54.6193 39.3379 56.0463L39.3379 65.055C39.3379 66.4819 38.2938 67.5579 37.101 67.5579H33.68C32.4872 67.5579 31.4431 66.4819 31.4431 65.055L31.4431 56.0463C31.4431 54.6193 32.4872 53.5434 33.68 53.5434L37.101 53.5434Z" fill="white" stroke="#11142D"/>
<path d="M92.4458 53.5434C93.6385 53.5434 94.6826 54.6193 94.6826 56.0463L94.6826 65.055C94.6826 66.4819 93.6385 67.5579 92.4458 67.5579H89.0247C87.832 67.5579 86.7878 66.4819 86.7878 65.055L86.7878 56.0463C86.7878 54.6193 87.832 53.5434 89.0247 53.5434L92.4458 53.5434Z" fill="white" stroke="#11142D"/>
<path d="M36.5413 71.2936V48.9376V48.6983C36.5413 48.5402 36.5811 48.3847 36.657 48.2461C36.8222 47.9445 37.1387 47.757 37.4826 47.757H52.4892C53.1781 47.757 53.9841 47.5174 54.809 47.1647C55.644 46.8076 56.5441 46.3143 57.435 45.7634C59.2169 44.6613 60.9993 43.3052 62.2116 42.2758C62.7111 41.8516 63.5186 41.2876 64.445 40.6405C64.8349 40.3682 65.2457 40.0812 65.6636 39.7837C67.0336 38.8084 68.4747 37.7223 69.3058 36.7594C69.5175 36.5456 69.9196 36.3212 70.3173 36.4009C70.4958 36.4367 70.661 36.5499 70.8514 36.7689C70.9461 36.8779 71.0381 37.0026 71.1375 37.1431C71.162 37.1777 71.1874 37.2139 71.2135 37.2511C71.2883 37.3579 71.3688 37.4728 71.4492 37.5794C73.5798 40.4075 77.4346 41.8523 81.1876 42.5408C85.6834 43.3657 89.5082 46.9198 89.432 51.3347L89.0782 71.8489C89.0313 74.5699 87.5141 77.0519 85.1139 78.3345L72.8181 84.9046C71.7306 85.4857 70.5165 85.7897 69.2835 85.7897H56.364C55.0659 85.7897 53.79 85.4528 52.6612 84.8119L40.3384 77.8158C37.9914 76.4833 36.5413 73.9925 36.5413 71.2936Z" fill="white" stroke="#11142D" stroke-linecap="round" stroke-linejoin="round"/>
<path d="M60.5137 61.0869V65.9129V65.9129C60.5137 66.5052 60.9938 66.9854 61.5861 66.9854H64.5924" stroke="#11142D" stroke-linecap="round" stroke-linejoin="round"/>
<path d="M44.1985 56.797C46.2379 58.9419 51.4382 61.9448 55.9248 56.797" stroke="#11142D" stroke-linecap="round" stroke-linejoin="round"/>
<path d="M80.3975 56.797C78.3581 58.9419 73.1577 61.9448 68.6711 56.797" stroke="#11142D" stroke-linecap="round" stroke-linejoin="round"/>
<path d="M70.7107 73.4202C68.0507 75.8481 61.2675 79.2472 55.4155 73.4202" stroke="#11142D" stroke-width="2" stroke-linecap="round" stroke-linejoin="round"/>
<rect width="14.103" height="7.73277" rx="2" transform="matrix(0.691045 0.722812 -0.687049 0.726611 31.1572 76.6376)" fill="#11142D"/>
<path d="M11.432 105.999C11.233 105.476 11.322 104.88 11.6639 104.447L26.8414 85.1972C27.4048 84.4827 28.4371 84.4523 29.0377 85.1325L32.769 89.3588C33.3354 90.0003 33.2788 91.0092 32.6445 91.5762L14.6977 107.621C14.2848 107.99 13.7114 108.088 13.2082 107.877L12.5254 107.589C12.1539 107.433 11.8596 107.124 11.7111 106.733L11.432 105.999Z" fill="#11142D" stroke="#11142D" stroke-linejoin="round"/>
<path d="M34.0017 64.8405L32.4722 79.8549L36.5509 85.2172C39.7799 85.0385 47.2576 84.681 51.3363 84.681C53.3757 69.1303 40.6296 63.768 34.0017 64.8405Z" fill="#FAFAFC" stroke="#11142D" stroke-linecap="round" stroke-linejoin="round"/>
<path d="M39.6103 72.884L33.4922 83.6086L44.7087 78.7825" stroke="#11142D" stroke-width="2" stroke-linecap="round" stroke-linejoin="round"/>
<path d="M96.7221 74.4926C96.7221 81.3482 91.4442 86.8622 84.9859 86.8622C78.5277 86.8622 73.2498 81.3482 73.2498 74.4926C73.2498 67.6371 78.5277 62.1231 84.9859 62.1231C91.4442 62.1231 96.7221 67.6371 96.7221 74.4926Z" fill="#FAFAFC" stroke="#11142D"/>
<path d="M100.446 79.5258L102.496 86.5792L88.4227 72.0507C87.4078 71.0029 85.7774 71.0189 84.7813 72.0864C83.7851 73.1538 83.8003 74.8685 84.8152 75.9163L96.3687 87.8435L96.3405 87.8725C96.2613 87.7604 96.1729 87.6533 96.0751 87.5523L81.9625 72.9833C80.9497 71.9378 79.3228 71.9537 78.3288 73.0189C77.3347 74.0841 77.3499 75.7951 78.3626 76.8406L92.4753 91.4097C92.5575 91.4946 92.6438 91.5725 92.7334 91.6433L92.7118 91.6706L81.8014 80.4073C80.7865 79.3596 79.1563 79.3756 78.1601 80.443C77.164 81.5104 77.1791 83.2251 78.194 84.2728L89.8246 96.2795L89.8135 96.2913L81.1833 87.382C80.1739 86.3399 78.5525 86.3558 77.5617 87.4174C76.571 88.4791 76.5861 90.1844 77.5955 91.2264L91.7204 105.808C92.0079 106.105 92.3451 106.316 92.7033 106.441L95.2426 108.687L103.63 114.645L114.812 102.342L111.722 97.0807L111.523 96.6383L106.027 77.7312C105.556 76.1102 103.924 75.1979 102.383 75.6935C100.842 76.189 99.9746 77.9048 100.446 79.5258Z" fill="white" stroke="#11142D" stroke-linejoin="round"/>
<path d="M120 107.461L114.865 101.396L102.882 114.899L108.619 120L120 107.461Z" fill="#11142D"/>
</svg>
