<svg width="128" height="128" viewBox="0 0 128 128" fill="none" xmlns="http://www.w3.org/2000/svg">
<path d="M102.458 120C100.364 120 98.6668 118.296 98.6668 116.194V114.019C98.6668 111.918 100.364 110.214 102.458 110.214C104.553 110.214 106.25 111.918 106.25 114.019V116.194C106.25 118.296 104.553 120 102.458 120Z" fill="white"/>
<path d="M75.3752 120C73.2811 120 71.5835 118.296 71.5835 116.194L71.5835 114.019C71.5835 111.918 73.2811 110.214 75.3752 110.214C77.4692 110.214 79.1668 111.918 79.1668 114.019V116.194C79.1668 118.296 77.4692 120 75.3752 120Z" fill="white"/>
<path d="M102.458 120C100.364 120 98.6668 118.296 98.6668 116.194V114.019C98.6668 111.918 100.364 110.214 102.458 110.214C104.553 110.214 106.25 111.918 106.25 114.019V116.194C106.25 118.296 104.553 120 102.458 120Z" stroke="#11142D" stroke-width="2"/>
<path d="M75.3752 120C73.2811 120 71.5835 118.296 71.5835 116.194L71.5835 114.019C71.5835 111.918 73.2811 110.214 75.3752 110.214C77.4692 110.214 79.1668 111.918 79.1668 114.019V116.194C79.1668 118.296 77.4692 120 75.3752 120Z" stroke="#11142D" stroke-width="2"/>
<path d="M61.8333 33.0097H116V112.388H61.8333V33.0097Z" fill="#006174"/>
<path d="M21.75 91.7281C24.1432 91.7281 26.0833 93.6755 26.0833 96.0777L26.0833 109.126C26.0833 111.528 24.1432 113.476 21.75 113.476H16.3333C13.9401 113.476 12 111.528 12 109.126L12 96.0777C12 93.6755 13.9401 91.7281 16.3333 91.7281L21.75 91.7281Z" fill="#11142D"/>
<path d="M116 50.4078V35.1845C116 33.9834 115.03 33.0097 113.833 33.0097H63.9999C62.8033 33.0097 61.8333 33.9834 61.8333 35.1845V110.214C61.8333 111.415 62.8033 112.388 63.9999 112.388H113.833C115.03 112.388 116 111.415 116 110.214V58.0194" stroke="#11142D" stroke-linecap="round" stroke-linejoin="round"/>
<path d="M67.25 91.7281C69.6432 91.7281 71.5833 93.6755 71.5833 96.0777L71.5833 109.126C71.5833 111.528 69.6432 113.476 67.25 113.476H61.8333C59.4401 113.476 57.5 111.528 57.5 109.126L57.5 96.0777C57.5 93.6755 59.4401 91.7281 61.8333 91.7281L67.25 91.7281Z" fill="#11142D"/>
<path d="M17.4167 54.7573H65.0833C66.28 54.7573 67.25 55.7309 67.25 56.932V117.825C67.25 119.026 66.28 120 65.0833 120H17.4167C16.2201 120 15.25 119.026 15.25 117.825V56.932C15.25 55.7309 16.2201 54.7573 17.4167 54.7573Z" fill="#11142D" stroke="#11142D" stroke-linecap="round" stroke-linejoin="round"/>
<path d="M41.7917 43.8835C45.6807 43.8835 48.8333 47.0479 48.8333 50.9514V59.6505C48.8333 63.554 45.6807 66.7184 41.7917 66.7184C37.9027 66.7184 34.75 63.554 34.75 59.6505L34.75 50.9514C34.75 47.0479 37.9027 43.8835 41.7917 43.8835Z" fill="white" stroke="#11142D" stroke-width="2"/>
<rect x="58.5835" y="110.214" width="33.5833" height="18.4854" rx="2" transform="rotate(180 58.5835 110.214)" fill="#FAFAFC" stroke="#11142D" stroke-linejoin="round"/>
<path d="M67.25 72.1553C67.25 74.5575 65.3099 76.5048 62.9167 76.5048L19.5833 76.5048C17.1901 76.5048 15.25 74.5575 15.25 72.1553L15.25 56.932C15.25 55.7309 16.22 54.7573 17.4167 54.7573L65.0833 54.7573C66.28 54.7573 67.25 55.7309 67.25 56.932V72.1553Z" fill="white" stroke="#11142D" stroke-linejoin="round"/>
<path d="M15.25 82.1056V56.7573C15.25 55.6527 16.1454 54.7573 17.25 54.7573H65.25C66.3546 54.7573 67.25 55.6527 67.25 56.7573V118C67.25 119.105 66.3546 120 65.25 120H17.25C16.1454 120 15.25 119.105 15.25 118V89.4491" stroke="#11142D" stroke-linecap="round" stroke-linejoin="round"/>
<path d="M78.0833 21.0485H79.1666V33.0097H78.0833V21.0485Z" fill="#11142D"/>
<path d="M98.6666 21.0485H99.7499V33.0097H98.6666V21.0485Z" fill="#11142D"/>
<path d="M73.75 44.4272C73.75 44.1269 73.9925 43.8835 74.2917 43.8835C74.5908 43.8835 74.8333 44.1269 74.8333 44.4272V98.7961C74.8333 99.0964 74.5908 99.3398 74.2917 99.3398C73.9925 99.3398 73.75 99.0964 73.75 98.7961V44.4272Z" fill="#11142D"/>
<path d="M81.3333 44.4272C81.3333 44.1269 81.5758 43.8835 81.875 43.8835C82.1742 43.8835 82.4167 44.1269 82.4167 44.4272V98.7961C82.4167 99.0964 82.1742 99.3398 81.875 99.3398C81.5758 99.3398 81.3333 99.0964 81.3333 98.7961V44.4272Z" fill="#11142D"/>
<path d="M96.5 44.4272C96.5 44.1269 96.7425 43.8835 97.0417 43.8835C97.3408 43.8835 97.5833 44.1269 97.5833 44.4272V98.7961C97.5833 99.0964 97.3408 99.3398 97.0417 99.3398C96.7425 99.3398 96.5 99.0964 96.5 98.7961V44.4272Z" fill="#11142D"/>
<path d="M104.083 44.4272C104.083 44.1269 104.326 43.8835 104.625 43.8835C104.924 43.8835 105.167 44.1269 105.167 44.4272V98.7961C105.167 99.0964 104.924 99.3398 104.625 99.3398C104.326 99.3398 104.083 99.0964 104.083 98.7961V44.4272Z" fill="#11142D"/>
<path d="M88.9167 44.4272C88.9167 44.1269 89.1592 43.8835 89.4583 43.8835C89.7575 43.8835 90 44.1269 90 44.4272V98.7961C90 99.0964 89.7575 99.3398 89.4583 99.3398C89.1592 99.3398 88.9167 99.0964 88.9167 98.7961V44.4272Z" fill="#11142D"/>
<path d="M94.5748 8H83.6148C81.7881 8.33725 77.0388 10.0235 75.9428 14.5764C75.3948 24.1881 83.6147 22.1646 82.5187 14.5764H95.6708C95.1227 24.1881 103.343 21.6587 101.699 14.5764C100.659 10.0972 96.7668 8.33725 94.5748 8Z" fill="white" stroke="#11142D" stroke-linecap="round"/>
<path d="M61.8332 82.4854C61.8332 83.9868 60.6206 85.2039 59.1248 85.2039L52.6248 85.2039C51.1291 85.2039 49.9165 83.9868 49.9165 82.4854C49.9165 80.9841 51.1291 79.767 52.6248 79.767L59.1248 79.767C60.6206 79.767 61.8332 80.9841 61.8332 82.4854Z" fill="#FAFAFC" stroke="#11142D" stroke-width="2"/>
<path d="M33.6667 82.4854C33.6667 83.9868 32.4541 85.2039 30.9583 85.2039L24.4583 85.2039C22.9626 85.2039 21.75 83.9868 21.75 82.4854C21.75 80.9841 22.9626 79.767 24.4583 79.767L30.9583 79.767C32.4541 79.767 33.6667 80.9841 33.6667 82.4854Z" fill="#FAFAFC" stroke="#11142D" stroke-width="2"/>
<path d="M28.25 71.0679H56.9744" stroke="#11142D" stroke-linecap="round"/>
<path d="M34.8332 102.602C34.8332 104.455 33.3373 105.951 31.4998 105.951C29.6624 105.951 28.1665 104.455 28.1665 102.602C28.1665 100.749 29.6624 99.2524 31.4998 99.2524C33.3373 99.2524 34.8332 100.749 34.8332 102.602Z" stroke="#11142D" stroke-width="2"/>
</svg>
