<svg width="128" height="128" viewBox="0 0 128 128" fill="none" xmlns="http://www.w3.org/2000/svg">
<path d="M87.9603 13.8351L87.7038 14.0489C94.0851 18.4393 99.4199 24.1828 103.328 30.8703C110.168 42.8825 109.74 50.8122 109.89 60.0672C109.89 65.4535 108.351 68.8519 105.722 70.7542C104.346 71.8885 102.719 72.6797 100.977 73.0626C96.4739 74.2342 92.548 76.9983 89.9267 80.8428C86.6565 84.8611 82.1893 84.626 78.171 84.4977C75.0076 84.4977 74.1527 84.4977 74.1527 84.4977C74.1527 84.4977 72.913 84.4977 72.4641 87.1695C72.3459 87.9762 72.395 88.7985 72.6082 89.5854C72.8215 90.3724 73.1944 91.1069 73.7038 91.7435C72.726 92.1883 71.6562 92.3935 70.5832 92.342C68.4458 92.342 69.3862 96.2107 69.3862 96.2107C69.3862 96.2107 66.2656 95.3344 66.2656 98.1557C66.2656 100.977 67.0779 100.827 66.7145 101.405C65.5442 103.295 63.9069 104.852 61.9603 105.927C60.0137 107.001 57.8233 107.556 55.6 107.539C50 107.432 36.3634 106.94 25.4626 95.6336C15.9939 85.8229 9.36794 75.1359 8.19237 60.0458C8.19237 61.4993 8 62.9527 8 64.4489C7.99973 74.4725 10.6898 84.3124 15.7896 92.9417C20.8893 101.571 28.2117 108.673 36.9925 113.507C45.7734 118.342 55.6908 120.73 65.7097 120.424C75.7286 120.118 85.4817 117.129 93.9512 111.768C102.421 106.407 109.296 98.8706 113.859 89.9462C118.423 81.0217 120.508 71.0359 119.895 61.0311C119.283 51.0262 115.997 41.369 110.38 33.0673C104.763 24.7656 97.02 18.1239 87.9603 13.8351Z" fill="#006174" stroke="#11142D" stroke-linejoin="round"/>
<path d="M69.9847 97.1939C70.3544 98.2091 70.9229 99.1403 71.6569 99.9331C72.391 100.726 73.2758 101.364 74.2595 101.811" stroke="#11142D" stroke-miterlimit="10" stroke-linecap="round"/>
<path d="M90.2897 70.4763C90.2897 70.4763 87.4873 77.5525 92.2048 87.3687C93.0254 89.0762 93.4682 90.9797 93.496 92.9191" stroke="#11142D" stroke-miterlimit="10" stroke-linecap="round"/>
<path d="M81.0692 90.8654C81.4436 89.9383 82.11 89.1586 82.9676 88.6445" stroke="#11142D" stroke-miterlimit="10" stroke-linecap="round"/>
<path d="M83.5987 93.237C83.6676 92.2395 84.0598 91.2917 84.716 90.5373" stroke="#11142D" stroke-miterlimit="10" stroke-linecap="round"/>
<path d="M87.1974 93.6605C87.0461 92.6722 87.2213 91.6615 87.6964 90.7817" stroke="#11142D" stroke-miterlimit="10" stroke-linecap="round"/>
<path d="M10.4365 48.3328C11.0149 48.3328 11.4838 47.8639 11.4838 47.2855C11.4838 46.7071 11.0149 46.2382 10.4365 46.2382C9.85806 46.2382 9.38916 46.7071 9.38916 47.2855C9.38916 47.8639 9.85806 48.3328 10.4365 48.3328Z" fill="#11142D"/>
<path d="M12.5102 43.3527C13.0886 43.3527 13.5575 42.8837 13.5575 42.3053C13.5575 41.7269 13.0886 41.258 12.5102 41.258C11.9318 41.258 11.4629 41.7269 11.4629 42.3053C11.4629 42.8837 11.9318 43.3527 12.5102 43.3527Z" fill="#11142D"/>
<path d="M14.6048 38.8855C15.1832 38.8855 15.6522 38.4166 15.6522 37.8382C15.6522 37.2597 15.1832 36.7908 14.6048 36.7908C14.0264 36.7908 13.5575 37.2597 13.5575 37.8382C13.5575 38.4166 14.0264 38.8855 14.6048 38.8855Z" fill="#11142D"/>
<path d="M16.849 35.3374C17.4983 35.3374 18.0246 34.8111 18.0246 34.1618C18.0246 33.5126 17.4983 32.9863 16.849 32.9863C16.1998 32.9863 15.6735 33.5126 15.6735 34.1618C15.6735 34.8111 16.1998 35.3374 16.849 35.3374Z" fill="#11142D"/>
<path d="M20.1193 30.8916C20.7685 30.8916 21.2949 30.3653 21.2949 29.7161C21.2949 29.0668 20.7685 28.5405 20.1193 28.5405C19.47 28.5405 18.9437 29.0668 18.9437 29.7161C18.9437 30.3653 19.47 30.8916 20.1193 30.8916Z" fill="#11142D"/>
<path d="M23.7742 26.8519C24.4235 26.8519 24.9498 26.3256 24.9498 25.6763C24.9498 25.0271 24.4235 24.5008 23.7742 24.5008C23.125 24.5008 22.5986 25.0271 22.5986 25.6763C22.5986 26.3256 23.125 26.8519 23.7742 26.8519Z" fill="#11142D"/>
<path d="M27.6639 23.2825C28.3131 23.2825 28.8394 22.7562 28.8394 22.1069C28.8394 21.4577 28.3131 20.9313 27.6639 20.9313C27.0146 20.9313 26.4883 21.4577 26.4883 22.1069C26.4883 22.7562 27.0146 23.2825 27.6639 23.2825Z" fill="#11142D"/>
<path d="M63.658 10.3511C64.3072 10.3511 64.8336 9.82482 64.8336 9.17557C64.8336 8.52632 64.3072 8 63.658 8C63.0087 8 62.4824 8.52632 62.4824 9.17557C62.4824 9.82482 63.0087 10.3511 63.658 10.3511Z" fill="#11142D"/>
<path d="M56.391 10.8642C57.0403 10.8642 57.5666 10.3378 57.5666 9.68859C57.5666 9.03934 57.0403 8.51302 56.391 8.51302C55.7418 8.51302 55.2155 9.03934 55.2155 9.68859C55.2155 10.3378 55.7418 10.8642 56.391 10.8642Z" fill="#11142D"/>
<path d="M49.1878 12.0397C49.837 12.0397 50.3634 11.5134 50.3634 10.8641C50.3634 10.2149 49.837 9.68857 49.1878 9.68857C48.5385 9.68857 48.0122 10.2149 48.0122 10.8641C48.0122 11.5134 48.5385 12.0397 49.1878 12.0397Z" fill="#11142D"/>
<path d="M69.7708 10.5863C70.3493 10.5863 70.8182 10.1174 70.8182 9.53895C70.8182 8.96053 70.3493 8.49162 69.7708 8.49162C69.1924 8.49162 68.7235 8.96053 68.7235 9.53895C68.7235 10.1174 69.1924 10.5863 69.7708 10.5863Z" fill="#11142D"/>
<path d="M75.2426 11.3985C75.8211 11.3985 76.29 10.9296 76.29 10.3512C76.29 9.77275 75.8211 9.30385 75.2426 9.30385C74.6642 9.30385 74.1953 9.77275 74.1953 10.3512C74.1953 10.9296 74.6642 11.3985 75.2426 11.3985Z" fill="#11142D"/>
<path d="M80.843 12.9588C81.4214 12.9588 81.8903 12.4899 81.8903 11.9114C81.8903 11.333 81.4214 10.8641 80.843 10.8641C80.2646 10.8641 79.7957 11.333 79.7957 11.9114C79.7957 12.4899 80.2646 12.9588 80.843 12.9588Z" fill="#11142D"/>
<path d="M32.1101 20.3329C32.9364 20.3329 33.6063 19.663 33.6063 18.8367C33.6063 18.0104 32.9364 17.3405 32.1101 17.3405C31.2838 17.3405 30.6139 18.0104 30.6139 18.8367C30.6139 19.663 31.2838 20.3329 32.1101 20.3329Z" fill="#11142D"/>
<path d="M37.9237 18.11C39.1041 18.11 40.0611 17.153 40.0611 15.9725C40.0611 14.7921 39.1041 13.8351 37.9237 13.8351C36.7432 13.8351 35.7863 14.7921 35.7863 15.9725C35.7863 17.153 36.7432 18.11 37.9237 18.11Z" fill="#11142D"/>
<path d="M42.9677 14.5191C43.7941 14.5191 44.4639 13.8493 44.4639 13.0229C44.4639 12.1966 43.7941 11.5268 42.9677 11.5268C42.1414 11.5268 41.4716 12.1966 41.4716 13.0229C41.4716 13.8493 42.1414 14.5191 42.9677 14.5191Z" fill="#11142D"/>
<path d="M72.0578 59.7252L90.0975 55.3008L72.0578 50.8763L76.5464 42.4122L68.1678 46.8366L63.6578 25.2916L59.1265 46.8366L50.7479 42.4122L55.2365 50.8763L37.1968 55.3008L55.2365 59.7252L50.7479 68.1893L59.1265 63.7649L63.6578 85.3099L68.1678 63.7649L76.5464 68.1893L72.0578 59.7252Z" fill="#11142D"/>
<path d="M63.6581 14.0489V23.1542" stroke="#11142D" stroke-miterlimit="10" stroke-linecap="round"/>
<path d="M94.5648 76.8885C95.6335 77.9573 97.7709 81.1634 97.7709 85.4382C97.7709 89.713 97.0585 90.7817 96.7022 90.7817" stroke="#11142D" stroke-miterlimit="10" stroke-linecap="round"/>
<path d="M84.9465 85.4382L89.2213 82.2321L91.3587 86.5069C91.3587 86.8631 90.7175 87.5756 88.1526 87.5756C85.5878 87.5756 84.9465 86.1506 84.9465 85.4382Z" fill="#11142D"/>
<path d="M41.2204 86.3363L40.4761 89.6244L39.7318 86.3363C39.6343 85.9054 39.2972 85.5724 38.8701 85.4767L35.5892 84.7412L38.8701 84.0057C39.2972 83.9099 39.6343 83.577 39.7318 83.146L40.4761 79.858L41.2204 83.146C41.3179 83.577 41.655 83.9099 42.0821 84.0057L45.3631 84.7412L42.0821 85.4767L42.3008 86.4525L42.0821 85.4767C41.655 85.5724 41.3179 85.9054 41.2204 86.3363C41.2204 86.3363 41.2204 86.3363 41.2204 86.3363Z" fill="#11142D" stroke="#11142D" stroke-width="2" stroke-linejoin="round"/>
<path d="M34.3284 33.9464C34.3284 33.7418 34.4957 33.5718 34.7073 33.5718C34.9188 33.5718 35.0861 33.7418 35.0861 33.9464V38.3196C35.0861 38.5243 34.9188 38.6943 34.7073 38.6943C34.4957 38.6943 34.3284 38.5243 34.3284 38.3196V33.9464Z" fill="#11142D" stroke="#11142D"/>
<path d="M28.1156 40.8809C27.904 40.8809 27.7367 40.7109 27.7367 40.5062C27.7367 40.3016 27.904 40.1316 28.1156 40.1316L32.51 40.1316C32.7216 40.1316 32.8889 40.3016 32.8889 40.5062C32.8889 40.7109 32.7216 40.8809 32.51 40.8809L28.1156 40.8809Z" fill="#11142D" stroke="#11142D"/>
<path d="M34.3284 42.6929C34.3284 42.4883 34.4957 42.3183 34.7073 42.3183C34.9188 42.3183 35.0861 42.4883 35.0861 42.6929V47.0661C35.0861 47.2707 34.9188 47.4407 34.7073 47.4407C34.4957 47.4407 34.3284 47.2707 34.3284 47.0661V42.6929Z" fill="#11142D" stroke="#11142D"/>
<path d="M36.9042 40.8809C36.6926 40.8809 36.5253 40.7109 36.5253 40.5062C36.5253 40.3016 36.6926 40.1316 36.9042 40.1316L41.2986 40.1316C41.5101 40.1316 41.6775 40.3016 41.6775 40.5062C41.6775 40.7109 41.5101 40.8809 41.2986 40.8809L36.9042 40.8809Z" fill="#11142D" stroke="#11142D"/>
</svg>
