<svg width="128" height="128" viewBox="0 0 128 128" fill="none" xmlns="http://www.w3.org/2000/svg">
<path d="M46.5355 110.426C46.8156 110.153 47.1914 110 47.5826 110H80.4169C80.8081 110 81.1839 110.153 81.464 110.426L88.1307 116.926C89.0941 117.865 88.4291 119.5 87.0836 119.5H40.916C39.5704 119.5 38.9054 117.865 39.8688 116.926L46.5355 110.426Z" fill="#006174" stroke="#11142D"/>
<rect x="7.99976" y="8" width="112" height="91.875" fill="#006174"/>
<rect x="14.9998" y="15" width="98" height="77.875" rx="2" fill="#FAFAFC"/>
<path d="M30.7498 15H17.9998C16.3429 15 14.9998 16.3431 14.9998 18V89.875C14.9998 91.5319 16.3429 92.875 17.9998 92.875H110C111.657 92.875 113 91.5319 113 89.875V18C113 16.3431 111.657 15 110 15H40.8123" stroke="#11142D" stroke-linecap="round" stroke-linejoin="round"/>
<rect x="21.9998" y="84.125" width="47.25" height="0.875" rx="0.4375" fill="#11142D"/>
<circle cx="50.4373" cy="84.5625" r="2.3125" fill="#006174" stroke="#11142D" stroke-width="2"/>
<rect x="28.9998" y="26.375" width="70" height="49.875" rx="2" fill="#11142D"/>
<rect x="38.7498" y="23" width="51.375" height="43.5" rx="1" fill="white" stroke="#11142D" stroke-width="2"/>
<path d="M60.4998 37.3125L48.6873 44.5113L48.6873 30.1137L60.4998 37.3125Z" fill="#006174" stroke="#11142D" stroke-width="2" stroke-linejoin="round"/>
<rect x="50.4998" y="100.375" width="27" height="9.5" fill="#006174" stroke="#11142D"/>
<rect x="76.2498" y="84.125" width="29.75" height="0.875" rx="0.4375" fill="#11142D"/>
<rect x="68.3748" y="29" width="15.75" height="1.75" rx="0.875" fill="#11142D"/>
<rect x="68.3748" y="45.625" width="15.75" height="1.75" rx="0.875" fill="#11142D"/>
<rect x="68.3748" y="34.25" width="15.75" height="1.75" rx="0.875" fill="#11142D"/>
<rect x="68.3748" y="40.375" width="15.75" height="1.75" rx="0.875" fill="#11142D"/>
<rect x="44.7498" y="54.375" width="39.375" height="6.125" fill="#006174"/>
</svg>
