<svg width="128" height="128" viewBox="0 0 128 128" fill="none" xmlns="http://www.w3.org/2000/svg">
<rect x="35.125" y="61.375" width="58.625" height="58.625" rx="8" fill="#006174" stroke="#11142D"/>
<rect x="43.875" y="86.75" width="18.375" height="0.875" rx="0.4375" fill="#11142D"/>
<rect x="53.5" y="95.5" width="30.625" height="0.875" rx="0.4375" fill="#11142D"/>
<rect x="43.875" y="105.125" width="18.375" height="0.875" rx="0.4375" fill="#11142D"/>
<rect x="68.375" y="105.125" width="15.75" height="0.875" rx="0.4375" fill="#11142D"/>
<rect x="64" y="112.125" width="15.75" height="0.875" rx="0.4375" fill="#11142D"/>
<rect x="43" y="112.125" width="15.75" height="0.875" rx="0.4375" fill="#11142D"/>
<rect x="109.5" y="77.125" width="10.5" height="1.75" rx="0.875" fill="#11142D"/>
<rect x="108.924" y="87.625" width="10.5" height="1.75" rx="0.875" transform="rotate(35.8253 108.924 87.625)" fill="#11142D"/>
<rect x="106.875" y="68.9939" width="10.5" height="1.75" rx="0.875" transform="rotate(-33.9827 106.875 68.9939)" fill="#11142D"/>
<path d="M83.25 72.5306C83.25 72.1325 83.4862 71.7723 83.8513 71.6136L101.976 63.7331C102.637 63.446 103.375 63.93 103.375 64.6502V94.8498C103.375 95.57 102.637 96.054 101.976 95.7669L83.8513 87.8864C83.4862 87.7277 83.25 87.3675 83.25 86.9694V72.5306Z" fill="white" stroke="#11142D"/>
<path d="M109.5 34.6711C109.5 34.3489 109.655 34.0465 109.917 33.8587L117.542 28.3862C118.204 27.9113 119.125 28.3842 119.125 29.1986V51.5514C119.125 52.3658 118.204 52.8387 117.542 52.3638L109.917 46.8913C109.655 46.7035 109.5 46.4011 109.5 46.0789V34.6711Z" fill="#006174" stroke="#11142D" stroke-width="2"/>
<rect x="37.125" y="41.5" width="7.375" height="10.875" rx="3.6875" fill="white" stroke="#11142D" stroke-width="4"/>
<rect x="67.125" y="71.5" width="16.5" height="16.5" rx="1.5" fill="white" stroke="#11142D"/>
<rect x="102.625" y="34.375" width="6.75" height="12" rx="1" fill="#006174" stroke="#11142D" stroke-width="2"/>
<circle cx="90.25" cy="19.375" r="5" fill="white" stroke="#11142D" stroke-width="4"/>
<circle cx="75.375" cy="21.125" r="2" fill="white" stroke="#11142D" stroke-width="3"/>
<rect x="8" y="46.5" width="47.25" height="32.375" rx="8" fill="#11142D" stroke="#11142D"/>
<path d="M62.2295 48.125L59.9203 33.5H68.25V48.125H62.2295Z" fill="#11142D" stroke="#11142D" stroke-width="2" stroke-linejoin="round"/>
<rect x="67.5" y="24.625" width="35" height="32.375" rx="8" fill="#006174" stroke="#11142D"/>
<rect x="75.375" y="33.375" width="19.25" height="11.375" rx="4" fill="white" stroke="#11142D" stroke-width="2"/>
<circle cx="16.75" cy="70.125" r="1.75" fill="white"/>
<circle cx="31.625" cy="63.125" r="8" fill="white" stroke="#11142D" stroke-width="2"/>
<path d="M45.4653 16.9314L42.7176 16.3125L45.4653 15.6936L45.4653 15.6936C45.8906 15.5977 46.2227 15.2656 46.3186 14.8403L46.3186 14.8403L46.9375 12.0926L47.5564 14.8403C47.6523 15.2656 47.9844 15.5977 48.4097 15.6936L51.1574 16.3125L48.4097 16.9314C47.9844 17.0273 47.6523 17.3594 47.5564 17.7847L46.9375 20.5324L46.3186 17.7847C46.2227 17.3594 45.8906 17.0273 45.4653 16.9314Z" fill="#11142D" stroke="#11142D" stroke-width="2" stroke-linejoin="round"/>
<path d="M22.2573 25.2426C22.2573 24.9015 22.5339 24.625 22.875 24.625C23.2161 24.625 23.4926 24.9015 23.4926 25.2426V28.3309C23.4926 28.672 23.2161 28.9485 22.875 28.9485C22.5339 28.9485 22.2573 28.672 22.2573 28.3309V25.2426Z" fill="#11142D"/>
<path d="M18.2426 30.4926C17.9015 30.4926 17.625 30.2161 17.625 29.875C17.625 29.5339 17.9015 29.2574 18.2426 29.2574L21.3309 29.2574C21.672 29.2574 21.9485 29.5339 21.9485 29.875C21.9485 30.2161 21.672 30.4926 21.3309 30.4926L18.2426 30.4926Z" fill="#11142D"/>
<path d="M22.2573 31.4191C22.2573 31.078 22.5339 30.8015 22.875 30.8015C23.2161 30.8015 23.4926 31.078 23.4926 31.4191V34.5074C23.4926 34.8485 23.2161 35.125 22.875 35.125C22.5339 35.125 22.2573 34.8485 22.2573 34.5074V31.4191Z" fill="#11142D"/>
<path d="M24.4192 30.4926C24.078 30.4926 23.8015 30.2161 23.8015 29.875C23.8015 29.5339 24.078 29.2574 24.4192 29.2574L27.5074 29.2574C27.8485 29.2574 28.125 29.5339 28.125 29.875C28.125 30.2161 27.8485 30.4926 27.5074 30.4926L24.4192 30.4926Z" fill="#11142D"/>
</svg>
