<svg width="128" height="128" viewBox="0 0 128 128" fill="none" xmlns="http://www.w3.org/2000/svg">
<path d="M8.875 55.25V34.5C8.875 33.3954 9.77043 32.5 10.875 32.5H118C119.105 32.5 120 33.3954 120 34.5V102.25C120 103.355 119.105 104.25 118 104.25H10.875C9.77043 104.25 8.875 103.355 8.875 102.25V65.75" stroke="#11142D" stroke-linecap="round"/>
<rect x="15" y="38.625" width="98.875" height="60.375" rx="2" fill="#006174"/>
<path fill-rule="evenodd" clip-rule="evenodd" d="M49.3914 111.25H8V112C8 116.418 11.5817 120 16 120H112C116.418 120 120 116.418 120 112V111.25H77.7972V115.25C77.7972 116.907 76.454 118.25 74.7972 118.25H52.3914C50.7345 118.25 49.3914 116.907 49.3914 115.25V111.25Z" fill="#11142D"/>
<rect x="52.625" y="111.25" width="21.875" height="1.75" rx="0.875" fill="#11142D"/>
<path d="M104.875 86.75C104.875 88.5449 103.42 90 101.625 90C99.8301 90 98.375 88.5449 98.375 86.75C98.375 84.9551 99.8301 83.5 101.625 83.5C103.42 83.5 104.875 84.9551 104.875 86.75Z" fill="white" stroke="#11142D" stroke-width="4"/>
<rect x="37.75" y="87.625" width="51.625" height="0.875" rx="0.4375" fill="#11142D"/>
<rect x="37.75" y="79.75" width="51.625" height="0.875" rx="0.4375" fill="#11142D"/>
<rect x="48.25" y="71.875" width="41.125" height="0.875" rx="0.4375" fill="#11142D"/>
<rect x="48.25" y="64" width="41.125" height="0.875" rx="0.4375" fill="#11142D"/>
<rect x="29.875" y="52.625" width="7" height="3.5" rx="1.75" transform="rotate(-90 29.875 52.625)" fill="#11142D"/>
<rect x="31.0063" y="58.3436" width="7" height="3.5" rx="1.75" transform="rotate(135 31.0063 58.3436)" fill="#11142D"/>
<rect x="34.7188" y="55.8687" width="7" height="3.5" rx="1.75" transform="rotate(45 34.7188 55.8687)" fill="#11142D"/>
<rect x="29" y="57" width="7" height="3.5" rx="1.75" transform="rotate(180 29 57)" fill="#11142D"/>
<rect x="29.875" y="64.875" width="7" height="3.5" rx="1.75" transform="rotate(-90 29.875 64.875)" fill="#11142D"/>
<rect x="39.6685" y="49.6815" width="7" height="3.5" rx="1.75" transform="rotate(135 39.6685 49.6815)" fill="#11142D"/>
<rect x="26.0564" y="47.2067" width="7" height="3.5" rx="1.75" transform="rotate(45 26.0564 47.2067)" fill="#11142D"/>
<rect x="41.25" y="57" width="7" height="3.5" rx="1.75" transform="rotate(180 41.25 57)" fill="#11142D"/>
<circle cx="31.625" cy="55.25" r="5.25" fill="white" stroke="#11142D" stroke-width="2"/>
<rect x="15.5" y="89" width="20" height="30.5" rx="10" fill="white" stroke="#11142D"/>
<rect x="1" y="-1" width="6.75" height="10.25" rx="3.375" transform="matrix(1 0 0 -1 21.125 104.875)" fill="#006174" stroke="#11142D" stroke-width="2"/>
<path d="M24.625 88.5H26.375V113.875C26.375 114.358 25.9832 114.75 25.5 114.75C25.0168 114.75 24.625 114.358 24.625 113.875V88.5Z" fill="#11142D"/>
<mask id="path-22-inside-1_260_7022" fill="white">
<path fill-rule="evenodd" clip-rule="evenodd" d="M102.5 51.75H67.0625C59.5721 51.75 53.5 45.6779 53.5 38.1875C53.5 31.7475 57.9885 26.3559 64.0079 24.9704C64.2879 15.5504 72.0122 8 81.5 8C88.3199 8 94.2287 11.9012 97.1164 17.5937C98.8124 17.0459 100.622 16.75 102.5 16.75C112.165 16.75 120 24.585 120 34.25C120 34.5379 119.993 34.8241 119.979 35.1086C119.993 35.3353 120 35.5639 120 35.7941C120 44.6063 112.856 51.75 104.044 51.75H102.5Z"/>
</mask>
<path fill-rule="evenodd" clip-rule="evenodd" d="M102.5 51.75H67.0625C59.5721 51.75 53.5 45.6779 53.5 38.1875C53.5 31.7475 57.9885 26.3559 64.0079 24.9704C64.2879 15.5504 72.0122 8 81.5 8C88.3199 8 94.2287 11.9012 97.1164 17.5937C98.8124 17.0459 100.622 16.75 102.5 16.75C112.165 16.75 120 24.585 120 34.25C120 34.5379 119.993 34.8241 119.979 35.1086C119.993 35.3353 120 35.5639 120 35.7941C120 44.6063 112.856 51.75 104.044 51.75H102.5Z" fill="white"/>
<path d="M64.0079 24.9704L64.9051 28.8685L67.9144 28.1758L68.0061 25.0892L64.0079 24.9704ZM97.1164 17.5937L93.5492 19.4033L95.0947 22.4501L98.3458 21.4001L97.1164 17.5937ZM119.979 35.1086L115.984 34.9156L115.973 35.1331L115.987 35.3504L119.979 35.1086ZM102.5 47.75H67.0625V55.75H102.5V47.75ZM67.0625 47.75C61.7813 47.75 57.5 43.4687 57.5 38.1875H49.5C49.5 47.887 57.363 55.75 67.0625 55.75V47.75ZM57.5 38.1875C57.5 33.652 60.6615 29.8452 64.9051 28.8685L63.1106 21.0723C55.3156 22.8666 49.5 29.8431 49.5 38.1875H57.5ZM68.0061 25.0892C68.222 17.8247 74.1815 12 81.5 12V4C69.8428 4 60.3537 13.2761 60.0096 24.8515L68.0061 25.0892ZM81.5 12C86.7553 12 91.3165 15.0021 93.5492 19.4033L100.684 15.7841C97.1409 8.80028 89.8845 4 81.5 4V12ZM98.3458 21.4001C99.6494 20.979 101.044 20.75 102.5 20.75V12.75C100.199 12.75 97.9754 13.1128 95.887 13.7873L98.3458 21.4001ZM102.5 20.75C109.956 20.75 116 26.7942 116 34.25H124C124 22.3759 114.374 12.75 102.5 12.75V20.75ZM116 34.25C116 34.4735 115.995 34.6954 115.984 34.9156L123.975 35.3016C123.991 34.9529 124 34.6023 124 34.25H116ZM115.987 35.3504C115.995 35.4966 116 35.6445 116 35.7941H124C124 35.4833 123.991 35.1741 123.972 34.8668L115.987 35.3504ZM116 35.7941C116 42.3972 110.647 47.75 104.044 47.75V55.75C115.065 55.75 124 46.8154 124 35.7941H116ZM104.044 47.75H102.5V55.75H104.044V47.75Z" fill="#11142D" mask="url(#path-22-inside-1_260_7022)"/>
</svg>
