<svg width="128" height="128" viewBox="0 0 128 128" fill="none" xmlns="http://www.w3.org/2000/svg">
<path d="M79.9096 101.573C80.7524 102.254 74.7591 106.814 79.2349 112.094C81.8412 115.169 81.2576 116.421 79.2349 120" stroke="#11142D" stroke-linecap="round"/>
<path fill-rule="evenodd" clip-rule="evenodd" d="M83.9264 97.6534C104.208 94.5005 120 70.0014 120 48.906C120 26.3143 101.888 8 79.5465 8C57.2045 8 39.0928 26.3143 39.0928 48.906C39.0928 70.0014 54.8847 94.5005 75.1666 97.6534L73.6428 100.026C72.7879 101.357 73.7436 103.107 75.3256 103.107H83.7674C85.3494 103.107 86.3052 101.357 85.4502 100.026L83.9264 97.6534Z" fill="#006174"/>
<path d="M96.4516 38.8727C96.4895 38.7025 96.7293 38.7025 96.7672 38.8727L98.6091 47.1406C98.6228 47.2023 98.6704 47.2504 98.7313 47.2643L106.908 49.1267C107.076 49.165 107.076 49.4075 106.908 49.4458L98.7313 51.3083C98.6704 51.3222 98.6228 51.3703 98.6091 51.4319L96.7672 59.6998C96.7293 59.87 96.4895 59.87 96.4516 59.6998L94.6098 51.4319C94.5961 51.3703 94.5485 51.3222 94.4875 51.3083L86.311 49.4458C86.1427 49.4075 86.1427 49.165 86.311 49.1267L94.4875 47.2643C94.5485 47.2504 94.5961 47.2023 94.6098 47.1406L96.4516 38.8727Z" fill="white"/>
<path d="M88.6989 22.1293C88.7211 22.0301 88.8609 22.0301 88.883 22.1293L89.9574 26.9523C89.9655 26.9882 89.9932 27.0163 90.0288 27.0244L94.7984 28.1108C94.8966 28.1332 94.8966 28.2746 94.7984 28.297L90.0288 29.3834C89.9932 29.3915 89.9655 29.4196 89.9574 29.4555L88.883 34.2785C88.8609 34.3778 88.7211 34.3778 88.6989 34.2785L87.6245 29.4555C87.6165 29.4196 87.5888 29.3915 87.5532 29.3834L82.7836 28.297C82.6854 28.2746 82.6854 28.1332 82.7836 28.1108L87.5532 27.0244C87.5888 27.0163 87.6165 26.9882 87.6245 26.9523L88.6989 22.1293Z" fill="white"/>
<path d="M42.7491 22.0549C42.7491 23.9955 41.1933 25.5686 39.2742 25.5686C37.3551 25.5686 35.7993 23.9955 35.7993 22.0549C35.7993 20.1143 37.3551 18.5412 39.2742 18.5412C41.1933 18.5412 42.7491 20.1143 42.7491 22.0549Z" fill="#11142D"/>
<path d="M23.4072 37.8943C23.4072 37.3939 23.8084 36.9882 24.3033 36.9882C24.7982 36.9882 25.1994 37.3939 25.1994 37.8943V42.4248C25.1994 42.9252 24.7982 43.3309 24.3033 43.3309C23.8084 43.3309 23.4072 42.9252 23.4072 42.4248V37.8943Z" fill="#11142D"/>
<path d="M17.5836 45.5962C17.0887 45.5962 16.6875 45.1905 16.6875 44.6901C16.6875 44.1896 17.0887 43.784 17.5836 43.784L22.0639 43.784C22.5588 43.784 22.96 44.1896 22.96 44.6901C22.96 45.1905 22.5588 45.5962 22.0639 45.5962L17.5836 45.5962Z" fill="#11142D"/>
<path d="M23.4072 46.9553C23.4072 46.4548 23.8084 46.0492 24.3033 46.0492C24.7982 46.0492 25.1994 46.4548 25.1994 46.9553V51.4857C25.1994 51.9861 24.7982 52.3918 24.3033 52.3918C23.8084 52.3918 23.4072 51.9861 23.4072 51.4857V46.9553Z" fill="#11142D"/>
<path d="M26.5445 45.5962C26.0496 45.5962 25.6484 45.1905 25.6484 44.6901C25.6484 44.1896 26.0496 43.784 26.5445 43.784L31.0249 43.784C31.5198 43.784 31.921 44.1896 31.921 44.6901C31.921 45.1905 31.5198 45.5962 31.0249 45.5962L26.5445 45.5962Z" fill="#11142D"/>
<path d="M61.5325 84.2578H13.0427V111.561C13.0427 115.979 16.6244 119.561 21.0427 119.561H53.5325C57.9507 119.561 61.5325 115.979 61.5325 111.561V84.2578Z" fill="white"/>
<path d="M13.0427 106.812V84.2578H61.5325V111.561C61.5325 115.979 57.9507 119.561 53.5325 119.561H20.5609C16.4087 119.561 13.0427 116.195 13.0427 112.043V112.043" stroke="#11142D" stroke-linecap="round"/>
<rect width="21.5621" height="13.3146" rx="6.6573" transform="matrix(-0.709128 -0.70508 -0.697153 0.716922 36.7366 73.0489)" fill="#11142D"/>
<rect width="21.5621" height="13.3146" rx="6.6573" transform="matrix(0.709128 -0.70508 0.697153 0.716922 37.7354 72.3952)" fill="#11142D"/>
<path d="M43.5588 83.9963H30.6282V119.299H43.5588V83.9963Z" fill="#11142D"/>
<rect x="-0.5" y="0.5" width="57.1877" height="9.46015" rx="3.5" transform="matrix(-1 0 0 1 65.1877 74.7129)" fill="white" stroke="#11142D"/>
<path d="M31.3348 73.5362C31.3348 76.7853 33.9339 79.3813 37.0932 79.3813C40.2525 79.3813 42.8516 76.7853 42.8516 73.5362C42.8516 70.287 40.2525 67.691 37.0932 67.691C33.9339 67.691 31.3348 70.287 31.3348 73.5362Z" fill="white" stroke="#11142D" stroke-width="4"/>
<rect width="17.4563" height="10.4601" transform="matrix(-1 0 0 1 46.1448 74.4146)" fill="#11142D"/>
<path d="M19.0311 16.7843C19.0311 18.6116 17.572 20.0549 15.8188 20.0549C14.0656 20.0549 12.6064 18.6116 12.6064 16.7843C12.6064 14.957 14.0656 13.5137 15.8188 13.5137C17.572 13.5137 19.0311 14.957 19.0311 16.7843Z" stroke="#11142D" stroke-width="4"/>
</svg>
