<svg width="128" height="128" viewBox="0 0 128 128" fill="none" xmlns="http://www.w3.org/2000/svg">
<rect x="55.1333" y="8" width="57.8667" height="28" rx="2" fill="#006174"/>
<path d="M59.8 8H57.1333C56.0287 8 55.1333 8.89543 55.1333 10V34C55.1333 35.1046 56.0287 36 57.1333 36H111C112.105 36 113 35.1046 113 34V10C113 8.89543 112.105 8 111 8H66.8" stroke="#11142D" stroke-linecap="round"/>
<mask id="path-3-inside-1_260_7024" fill="white">
<path fill-rule="evenodd" clip-rule="evenodd" d="M113 40.5C113 39.9477 112.552 39.5 112 39.5H56.1333C55.581 39.5 55.1333 39.9477 55.1333 40.5V42C55.1333 42.5523 55.581 43 56.1333 43H74.6001C75.7047 43 76.6001 43.8954 76.6001 45V119C76.6001 119.552 77.0478 120 77.6001 120H112C112.552 120 113 119.552 113 119V40.5Z"/>
</mask>
<path d="M56.1333 40.5H112V38.5H56.1333V40.5ZM56.1333 42V40.5H54.1333V42H56.1333ZM56.1333 44H74.6001V42H56.1333V44ZM74.6001 44C75.1524 44 75.6001 44.4477 75.6001 45H77.6001C77.6001 43.3431 76.257 42 74.6001 42V44ZM75.6001 45V119H77.6001V45H75.6001ZM112 119H77.6001V121H112V119ZM112 40.5V119H114V40.5H112ZM54.1333 42C54.1333 43.1046 55.0287 44 56.1333 44V42H54.1333ZM112 121C113.105 121 114 120.105 114 119H112V121ZM112 40.5H114C114 39.3954 113.105 38.5 112 38.5V40.5ZM75.6001 119C75.6001 120.105 76.4955 121 77.6001 121V119H75.6001ZM56.1333 38.5C55.0287 38.5 54.1333 39.3954 54.1333 40.5H56.1333L56.1333 40.5V38.5Z" fill="#11142D" mask="url(#path-3-inside-1_260_7024)"/>
<path fill-rule="evenodd" clip-rule="evenodd" d="M112.067 41.375C112.067 40.8227 111.619 40.375 111.067 40.375H56.1333C55.581 40.375 55.1333 40.8227 55.1333 41.375V42.8369C55.1333 43.3892 55.581 43.8369 56.1333 43.8369H74.2538C75.3584 43.8369 76.2538 44.7324 76.2538 45.8369V119C76.2538 119.552 76.7015 120 77.2538 120H111.067C111.619 120 112.067 119.552 112.067 119V41.375Z" fill="#006174"/>
<rect x="106.467" y="43" width="0.933333" height="15.75" rx="0.466667" fill="#11142D"/>
<rect x="106.467" y="17.625" width="0.933333" height="15.75" rx="0.466667" fill="#11142D"/>
<rect x="15" y="60.5" width="56.9333" height="58.625" rx="2" fill="#11142D"/>
<rect x="65.4" y="50" width="6.53333" height="7" rx="1" fill="#11142D"/>
<rect x="15" y="50" width="45.7333" height="7" rx="2" fill="#11142D"/>
<rect x="38.3333" y="52.625" width="8.4" height="1.75" rx="0.875" fill="white"/>
<rect x="48.6001" y="52.625" width="8.4" height="1.75" rx="0.875" fill="white"/>
<ellipse cx="43.4665" cy="91.5625" rx="21.9333" ry="20.5625" fill="white" stroke="#006174" stroke-width="4"/>
<path d="M57 91.5625C57 84.5554 50.9409 78.875 43.4667 78.875" stroke="#11142D" stroke-width="2" stroke-linecap="round"/>
<path d="M67.7557 23.2915C67.7557 23.0615 67.9521 22.875 68.1943 22.875C68.4364 22.875 68.6328 23.0615 68.6328 23.2915V25.374C68.6328 25.604 68.4364 25.7905 68.1943 25.7905C67.9521 25.7905 67.7557 25.604 67.7557 25.374V23.2915Z" fill="white"/>
<path d="M64.9052 26.8317C64.663 26.8317 64.4667 26.6452 64.4667 26.4152C64.4667 26.1852 64.663 25.9987 64.9052 25.9987L67.0978 25.9987C67.34 25.9987 67.5363 26.1852 67.5363 26.4152C67.5363 26.6452 67.34 26.8317 67.0978 26.8317L64.9052 26.8317Z" fill="white"/>
<path d="M67.7559 27.4564C67.7559 27.2264 67.9522 27.0399 68.1944 27.0399C68.4366 27.0399 68.6329 27.2264 68.6329 27.4564V29.5389C68.6329 29.7689 68.4366 29.9554 68.1944 29.9554C67.9522 29.9554 67.7559 29.7689 67.7559 29.5389V27.4564Z" fill="white"/>
<path d="M69.2905 26.8317C69.0483 26.8317 68.8519 26.6452 68.8519 26.4152C68.8519 26.1852 69.0483 25.9987 69.2905 25.9987L71.4831 25.9987C71.7253 25.9987 71.9216 26.1852 71.9216 26.4152C71.9216 26.6452 71.7253 26.8317 71.4831 26.8317L69.2905 26.8317Z" fill="white"/>
<path d="M31.4444 8.05237C31.0302 8.02084 30.6397 8.24864 30.4632 8.62466L29.924 9.77368C29.768 10.1062 29.442 10.3234 29.0765 10.36C28.9084 10.3768 28.7406 10.3967 28.5733 10.4196C28.2161 10.4686 27.8546 10.3394 27.6243 10.0619L26.7664 9.028C26.5064 8.71467 26.0825 8.59024 25.6944 8.71339L25.2415 8.85711C24.8273 8.98853 24.5455 9.3723 24.5439 9.80677L24.5398 10.9971C24.5384 11.3805 24.3164 11.7264 23.9791 11.9088C23.587 12.1209 23.2042 12.3541 22.8322 12.6079C22.5392 12.8078 22.1656 12.8564 21.8386 12.719L20.4538 12.137C20.0805 11.9801 19.6493 12.0639 19.3619 12.3493L19.0831 12.6261C18.7634 12.9434 18.6954 13.4354 18.9169 13.8276L19.515 14.8863C19.7104 15.2323 19.6792 15.6592 19.4581 15.9894C19.3092 16.2119 19.1681 16.4388 19.0351 16.6699C18.8521 16.9878 18.523 17.1989 18.1563 17.2082L16.6742 17.2459C16.2539 17.2566 15.8851 17.5292 15.7515 17.9279L15.6496 18.232C15.5078 18.6551 15.6635 19.1209 16.0313 19.3737L17.125 20.1257C17.4465 20.3468 17.6062 20.7342 17.5624 21.122C17.539 21.3294 17.5213 21.5374 17.5093 21.7457C17.4871 22.13 17.2682 22.48 16.9202 22.6445L15.6711 23.2353C15.2726 23.4238 15.0445 23.8509 15.1096 24.2869L15.1552 24.5926C15.2183 25.0157 15.5436 25.3518 15.9645 25.4287L17.395 25.6901C17.7626 25.7573 18.0587 26.0251 18.1868 26.3762C18.2348 26.5076 18.2851 26.6383 18.3379 26.768C18.4869 27.1346 18.433 27.5571 18.1745 27.8566L17.2978 28.8724C17.0032 29.2137 16.9735 29.71 17.2252 30.0841L17.4247 30.3805C17.6537 30.7207 18.0671 30.8866 18.4678 30.7991L20.0395 30.4558C20.3886 30.3795 20.7496 30.4975 21.002 30.7504C21.0522 30.8008 21.1029 30.8508 21.1541 30.9004C21.3986 31.1365 21.653 31.3634 21.9166 31.5806C22.2166 31.8278 22.3674 32.2172 22.2883 32.5978L22.0258 33.861C21.9358 34.2941 22.141 34.7348 22.5303 34.9447L22.9228 35.1563C23.2785 35.3481 23.7145 35.307 24.0281 35.0522L25.2027 34.0976C25.4783 33.8736 25.8512 33.8154 26.1888 33.9258C26.4369 34.0069 26.6877 34.0809 26.9408 34.1476C27.3016 34.2428 27.5928 34.5151 27.6911 34.875L28.0433 36.1657C28.1546 36.5736 28.5104 36.8674 28.932 36.8996L29.4244 36.9371C29.8385 36.9687 30.229 36.741 30.4055 36.3651L30.991 35.1183C31.1472 34.7857 31.4736 34.5685 31.8393 34.5323C32.2302 34.4937 32.6199 34.4386 33.0069 34.367C33.3591 34.3018 33.7237 34.4118 33.9669 34.6747L34.9171 35.7022C35.1926 36.0002 35.621 36.1021 36.0012 35.96L36.57 35.7475C36.9014 35.6237 37.1143 35.2993 37.0959 34.9459C37.083 34.698 36.9572 34.4697 36.7546 34.3263L33.3491 31.9162C33.115 31.7505 32.8214 31.6958 32.5397 31.7499C31.4855 31.9523 30.4037 31.9964 29.3388 31.8843C27.0739 31.646 24.8973 30.6914 23.1892 29.0427C19.2849 25.2738 19.3965 19.2787 23.4344 15.6348C25.3901 13.8698 27.9058 12.9745 30.4243 12.9491C33.1055 12.9221 35.7891 13.8808 37.8022 15.8241C40.8322 18.7493 41.442 23.0387 39.6753 26.5164C39.4327 26.9941 39.5424 27.5915 39.9798 27.9011L40.7042 28.414C41.1293 28.7149 41.7227 28.6096 41.9814 28.1576C42.1509 27.8613 42.4569 27.6663 42.7981 27.6575L44.3016 27.619C44.7219 27.6082 45.0905 27.3356 45.2241 26.937L45.326 26.6327C45.4678 26.2096 45.3121 25.7438 44.9445 25.491L43.8655 24.7491C43.5444 24.5283 43.3848 24.1414 43.4287 23.7543C43.4529 23.5415 43.471 23.3283 43.4832 23.1146C43.5051 22.7295 43.7236 22.3781 44.0722 22.2128L45.3057 21.6278C45.7036 21.4391 45.9313 21.0123 45.8663 20.5767L45.8205 20.2701C45.7574 19.847 45.4322 19.5109 45.0114 19.4339L43.5798 19.1721C43.2139 19.1052 42.9188 18.8395 42.7898 18.4906C42.6666 18.1574 42.5279 17.8295 42.374 17.5076C42.2025 17.1486 42.2326 16.7212 42.476 16.4066L43.2348 15.4257C43.5107 15.069 43.5137 14.5717 43.2421 14.2116L43.0217 13.9195C42.7757 13.5934 42.3561 13.4498 41.9618 13.5566L40.0721 14.0687C39.9875 14.0917 39.8982 14.0667 39.835 14.0059C39.5666 13.7467 39.2862 13.4987 38.9946 13.2626C38.6898 13.0158 38.5355 12.6234 38.6151 12.2395L38.8456 11.1282C38.9355 10.6953 38.7302 10.2547 38.341 10.0449L37.9481 9.83307C37.5924 9.64139 37.1564 9.6825 36.8429 9.93727L35.7732 10.8066C35.4974 11.0307 35.1244 11.0888 34.7866 10.9786C34.4955 10.8836 34.2014 10.7987 33.9051 10.7236C33.5408 10.6312 33.2462 10.3577 33.1473 9.99515L32.8277 8.82389C32.7164 8.41594 32.3605 8.1221 31.9389 8.09L31.4444 8.05237ZM26.6084 18.2187C26.6083 18.2187 26.6083 18.2187 26.6083 18.2187C26.4493 18.2204 26.2907 18.2295 26.1329 18.246C25.3669 18.3257 25.2549 19.2602 25.8834 19.7053L27.6939 20.9876C28.6694 21.6784 28.946 22.9911 28.1975 23.9126C27.4487 24.8346 26.0109 24.9732 25.0213 24.2726L23.0548 22.8801C22.464 22.4618 21.6529 22.8065 21.7637 23.5219C21.9394 24.6555 22.5648 25.7237 23.6238 26.4735C24.9964 27.4453 26.7581 27.6272 28.2756 27.1185L28.2825 27.1162C28.4924 27.0457 28.7234 27.0798 28.904 27.2079L38.5466 34.0357L38.5584 34.044C38.7295 34.1654 38.8247 34.3674 38.8095 34.5766C38.6927 36.0778 39.3509 37.6129 40.7242 38.5853C41.756 39.3159 42.9897 39.5948 44.1787 39.472C44.9448 39.3929 45.0576 38.4612 44.4291 38.0161L42.621 36.7359C41.6314 36.0352 41.3884 34.7051 42.1374 33.7839C42.8864 32.8626 44.3155 32.7584 45.2913 33.4489L47.2572 34.841C47.8481 35.2595 48.6594 34.9146 48.5488 34.199C48.3735 33.0656 47.7494 31.9975 46.691 31.248C45.3135 30.2722 43.5657 30.0789 42.0571 30.5801L42.0528 30.5815C41.8425 30.6513 41.6116 30.6168 41.4309 30.4886L31.7883 23.6609L31.7747 23.6513C31.6047 23.5307 31.5102 23.33 31.5254 23.1222C31.636 21.6318 30.9655 20.1135 29.5884 19.1382C28.6937 18.5047 27.6468 18.2077 26.6084 18.2187C26.6084 18.2187 26.6084 18.2187 26.6084 18.2187ZM29.3393 24.6884C29.551 24.4285 29.928 24.3772 30.2016 24.5709L40.8488 32.1112C41.1494 32.3241 41.2075 32.7468 40.9755 33.0329C40.7639 33.2938 40.3861 33.3457 40.112 33.1516L29.465 25.611C29.1639 25.3978 29.1063 24.9744 29.3393 24.6884Z" fill="#11142D"/>
<rect width="15.2942" height="1.7931" rx="0.89655" transform="matrix(0.816902 0.576777 -0.626278 0.7796 29.1895 23.75)" fill="#11142D"/>
</svg>
