<svg width="128" height="128" viewBox="0 0 128 128" fill="none" xmlns="http://www.w3.org/2000/svg">
<path d="M45.6416 92.8444V43.1555C45.6416 42.5173 46.0851 42 46.6322 42H117.953C118.5 42 118.944 42.5173 118.944 43.1555V92.8444C118.944 93.4826 118.5 94 117.953 94H46.6322C46.0851 94 45.6416 93.4826 45.6416 92.8444Z" fill="#006174"/>
<path d="M118.944 56.6V44.1333C118.944 43.5074 118.5 43 117.953 43H46.6322C46.0851 43 45.6416 43.5074 45.6416 44.1333V92.8667C45.6416 93.4926 46.0851 94 46.6322 94H117.953C118.5 94 118.944 93.4926 118.944 92.8667V67.9333" stroke="#11142D" stroke-linecap="round"/>
<path d="M45.6561 39.5801L56.1663 26.1133L59.0351 22.3897C59.2244 22.144 59.517 22 59.8272 22H103.239C103.533 22 103.811 22.129 104.001 22.3528L118.601 39.5481C119.153 40.1977 118.691 41.1953 117.839 41.1953H46.4445C45.6115 41.1953 45.1437 40.2367 45.6561 39.5801Z" fill="#11142D" stroke="#11142D" stroke-linecap="round"/>
<path d="M99.6227 51.6304V94.5H63.9717V51.6304V51.6157L81.7972 25.8782L99.6227 51.6157V51.6304Z" fill="white" stroke="#11142D"/>
<path d="M58.5188 72.5C51.7499 72.3333 38.2122 72.7 38.2122 73.5L38.7074 77L46.1367 79.5L57.5282 77.5L58.5188 72.5Z" fill="white"/>
<path d="M59.2813 68.9875C56.8168 67.742 52.6509 66.2175 48.0792 66.2175C43.5936 66.2175 39.5279 67.6858 37.0766 68.918C36.4868 69.2075 35.9155 69.5341 35.3661 69.8958L38.0179 73.8081L38.447 76.108C29.9898 85.2301 23.3231 102.997 48.0792 102.997C72.8374 102.997 66.3296 85.5561 57.8056 76.1141L57.5708 76.2347C51.8959 79.1242 44.3699 79.1242 38.695 76.2347L38.447 76.108L38.0179 73.8081L39.5158 74.5928C44.6745 77.2197 51.5913 77.2197 56.749 74.5928L58.0688 74.0625L60.8723 69.8958C60.6132 69.7231 60.2873 69.5269 59.9047 69.3165C59.7114 69.2102 59.5039 69.0999 59.2813 68.9875Z" fill="#11142D"/>
<path d="M8 90H17.9057V110H8V90Z" fill="#11142D" stroke="#11142D"/>
<path d="M36.6053 88.0042L17.9058 91.2636V107.198C22.8168 108.888 33.942 112.529 39.1552 113.572C45.6717 114.876 45.8842 113.137 59.2714 109.226C72.6586 105.315 70.4628 102.563 69.967 101.331C69.2391 99.5239 65.4574 99.6654 63.4505 100.245L49.7091 102.925C48.7647 102.804 45.414 102.787 40.076 101.331C34.7637 99.8827 37.2428 95.1748 40.501 96.2612C42.9403 97.0746 50.2758 98.072 51.0549 93.7986C51.6783 90.3799 46.4509 88.8492 43.7593 88.5112C41.1527 88.0477 37.9039 87.9801 36.6053 88.0042Z" fill="white" stroke="#11142D" stroke-linejoin="round"/>
<path d="M87.4827 52.637C87.4849 50.0908 85.1428 48.0247 82.2514 48.0221C79.3601 48.0195 77.0143 50.0815 77.0121 52.6277L77.0024 63.6922C77.0024 63.7956 77.0061 63.8983 77.0137 64H87.4619C87.4692 63.9013 87.4729 63.8018 87.473 63.7016L87.4827 52.637Z" fill="#FAFAFC" stroke="#11142D" stroke-width="2"/>
<path d="M82.788 48V64.5M77.3398 56L87.2455 56" stroke="#11142D" stroke-linecap="round"/>
<path d="M87.2455 94H88.2455V93V74C88.2455 72.9044 87.3632 72 86.255 72H78.3304C77.2221 72 76.3398 72.9044 76.3398 74V93V94H77.3398H87.2455Z" fill="#FAFAFC" stroke="#11142D" stroke-width="2"/>
<path d="M85.755 83C85.755 83.8329 85.0874 84.5 84.2739 84.5C83.4603 84.5 82.7927 83.8329 82.7927 83C82.7927 82.1671 83.4603 81.5 84.2739 81.5C85.0874 81.5 85.755 82.1671 85.755 83Z" fill="#006174" stroke="#11142D"/>
<rect x="30.783" y="22" width="8" height="3.96228" rx="1.98114" transform="rotate(-90 30.783 22)" fill="#11142D"/>
<rect width="7.96236" height="3.98118" rx="1.99059" transform="matrix(-0.703749 0.710449 -0.703749 -0.710449 32.0637 28.5355)" fill="#11142D"/>
<rect width="7.96236" height="3.98118" rx="1.99059" transform="matrix(0.703749 0.710449 -0.703749 0.710449 36.2666 25.707)" fill="#11142D"/>
<rect x="29.7925" y="27" width="7.92455" height="4" rx="2" transform="rotate(180 29.7925 27)" fill="#11142D"/>
<rect x="30.783" y="36" width="8" height="3.96228" rx="1.98114" transform="rotate(-90 30.783 36)" fill="#11142D"/>
<rect width="7.96236" height="3.98118" rx="1.99059" transform="matrix(-0.703749 0.710449 -0.703749 -0.710449 41.8701 18.636)" fill="#11142D"/>
<rect width="7.96236" height="3.98118" rx="1.99059" transform="matrix(0.703749 0.710449 -0.703749 0.710449 26.4602 15.8076)" fill="#11142D"/>
<rect x="43.6606" y="27" width="7.92455" height="4" rx="2" transform="rotate(180 43.6606 27)" fill="#11142D"/>
<ellipse cx="32.7642" cy="25" rx="5.94341" ry="6" fill="white" stroke="#11142D" stroke-width="2"/>
</svg>
