<svg width="228" height="228" viewBox="0 0 228 228" fill="none" xmlns="http://www.w3.org/2000/svg">
<rect x="0.5" y="0.5" width="100%" height="100%" fill="#006174"/>
<path fill-rule="evenodd" clip-rule="evenodd" d="M109.643 100.668C109.933 100.66 110.217 100.751 110.448 100.926C110.68 101.102 110.843 101.351 110.913 101.633L110.914 101.636L111.652 104.589C111.776 105.083 112.22 105.43 112.73 105.43H127.016C127.352 105.43 127.675 105.564 127.913 105.802C128.152 106.041 128.285 106.364 128.285 106.7V126.938C128.285 127.275 128.152 127.598 127.913 127.836C127.675 128.074 127.352 128.208 127.016 128.208H123.648L110.632 116.017C110.616 116.002 110.6 115.988 110.584 115.974C110.154 115.616 109.613 115.42 109.053 115.42C108.51 115.42 107.982 115.606 107.559 115.945L99.5552 121.701V101.938C99.5552 101.602 99.689 101.279 99.9272 101.04C100.165 100.802 100.488 100.669 100.825 100.669H109.611C109.622 100.669 109.632 100.668 109.643 100.668ZM99.5552 124.438V126.938C99.5552 127.275 99.689 127.598 99.9272 127.836C100.165 128.074 100.488 128.208 100.825 128.208H120.397L109.148 117.671C109.12 117.652 109.087 117.642 109.053 117.642C109.014 117.642 108.976 117.656 108.945 117.681C108.925 117.698 108.904 117.714 108.883 117.73L99.5552 124.438ZM123.186 130.43H100.825C99.8989 130.43 99.0107 130.063 98.3558 129.408C97.7009 128.753 97.333 127.865 97.333 126.938V101.938C97.333 101.012 97.7009 100.124 98.3558 99.4691C99.0107 98.8142 99.8989 98.4463 100.825 98.4463H109.596C110.388 98.4273 111.162 98.6778 111.793 99.1571C112.428 99.6397 112.879 100.325 113.07 101.099L113.07 101.101L113.597 103.208H127.016C127.942 103.208 128.83 103.576 129.485 104.231C130.14 104.886 130.508 105.774 130.508 106.7V126.938C130.508 127.865 130.14 128.753 129.485 129.408C128.83 130.063 127.942 130.43 127.016 130.43H123.232C123.217 130.431 123.201 130.431 123.186 130.43ZM120.728 110.499C122.087 110.499 123.189 111.601 123.189 112.96C123.189 114.318 122.087 115.42 120.728 115.42C119.369 115.42 118.268 114.318 118.268 112.96C118.268 111.601 119.369 110.499 120.728 110.499ZM125.411 112.96C125.411 110.374 123.314 108.277 120.728 108.277C118.142 108.277 116.046 110.374 116.046 112.96C116.046 115.546 118.142 117.642 120.728 117.642C123.314 117.642 125.411 115.546 125.411 112.96Z" fill="white"/>
<rect x="0.5" y="0.5" width="100%" height="100%" stroke="#9196A4"/>
</svg>
