<svg width="48" height="48" viewBox="0 0 48 48" fill="none" xmlns="http://www.w3.org/2000/svg">
<path fill-rule="evenodd" clip-rule="evenodd" d="M11.9393 11.9393C12.5251 11.3536 13.4749 11.3536 14.0607 11.9393L23.5 21.3787L32.9393 11.9393C33.5251 11.3536 34.4749 11.3536 35.0607 11.9393C35.6464 12.5251 35.6464 13.4749 35.0607 14.0607L25.6213 23.5L35.0607 32.9393C35.6464 33.5251 35.6464 34.4749 35.0607 35.0607C34.4749 35.6464 33.5251 35.6464 32.9393 35.0607L23.5 25.6213L14.0607 35.0607C13.4749 35.6464 12.5251 35.6464 11.9393 35.0607C11.3536 34.4749 11.3536 33.5251 11.9393 32.9393L21.3787 23.5L11.9393 14.0607C11.3536 13.4749 11.3536 12.5251 11.9393 11.9393Z" fill="#409B89"/>
</svg>
