<svg width="24" height="24" viewBox="0 0 24 24" fill="none" xmlns="http://www.w3.org/2000/svg">
<path fill-rule="evenodd" clip-rule="evenodd" d="M8.85275 4.63636C8.60944 4.63636 8.4122 4.83361 8.4122 5.07692V15.1469C8.4122 15.3902 8.60944 15.5874 8.85275 15.5874H18.9227C19.166 15.5874 19.3632 15.3902 19.3632 15.1469V5.07692C19.3632 4.83361 19.166 4.63636 18.9227 4.63636H8.85275ZM6.77583 5.07692C6.77583 3.92987 7.7057 3 8.85275 3H18.9227C20.0697 3 20.9996 3.92987 20.9996 5.07692V15.1469C20.9996 16.2939 20.0697 17.2238 18.9227 17.2238H8.85275C7.7057 17.2238 6.77583 16.2939 6.77583 15.1469V5.07692Z" fill="#11142D"/>
<path fill-rule="evenodd" clip-rule="evenodd" d="M17.2235 20.1818C17.2235 20.6337 16.8572 21 16.4054 21H5.07668C4.52584 21 3.99757 20.7812 3.60807 20.3917C3.21857 20.0022 2.99976 19.4739 2.99976 18.9231V7.5944C2.99976 7.14253 3.36607 6.77622 3.81794 6.77622C4.26981 6.77622 4.63612 7.14253 4.63612 7.5944V18.9231C4.63612 19.0399 4.68254 19.152 4.76516 19.2346C4.84778 19.3172 4.95984 19.3636 5.07668 19.3636H16.4054C16.8572 19.3636 17.2235 19.7299 17.2235 20.1818Z" fill="#11142D"/>
</svg>
