<svg width="24" height="24" viewBox="0 0 24 24" fill="none" xmlns="http://www.w3.org/2000/svg">
<path fill-rule="evenodd" clip-rule="evenodd" d="M13.1631 5.70019C13.1631 5.7002 13.1631 5.70018 13.1631 5.70019L11.3199 7.54356C11.0004 7.8631 10.4823 7.86312 10.1628 7.54361C9.84328 7.2241 9.84326 6.70606 10.1628 6.38653L12.006 4.54313C14.0635 2.48564 17.3994 2.48562 19.4569 4.54311C21.5144 6.6006 21.5144 9.93645 19.4569 11.9939L17.6136 13.8373C17.2941 14.1568 16.7761 14.1569 16.4566 13.8374C16.137 13.5179 16.137 12.9998 16.4565 12.6803L18.2998 10.8369C19.7182 9.41843 19.7183 7.11864 18.2998 5.70019C16.8814 4.28174 14.5816 4.28176 13.1631 5.70019Z" fill="#11142D"/>
<path fill-rule="evenodd" clip-rule="evenodd" d="M7.54344 10.1625C7.86297 10.482 7.86299 11.0001 7.54348 11.3196L5.70022 13.163C4.28177 14.5815 4.28175 16.8813 5.7002 18.2997C7.11865 19.7182 9.41839 19.7182 10.8368 18.2997C10.8369 18.2997 10.8368 18.2997 10.8368 18.2997L12.6801 16.4563C12.9996 16.1368 13.5177 16.1368 13.8372 16.4563C14.1567 16.7758 14.1567 17.2938 13.8372 17.6134L11.994 19.4568C9.93648 21.5143 6.60061 21.5143 4.54312 19.4568C2.48563 17.3993 2.48563 14.0635 4.5431 12.006C4.5431 12.006 4.54309 12.006 4.5431 12.006L6.38635 10.1626C6.70586 9.84305 7.2239 9.84303 7.54344 10.1625Z" fill="#11142D"/>
<path fill-rule="evenodd" clip-rule="evenodd" d="M15.0962 8.90413C15.4157 9.22365 15.4157 9.74169 15.0962 10.0612L10.0612 15.0962C9.7417 15.4157 9.22366 15.4157 8.90414 15.0962C8.58462 14.7767 8.58462 14.2586 8.90414 13.9391L13.9391 8.90413C14.2587 8.58461 14.7767 8.58461 15.0962 8.90413Z" fill="#11142D"/>
</svg>
