<svg width="14" height="14" viewBox="0 0 14 14" fill="none" xmlns="http://www.w3.org/2000/svg">
<circle cx="7" cy="7" r="6.5" fill="#FFAB00" stroke="white"/>
<path fill-rule="evenodd" clip-rule="evenodd" d="M8 4C8 3.44772 7.55228 3 7 3C6.44772 3 6 3.44772 6 4V7C6 7.55228 6.44772 8 7 8C7.55228 8 8 7.55228 8 7L8 4ZM7.70711 10.7071C7.51957 10.8946 7.26522 11 7 11C6.73478 11 6.48043 10.8946 6.29289 10.7071C6.10536 10.5196 6 10.2652 6 10C6 9.73478 6.10536 9.48043 6.29289 9.29289C6.48043 9.10536 6.73478 9 7 9C7.26522 9 7.51957 9.10536 7.70711 9.29289C7.89464 9.48043 8 9.73478 8 10C8 10.2652 7.89464 10.5196 7.70711 10.7071Z" fill="white"/>
</svg>
