<svg width="24" height="24" viewBox="0 0 24 24" fill="none" xmlns="http://www.w3.org/2000/svg">
<path fill-rule="evenodd" clip-rule="evenodd" d="M12 16.9C11.6 16.9 11.2 17.3 11.2 17.7V20.7C11.2 21.1 11.6 21.5 12 21.5C12.4 21.5 12.8 21.1 12.8 20.7V17.7C12.8 17.3 12.4 16.9 12 16.9Z" fill="#11142D"/>
<path fill-rule="evenodd" clip-rule="evenodd" d="M16 15.5C15.6 15.5 15.2 15.9 15.2 16.3V19.3C15.2 19.7 15.6 20.1 16 20.1C16.4 20.1 16.8 19.7 16.8 19.3V16.3C16.8 15.9 16.4 15.5 16 15.5Z" fill="#11142D"/>
<path fill-rule="evenodd" clip-rule="evenodd" d="M7.99995 15.5C7.59995 15.5 7.19995 15.9 7.19995 16.3V19.3C7.19995 19.7 7.59995 20.1 7.99995 20.1C8.39995 20.1 8.79995 19.7 8.79995 19.3V16.3C8.79995 15.9 8.39995 15.5 7.99995 15.5Z" fill="#11142D"/>
<path fill-rule="evenodd" clip-rule="evenodd" d="M19.6 2.5H4.39995C3.29995 2.5 2.19995 3.3 2.19995 4.5V12C2.19995 13.2 3.29995 14 4.39995 14H19.6C20.7 14 21.7999 13.2 21.7999 12V4.6C21.7999 3.4 20.7 2.5 19.6 2.5ZM7.19995 12.5H4.39995C3.99995 12.5 3.79995 12.2 3.79995 12V4.6C3.79995 4.4 3.99995 4.1 4.39995 4.1H7.19995V12.5ZM15.2 12.5H8.79995V4.1H15.2V12.5ZM20.2 12.1C20.2 12.3 20 12.6 19.6 12.6H16.8V4.1H19.6C20 4.1 20.2 4.4 20.2 4.6V12.1Z" fill="#11142D"/>
</svg>
