<svg width="24" height="24" viewBox="0 0 24 24" fill="none" xmlns="http://www.w3.org/2000/svg">
<path fill-rule="evenodd" clip-rule="evenodd" d="M17.5656 6.43427C17.8781 6.74669 17.8781 7.25322 17.5656 7.56564L12.5656 12.5656C12.2532 12.8781 11.7467 12.8781 11.4343 12.5656C11.1218 12.2532 11.1218 11.7467 11.4343 11.4343L16.4343 6.43427C16.7467 6.12185 17.2532 6.12185 17.5656 6.43427ZM22.5656 6.43427C22.8781 6.74669 22.8781 7.25322 22.5656 7.56564L12.5656 17.5656C12.2532 17.8781 11.7467 17.8781 11.4343 17.5656L6.43427 12.5656C6.12185 12.2532 6.12185 11.7467 6.43427 11.4343C6.74669 11.1218 7.25322 11.1218 7.56564 11.4343L12 15.8686L21.4343 6.43427C21.7467 6.12185 22.2532 6.12185 22.5656 6.43427ZM1.43427 11.4343C1.74669 11.1218 2.25322 11.1218 2.56564 11.4343L7.56564 16.4343C7.87806 16.7467 7.87806 17.2532 7.56564 17.5656C7.25322 17.8781 6.74669 17.8781 6.43427 17.5656L1.43427 12.5656C1.12185 12.2532 1.12185 11.7467 1.43427 11.4343Z" fill="#11142D"/>
</svg>
