<svg width="24" height="24" viewBox="0 0 24 24" fill="none" xmlns="http://www.w3.org/2000/svg">
<path d="M14.2001 8.70005C12.7001 7.70005 10.5001 7.90005 9.3001 9.20005C8.5001 10 8.1001 11 8.1001 12C8.1001 12.8 8.3001 13.5 8.8001 14.2C9.2001 14.8 9.8001 15.3 10.6001 15.6C11.1001 15.8 11.6001 15.9 12.1001 15.9C12.4001 15.9 12.6001 15.9 12.9001 15.8C13.7001 15.6 14.4001 15.3 14.9001 14.7C15.4001 14.2 15.8001 13.5 16.0001 12.7C16.2001 11.9 16.1001 11.2 15.8001 10.4C15.3001 9.80005 14.8001 9.20005 14.2001 8.70005ZM14.1001 12.4C14.0001 12.8 13.8001 13.2 13.5001 13.5C13.2001 13.8 12.8001 14 12.4001 14.1C12.0001 14.2 11.6001 14.1 11.2001 14C10.8001 13.8 10.5001 13.6 10.2001 13.2C10.0001 12.8 9.9001 12.4 9.9001 12C9.9001 11.4 10.1001 10.9 10.5001 10.5C10.9001 10.1 11.4001 9.90005 12.0001 9.90005C12.4001 9.90005 12.8001 10 13.2001 10.3C13.5001 10.5 13.8001 10.9 14.0001 11.2C14.1001 11.6 14.2001 12 14.1001 12.4Z" fill="#11142D"/>
<path d="M21.4001 14.1L20.5001 12.9V11L21.4001 9.80005C21.7001 9.40005 21.9001 9.00005 21.9001 8.50005C21.9001 8.00005 21.8001 7.50005 21.6001 7.10005L21.0001 6.00005C20.8001 5.60005 20.4001 5.30005 20.0001 5.00005C19.5001 5.00005 19.0001 4.90005 18.5001 4.90005L17.0001 5.20005L15.3001 4.20005L14.8001 2.80005C14.7001 2.40005 14.4001 2.00005 14.0001 1.70005C13.6001 1.40005 13.1001 1.30005 12.6001 1.30005H11.4001C10.9001 1.30005 10.4001 1.40005 10.0001 1.70005C9.6001 2.00005 9.3001 2.40005 9.1001 2.80005L8.6001 4.20005L6.9001 5.20005L5.4001 4.90005C5.0001 4.90005 4.5001 5.00005 4.1001 5.20005C3.7001 5.40005 3.3001 5.70005 3.1001 6.20005L2.5001 7.20005C2.2001 7.60005 2.1001 8.10005 2.1001 8.60005C2.1001 9.10005 2.3001 9.50005 2.6001 9.90005L3.5001 11.1V13L2.6001 14.2C2.3001 14.6 2.1001 15 2.1001 15.5C2.1001 16 2.2001 16.5 2.4001 16.9L3.0001 18C3.2001 18.4 3.6001 18.7 4.0001 19C4.5001 19 5.0001 19.1 5.5001 19.1L7.0001 18.8L8.7001 19.8L9.2001 21.2001C9.4001 21.7001 9.7001 22 10.1001 22.3C10.5001 22.6 11.0001 22.7001 11.5001 22.7001H12.8001C13.3001 22.7001 13.8001 22.6 14.2001 22.3C14.6001 22 14.9001 21.6001 15.1001 21.2001L15.6001 19.8L17.3001 18.8L18.8001 19C19.3001 19.1 19.8001 19 20.2001 18.8C20.6001 18.6 21.0001 18.3 21.2001 17.8L21.8001 16.8C22.0001 16.4 22.2001 15.9 22.1001 15.4C21.9001 15 21.7001 14.5 21.4001 14.1ZM20.0001 15.9L19.4001 17C19.3001 17.1 19.3001 17.2 19.1001 17.2C18.9001 17.2 18.9001 17.3 18.8001 17.3L17.0001 17C16.8001 17 16.6001 17 16.4001 17.1L14.2001 18.4C14.0001 18.5 13.9001 18.7 13.8001 18.9L13.2001 20.6C13.2001 20.7 13.1001 20.8 13.0001 20.9C12.9001 21 12.8001 21 12.7001 21H11.4001C11.3001 21 11.2001 21 11.1001 20.9C11.0001 20.8 10.9001 20.7 10.9001 20.6L10.3001 18.9C10.2001 18.7 10.1001 18.5 9.9001 18.4L7.7001 17.1C7.4001 17 7.3001 17 7.1001 17H7.0001L5.2001 17.3C5.1001 17.3 5.0001 17.3 4.9001 17.2C4.8001 17.1 4.7001 17.1 4.6001 17L4.0001 15.9C3.9001 15.8 3.9001 15.7 3.9001 15.6C3.9001 15.5 4.0001 15.4 4.0001 15.3L5.1001 13.9C5.2001 13.7 5.3001 13.5 5.3001 13.3V10.8C5.3001 10.6 5.2001 10.4 5.1001 10.2L4.0001 8.80005C4.0001 8.70005 3.9001 8.60005 3.9001 8.40005C3.9001 8.30005 3.9001 8.20005 4.0001 8.00005L4.6001 7.00005C4.7001 6.90005 4.8001 6.80005 4.9001 6.80005C5.0001 6.70005 5.1001 6.70005 5.2001 6.70005L7.0001 7.00005C7.2001 7.00005 7.4001 7.00005 7.6001 6.90005L9.8001 5.60005C10.0001 5.50005 10.1001 5.30005 10.2001 5.10005L10.8001 3.40005C10.8001 3.30005 10.9001 3.20005 11.0001 3.10005C11.1001 3.00005 11.2001 3.00005 11.3001 3.00005H12.5001C12.6001 3.00005 12.7001 3.00005 12.8001 3.10005C12.9001 3.20005 13.0001 3.30005 13.0001 3.40005L13.6001 5.10005C13.7001 5.30005 13.8001 5.50005 14.0001 5.60005L16.2001 6.90005C16.6001 7.00005 16.8001 7.00005 17.0001 7.00005L18.8001 6.70005C18.9001 6.70005 19.0001 6.70005 19.1001 6.80005C19.2001 6.90005 19.3001 6.90005 19.4001 7.00005L20.0001 8.10005C20.1001 8.20005 20.1001 8.30005 20.1001 8.50005C20.1001 8.70005 20.0001 8.70005 19.9001 8.80005L18.8001 10.2C18.7001 10.4 18.6001 10.6 18.6001 10.8V13.3C18.6001 13.5 18.7001 13.7 18.8001 13.9L19.9001 15.3C20.0001 15.4 20.0001 15.5 20.0001 15.6C20.0001 15.7 20.1001 15.8 20.0001 15.9Z" fill="#11142D"/>
</svg>
