<svg width="24" height="24" viewBox="0 0 24 24" fill="none" xmlns="http://www.w3.org/2000/svg">
<path fill-rule="evenodd" clip-rule="evenodd" d="M3.1162 12.0428C2.93687 12.3118 2.79995 12.7295 2.79995 13.2308C2.79995 13.7321 2.93687 14.1498 3.1162 14.4188C3.29925 14.6934 3.46428 14.7385 3.53841 14.7385C3.61254 14.7385 3.77757 14.6934 3.96063 14.4188C4.13996 14.1498 4.27687 13.7321 4.27687 13.2308C4.27687 12.7295 4.13996 12.3118 3.96063 12.0428C3.77757 11.7682 3.61254 11.7231 3.53841 11.7231C3.46428 11.7231 3.29925 11.7682 3.1162 12.0428ZM1.78492 11.1553C2.15867 10.5946 2.76287 10.1231 3.53841 10.1231C4.31395 10.1231 4.91815 10.5946 5.29191 11.1553C5.6694 11.7215 5.87687 12.4576 5.87687 13.2308C5.87687 14.004 5.6694 14.7401 5.29191 15.3064C4.91815 15.867 4.31395 16.3385 3.53841 16.3385C2.76287 16.3385 2.15867 15.867 1.78492 15.3064C1.40743 14.7401 1.19995 14.004 1.19995 13.2308C1.19995 12.4576 1.40743 11.7215 1.78492 11.1553Z" fill="#11142D"/>
<path fill-rule="evenodd" clip-rule="evenodd" d="M7.73154 5.1195C7.55221 5.38849 7.41529 5.80618 7.41529 6.30752C7.41529 6.80886 7.55221 7.22655 7.73154 7.49555C7.9146 7.77013 8.07963 7.81521 8.15376 7.81521C8.22788 7.81521 8.39292 7.77013 8.57597 7.49555C8.7553 7.22655 8.89222 6.80886 8.89222 6.30752C8.89222 5.80618 8.7553 5.38849 8.57597 5.1195C8.39292 4.84491 8.22788 4.79983 8.15376 4.79983C8.07963 4.79983 7.9146 4.84491 7.73154 5.1195ZM6.40026 4.23198C6.77402 3.67134 7.37822 3.19983 8.15376 3.19983C8.9293 3.19983 9.53349 3.67134 9.90725 4.23198C10.2847 4.79821 10.4922 5.53436 10.4922 6.30752C10.4922 7.08068 10.2847 7.81684 9.90725 8.38307C9.53349 8.9437 8.9293 9.41521 8.15376 9.41521C7.37822 9.41521 6.77402 8.9437 6.40026 8.38307C6.02277 7.81684 5.81529 7.08068 5.81529 6.30752C5.81529 5.53436 6.02277 4.79821 6.40026 4.23198Z" fill="#11142D"/>
<path fill-rule="evenodd" clip-rule="evenodd" d="M15.4239 5.1195C15.2445 5.38849 15.1076 5.80618 15.1076 6.30752C15.1076 6.80886 15.2445 7.22655 15.4239 7.49555C15.6069 7.77013 15.772 7.81521 15.8461 7.81521C15.9202 7.81521 16.0852 7.77013 16.2683 7.49555C16.4476 7.22655 16.5845 6.80886 16.5845 6.30752C16.5845 5.80618 16.4476 5.38849 16.2683 5.1195C16.0852 4.84491 15.9202 4.79983 15.8461 4.79983C15.772 4.79983 15.6069 4.84491 15.4239 5.1195ZM14.0926 4.23198C14.4663 3.67134 15.0705 3.19983 15.8461 3.19983C16.6216 3.19983 17.2258 3.67134 17.5996 4.23198C17.9771 4.79821 18.1845 5.53436 18.1845 6.30752C18.1845 7.08068 17.9771 7.81684 17.5996 8.38307C17.2258 8.9437 16.6216 9.41521 15.8461 9.41521C15.0705 9.41521 14.4663 8.9437 14.0926 8.38307C13.7151 7.81684 13.5076 7.08068 13.5076 6.30752C13.5076 5.53436 13.7151 4.79821 14.0926 4.23198Z" fill="#11142D"/>
<path fill-rule="evenodd" clip-rule="evenodd" d="M20.0392 12.0428C19.8599 12.3118 19.723 12.7295 19.723 13.2308C19.723 13.7321 19.8599 14.1498 20.0392 14.4188C20.2223 14.6934 20.3873 14.7385 20.4614 14.7385C20.5356 14.7385 20.7006 14.6934 20.8836 14.4188C21.063 14.1498 21.1999 13.7321 21.1999 13.2308C21.1999 12.7295 21.063 12.3118 20.8836 12.0428C20.7006 11.7682 20.5356 11.7231 20.4614 11.7231C20.3873 11.7231 20.2223 11.7682 20.0392 12.0428ZM18.7079 11.1553C19.0817 10.5946 19.6859 10.1231 20.4614 10.1231C21.237 10.1231 21.8412 10.5946 22.2149 11.1553C22.5924 11.7215 22.7999 12.4576 22.7999 13.2308C22.7999 14.004 22.5924 14.7401 22.2149 15.3064C21.8412 15.867 21.237 16.3385 20.4614 16.3385C19.6859 16.3385 19.0817 15.867 18.7079 15.3064C18.3304 14.7401 18.123 14.004 18.123 13.2308C18.123 12.4576 18.3304 11.7215 18.7079 11.1553Z" fill="#11142D"/>
<path fill-rule="evenodd" clip-rule="evenodd" d="M9.19022 13.2832C8.51819 14.2274 8.18461 15.4111 8.18461 16.3077C8.18461 16.9947 8.56724 17.5361 9.29078 17.9465C10.0305 18.3659 11.0399 18.5847 12 18.5847C12.9601 18.5847 13.9695 18.3659 14.7092 17.9465C15.4327 17.5361 15.8154 16.9947 15.8154 16.3077C15.8154 15.4111 15.4818 14.2274 14.8098 13.2832C14.1503 12.3566 13.2171 11.7231 12 11.7231C10.7829 11.7231 9.84971 12.3566 9.19022 13.2832ZM7.88668 12.3554C8.76566 11.1204 10.1402 10.1231 12 10.1231C13.8598 10.1231 15.2343 11.1204 16.1133 12.3554C16.9797 13.5727 17.4154 15.0813 17.4154 16.3077C17.4154 17.7438 16.5519 18.7409 15.4985 19.3382C14.4612 19.9265 13.163 20.1847 12 20.1847C10.837 20.1847 9.53875 19.9265 8.50151 19.3382C7.44813 18.7409 6.58461 17.7438 6.58461 16.3077C6.58461 15.0813 7.02026 13.5727 7.88668 12.3554Z" fill="#11142D"/>
</svg>
