<svg width="36" height="36" viewBox="0 0 36 36" fill="none" xmlns="http://www.w3.org/2000/svg">
<rect width="36" height="36" rx="18" fill="#006174"/>
<path fill-rule="evenodd" clip-rule="evenodd" d="M14.1504 24.0632C14.2773 24.0314 14.4076 24.0154 14.5385 24.0154H25.4V10.6H11.9846V22.8462C11.9846 23.0181 11.9569 23.189 11.9025 23.3521L11.4396 24.7409L14.1504 24.0632ZM9 27L10.3846 22.8462V10.3846C10.3846 10.0174 10.5305 9.66521 10.7902 9.40554C11.0498 9.14588 11.402 9 11.7692 9H25.6154C25.9826 9 26.3348 9.14588 26.5945 9.40554C26.8541 9.66521 27 10.0174 27 10.3846V24.2308C27 24.598 26.8541 24.9502 26.5945 25.2098C26.3348 25.4695 25.9826 25.6154 25.6154 25.6154H14.5385L9 27Z" fill="white"/>
<path fill-rule="evenodd" clip-rule="evenodd" d="M14.2 15C14.2 14.5582 14.5582 14.2 15 14.2H22.3846C22.8264 14.2 23.1846 14.5582 23.1846 15C23.1846 15.4418 22.8264 15.8 22.3846 15.8H15C14.5582 15.8 14.2 15.4418 14.2 15Z" fill="white"/>
<path fill-rule="evenodd" clip-rule="evenodd" d="M14.2 19C14.2 18.5582 14.5582 18.2 15 18.2H20C20.4418 18.2 20.8 18.5582 20.8 19C20.8 19.4418 20.4418 19.8 20 19.8H15C14.5582 19.8 14.2 19.4418 14.2 19Z" fill="white"/>
</svg>
