<svg width="24" height="24" viewBox="0 0 24 24" fill="none" xmlns="http://www.w3.org/2000/svg">
<path fill-rule="evenodd" clip-rule="evenodd" d="M6.90967 20.8C6.90967 20.3582 7.26784 20 7.70967 20H18.7999C19.2417 20 19.5999 20.3582 19.5999 20.8C19.5999 21.2418 19.2417 21.6 18.7999 21.6H7.70967C7.26784 21.6 6.90967 21.2418 6.90967 20.8Z" fill="#11142D"/>
<path fill-rule="evenodd" clip-rule="evenodd" d="M11.6034 2.56266C11.9934 2.20097 12.5056 2 13.0375 2C13.5694 2 14.0816 2.20097 14.4716 2.56266C14.4792 2.56971 14.4867 2.5769 14.494 2.58424L19.8176 7.92087C20.0103 8.1091 20.1637 8.33381 20.2688 8.58195C20.3748 8.83242 20.4295 9.10164 20.4295 9.37363C20.4295 9.64563 20.3748 9.91485 20.2688 10.1653C20.1636 10.4136 20.0101 10.6385 19.8172 10.8268L13.9774 16.6665C13.7895 16.8638 13.5633 17.0207 13.3126 17.1276C13.059 17.2357 12.7858 17.2904 12.5102 17.2882H8.22029C7.94676 17.288 7.67575 17.2319 7.42472 17.1233C7.17827 17.0166 6.95581 16.8615 6.77053 16.6672L3.58471 13.4945C3.57721 13.487 3.56986 13.4794 3.56266 13.4716C3.20097 13.0816 3 12.5694 3 12.0375C3 11.5056 3.20097 10.9934 3.56266 10.6034C3.56949 10.596 3.57645 10.5888 3.58355 10.5817L11.5817 2.58355C11.5888 2.57645 11.596 2.56949 11.6034 2.56266ZM12.6999 3.72803L4.72803 11.6999C4.64563 11.7929 4.6 11.913 4.6 12.0375C4.6 12.1618 4.64548 12.2817 4.72761 12.3746L7.90777 15.5417C7.91403 15.5479 7.92019 15.5543 7.92625 15.5607C7.96403 15.6009 8.00964 15.633 8.06028 15.6549C8.11092 15.6768 8.16551 15.6881 8.22068 15.6882H12.5222C12.5781 15.6888 12.6335 15.6778 12.6849 15.6558C12.7364 15.6339 12.7827 15.6015 12.821 15.5608C12.8267 15.5547 12.8325 15.5487 12.8383 15.5429L18.6985 9.68269C18.7399 9.64255 18.7729 9.59458 18.7954 9.54148C18.8179 9.48838 18.8295 9.4313 18.8295 9.37363C18.8295 9.31597 18.8179 9.25889 18.7954 9.20579C18.7729 9.15269 18.74 9.10465 18.6986 9.06451L18.6889 9.05512L13.3748 3.72778C13.2818 3.64554 13.1619 3.6 13.0375 3.6C12.913 3.6 12.7929 3.64563 12.6999 3.72803Z" fill="#11142D"/>
</svg>
