<svg width="24" height="24" viewBox="0 0 24 24" fill="none" xmlns="http://www.w3.org/2000/svg">
<path fill-rule="evenodd" clip-rule="evenodd" d="M15.6013 4.59363L15.5982 4.59449ZM15.4319 4.638L8.29643 6.50053C7.86893 6.61212 7.43191 6.35602 7.32032 5.92852C7.20873 5.50101 7.46483 5.06399 7.89234 4.9524L15.1764 3.0511C15.3596 3.00076 15.5511 2.98743 15.7396 3.01193C15.9311 3.03683 16.1157 3.10029 16.282 3.19847C16.4484 3.29666 16.5932 3.42753 16.7076 3.5832C16.8205 3.73692 16.9016 3.91166 16.946 4.09713L17.3048 5.53244C17.4119 5.96107 17.1513 6.39542 16.7227 6.50258C16.2941 6.60974 15.8597 6.34913 15.7526 5.9205L15.4319 4.638Z" fill="#11142D"/>
<path fill-rule="evenodd" clip-rule="evenodd" d="M5.08571 8.14062C4.53255 8.14062 4.00204 8.36037 3.61089 8.75152C3.21974 9.14266 3 9.67317 3 10.2263V19.2263C3 19.7795 3.21974 20.31 3.61089 20.7012C4.00204 21.0923 4.53255 21.3121 5.08571 21.3121H17.3C17.8532 21.3121 18.3837 21.0923 18.7748 20.7012C19.166 20.31 19.3857 19.7795 19.3857 19.2263V16.8123H19.8715C20.6684 16.8123 21.3144 16.1663 21.3144 15.3695V13.4409C21.3144 12.644 20.6684 11.998 19.8715 11.998H19.3857V10.2263C19.3857 9.67317 19.166 9.14266 18.7748 8.75152C18.3837 8.36037 17.8532 8.14062 17.3 8.14062H5.08571ZM17.7857 11.998V10.2263C17.7857 10.0975 17.7345 9.97398 17.6435 9.88289C17.5524 9.7918 17.4288 9.74062 17.3 9.74062H5.08571C4.9569 9.74062 4.83335 9.7918 4.74226 9.88289C4.65117 9.97398 4.6 10.0975 4.6 10.2263V19.2263C4.6 19.3552 4.65117 19.4787 4.74226 19.5698C4.83335 19.6609 4.9569 19.7121 5.08571 19.7121H17.3C17.4288 19.7121 17.5524 19.6609 17.6435 19.5698C17.7345 19.4787 17.7857 19.3552 17.7857 19.2263V16.8123H16.6572C15.8603 16.8123 15.2144 16.1663 15.2144 15.3695V13.4409C15.2144 12.644 15.8603 11.998 16.6572 11.998H17.7857ZM18.607 15.2123C18.6 15.2121 18.5928 15.2121 18.5857 15.2121C18.5786 15.2121 18.5715 15.2121 18.5644 15.2123H16.8144V13.598H19.7144V15.2123H18.607Z" fill="#11142D"/>
</svg>
