<svg width="24" height="24" viewBox="0 0 24 24" fill="none" xmlns="http://www.w3.org/2000/svg">
<path fill-rule="evenodd" clip-rule="evenodd" d="M9.23072 3.79971C7.95197 3.79971 6.91534 4.83634 6.91534 6.11509C6.91534 7.39384 7.95197 8.43048 9.23072 8.43048C10.5095 8.43048 11.5461 7.39384 11.5461 6.11509C11.5461 4.83634 10.5095 3.79971 9.23072 3.79971ZM5.31534 6.11509C5.31534 3.95268 7.06831 2.19971 9.23072 2.19971C11.3931 2.19971 13.1461 3.95268 13.1461 6.11509C13.1461 8.2775 11.3931 10.0305 9.23072 10.0305C7.06831 10.0305 5.31534 8.2775 5.31534 6.11509Z" fill="#11142D"/>
<path fill-rule="evenodd" clip-rule="evenodd" d="M16.5 12.7997C14.4565 12.7997 12.8 14.4563 12.8 16.4997C12.8 18.5432 14.4565 20.1997 16.5 20.1997C18.5434 20.1997 20.2 18.5432 20.2 16.4997C20.2 14.4563 18.5434 12.7997 16.5 12.7997ZM11.2 16.4997C11.2 13.5726 13.5728 11.1997 16.5 11.1997C19.4271 11.1997 21.8 13.5726 21.8 16.4997C21.8 19.4268 19.4271 21.7997 16.5 21.7997C13.5728 21.7997 11.2 19.4268 11.2 16.4997Z" fill="#11142D"/>
<path fill-rule="evenodd" clip-rule="evenodd" d="M20.2502 12.7497C20.5626 13.0621 20.5626 13.5686 20.2502 13.881L13.881 20.2503C13.5685 20.5627 13.062 20.5627 12.7496 20.2503C12.4372 19.9379 12.4372 19.4313 12.7496 19.1189L19.1188 12.7497C19.4312 12.4373 19.9378 12.4373 20.2502 12.7497Z" fill="#11142D"/>
<path fill-rule="evenodd" clip-rule="evenodd" d="M7.66251 10.675C8.69385 10.4407 9.76482 10.4426 10.7953 10.6805C11.2258 10.7799 11.4943 11.2094 11.3949 11.6399C11.2955 12.0704 10.8659 12.3389 10.4354 12.2395C9.63987 12.0558 8.81311 12.0544 8.01693 12.2352C7.22076 12.4161 6.47576 12.7746 5.83764 13.2839C5.19953 13.7932 4.6848 14.4402 4.33195 15.1765C3.97909 15.9128 3.79724 16.7193 3.79998 17.5358L3.79999 17.5384L3.79999 18.8154H8.53845C8.98028 18.8154 9.33845 19.1735 9.33845 19.6154C9.33845 20.0572 8.98028 20.4154 8.53845 20.4154H2.99999C2.55816 20.4154 2.19999 20.0572 2.19999 19.6154V17.5397C2.19665 16.4826 2.43221 15.4384 2.88909 14.485C3.34616 13.5313 4.01292 12.6932 4.83952 12.0334C5.66612 11.3736 6.63116 10.9092 7.66251 10.675Z" fill="#11142D"/>
</svg>
