<svg width="24" height="24" viewBox="0 0 24 24" fill="none" xmlns="http://www.w3.org/2000/svg">
<path fill-rule="evenodd" clip-rule="evenodd" d="M9.54414 1.6335C11.7862 0.978314 14.1803 1.0677 16.3673 1.88824C18.5543 2.70879 20.4163 4.21626 21.6741 6.18457C21.912 6.55687 21.803 7.05155 21.4307 7.28946C21.0584 7.52736 20.5637 7.41841 20.3258 7.04611C19.2544 5.3694 17.6682 4.08525 15.8052 3.38627C13.9422 2.68729 11.9028 2.61115 9.99292 3.16927C8.083 3.72739 6.4055 4.88969 5.21203 6.48183C4.01855 8.07398 3.37344 10.0101 3.37344 12C3.37344 13.9898 4.01855 15.9259 5.21203 17.5181C6.4055 19.1102 8.083 20.2725 9.99292 20.8306C11.9028 21.3888 13.9422 21.3126 15.8052 20.6136C17.6682 19.9146 19.2544 18.6305 20.3258 16.9538C20.5637 16.5815 21.0584 16.4725 21.4307 16.7104C21.803 16.9484 21.912 17.443 21.6741 17.8153C20.4163 19.7836 18.5543 21.2911 16.3673 22.1117C14.1803 22.9322 11.7862 23.0216 9.54414 22.3664C7.30205 21.7112 5.33282 20.3468 3.93178 18.4777C2.53075 16.6087 1.77344 14.3358 1.77344 12C1.77344 9.6641 2.53075 7.3912 3.93178 5.52216C5.33282 3.65312 7.30205 2.28868 9.54414 1.6335ZM16.8635 8.35749C17.1759 8.04507 17.6824 8.04506 17.9949 8.35748L21.0718 11.4343C21.2218 11.5844 21.3061 11.7878 21.3061 12C21.3061 12.2122 21.2218 12.4157 21.0718 12.5657L17.9949 15.6427C17.6825 15.9551 17.1759 15.9551 16.8635 15.6427C16.5511 15.3303 16.5511 14.8238 16.8635 14.5113L18.5748 12.8L8.19842 12.8C7.75659 12.8 7.39842 12.4419 7.39842 12C7.39842 11.5582 7.75659 11.2 8.19842 11.2L18.5747 11.2L16.8635 9.48886C16.5511 9.17645 16.5511 8.66991 16.8635 8.35749Z" fill="#409B89"/>
</svg>
