<svg width="24" height="24" viewBox="0 0 24 24" fill="none" xmlns="http://www.w3.org/2000/svg">
<path fill-rule="evenodd" clip-rule="evenodd" d="M18.8271 3.12451C20.2828 2.56461 21.7131 3.99496 21.1532 5.45069L15.5097 20.1239C14.9366 21.6138 12.8516 21.6758 12.191 20.2226L9.64857 14.6292L4.05518 12.0867C2.60192 11.4262 2.66392 9.3411 4.15386 8.76804L18.8271 3.12451ZM19.6599 4.87633C19.7221 4.71458 19.5632 4.55565 19.4014 4.61786L4.72823 10.2614C4.56268 10.3251 4.55579 10.5567 4.71727 10.6301L10.5838 13.2967C10.7599 13.3768 10.901 13.5179 10.981 13.694L13.6476 19.5605C13.721 19.722 13.9527 19.7151 14.0163 19.5495L19.6599 4.87633Z" fill="#11142D"/>
<path fill-rule="evenodd" clip-rule="evenodd" d="M15.203 9.07482C15.5154 9.38724 15.5154 9.89377 15.203 10.2062L10.8184 14.5908C10.506 14.9032 9.99945 14.9032 9.68703 14.5908C9.37461 14.2784 9.37461 13.7719 9.68703 13.4594L14.0716 9.07482C14.3841 8.7624 14.8906 8.7624 15.203 9.07482Z" fill="#11142D"/>
</svg>
