<svg width="24" height="24" viewBox="0 0 24 24" fill="none" xmlns="http://www.w3.org/2000/svg">
<path fill-rule="evenodd" clip-rule="evenodd" d="M4.6 6.6V17.9385H19.4V6.6H4.6ZM4.38462 5H19.6154C20.3801 5 21 5.61991 21 6.38462V18.1538C21 18.9185 20.3801 19.5385 19.6154 19.5385H4.38462C3.61991 19.5385 3 18.9185 3 18.1538V6.38462C3 5.61991 3.61991 5 4.38462 5Z" fill="#11142D"/>
<path fill-rule="evenodd" clip-rule="evenodd" d="M3.32867 6.56487C3.56897 6.1941 4.06434 6.08834 4.43511 6.32864L11.531 10.9277C11.6425 10.9897 11.8079 11.0367 12 11.0367C12.1921 11.0367 12.3575 10.9897 12.469 10.9277L19.5649 6.32864C19.9357 6.08834 20.431 6.1941 20.6713 6.56486C20.9116 6.93563 20.8059 7.431 20.4351 7.6713L13.3213 12.282C13.3114 12.2884 13.3013 12.2946 13.2912 12.3005C12.9051 12.5272 12.4484 12.6367 12 12.6367C11.5516 12.6367 11.0949 12.5272 10.7088 12.3005C10.6987 12.2946 10.6886 12.2884 10.6787 12.282L3.56489 7.6713C3.19413 7.431 3.08837 6.93563 3.32867 6.56487Z" fill="#11142D"/>
</svg>
