<svg width="24" height="24" viewBox="0 0 24 24" fill="none" xmlns="http://www.w3.org/2000/svg">
<path fill-rule="evenodd" clip-rule="evenodd" d="M11.8 4C12.2418 4 12.6 4.35817 12.6 4.8V18.8C12.6 19.2418 12.2418 19.6 11.8 19.6C11.3582 19.6 11 19.2418 11 18.8V4.8C11 4.35817 11.3582 4 11.8 4Z" fill="#11142D"/>
<path fill-rule="evenodd" clip-rule="evenodd" d="M4 11.8C4 11.3582 4.35817 11 4.8 11L18.8 11C19.2418 11 19.6 11.3582 19.6 11.8C19.6 12.2418 19.2418 12.6 18.8 12.6L4.8 12.6C4.35817 12.6 4 12.2418 4 11.8Z" fill="#11142D"/>
</svg>
