<svg width="36" height="36" viewBox="0 0 36 36" fill="none" xmlns="http://www.w3.org/2000/svg">
<path fill-rule="evenodd" clip-rule="evenodd" d="M14.0791 6.00049C14.3402 5.99288 14.596 6.07492 14.8039 6.23296C15.0119 6.39099 15.1594 6.61549 15.222 6.86906L15.2227 6.87202L15.887 9.52916C15.9983 9.97433 16.3983 10.2866 16.8571 10.2866H29.7143C30.0174 10.2866 30.3081 10.407 30.5224 10.6214C30.7367 10.8357 30.8571 11.1264 30.8571 11.4295V29.6438C30.8571 29.9469 30.7367 30.2376 30.5224 30.4519C30.3081 30.6662 30.0174 30.7866 29.7143 30.7866H26.6835L14.9692 19.8143C14.9551 19.801 14.9405 19.7882 14.9256 19.7758C14.539 19.4537 14.0516 19.2773 13.5484 19.2773C13.0589 19.2773 12.5844 19.4442 12.203 19.7498L5 24.9299V7.14377C5 6.84066 5.12041 6.54997 5.33474 6.33564C5.54906 6.12132 5.83975 6.00091 6.14286 6.00091H14.05C14.0597 6.00091 14.0694 6.00077 14.0791 6.00049ZM5 27.3934V29.6438C5 29.9469 5.12041 30.2376 5.33474 30.4519C5.54906 30.6662 5.83975 30.7866 6.14286 30.7866H23.7579L13.6332 21.3032C13.6082 21.2864 13.5787 21.2773 13.5484 21.2773C13.5129 21.2773 13.4785 21.2898 13.4512 21.3125C13.433 21.3277 13.4143 21.3422 13.395 21.356L5 27.3934ZM26.2678 32.7866H6.14286C5.30932 32.7866 4.50992 32.4555 3.92052 31.8661C3.33112 31.2767 3 30.4773 3 29.6438V7.14377C3 6.31023 3.33112 5.51083 3.92052 4.92143C4.50992 4.33203 5.30932 4.00091 6.14286 4.00091H14.0368C14.7492 3.98377 15.4465 4.20926 16.0141 4.64063C16.5855 5.0749 16.9911 5.69165 17.1633 6.38834L17.1637 6.38991L17.6379 8.28662H29.7143C30.5478 8.28662 31.3472 8.61775 31.9366 9.20715C32.526 9.79655 32.8571 10.5959 32.8571 11.4295V29.6438C32.8571 30.4773 32.526 31.2767 31.9366 31.8661C31.3472 32.4555 30.5478 32.7866 29.7143 32.7866H26.309C26.2952 32.7869 26.2815 32.7869 26.2678 32.7866ZM24.0557 14.8486C25.2787 14.8486 26.27 15.84 26.27 17.0629C26.27 18.2858 25.2787 19.2772 24.0557 19.2772C22.8328 19.2772 21.8414 18.2858 21.8414 17.0629C21.8414 15.84 22.8328 14.8486 24.0557 14.8486ZM28.27 17.0629C28.27 14.7354 26.3832 12.8486 24.0557 12.8486C21.7282 12.8486 19.8414 14.7354 19.8414 17.0629C19.8414 19.3904 21.7282 21.2772 24.0557 21.2772C26.3832 21.2772 28.27 19.3904 28.27 17.0629Z" fill="#11142D"/>
</svg>
