<svg width="36" height="36" viewBox="0 0 36 36" fill="none" xmlns="http://www.w3.org/2000/svg">
<path fill-rule="evenodd" clip-rule="evenodd" d="M5 9C5 8.44772 5.44772 8 6 8H30C30.5523 8 31 8.44772 31 9C31 9.55228 30.5523 10 30 10H6C5.44772 10 5 9.55228 5 9ZM5 18C5 17.4477 5.44772 17 6 17H30C30.5523 17 31 17.4477 31 18C31 18.5523 30.5523 19 30 19H6C5.44772 19 5 18.5523 5 18ZM5 27C5 26.4477 5.44772 26 6 26H30C30.5523 26 31 26.4477 31 27C31 27.5523 30.5523 28 30 28H6C5.44772 28 5 27.5523 5 27Z" fill="#11142D"/>
</svg>
