<svg width="24" height="24" viewBox="0 0 24 24" fill="none" xmlns="http://www.w3.org/2000/svg">
<path fill-rule="evenodd" clip-rule="evenodd" d="M5.56925 3.6C5.4142 3.6 5.2655 3.66159 5.15586 3.77123C5.04623 3.88087 4.98463 4.02957 4.98463 4.18462V16.6462C4.98463 16.7321 4.97077 16.8176 4.94358 16.8991L4.01981 19.6704L8.14445 18.6393C8.20791 18.6234 8.27307 18.6154 8.33848 18.6154H19.4154C19.5704 18.6154 19.7192 18.5538 19.8288 18.4442C19.9384 18.3345 20 18.1858 20 18.0308V11.1077C20 10.6659 20.3582 10.3077 20.8 10.3077C21.2418 10.3077 21.6 10.6659 21.6 11.1077V18.0308C21.6 18.6102 21.3699 19.1658 20.9602 19.5755C20.5505 19.9852 19.9948 20.2154 19.4154 20.2154H8.43696L2.99405 21.5761C2.71078 21.6469 2.41143 21.5578 2.21304 21.3436C2.01465 21.1293 1.94874 20.824 2.04107 20.547L3.38463 16.5163V4.18462C3.38463 3.60522 3.6148 3.04955 4.02449 2.63986C4.43419 2.23016 4.98985 2 5.56925 2H12.4923C12.9342 2 13.2923 2.35817 13.2923 2.8C13.2923 3.24183 12.9342 3.6 12.4923 3.6H5.56925Z" fill="#11142D"/>
<path fill-rule="evenodd" clip-rule="evenodd" d="M17.7584 3.78119C17.6812 3.78119 17.6048 3.79647 17.5336 3.82615C17.4623 3.85583 17.3977 3.89932 17.3433 3.95412L17.3398 3.95765L10.9736 10.297L10.507 13.1335L13.2983 12.6311L19.6423 6.26012L19.6458 6.2566C19.7006 6.20226 19.7441 6.1376 19.7738 6.06636C19.8035 5.99511 19.8187 5.9187 19.8187 5.84153C19.8187 5.76435 19.8035 5.68794 19.7738 5.6167C19.7441 5.54546 19.7006 5.4808 19.6458 5.42645L19.6435 5.42413L18.1758 3.95644L18.1735 3.95412C18.1191 3.89932 18.0545 3.85583 17.9832 3.82615C17.912 3.79647 17.8356 3.78119 17.7584 3.78119ZM16.9183 2.3492C17.1845 2.23829 17.47 2.18119 17.7584 2.18119C18.0468 2.18119 18.3323 2.23829 18.5986 2.3492C18.8642 2.45988 19.1054 2.62194 19.3082 2.82609C19.3086 2.82652 19.309 2.82696 19.3095 2.8274L20.7725 4.29045C20.773 4.29089 20.7734 4.29132 20.7739 4.29176C20.978 4.49458 21.1401 4.73573 21.2507 5.00137C21.3616 5.26759 21.4187 5.55313 21.4187 5.84153C21.4187 6.12992 21.3616 6.41546 21.2507 6.68168C21.1402 6.94705 20.9783 7.18799 20.7745 7.39068L14.2545 13.9383C14.139 14.0544 13.9906 14.1322 13.8294 14.1612L9.67551 14.9089C9.41974 14.9549 9.15753 14.8738 8.97239 14.6915C8.78724 14.5091 8.70222 14.2481 8.7444 13.9917L9.4367 9.78246C9.46395 9.61679 9.54264 9.46388 9.66161 9.34541L16.2093 2.82543C16.412 2.62159 16.6529 2.45976 16.9183 2.3492Z" fill="#11142D"/>
</svg>
