<svg width="24" height="24" viewBox="0 0 24 24" fill="none" xmlns="http://www.w3.org/2000/svg">
<path d="M10.2184 0.000976562L9.4894 0.00397669L8.57436 0.0129771L7.93033 0.0259776L7.52031 0.0379781L6.93229 0.0629791L6.55927 0.08298L6.19926 0.107981L5.85324 0.136982L5.52023 0.170984C3.77916 0.366992 2.58711 0.787009 1.68707 1.68705C0.787033 2.58708 0.367015 3.78013 0.171007 5.52021L0.138006 5.85322L0.108005 6.19823L0.0830035 6.55825L0.0620026 6.93227L0.0460019 7.32028L0.0320013 7.7233L0.0210009 8.14132L0.0140006 8.57433L0.00400017 9.48837L0.00100004 10.2184L0 13.5315L0.00400017 14.5116L0.0130005 15.4266L0.0260011 16.0706L0.0380016 16.4807L0.0630026 17.0687L0.0830035 17.4417L0.108005 17.8017L0.137006 18.1477L0.171007 18.4807C0.367015 20.2218 0.787033 21.4139 1.68707 22.3139C2.58711 23.2139 3.78016 23.634 5.52023 23.83L5.85324 23.863L6.19826 23.893L6.55827 23.918L6.93229 23.939L7.32031 23.955L7.72332 23.969L8.14134 23.98L8.57436 23.987L9.4884 23.997L10.2184 24L13.5316 24.001L14.5116 23.997L15.4266 23.988L16.0707 23.975L16.4807 23.963L17.0687 23.938L17.4417 23.918L17.8017 23.893L18.1478 23.864L18.4808 23.83C20.2218 23.634 21.4139 23.2139 22.3139 22.3139C23.214 21.4139 23.634 20.2208 23.83 18.4807L23.863 18.1477L23.893 17.8027L23.918 17.4427L23.939 17.0687L23.955 16.6807L23.969 16.2777L23.98 15.8596L23.987 15.4266L23.997 14.5126L24 13.7825L24.001 10.4694L23.997 9.48937L23.988 8.57433L23.975 7.93031L23.963 7.52029L23.938 6.93227L23.918 6.55925L23.893 6.19923L23.864 5.85322L23.83 5.52021C23.634 3.77913 23.214 2.58708 22.3139 1.68705C21.4139 0.787009 20.2208 0.366992 18.4808 0.170984L18.1478 0.137982L17.8027 0.107981L17.4427 0.08298L17.0687 0.0619791L16.6807 0.0459784L16.2777 0.0319779L15.8597 0.0209774L15.4266 0.0139771L14.5126 0.00397669L13.7826 0.000976562H10.2184Z" fill="#11142D"/>
<path d="M12.7006 17.0016H13.0006V13.4015C15.0007 13.6015 16.5008 15.1016 17.1008 17.0016H20.0009C19.2009 14.2015 17.2008 12.6015 15.9007 12.0014C17.2008 11.3014 19.0009 9.50133 19.4009 7.00122H16.8008C16.2008 9.0013 14.6007 10.8014 13.0006 11.0014V7.00122H10.4005V13.9015C8.80044 13.5015 6.80036 11.6014 6.70036 7.00122H4.00024C4.10025 13.2015 7.20038 17.0016 12.7006 17.0016Z" fill="white"/>
</svg>
