<svg width="36" height="36" viewBox="0 0 36 36" fill="none" xmlns="http://www.w3.org/2000/svg">
<path fill-rule="evenodd" clip-rule="evenodd" d="M28.116 0H7.884C3.52969 0 0 3.52969 0 7.884V28.116C0 32.4703 3.52969 36 7.884 36H28.116C32.4703 36 36 32.4703 36 28.116V7.884C36 3.52969 32.4703 0 28.116 0ZM11.5406 26.1307L11.5372 26.1295C11.7449 25.8207 11.7272 25.512 11.7272 25.512C11.5966 24.5738 9.79138 24.3779 9.79138 24.3779C9.02427 24.3053 8.64078 24.6909 8.48539 24.9143L7.4916 26.6355C7.0423 27.4137 7.30906 28.4088 8.08714 28.8581C8.86536 29.3074 9.86042 29.0408 10.3097 28.2625L11.5406 26.1307ZM25.1566 20.6845H28.9948C29.8934 20.6845 30.6219 21.4128 30.6219 22.3114C30.6219 23.21 29.8934 23.9385 28.9948 23.9385H27.056C26.7634 23.9392 26.8115 24.1017 26.8392 24.1616L28.2661 26.6333C28.7156 27.4115 28.4488 28.4065 27.6707 28.8558C26.8924 29.3053 25.8973 29.0385 25.4481 28.2604L19.7413 18.3759C19.4366 17.7711 18.5622 15.7701 19.3279 14.01C19.3279 14.01 19.9691 12.4305 20.373 13.0482L20.6194 13.4014L20.6247 13.3979L24.7333 20.5144L24.7362 20.5193C24.7812 20.5736 24.8952 20.667 25.1566 20.6845ZM20.9519 23.9385C21.7446 23.9385 21.5398 22.8963 21.5398 22.8963C21.228 20.7586 18.9389 20.7231 18.9389 20.7231L18.938 20.6844H14.9775C14.7619 20.6651 14.7708 20.5554 14.7997 20.4855L21.4257 9.00914C21.875 8.23092 21.6084 7.236 20.8302 6.7867C20.0519 6.33727 19.0569 6.60403 18.6076 7.38211L17.8796 8.6431L17.1503 7.37986C16.701 6.60164 15.7059 6.33516 14.9277 6.78445C14.1495 7.23361 13.8829 8.22881 14.3322 9.00689L15.9048 11.7307C15.9173 11.7544 15.9896 11.905 15.9028 12.0644L15.9042 12.0646L11.1426 20.312L11.1393 20.3103C11.1393 20.3103 10.9998 20.6504 10.4108 20.6844H6.76302C5.86442 20.6844 5.13599 21.4128 5.13599 22.3114C5.13599 23.21 5.86442 23.9385 6.76302 23.9385H20.9519Z" fill="url(#paint0_linear_7573_141867)"/>
<defs>
<linearGradient id="paint0_linear_7573_141867" x1="18" y1="0" x2="18" y2="36" gradientUnits="userSpaceOnUse">
<stop stop-color="#17C9FB"/>
<stop offset="1" stop-color="#1A74E8"/>
</linearGradient>
</defs>
</svg>
