<svg width="24" height="24" viewBox="0 0 24 24" fill="none" xmlns="http://www.w3.org/2000/svg">
<path fill-rule="evenodd" clip-rule="evenodd" d="M15.4045 3.58747C15.148 3.58747 14.8942 3.63824 14.6575 3.73685C14.4208 3.83546 14.206 3.97996 14.0254 4.16201L14.024 4.16343L5.35246 12.8623C4.86221 13.3611 4.58747 14.0326 4.58747 14.732C4.58747 15.4323 4.86283 16.1044 5.35411 16.6034L7.78953 19.0799C8.03147 19.3264 8.32069 19.5228 8.63918 19.6565C8.95768 19.7902 9.29962 19.859 9.64503 19.859C9.99044 19.859 10.3324 19.7902 10.6509 19.6565C10.9694 19.5228 11.258 19.327 11.5 19.0805L11.5029 19.0775L19.6427 10.8693C19.9513 10.5581 20.4539 10.556 20.7652 10.8646C21.0764 11.1733 21.0785 11.6759 20.7699 11.9871L12.6329 20.1924C12.6325 20.1929 12.632 20.1934 12.6315 20.1939C12.2421 20.5903 11.7776 20.9052 11.2652 21.1203C10.7522 21.3356 10.2014 21.4465 9.64503 21.4465C9.08864 21.4465 8.53784 21.3356 8.02481 21.1203C7.51203 20.905 7.04728 20.5898 6.65768 20.193L4.22289 17.7172C3.43923 16.9212 3 15.849 3 14.732C3 13.615 3.43923 12.5429 4.22289 11.7469L4.22635 11.7434L12.8983 3.04411C12.8985 3.04389 12.8981 3.04434 12.8983 3.04411C13.2263 2.71359 13.6171 2.45055 14.047 2.27147C14.4771 2.09226 14.9385 2 15.4045 2C15.8704 2 16.3318 2.09226 16.7619 2.27147C17.1916 2.45046 17.5815 2.71264 17.9094 3.04293C17.9098 3.04332 17.9102 3.04372 17.9106 3.04411L18.8773 4.01081C18.8777 4.01121 18.8781 4.0116 18.8785 4.01199C19.2088 4.33989 19.471 4.72987 19.65 5.1595C19.8292 5.58964 19.9214 6.051 19.9214 6.51698C19.9214 6.98295 19.8292 7.44432 19.65 7.87446C19.4711 8.30382 19.2091 8.69359 18.8791 9.02136C18.8785 9.02195 18.8779 9.02255 18.8773 9.02314L11.1936 16.7343C11.1933 16.7345 11.193 16.7348 11.1927 16.7351C10.9919 16.9373 10.7531 17.0979 10.4901 17.2075C10.2266 17.3172 9.94408 17.3737 9.65871 17.3737C9.37333 17.3737 9.09078 17.3172 8.82734 17.2075C8.56391 17.0977 8.32481 16.9369 8.12385 16.7343L8.11827 16.7286L7.64393 16.2407C7.444 16.0409 7.28516 15.8038 7.17645 15.5429C7.0667 15.2794 7.01019 14.9969 7.01019 14.7115C7.01019 14.4261 7.0667 14.1436 7.17645 13.8801C7.28619 13.6167 7.44699 13.3777 7.64958 13.1767C7.6496 13.1767 7.64956 13.1767 7.64958 13.1767L12.8071 8.06026C13.1183 7.75153 13.6208 7.75354 13.9296 8.06474C14.2383 8.37595 14.2363 8.87851 13.9251 9.18725L8.7676 14.3037C8.71377 14.3571 8.67098 14.4207 8.64183 14.4907C8.61267 14.5606 8.59766 14.6357 8.59766 14.7115C8.59766 14.7873 8.61267 14.8624 8.64183 14.9324C8.67098 15.0024 8.71371 15.0659 8.76754 15.1193L8.77769 15.1295L9.25317 15.6186C9.3061 15.6714 9.36883 15.7133 9.43784 15.7421C9.50783 15.7712 9.58289 15.7862 9.65871 15.7862C9.73453 15.7862 9.80959 15.7712 9.87957 15.7421C9.94955 15.7129 10.0131 15.6702 10.0665 15.6164L10.0678 15.6151L17.7561 7.89933L17.7594 7.89604C17.9415 7.71547 18.086 7.50064 18.1846 7.26396C18.2832 7.02727 18.334 6.77339 18.334 6.51698C18.334 6.26056 18.2832 6.00669 18.1846 5.77C18.086 5.53331 17.9415 5.31848 17.7594 5.13792L17.7571 5.13562L16.7858 4.16432L16.7835 4.16201C16.603 3.97996 16.3881 3.83546 16.1514 3.73685C15.9147 3.63824 15.6609 3.58747 15.4045 3.58747Z" fill="#11142D"/>
</svg>
