<svg width="24" height="24" viewBox="0 0 24 24" fill="none" xmlns="http://www.w3.org/2000/svg">
<path fill-rule="evenodd" clip-rule="evenodd" d="M19.8973 5.55978C19.5112 5.17837 18.9902 4.96464 18.4476 4.96464C17.905 4.96464 17.384 5.17837 16.9979 5.55978L16.9841 5.57371L14.8528 7.78485C14.4739 8.1677 14.261 8.68459 14.261 9.22356C14.261 9.76449 14.4754 10.2832 14.8569 10.6664C14.942 10.7526 14.9895 10.8685 14.9895 10.989C14.9895 11.1092 14.9422 11.2248 14.8575 11.3109L14.8563 11.3121L11.3264 14.8368L11.3252 14.8379C11.239 14.9226 11.1226 14.9702 11.0011 14.9702C10.8796 14.9702 10.7631 14.9225 10.6768 14.8377C10.293 14.4566 9.77394 14.2429 9.23314 14.2429C8.69199 14.2429 8.17264 14.4569 7.78876 14.8384V14.8384L5.56559 17.0444C5.18357 17.43 4.9691 17.9507 4.9691 18.4936C4.9691 19.0365 5.18359 19.5573 5.56561 19.9429L5.56864 19.9459L6.09558 20.4721C6.82977 21.2045 7.79296 21.664 8.82447 21.774C9.85597 21.884 10.8942 21.6383 11.7666 21.0773L11.7804 21.0683C15.4557 18.5964 18.6181 15.4386 21.0938 11.7687C21.0988 11.7611 21.1038 11.7535 21.1086 11.7458C21.66 10.8652 21.8924 9.82225 21.7667 8.79103C21.6414 7.76197 21.1671 6.80703 20.4231 6.08479L19.8973 5.55978ZM9.54965 15.9733L9.55146 15.9751C9.93757 16.3565 10.4585 16.5702 11.0011 16.5702C11.5438 16.5702 12.0647 16.3565 12.4508 15.9751L12.4539 15.972L15.993 12.4382C16.375 12.0526 16.5895 11.5319 16.5895 10.989C16.5895 10.4465 16.3753 9.92616 15.9939 9.54067M9.54965 15.9733C9.46578 15.8899 9.352 15.8429 9.23314 15.8429C9.11428 15.8429 9.00049 15.8899 8.91662 15.9733L6.70041 18.1724C6.61613 18.2584 6.5691 18.3737 6.5691 18.4936C6.5691 18.6139 6.61639 18.7295 6.7011 18.8156L6.70222 18.8167L7.22585 19.3396V19.3396C7.70135 19.8138 8.3255 20.1117 8.99417 20.183C9.66037 20.2541 10.3308 20.0962 10.8947 19.7357C14.392 17.3822 17.4018 14.3773 19.7593 10.8858C20.1114 10.318 20.2593 9.64746 20.1785 8.98454C20.0972 8.31736 19.7892 7.69799 19.3056 7.22988L18.7717 6.6969C18.6854 6.61228 18.5691 6.56464 18.4476 6.56464C18.3281 6.56464 18.2135 6.61078 18.1276 6.6929L16.0006 8.89952L15.9912 8.90918C15.9077 8.99289 15.861 9.10595 15.861 9.22356C15.861 9.34117 15.9077 9.45423 15.9912 9.53793L15.9927 9.5395V9.5395" fill="black"/>
<path fill-rule="evenodd" clip-rule="evenodd" d="M12.8134 2.99971C12.8134 2.55788 12.4552 2.19971 12.0134 2.19971C10.7248 2.19971 9.44884 2.45313 8.25831 2.94553C7.06778 3.43794 5.98596 4.1597 5.07465 5.06967C4.16333 5.97963 3.44038 7.05999 2.94711 8.24907C2.45385 9.43816 2.19995 10.7127 2.19995 11.9998C2.19995 12.4416 2.55812 12.7998 2.99995 12.7998C3.44178 12.7998 3.79995 12.4416 3.79995 11.9998C3.79995 10.9231 4.01233 9.85693 4.425 8.86214C4.83767 7.86734 5.44255 6.96337 6.20518 6.20187C6.96781 5.44037 7.87325 4.83625 8.86983 4.42406C9.86642 4.01187 10.9346 3.79971 12.0134 3.79971C12.4552 3.79971 12.8134 3.44153 12.8134 2.99971Z" fill="black"/>
<path fill-rule="evenodd" clip-rule="evenodd" d="M12.8134 6.46113C12.8134 6.01931 12.4552 5.66113 12.0134 5.66113C10.3305 5.66113 8.7163 6.32865 7.52597 7.51722C6.3356 8.70583 5.66664 10.3182 5.66664 11.9996C5.66664 12.4415 6.02482 12.7996 6.46664 12.7996C6.90847 12.7996 7.26664 12.4415 7.26664 11.9996C7.26664 10.7433 7.76645 9.53816 8.6565 8.64943C9.54659 7.76065 10.7541 7.26113 12.0134 7.26113C12.4552 7.26113 12.8134 6.90296 12.8134 6.46113Z" fill="black"/>
</svg>
