<svg width="24" height="24" viewBox="0 0 24 24" fill="none" xmlns="http://www.w3.org/2000/svg">
<circle cx="12" cy="12" r="12" fill="#11142D"/>
<path d="M17.6715 7.66236L15.7015 16.9424C15.5565 17.6004 15.1645 17.7604 14.6175 17.4504L11.6175 15.2404L10.1715 16.6344C10.1007 16.7261 10.0098 16.8004 9.90575 16.8515C9.80175 16.9026 9.68742 16.9293 9.57152 16.9294H9.56652L9.77952 13.8754L15.3395 8.85337C15.5795 8.64037 15.2855 8.51937 14.9665 8.73237L8.09752 13.0584L5.13752 12.1344C4.49752 11.9314 4.47952 11.4944 5.27252 11.1804L16.8385 6.72237C17.3765 6.52637 17.8445 6.85036 17.6705 7.66336L17.6715 7.66236Z" fill="white"/>
</svg>
