<svg width="48" height="48" viewBox="0 0 48 48" fill="none" xmlns="http://www.w3.org/2000/svg">
<path fill-rule="evenodd" clip-rule="evenodd" d="M28.0602 10.0821C25.05 9.20243 21.8357 9.32244 18.8995 10.4241C15.9633 11.5257 13.4633 13.5497 11.7747 16.1923C11.3286 16.8904 10.4011 17.0947 9.703 16.6486C9.00492 16.2025 8.80064 15.275 9.24671 14.5769C11.2848 11.3875 14.3019 8.94487 17.8456 7.61528C21.3894 6.2857 25.2687 6.14087 28.9017 7.20251C32.5347 8.26415 35.7256 10.475 37.9958 13.5036C40.266 16.5321 41.4931 20.215 41.4931 24C41.4931 27.7849 40.266 31.4679 37.9958 34.4964C35.7256 37.525 32.5347 39.7358 28.9017 40.7975C25.2687 41.8591 21.3894 41.7143 17.8456 40.3847C14.3019 39.0551 11.2848 36.6125 9.24671 33.4231C8.80064 32.725 9.00492 31.7975 9.703 31.3514C10.4011 30.9053 11.3286 31.1096 11.7747 31.8077C13.4633 34.4503 15.9633 36.4742 18.8995 37.5759C21.8357 38.6776 25.05 38.7976 28.0602 37.9179C31.0704 37.0383 33.7143 35.2064 35.5953 32.697C37.4763 30.1877 38.4931 27.1361 38.4931 24C38.4931 20.8639 37.4763 17.8123 35.5953 15.303C33.7143 12.7936 31.0704 10.9617 28.0602 10.0821ZM21.7086 18.0164C22.2943 17.4306 23.2441 17.4306 23.8299 18.0163L28.753 22.9393C29.3387 23.5251 29.3388 24.4749 28.753 25.0606L23.8299 29.9838C23.2441 30.5696 22.2944 30.5696 21.7086 29.9838C21.1228 29.3981 21.1228 28.4483 21.7086 27.8625L24.071 25.5L8 25.5C7.17157 25.5 6.5 24.8284 6.5 24C6.5 23.1716 7.17157 22.5 8 22.5L24.0709 22.5L21.7086 20.1377C21.1228 19.5519 21.1228 18.6022 21.7086 18.0164Z" fill="#409B89"/>
</svg>
