<svg width="36" height="36" viewBox="0 0 36 36" fill="none" xmlns="http://www.w3.org/2000/svg">
<circle cx="18" cy="18" r="18" fill="#11142D"/>
<path d="M26.5072 11.4934L23.5522 25.4134C23.3347 26.4004 22.7467 26.6404 21.9262 26.1754L17.4262 22.8604L15.2572 24.9514C15.1509 25.089 15.0145 25.2004 14.8585 25.2771C14.7025 25.3538 14.531 25.3938 14.3572 25.3939H14.3497L14.6692 20.8129L23.0092 13.2799C23.3692 12.9604 22.9282 12.7789 22.4497 13.0984L12.1462 19.5874L7.70616 18.2014C6.74616 17.8969 6.71916 17.2414 7.90866 16.7704L25.2577 10.0834C26.0647 9.78943 26.7667 10.2754 26.5057 11.4949L26.5072 11.4934Z" fill="white"/>
</svg>
