<svg width="36" height="36" viewBox="0 0 36 36" fill="none" xmlns="http://www.w3.org/2000/svg">
<path fill-rule="evenodd" clip-rule="evenodd" d="M14.8723 2.64229C18.1939 1.67165 21.7406 1.80407 24.9806 3.01969C28.2206 4.23531 30.9791 6.46861 32.8425 9.38462C33.1399 9.85 33.0037 10.4683 32.5383 10.7657C32.0729 11.0631 31.4546 10.9269 31.1572 10.4615C29.5268 7.91003 27.113 5.9559 24.2781 4.89223C21.4431 3.82856 18.3396 3.71269 15.4332 4.56201C12.5268 5.41132 9.97412 7.18003 8.15796 9.60286C6.3418 12.0257 5.36011 14.972 5.36011 18C5.36011 21.028 6.3418 23.9743 8.15796 26.3971C9.97412 28.82 12.5268 30.5887 15.4332 31.438C18.3396 32.2873 21.4431 32.1714 24.2781 31.1078C27.113 30.0441 29.5268 28.09 31.1572 25.5385C31.4546 25.0731 32.0729 24.9369 32.5383 25.2343C33.0037 25.5317 33.1399 26.15 32.8425 26.6154C30.9791 29.5314 28.2206 31.7647 24.9806 32.9803C21.7406 34.1959 18.1939 34.3284 14.8723 33.3577C11.5506 32.3871 8.63326 30.3657 6.55765 27.5967C4.48204 24.8278 3.36011 21.4605 3.36011 18C3.36011 14.5395 4.48205 11.1722 6.55765 8.40327C8.63326 5.63432 11.5506 3.61294 14.8723 2.64229ZM25.9366 12.6777C26.3271 12.2872 26.9603 12.2872 27.3508 12.6777L31.9662 17.293C32.3568 17.6835 32.3568 18.3167 31.9662 18.7072L27.3509 23.3227C26.9603 23.7132 26.3272 23.7132 25.9366 23.3227C25.5461 22.9322 25.5461 22.299 25.9366 21.9085L28.8449 19.0001L12.7976 19.0001C12.2453 19.0001 11.7976 18.5524 11.7976 18.0001C11.7976 17.4478 12.2453 17.0001 12.7976 17.0001L28.8449 17.0001L25.9366 14.0919C25.5461 13.7014 25.5461 13.0683 25.9366 12.6777Z" fill="#409B89"/>
</svg>
