<svg width="24" height="24" viewBox="0 0 24 24" fill="none" xmlns="http://www.w3.org/2000/svg">
<path fill-rule="evenodd" clip-rule="evenodd" d="M12 3C7 3 3 7 3 12C3 17 7 21 12 21C17 21 21 17 21 12C21 7 17 3 12 3ZM12 19.4C7.9 19.4 4.6 16.1 4.6 12C4.6 7.9 7.9 4.6 12 4.6C16.1 4.6 19.4 7.9 19.4 12C19.4 16.1 16.1 19.4 12 19.4Z" fill="#11142D"/>
<path fill-rule="evenodd" clip-rule="evenodd" d="M12.8 11.6999V8.6999C12.8 8.2999 12.4 7.8999 12 7.8999C11.6 7.8999 11.2 8.1999 11.2 8.5999V11.9999C11.2 12.0999 11.2 12.1999 11.3 12.2999C11.3 12.3999 11.4 12.4999 11.5 12.5999L14.9 15.9999C15.2 16.2999 15.7 16.2999 16 15.9999C16.3 15.6999 16.3 15.1999 16 14.8999L12.8 11.6999Z" fill="#11142D"/>
</svg>
