<svg width="24" height="24" viewBox="0 0 24 24" fill="none" xmlns="http://www.w3.org/2000/svg">
<path fill-rule="evenodd" clip-rule="evenodd" d="M18.744 0H5.256C2.35313 0 0 2.35313 0 5.256V18.744C0 21.6469 2.35313 24 5.256 24H18.744C21.6469 24 24 21.6469 24 18.744V5.256C24 2.35313 21.6469 0 18.744 0ZM7.69374 17.4204L7.69149 17.4197C7.82996 17.2138 7.81815 17.008 7.81815 17.008C7.73105 16.3825 6.52758 16.2519 6.52758 16.2519C6.01618 16.2036 5.76052 16.4606 5.65693 16.6095L4.9944 17.757C4.69487 18.2758 4.87271 18.9392 5.39143 19.2387C5.91024 19.5383 6.57362 19.3605 6.87315 18.8417L7.69374 17.4204ZM16.7711 13.7897H19.3299C19.929 13.7897 20.4146 14.2752 20.4146 14.8743C20.4146 15.4733 19.929 15.959 19.3299 15.959H18.0374C17.8423 15.9594 17.8743 16.0678 17.8928 16.1078L18.8441 17.7555C19.1437 18.2743 18.9659 18.9377 18.4471 19.2372C17.9282 19.5368 17.2649 19.359 16.9654 18.8403L13.1609 12.2506C12.9577 11.8474 12.3748 10.5134 12.8852 9.34003C12.8852 9.34003 13.3127 8.28703 13.582 8.69878L13.7462 8.93428L13.7498 8.93194L16.4889 13.6763L16.4908 13.6795C16.5208 13.7157 16.5968 13.778 16.7711 13.7897ZM13.968 15.959C14.4964 15.959 14.3598 15.2642 14.3598 15.2642C14.152 13.8391 12.6259 13.8154 12.6259 13.8154L12.6254 13.7896H9.98499C9.84127 13.7768 9.84718 13.7036 9.86649 13.657L14.2838 6.00609C14.5833 5.48728 14.4056 4.824 13.8868 4.52447C13.368 4.22484 12.7046 4.40269 12.4051 4.92141L11.9197 5.76206L11.4335 4.91991C11.134 4.40109 10.4706 4.22344 9.9518 4.52297C9.43299 4.82241 9.25524 5.48588 9.55477 6.00459L10.6032 7.82044C10.6115 7.83628 10.6597 7.93669 10.6019 8.04291L10.6028 8.04309L7.42843 13.5413L7.42618 13.5402C7.42618 13.5402 7.33318 13.7669 6.94055 13.7896H4.50868C3.90962 13.7896 3.42399 14.2752 3.42399 14.8743C3.42399 15.4733 3.90962 15.959 4.50868 15.959H13.968Z" fill="url(#paint0_linear_7573_141864)"/>
<defs>
<linearGradient id="paint0_linear_7573_141864" x1="12" y1="0" x2="12" y2="24" gradientUnits="userSpaceOnUse">
<stop stop-color="#17C9FB"/>
<stop offset="1" stop-color="#1A74E8"/>
</linearGradient>
</defs>
</svg>
