<svg width="24" height="24" viewBox="0 0 24 24" fill="none" xmlns="http://www.w3.org/2000/svg">
<path fill-rule="evenodd" clip-rule="evenodd" d="M10.2292 19.9701C10.5281 19.8463 10.723 19.5546 10.723 19.231V15.8771H11.3076C15.1119 15.8771 17.4194 13.9412 18.912 11.5156C20.0756 9.62488 20.7786 7.37033 21.354 5.52459C21.495 5.07248 21.6283 4.6449 21.7589 4.2532C21.8726 3.91214 21.7448 3.53714 21.4465 3.33646C21.1483 3.13578 20.7527 3.15871 20.4797 3.39251C19.9291 3.86388 19.442 4.28996 19.0014 4.67534C17.7786 5.74498 16.9141 6.50118 16.0456 7.04244C14.9467 7.72736 13.861 8.04637 12 8.04637H10.723V4.69252C10.723 4.36201 10.5198 4.06552 10.2115 3.94634C9.90323 3.82716 9.5534 3.90982 9.33108 4.15438L2.408 11.7698C2.12075 12.0857 2.13231 12.5716 2.43427 12.8736L9.35734 19.7967C9.58614 20.0255 9.93024 20.0939 10.2292 19.9701ZM4.10503 12.2816L9.12303 6.76181V8.84637C9.12303 9.28819 9.4812 9.64637 9.92303 9.64637H12C14.0989 9.64637 15.4916 9.27306 16.892 8.40029C17.6683 7.91641 18.4544 7.27024 19.3709 6.47708C18.8994 7.91332 18.3466 9.38167 17.5494 10.6771C16.2728 12.7516 14.4265 14.2771 11.3076 14.2771H9.92303C9.4812 14.2771 9.12303 14.6353 9.12303 15.0771V17.2996L4.10503 12.2816Z" fill="#11142D"/>
</svg>
