<svg width="37" height="36" viewBox="0 0 37 36" fill="none" xmlns="http://www.w3.org/2000/svg">
<g id="ico_TG_pc">
<path id="Subtract" fill-rule="evenodd" clip-rule="evenodd" d="M18.5 36C28.4411 36 36.5 27.9411 36.5 18C36.5 8.05887 28.4411 0 18.5 0C8.55887 0 0.5 8.05887 0.5 18C0.5 27.9411 8.55887 36 18.5 36ZM24.0522 25.4134L27.0072 11.4934L27.0057 11.4949C27.2667 10.2754 26.5647 9.78943 25.7577 10.0834L8.40866 16.7704C7.21916 17.2414 7.24616 17.8969 8.20616 18.2014L12.6462 19.5874L22.9497 13.0984C23.4282 12.7789 23.8692 12.9604 23.5092 13.2799L15.1692 20.8129L14.8497 25.3939H14.8572C15.031 25.3938 15.2025 25.3538 15.3585 25.2771C15.5145 25.2004 15.6509 25.089 15.7572 24.9514L17.9262 22.8604L22.4262 26.1754C23.2467 26.6404 23.8347 26.4004 24.0522 25.4134Z" fill="url(#paint0_linear_13127_25812)"/>
</g>
<defs>
<linearGradient id="paint0_linear_13127_25812" x1="18.5" y1="0" x2="18.5" y2="36" gradientUnits="userSpaceOnUse">
<stop stop-color="#2AABEE"/>
<stop offset="1" stop-color="#229ED9"/>
</linearGradient>
</defs>
</svg>
