<svg width="48" height="48" viewBox="0 0 48 48" fill="none" xmlns="http://www.w3.org/2000/svg">
<path d="M24 3C23.3762 3 22.7654 3.17846 22.2398 3.51431C21.7208 3.84586 21.3062 4.31714 21.0435 4.87373L16.0527 14.9495C16.0429 14.9693 16.0335 14.9893 16.0245 15.0095C16.0223 15.0145 16.0188 15.0189 16.0143 15.0221C16.0099 15.0254 16.0047 15.0274 15.9992 15.028C15.9801 15.0301 15.961 15.0326 15.9419 15.0354L4.95299 16.6634C4.34563 16.7224 3.76644 16.9504 3.28132 17.322C2.77937 17.7065 2.39967 18.2282 2.18823 18.8241C1.97678 19.42 1.94267 20.0644 2.09001 20.6793C2.23679 21.2919 2.55738 21.8489 3.01317 22.2836L11.057 30.0446L11.0753 30.062C11.0868 30.0727 11.0954 30.0862 11.1004 30.1011C11.1054 30.116 11.1065 30.1319 11.1038 30.1474L11.102 30.1576L9.1852 41.3756L9.18471 41.3785C9.07942 41.9863 9.14657 42.6115 9.37858 43.1832C9.61095 43.7557 9.99937 44.2516 10.4996 44.6143C10.9999 44.977 11.5919 45.1919 12.2083 45.2348C12.8239 45.2775 13.4391 45.1469 13.9841 44.8578L13.9864 44.8565L23.8873 39.6238C23.9228 39.6084 23.9612 39.6004 24 39.6004C24.0389 39.6004 24.0773 39.6084 24.1128 39.6238L34.0136 44.8565L34.0149 44.8573C34.5602 45.1468 35.1758 45.2776 35.7917 45.2348C36.4081 45.1919 37.0001 44.977 37.5004 44.6143C38.0006 44.2516 38.389 43.7558 38.6214 43.1832C38.8533 42.6118 38.9205 41.9869 38.8154 41.3793L38.8148 41.3756L36.898 30.1576L36.8962 30.1474C36.8935 30.1319 36.8946 30.116 36.8996 30.1011C36.9046 30.0862 36.9132 30.0727 36.9247 30.062L36.943 30.0446L44.9816 22.2885L44.9868 22.2835C45.4426 21.8489 45.7632 21.2919 45.91 20.6793C46.0573 20.0644 46.0232 19.42 45.8118 18.8241C45.6003 18.2282 45.2206 17.7065 44.7187 17.322C44.2336 16.9504 43.6544 16.7224 43.047 16.6634L32.0581 15.0354C32.039 15.0326 32.0199 15.0301 32.0008 15.028C31.9953 15.0274 31.9901 15.0254 31.9857 15.0221C31.9832 15.0203 31.981 15.0181 31.9792 15.0157C31.9777 15.0138 31.9765 15.0117 31.9755 15.0095C31.9665 14.9893 31.9571 14.9693 31.9473 14.9495L26.9566 4.87382C26.6938 4.31719 26.2792 3.84588 25.7603 3.51431C25.2346 3.17846 24.6238 3 24 3Z" fill="#FFAB00"/>
</svg>
