<svg width="36" height="36" viewBox="0 0 36 36" fill="none" xmlns="http://www.w3.org/2000/svg">
<path d="M24.0846 5.38766C22.1865 4.47314 20.1066 3.9988 17.9997 4C15.4674 4.00084 12.9824 4.6885 10.81 5.98975C8.63755 7.29105 6.85871 9.15725 5.66297 11.3896C4.46724 13.6219 3.8994 16.1368 4.01992 18.6663C4.13215 21.0216 4.83727 23.3075 6.06612 25.3134L4.06438 30.6391C3.9369 30.9783 4.00152 31.3598 4.23356 31.638C4.4656 31.9163 4.82928 32.0484 5.18582 31.9839L12.1641 30.7221C13.9747 31.5538 15.9433 31.9899 17.9383 31.9998C20.0453 32.0102 22.1274 31.545 24.0295 30.6387C25.9316 29.7324 27.6046 28.4085 28.9238 26.7657C30.2431 25.1228 31.1744 23.2034 31.6486 21.1504C32.1227 19.0975 32.1274 16.964 31.6622 14.9091C31.197 12.8541 30.274 10.9306 28.962 9.28202C27.6499 7.63342 25.9827 6.30222 24.0846 5.38766Z" fill="#006174"/>
</svg>
