<svg width="24" height="24" viewBox="0 0 24 24" fill="none" xmlns="http://www.w3.org/2000/svg">
<path fill-rule="evenodd" clip-rule="evenodd" d="M19.3438 11.7621C18.6547 10.8282 17.5588 9.49946 16.2199 8.41593C14.8543 7.31076 13.4091 6.6 12 6.6C10.5909 6.6 9.14567 7.31076 7.78006 8.41593C6.44117 9.49946 5.3453 10.8282 4.6562 11.7621C4.63785 11.7902 4.6 11.8732 4.6 12C4.6 12.1268 4.63785 12.2098 4.65619 12.2379C5.3453 13.1718 6.44117 14.5005 7.78006 15.5841C9.14567 16.6892 10.5909 17.4 12 17.4C13.4091 17.4 14.8543 16.6892 16.2199 15.5841C17.5588 14.5005 18.6547 13.1718 19.3438 12.2379C19.3621 12.2098 19.4 12.1268 19.4 12C19.4 11.8732 19.3621 11.7902 19.3438 11.7621ZM20.6426 13.1725C20.8727 12.8509 21 12.4332 21 12C21 11.5668 20.8727 11.1491 20.6426 10.8275C19.186 8.85 15.8704 5 12 5C8.12956 5 4.81403 8.85 3.35741 10.8275C3.12735 11.1491 3 11.5668 3 12C3 12.4332 3.12735 12.8509 3.35741 13.1725C4.81403 15.15 8.12956 19 12 19C15.8704 19 19.186 15.15 20.6426 13.1725Z" fill="#11142D"/>
<path fill-rule="evenodd" clip-rule="evenodd" d="M12 9.8002C10.7849 9.8002 9.79995 10.7852 9.79995 12.0002C9.79995 13.2152 10.7849 14.2002 12 14.2002C13.215 14.2002 14.2 13.2152 14.2 12.0002C14.2 10.7852 13.215 9.8002 12 9.8002ZM8.19995 12.0002C8.19995 9.90151 9.90127 8.2002 12 8.2002C14.0986 8.2002 15.8 9.90151 15.8 12.0002C15.8 14.0989 14.0986 15.8002 12 15.8002C9.90127 15.8002 8.19995 14.0989 8.19995 12.0002Z" fill="#11142D"/>
</svg>
