<svg width="24" height="24" viewBox="0 0 24 24" fill="none" xmlns="http://www.w3.org/2000/svg">
<path fill-rule="evenodd" clip-rule="evenodd" d="M8.1504 18.0632C8.27732 18.0314 8.40764 18.0154 8.53846 18.0154H19.4V4.6H5.98462V16.8462C5.98462 17.0181 5.95689 17.189 5.90251 17.3521L5.43959 18.7409L8.1504 18.0632ZM3 21L4.38462 16.8462V4.38462C4.38462 4.01739 4.53049 3.66521 4.79016 3.40554C5.04983 3.14588 5.40201 3 5.76923 3H19.6154C19.9826 3 20.3348 3.14588 20.5945 3.40554C20.8541 3.66521 21 4.01739 21 4.38462V18.2308C21 18.598 20.8541 18.9502 20.5945 19.2098C20.3348 19.4695 19.9826 19.6154 19.6154 19.6154H8.53846L3 21Z" fill="#11142D"/>
<path fill-rule="evenodd" clip-rule="evenodd" d="M8.2 9C8.2 8.55817 8.55817 8.2 9 8.2H16.3846C16.8264 8.2 17.1846 8.55817 17.1846 9C17.1846 9.44183 16.8264 9.8 16.3846 9.8H9C8.55817 9.8 8.2 9.44183 8.2 9Z" fill="#11142D"/>
<path fill-rule="evenodd" clip-rule="evenodd" d="M8.2 13C8.2 12.5582 8.55817 12.2 9 12.2H14C14.4418 12.2 14.8 12.5582 14.8 13C14.8 13.4418 14.4418 13.8 14 13.8H9C8.55817 13.8 8.2 13.4418 8.2 13Z" fill="#11142D"/>
</svg>
