<svg width="48" height="48" viewBox="0 0 48 48" fill="none" xmlns="http://www.w3.org/2000/svg">
<path d="M31.823 7.78414C29.3827 6.60832 26.7084 5.99846 23.9996 6C20.7438 6.00108 17.5488 6.88522 14.7558 8.55826C11.9626 10.2314 9.67548 12.6307 8.13811 15.5009C6.60074 18.371 5.87066 21.6044 6.02562 24.8567C6.1699 27.8849 7.07649 30.8239 8.65644 33.4029L6.08277 40.2503C5.91888 40.6864 6.00195 41.1768 6.30029 41.5346C6.59863 41.8924 7.06622 42.0622 7.52462 41.9793L16.4967 40.357C18.8246 41.4263 21.3557 41.987 23.9207 41.9997C26.6296 42.0132 29.3067 41.415 31.7522 40.2498C34.1978 39.0846 36.3488 37.3824 38.0449 35.2701C39.7411 33.1579 40.9386 30.69 41.5482 28.0506C42.1578 25.4111 42.1638 22.6681 41.5657 20.0259C40.9676 17.3838 39.7809 14.9108 38.094 12.7912C36.4071 10.6715 34.2635 8.96 31.823 7.78414Z" fill="#006174"/>
</svg>
