<svg width="36" height="36" viewBox="0 0 36 36" fill="none" xmlns="http://www.w3.org/2000/svg">
<path d="M26.092 22.9288C29.8899 20.8435 32.769 19.2544 33.0172 19.1309C33.811 18.7087 34.6309 17.5914 33.0172 16.7234C32.4962 16.4505 29.691 14.911 26.092 12.9255L21.1028 17.9643L26.092 22.9287V22.9288Z" fill="#FFD900"/>
<path d="M21.1028 17.9644L5.21655 33.9753C5.58944 34.0247 6.01042 33.9259 6.50674 33.653C7.54877 33.0826 18.5952 27.0501 26.0921 22.9301L21.1028 17.9644Z" fill="#F43249"/>
<path d="M21.1024 17.9643L26.0916 12.9504C26.0916 12.9504 7.62366 2.87165 6.50628 2.2767C6.08531 2.02736 5.61355 1.9533 5.19141 2.02736L21.1024 17.9643Z" fill="#00EE76"/>
<path d="M21.1024 17.9643L5.19144 2.02734C4.5457 2.17664 4 2.74714 4 3.91389V32.0887C4 33.1566 4.42226 33.9258 5.21613 34L21.1024 17.9643Z" fill="#00D3FF"/>
</svg>
