<svg width="48" height="48" viewBox="0 0 48 48" fill="none" xmlns="http://www.w3.org/2000/svg">
<path d="M46.8033 12.2C46.5374 11.1333 46.0055 10.2 45.2078 9.53333C44.41 8.86667 43.4792 8.2 42.5485 7.93333C38.9584 7 23.9335 7 23.9335 7C23.9335 7 8.90859 7 5.1856 8.06667C4.12188 8.33333 3.19114 8.86667 2.52632 9.66667C1.72853 10.4667 1.19668 11.4 0.930748 12.3333C0.265928 16.0667 0 19.9333 0 23.8C0 27.6667 0.265928 31.5333 1.06371 35.4C1.32964 36.4667 1.8615 37.4 2.65928 38.0667C3.45706 38.8667 4.38781 39.4 5.31856 39.6667C8.90859 40.6 23.9335 40.6 23.9335 40.6C23.9335 40.6 38.9584 40.6 42.6814 39.5333C43.7452 39.2667 44.6759 38.7333 45.3407 37.9333C46.0055 37.1333 46.6704 36.2 46.9363 35.2667C47.6011 31.4 48 27.5333 48 23.6667C47.867 19.9333 47.6011 16.0667 46.8033 12.2Z" fill="#11142D"/>
<path d="M19.1467 16.5999V30.9999L31.5124 23.7999L19.1467 16.5999Z" fill="white"/>
</svg>
