<svg width="36" height="36" viewBox="0 0 36 36" fill="none" xmlns="http://www.w3.org/2000/svg">
<path fill-rule="evenodd" clip-rule="evenodd" d="M20 8C20 6.89543 19.1046 6 18 6C16.8954 6 16 6.89543 16 8C16 9.10457 16.8954 10 18 10C19.1046 10 20 9.10457 20 8ZM18 16C19.1046 16 20 16.8954 20 18C20 19.1046 19.1046 20 18 20C16.8954 20 16 19.1046 16 18C16 16.8954 16.8954 16 18 16ZM18 26C19.1046 26 20 26.8954 20 28C20 29.1046 19.1046 30 18 30C16.8954 30 16 29.1046 16 28C16 26.8954 16.8954 26 18 26Z" fill="#11142D"/>
</svg>
