<svg width="16" height="16" viewBox="0 0 16 16" fill="none" xmlns="http://www.w3.org/2000/svg">
<path fill-rule="evenodd" clip-rule="evenodd" d="M14.4 5.9C14.3 5.7 14.2 5.5 14.1 5.4L11.1 2.4C11 2.2 10.8 2.1 10.6 2.1C10.4 2.1 10.2 2 9.99995 2C9.79995 2 9.59995 2.1 9.39995 2.2C9.19995 2.3 8.99995 2.5 8.89995 2.7L7.09995 5.5L3.09995 6.4C2.89995 6.4 2.69995 6.5 2.59995 6.6C2.49995 6.8 2.39995 6.9 2.29995 7.1C2.29995 7.3 2.29995 7.5 2.29995 7.6C2.29995 7.8 2.39995 7.9 2.59995 8.1L5.09995 10.6L1.59995 14.1C1.39995 14.3 1.39995 14.6 1.59995 14.8C1.79995 15 2.09995 15 2.29995 14.8L5.79995 11.3L8.29995 13.8C8.39995 13.9 8.59995 14 8.79995 14C8.99995 14 9.19995 14 9.29995 14C9.49995 13.9 9.59995 13.9 9.79995 13.7C9.89995 13.7 9.99995 13.5 9.99995 13.3L11 9.4L13.8 7.6C14 7.5 14.2 7.3 14.3 7.1C14.4 6.9 14.5 6.7 14.5 6.5C14.5 6.3 14.5 6.1 14.4 5.9Z" fill="#11142D"/>
</svg>
