<svg width="24" height="24" viewBox="0 0 24 24" fill="none" xmlns="http://www.w3.org/2000/svg">
<path d="M16.8882 15.4027C19.5623 13.9344 21.5894 12.8156 21.7642 12.7286C22.3231 12.4313 22.9004 11.6446 21.7642 11.0335C21.3973 10.8413 19.4222 9.75731 16.8882 8.35938L13.3752 11.9071L16.8882 15.4026V15.4027Z" fill="#FFD900"/>
<path d="M13.3755 11.9072L2.18994 23.1806C2.45249 23.2153 2.7489 23.1457 3.09836 22.9536C3.83205 22.552 11.6099 18.3045 16.8884 15.4036L13.3755 11.9072Z" fill="#F43249"/>
<path d="M13.375 11.9072L16.8879 8.37691C16.8879 8.37691 3.88467 1.28048 3.09792 0.86157C2.80151 0.686015 2.46935 0.633867 2.17212 0.686015L13.375 11.9072Z" fill="#00EE76"/>
<path d="M13.375 11.9072L2.17214 0.686035C1.71748 0.791154 1.33325 1.19285 1.33325 2.01435V21.8522C1.33325 22.6041 1.63057 23.1457 2.18953 23.1979L13.375 11.9072Z" fill="#00D3FF"/>
</svg>
