<svg width="36" height="36" viewBox="0 0 36 36" fill="none" xmlns="http://www.w3.org/2000/svg">
<path fill-rule="evenodd" clip-rule="evenodd" d="M26.541 6.8744C28.1584 6.25229 29.7477 7.84157 29.1256 9.45905L21.559 29.1322C20.9223 30.7877 18.6055 30.8566 17.8716 29.2419L14.3986 21.6014L6.75812 18.1284C5.14338 17.3945 5.21228 15.0777 6.86777 14.441L26.541 6.8744ZM27.2589 8.74109L7.58572 16.3077L15.5676 19.9358C15.7877 20.0359 15.9641 20.2123 16.0642 20.4324L19.6923 28.4143L27.2589 8.74109Z" fill="#11142D"/>
<path fill-rule="evenodd" clip-rule="evenodd" d="M21.3994 14.6008C21.79 14.9913 21.79 15.6244 21.3994 16.015L15.861 21.5534C15.4704 21.944 14.8373 21.944 14.4468 21.5534C14.0562 21.1629 14.0562 20.5297 14.4468 20.1392L19.9852 14.6008C20.3757 14.2102 21.0089 14.2102 21.3994 14.6008Z" fill="#11142D"/>
</svg>
