<svg width="24" height="24" viewBox="0 0 24 24" fill="none" xmlns="http://www.w3.org/2000/svg">
<path fill-rule="evenodd" clip-rule="evenodd" d="M4.83456 4.83431C4.98459 4.68429 5.18807 4.6 5.40024 4.6H18.2002C18.4124 4.6 18.6159 4.68429 18.7659 4.83431C18.916 4.98434 19.0002 5.18783 19.0002 5.4V9.03077C19.0002 9.4726 19.3584 9.83077 19.8002 9.83077C20.2421 9.83077 20.6002 9.4726 20.6002 9.03077V5.4C20.6002 4.76348 20.3474 4.15303 19.8973 3.70294C19.4472 3.25286 18.8368 3 18.2002 3H5.40024C4.76372 3 4.15328 3.25286 3.70319 3.70294C3.2531 4.15303 3.00024 4.76348 3.00024 5.4V11.9806C2.99992 11.9937 2.99992 12.0068 3.00024 12.02V18.2C3.00024 18.8365 3.2531 19.447 3.70319 19.8971C4.15327 20.3471 4.76372 20.6 5.40024 20.6H8.45409C8.89592 20.6 9.25409 20.2418 9.25409 19.8C9.25409 19.3582 8.89592 19 8.45409 19H5.40024C5.18807 19 4.98459 18.9157 4.83456 18.7657C4.68453 18.6157 4.60024 18.4122 4.60024 18.2V12.6887C5.07644 12.6302 5.56168 12.6 6.05429 12.6C7.99414 12.6 9.82237 13.0679 11.4345 13.8963C11.8275 14.0982 12.3098 13.9433 12.5117 13.5503C12.7136 13.1574 12.5587 12.6751 12.1658 12.4732C10.3327 11.5312 8.25436 11 6.05429 11C5.56321 11 5.07806 11.0265 4.60024 11.0781V5.4C4.60024 5.18783 4.68453 4.98434 4.83456 4.83431ZM18.1011 10.8159C17.9509 10.6657 17.7473 10.5814 17.535 10.5815C17.3227 10.5817 17.1191 10.6662 16.9691 10.8165L11.1845 16.6134C11.0621 16.7361 10.9828 16.8952 10.9586 17.0669L10.5894 19.6884C10.5544 19.9366 10.6378 20.1868 10.8146 20.3644C10.9914 20.542 11.2412 20.6265 11.4895 20.5927L14.111 20.2358C14.2843 20.2122 14.4451 20.1324 14.5688 20.0088L20.3657 14.2118C20.6781 13.8994 20.6781 13.3929 20.3657 13.0805L18.1011 10.8159ZM12.5057 17.5545L17.536 12.5135L18.6686 13.6462L13.628 18.6868L12.3212 18.8647L12.5057 17.5545ZM14.2784 6.80898C13.8706 6.80898 13.5399 7.13961 13.5399 7.54745C13.5399 7.95529 13.8706 8.28591 14.2784 8.28591C14.6862 8.28591 15.0169 7.95529 15.0169 7.54745C15.0169 7.13961 14.6862 6.80898 14.2784 6.80898ZM11.9399 7.54745C11.9399 6.25595 12.9869 5.20898 14.2784 5.20898C15.5699 5.20898 16.6169 6.25595 16.6169 7.54745C16.6169 8.83894 15.5699 9.88591 14.2784 9.88591C12.9869 9.88591 11.9399 8.83894 11.9399 7.54745Z" fill="#11142D"/>
</svg>
