<svg width="24" height="24" viewBox="0 0 24 24" fill="none" xmlns="http://www.w3.org/2000/svg">
<path fill-rule="evenodd" clip-rule="evenodd" d="M9.5233 3.60027C9.66689 3.59608 9.80757 3.64121 9.92194 3.72813C10.0363 3.81505 10.1175 3.93852 10.1519 4.07798L10.5953 5.85178C10.6843 6.20791 11.0043 6.45775 11.3714 6.45775H19.9429C20.1096 6.45775 20.2694 6.52397 20.3873 6.64185C20.5052 6.75973 20.5714 6.91961 20.5714 7.08632V19.2292C20.5714 19.3959 20.5052 19.5558 20.3873 19.6736C20.2694 19.7915 20.1096 19.8578 19.9429 19.8578H17.9753L10.2039 12.5786C10.1926 12.568 10.181 12.5577 10.169 12.5477C9.88728 12.3131 9.53221 12.1846 9.16554 12.1846C8.81002 12.1846 8.46541 12.3054 8.18797 12.5266L3.6 15.8261V4.22918C3.6 4.06247 3.66622 3.90259 3.7841 3.78471C3.90198 3.66683 4.06186 3.60061 4.22857 3.60061H9.5C9.50777 3.60061 9.51553 3.60049 9.5233 3.60027ZM3.6 17.7969V19.2292C3.6 19.3959 3.66622 19.5558 3.7841 19.6736C3.90198 19.7915 4.06186 19.8578 4.22857 19.8578H15.6348L9.16288 13.7957C9.15573 13.8013 9.14848 13.8067 9.14114 13.8119L3.6 17.7969ZM10.8901 2.45427C10.488 2.14871 9.99423 1.98884 9.48964 2.00061H4.22857C3.63752 2.00061 3.07067 2.2354 2.65273 2.65334C2.2348 3.07128 2 3.63812 2 4.22918V19.2292C2 19.8202 2.2348 20.3871 2.65273 20.805C3.07067 21.223 3.63752 21.4577 4.22857 21.4577H19.9429C20.5339 21.4577 21.1008 21.223 21.5187 20.805C21.9366 20.3871 22.1714 19.8202 22.1714 19.2292V7.08632C22.1714 6.49527 21.9366 5.92842 21.5187 5.51048C21.1008 5.09254 20.5339 4.85775 19.9429 4.85775H11.996L11.7053 3.69466L11.7049 3.69309C11.5826 3.19927 11.2951 2.76211 10.8901 2.45427ZM16.1704 9.49893C16.9121 9.49893 17.5133 10.1001 17.5133 10.8418C17.5133 11.5834 16.9121 12.1846 16.1704 12.1846C15.4288 12.1846 14.8276 11.5834 14.8276 10.8418C14.8276 10.1001 15.4288 9.49893 16.1704 9.49893ZM19.1133 10.8418C19.1133 9.21649 17.7957 7.89893 16.1704 7.89893C14.5451 7.89893 13.2276 9.21649 13.2276 10.8418C13.2276 12.4671 14.5451 13.7846 16.1704 13.7846C17.7957 13.7846 19.1133 12.4671 19.1133 10.8418Z" fill="#11142D"/>
</svg>
