<svg width="24" height="24" viewBox="0 0 24 24" fill="none" xmlns="http://www.w3.org/2000/svg">
<path fill-rule="evenodd" clip-rule="evenodd" d="M4.6 10.723C4.6 7.34138 7.34138 4.6 10.723 4.6C14.1047 4.6 16.8461 7.34138 16.8461 10.723C16.8461 14.1047 14.1047 16.8461 10.723 16.8461C7.34138 16.8461 4.6 14.1047 4.6 10.723ZM10.723 3C6.45772 3 3 6.45772 3 10.723C3 14.9884 6.45772 18.4461 10.723 18.4461C12.5675 18.4461 14.261 17.7995 15.5892 16.7205L19.5979 20.7293C19.9104 21.0417 20.4169 21.0417 20.7293 20.7293C21.0417 20.4169 21.0417 19.9104 20.7293 19.5979L16.7205 15.5892C17.7995 14.261 18.4461 12.5675 18.4461 10.723C18.4461 6.45772 14.9884 3 10.723 3Z" fill="#11142D"/>
</svg>
