<svg width="24" height="24" viewBox="0 0 24 24" fill="none" xmlns="http://www.w3.org/2000/svg">
<path fill-rule="evenodd" clip-rule="evenodd" d="M4.91944 5.71879C3.41899 7.21219 3.05513 9.78821 4.78912 11.5263L4.79874 11.5359L12.0057 19.005L19.2223 11.5262C20.9405 9.80393 20.5806 7.22752 19.0803 5.72823C18.3497 4.99814 17.386 4.57394 16.3211 4.64964C15.2562 4.72534 13.9664 5.31089 12.6179 6.84345C12.463 7.01955 12.24 7.12044 12.0057 7.12044C11.7715 7.12044 11.5485 7.01955 11.3936 6.84345C10.0452 5.31099 8.75321 4.72314 7.68519 4.64557C6.61718 4.568 5.651 4.99067 4.91944 5.71879ZM12.0058 5.11666C10.6327 3.78298 9.19401 3.1145 7.80316 3.01349C6.20397 2.89734 4.79018 3.54143 3.76918 4.55762C1.76588 6.55151 1.13384 10.1709 3.62978 12.6784L11.419 20.7506C11.5728 20.91 11.7846 21 12.0057 21C12.2269 21 12.4387 20.91 12.5925 20.7506L20.3818 12.6783C22.8652 10.1833 22.2293 6.56447 20.2329 4.5694C19.2145 3.55164 17.8035 2.90379 16.2056 3.01738C14.8159 3.11617 13.3784 3.78339 12.0058 5.11666Z" fill="#11142D"/>
</svg>
