<svg width="48" height="48" viewBox="0 0 48 48" fill="none" xmlns="http://www.w3.org/2000/svg">
<path fill-rule="evenodd" clip-rule="evenodd" d="M6.5 12C6.5 11.1716 7.17157 10.5 8 10.5H40C40.8284 10.5 41.5 11.1716 41.5 12C41.5 12.8284 40.8284 13.5 40 13.5H8C7.17157 13.5 6.5 12.8284 6.5 12ZM6.5 24C6.5 23.1716 7.17157 22.5 8 22.5H40C40.8284 22.5 41.5 23.1716 41.5 24C41.5 24.8284 40.8284 25.5 40 25.5H8C7.17157 25.5 6.5 24.8284 6.5 24ZM6.5 36C6.5 35.1716 7.17157 34.5 8 34.5H40C40.8284 34.5 41.5 35.1716 41.5 36C41.5 36.8284 40.8284 37.5 40 37.5H8C7.17157 37.5 6.5 36.8284 6.5 36Z" fill="#11142D"/>
</svg>
