<svg width="24" height="24" viewBox="0 0 24 24" fill="none" xmlns="http://www.w3.org/2000/svg">
<path fill-rule="evenodd" clip-rule="evenodd" d="M11.9971 2.19995C13.4715 2.19912 14.927 2.53106 16.2553 3.17105C17.5836 3.81107 18.7504 4.74266 19.6686 5.89636C20.5867 7.05007 21.2327 8.39614 21.5582 9.83424C21.8837 11.2723 21.8805 12.7654 21.5487 14.202C21.2169 15.6387 20.5651 16.9819 19.6419 18.1316C18.7187 19.2813 17.5479 20.2078 16.2168 20.842C14.8857 21.4762 13.4286 21.8018 11.9541 21.7945C10.5688 21.7877 9.20168 21.4871 7.94271 20.9139L3.14231 21.7819C2.85898 21.8331 2.56996 21.7281 2.38556 21.507C2.20116 21.2859 2.14981 20.9827 2.25111 20.7132L3.6196 17.0722C2.77582 15.6789 2.2916 14.095 2.21387 12.4636C2.12952 10.6934 2.5269 8.93346 3.36369 7.37126C4.20048 5.80905 5.44533 4.50306 6.96566 3.5924C8.48592 2.68178 10.2249 2.20054 11.9971 2.19995ZM11.9978 3.79995C10.515 3.80041 9.05988 4.20306 7.78783 4.965C6.51579 5.72694 5.47423 6.81965 4.7741 8.12673C4.07397 9.43382 3.74148 10.9063 3.81205 12.3874C3.88262 13.8685 4.35361 15.3028 5.17484 16.5374C5.3173 16.7515 5.3481 17.0211 5.2576 17.2619L4.24477 19.9566L7.90997 19.2938C8.07759 19.2635 8.25051 19.2875 8.40356 19.3623C9.51198 19.9039 10.7284 20.1884 11.962 20.1945C13.1957 20.2006 14.4148 19.9282 15.5286 19.3976C16.6423 18.8669 17.6219 18.0918 18.3943 17.1298C19.1667 16.1679 19.7121 15.044 19.9897 13.842C20.2673 12.6399 20.2701 11.3907 19.9977 10.1875C19.7253 8.98424 19.1849 7.858 18.4166 6.8927C17.6484 5.92741 16.6722 5.14796 15.5608 4.61246C14.4494 4.07696 13.2315 3.79922 11.9978 3.79995Z" fill="black"/>
<path fill-rule="evenodd" clip-rule="evenodd" d="M12.2461 8.66919C11.9986 8.61994 11.7419 8.64522 11.5087 8.74182C11.2755 8.83842 11.0762 9.00201 10.9359 9.2119C10.7957 9.42179 10.7208 9.66855 10.7208 9.92098C10.7208 10.3628 10.3627 10.721 9.92084 10.721C9.47901 10.721 9.12084 10.3628 9.12084 9.92098C9.12084 9.3521 9.28953 8.79599 9.60558 8.32299C9.92164 7.84998 10.3709 7.48131 10.8964 7.26361C11.422 7.04591 12.0003 6.98895 12.5583 7.09994C13.1162 7.21092 13.6287 7.48486 14.031 7.88712C14.4333 8.28938 14.7072 8.80189 14.8182 9.35984C14.9292 9.91779 14.8722 10.4961 14.6545 11.0217C14.4368 11.5473 14.0681 11.9965 13.5951 12.3125C13.3484 12.4774 13.0791 12.6022 12.7971 12.6838V13.3815C12.7971 13.8233 12.439 14.1815 11.9971 14.1815C11.5553 14.1815 11.1971 13.8233 11.1971 13.3815V11.9973C11.1971 11.5555 11.5553 11.1973 11.9971 11.1973C12.2496 11.1973 12.4963 11.1224 12.7062 10.9822C12.9161 10.8419 13.0797 10.6426 13.1763 10.4094C13.2729 10.1762 13.2982 9.91956 13.2489 9.67198C13.1997 9.4244 13.0781 9.19699 12.8996 9.01849C12.7211 8.84 12.4937 8.71844 12.2461 8.66919Z" fill="black"/>
<path fill-rule="evenodd" clip-rule="evenodd" d="M12.7217 16.4961C12.772 16.3914 12.8002 16.274 12.8002 16.15C12.8002 15.7082 12.442 15.35 12.0002 15.35C11.3673 15.35 10.8542 15.8631 10.8542 16.4961C10.8542 17.129 11.3673 17.6421 12.0002 17.6421C12.442 17.6421 12.8002 17.284 12.8002 16.8421C12.8002 16.7182 12.772 16.6008 12.7217 16.4961Z" fill="black"/>
<path fill-rule="evenodd" clip-rule="evenodd" d="M11.2786 16.4963C11.2283 16.3916 11.2001 16.2742 11.2001 16.1502C11.2001 15.7084 11.5584 15.35 12.0002 15.35C12.6332 15.35 13.1462 15.8633 13.1462 16.4963C13.1462 17.1292 12.6332 17.6421 12.0002 17.6421C11.5584 17.6421 11.2001 17.2842 11.2001 16.8423C11.2001 16.7184 11.2283 16.601 11.2786 16.4963Z" fill="black"/>
</svg>
