<svg width="36" height="36" viewBox="0 0 36 36" fill="none" xmlns="http://www.w3.org/2000/svg">
<path d="M18 3C17.5747 3 17.1582 3.12168 16.7998 3.35067C16.446 3.57673 16.1633 3.89807 15.9842 4.27758L12.5814 11.1474C12.5747 11.1609 12.5683 11.1745 12.5622 11.1883C12.5606 11.1917 12.5583 11.1947 12.5552 11.1969C12.5522 11.1991 12.5487 11.2005 12.5449 11.2009C12.5319 11.2023 12.5189 11.204 12.5059 11.206L5.01341 12.3159C4.5993 12.3562 4.20439 12.5116 3.87363 12.765C3.53139 13.0271 3.2725 13.3829 3.12834 13.7892C2.98417 14.1955 2.96091 14.6348 3.06137 15.0541C3.16144 15.4717 3.37999 15.8515 3.69069 16.1478L9.17522 21.4395L9.18771 21.4513C9.19555 21.4587 9.20143 21.4678 9.20482 21.478C9.20821 21.4882 9.209 21.499 9.20712 21.5096L9.2059 21.5166L7.899 29.1652L7.89866 29.1671C7.82687 29.5816 7.87266 30.0079 8.03085 30.3976C8.18928 30.788 8.45411 31.1261 8.7952 31.3734C9.13629 31.6207 9.53994 31.7672 9.96023 31.7964C10.3803 31.8256 10.8001 31.7364 11.172 31.5389L17.9232 27.9708C17.9474 27.9602 17.9736 27.9548 18 27.9548C18.0265 27.9548 18.0527 27.9602 18.0769 27.9708L24.8274 31.5385L24.8284 31.539C25.2001 31.7364 25.6198 31.8256 26.0398 31.7964C26.4601 31.7672 26.8637 31.6207 27.2048 31.3734C27.5459 31.1261 27.8107 30.788 27.9691 30.3976C28.1274 30.0078 28.1731 29.5815 28.1013 29.167L28.101 29.1652L26.7941 21.5166L26.7929 21.5096C26.791 21.499 26.7918 21.4882 26.7952 21.478C26.7986 21.4678 26.8044 21.4587 26.8123 21.4513L26.8248 21.4395L32.3057 16.1513L32.3092 16.1479C32.62 15.8515 32.8386 15.4717 32.9386 15.0541C33.0391 14.6348 33.0158 14.1955 32.8717 13.7892C32.7275 13.3829 32.4686 13.0271 32.1264 12.765C31.7956 12.5116 31.4007 12.3562 30.9866 12.3159L23.4941 11.206C23.4811 11.204 23.4681 11.2023 23.4551 11.2009C23.4513 11.2005 23.4478 11.1991 23.4448 11.1969C23.4417 11.1947 23.4394 11.1917 23.4378 11.1883C23.4317 11.1745 23.4253 11.1609 23.4186 11.1474L20.0158 4.27752C19.8367 3.89804 19.554 3.57672 19.2002 3.35067C18.8418 3.12168 18.4253 3 18 3Z" fill="#FFAB00"/>
</svg>
