<svg width="24" height="24" viewBox="0 0 24 24" fill="none" xmlns="http://www.w3.org/2000/svg">
<path d="M10.4706 13.9189H11.4331L10.9503 12.7962L10.4706 13.9189Z" fill="#C91C2E"/>
<path fill-rule="evenodd" clip-rule="evenodd" d="M6.75233 0H17.2477C22.1917 0 24 1.80834 24 6.75236V17.2478C24 22.1917 22.1884 24 17.2444 24H6.75233C1.80833 24 0 22.1917 0 17.2478V6.75236C0 1.80834 1.80833 0 6.75233 0ZM11.9999 8.00693C9.79721 8.00693 8.00505 6.21474 8.00505 4.01204H8.56942C8.56942 5.9036 10.1082 7.44258 11.9999 7.44258C13.8916 7.44258 15.4304 5.9036 15.4304 4.01204H15.9948C15.9948 6.21474 14.2026 8.00693 11.9999 8.00693ZM10.2336 14.4848L9.94811 15.1381H9.29809L10.6805 12.002H11.2421L12.6189 15.1381H11.9515L11.6695 14.4848H10.2336ZM20.6933 15.136H21.3216V12.002H20.6933V15.136ZM18.193 13.7893H19.3508V13.2182H18.193V12.5758H19.8738V12.004H17.5649V15.1378H19.9344V14.5662H18.193V13.7893ZM15.6967 14.1597L14.9843 12.0019H14.4649L13.7525 14.1597L13.0593 12.0034H12.3817L13.4754 15.1396H14.0023L14.7158 13.0796L15.429 15.1396H15.9607L17.0516 12.0034H16.3915L15.6967 14.1597ZM8.3391 13.798C8.3391 14.3082 8.08571 14.5807 7.62567 14.5807C7.1631 14.5807 6.90845 14.3005 6.90845 13.7763V12.0038H6.27181V13.798C6.27181 14.6807 6.76217 15.1868 7.61707 15.1868C8.48032 15.1868 8.97547 14.671 8.97547 13.772V12.0019H8.3391V13.798ZM4.75274 12.002H5.38912V15.1398H4.75274V13.8656H3.31501V15.1398H2.67839V12.002H3.31501V13.2678H4.75274V12.002Z" fill="#C91C2E"/>
</svg>
