<svg width="24" height="24" viewBox="0 0 24 24" fill="none" xmlns="http://www.w3.org/2000/svg">
<path fill-rule="evenodd" clip-rule="evenodd" d="M8.00925 5.40957C8.35814 5.159 8.43785 4.67303 8.18728 4.32413C7.93671 3.97523 7.45074 3.89553 7.10184 4.1461C6.14259 4.83502 5.36101 5.74228 4.82166 6.79293C4.28231 7.84358 4.00067 9.00748 4 10.1885C3.99976 10.618 4.34778 10.9665 4.77733 10.9667C5.20689 10.9669 5.55531 10.6189 5.55555 10.1894C5.55608 9.25514 5.77887 8.33444 6.20552 7.50333C6.63217 6.67221 7.25044 5.95453 8.00925 5.40957ZM8.30754 6.7002C9.28689 5.68317 10.6152 5.11182 12.0002 5.11182C13.3852 5.11182 14.7135 5.68317 15.6928 6.7002C16.6722 7.71722 17.2224 9.0966 17.2224 10.5349V14.5734C17.2224 14.8182 17.316 15.053 17.4827 15.2261C17.6494 15.3992 17.8755 15.4964 18.1113 15.4964C18.5408 15.4964 18.8891 15.858 18.8891 16.3041C18.8891 16.7502 18.5408 17.1118 18.1113 17.1118H5.8891C5.45955 17.1118 5.11133 16.7502 5.11133 16.3041C5.11133 15.858 5.45955 15.4964 5.8891 15.4964C6.12485 15.4964 6.35094 15.3992 6.51764 15.2261C6.68434 15.053 6.77799 14.8182 6.77799 14.5734V10.5349C6.77799 9.0966 7.32818 7.71722 8.30754 6.7002ZM15.8126 4.32413C16.0632 3.97523 16.5491 3.89553 16.898 4.1461C17.8573 4.83502 18.6389 5.74228 19.1782 6.79293C19.7176 7.84358 19.9992 9.00748 19.9999 10.1885C20.0001 10.618 19.6521 10.9665 19.2225 10.9667C18.793 10.9669 18.4446 10.6189 18.4443 10.1894C18.4438 9.25514 18.221 8.33444 17.7944 7.50333C17.3677 6.67221 16.7494 5.95453 15.9906 5.40957C15.6417 5.159 15.562 4.67303 15.8126 4.32413ZM10.8889 18.4443C10.4593 18.4443 10.1111 18.7926 10.1111 19.2221C10.1111 19.6517 10.4593 19.9999 10.8889 19.9999H13.1111C13.5406 19.9999 13.8888 19.6517 13.8888 19.2221C13.8888 18.7926 13.5406 18.4443 13.1111 18.4443H10.8889Z" fill="#11142D"/>
</svg>
