<svg width="24" height="24" viewBox="0 0 24 24" fill="none" xmlns="http://www.w3.org/2000/svg">
<path fill-rule="evenodd" clip-rule="evenodd" d="M15.0586 2.01934C15.37 1.97689 15.6869 2.00453 15.9862 2.10024C16.2856 2.19596 16.5597 2.35734 16.7887 2.57259C16.7946 2.57822 16.8005 2.58395 16.8064 2.58976L21.0101 6.79346C21.0159 6.79928 21.0216 6.80518 21.0272 6.81117C21.2425 7.04013 21.4039 7.31428 21.4996 7.61359C21.5953 7.9129 21.6229 8.22982 21.5805 8.54119C21.538 8.85255 21.4265 9.1505 21.2542 9.41325C21.0841 9.67254 20.859 9.8911 20.5949 10.0534L16.5907 12.6372L15.2771 18.1393L15.2736 18.1532C15.2049 18.4197 15.0686 18.6639 14.8779 18.8623C14.6871 19.0607 14.4484 19.2064 14.1848 19.2855C13.9213 19.3646 13.6417 19.3743 13.3733 19.3137C13.1049 19.2531 12.8566 19.1242 12.6526 18.9395C12.6426 18.9305 12.6328 18.9212 12.6233 18.9116L4.56019 10.8354C4.36616 10.6346 4.22867 10.3861 4.16148 10.115C4.0943 9.84399 4.09987 9.56002 4.17765 9.29183C4.25542 9.02363 4.40264 8.78074 4.60441 8.5877C4.80618 8.39466 5.05534 8.25832 5.32671 8.19247L5.34144 8.18904L10.9085 6.94917L13.5503 2.99871C13.7122 2.73732 13.9293 2.5144 14.1866 2.34565C14.4493 2.17329 14.7473 2.0618 15.0586 2.01934ZM15.4989 3.62421C15.4266 3.60109 15.35 3.59442 15.2748 3.60467C15.1996 3.61493 15.1276 3.64186 15.0642 3.68349C15.0007 3.72513 14.9473 3.78041 14.908 3.84532C14.9019 3.85541 14.8955 3.86536 14.889 3.87517L12.0603 8.10506C11.9459 8.27609 11.77 8.39649 11.5692 8.44122L5.7293 9.74186L13.7249 17.7505L15.109 11.9533C15.1568 11.7528 15.2802 11.5786 15.4533 11.4668L19.7356 8.70367C19.7419 8.69964 19.7482 8.6957 19.7545 8.69185C19.8194 8.65249 19.8747 8.59912 19.9163 8.53565C19.958 8.47218 19.9849 8.40021 19.9952 8.32501C20.0054 8.2498 19.9987 8.17324 19.9756 8.10094C19.9535 8.03166 19.9167 7.96795 19.8679 7.91409L15.6857 3.73188C15.6319 3.6831 15.5682 3.64637 15.4989 3.62421Z" fill="#11142D"/>
<path fill-rule="evenodd" clip-rule="evenodd" d="M9.71973 13.8367C10.0333 14.148 10.0351 14.6545 9.72386 14.9681L4.36775 20.3635C4.05647 20.6771 3.54994 20.6789 3.23639 20.3676C2.92283 20.0564 2.92098 19.5498 3.23225 19.2363L8.58837 13.8409C8.89964 13.5273 9.40617 13.5255 9.71973 13.8367Z" fill="#11142D"/>
</svg>
