<svg width="24" height="24" viewBox="0 0 24 24" fill="none" xmlns="http://www.w3.org/2000/svg">
<path fill-rule="evenodd" clip-rule="evenodd" d="M9.23072 3.79971C7.76079 3.79971 6.56918 4.99132 6.56918 6.46125C6.56918 7.93117 7.76079 9.12278 9.23072 9.12278C10.7006 9.12278 11.8923 7.93117 11.8923 6.46125C11.8923 4.99132 10.7006 3.79971 9.23072 3.79971ZM4.96918 6.46125C4.96918 4.10766 6.87714 2.19971 9.23072 2.19971C11.5843 2.19971 13.4923 4.10766 13.4923 6.46125C13.4923 8.81483 11.5843 10.7228 9.23072 10.7228C6.87714 10.7228 4.96918 8.81483 4.96918 6.46125Z" fill="black"/>
<path fill-rule="evenodd" clip-rule="evenodd" d="M11.6469 14.0439C10.8212 13.6378 9.90594 13.4477 8.98676 13.4912C8.06758 13.5347 7.17442 13.8105 6.39072 14.2927C5.60701 14.775 4.95833 15.4481 4.50526 16.249C4.06166 17.0332 3.81976 17.915 3.80082 18.8151H11.3076C11.7495 18.8151 12.1076 19.1733 12.1076 19.6151C12.1076 20.057 11.7495 20.4151 11.3076 20.4151H2.99995C2.78778 20.4151 2.58429 20.3309 2.43427 20.1808C2.28424 20.0308 2.19995 19.8273 2.19995 19.6151V18.8561C2.21239 17.6656 2.52642 16.4976 3.11263 15.4613C3.69884 14.4249 4.53815 13.5541 5.55216 12.9301C6.56617 12.3061 7.7218 11.9493 8.9111 11.893C10.1004 11.8367 11.2846 12.0827 12.353 12.6081C12.7495 12.8031 12.9128 13.2826 12.7178 13.6791C12.5229 14.0755 12.0434 14.2389 11.6469 14.0439Z" fill="black"/>
<path fill-rule="evenodd" clip-rule="evenodd" d="M16.8461 11.892C17.2879 11.892 17.6461 12.2502 17.6461 12.692V20.9997C17.6461 21.4415 17.2879 21.7997 16.8461 21.7997C16.4043 21.7997 16.0461 21.4415 16.0461 20.9997V12.692C16.0461 12.2502 16.4043 11.892 16.8461 11.892Z" fill="black"/>
<path fill-rule="evenodd" clip-rule="evenodd" d="M11.8923 16.8459C11.8923 16.404 12.2504 16.0459 12.6923 16.0459H21C21.4418 16.0459 21.8 16.404 21.8 16.8459C21.8 17.2877 21.4418 17.6459 21 17.6459H12.6923C12.2504 17.6459 11.8923 17.2877 11.8923 16.8459Z" fill="black"/>
</svg>
