<svg width="16" height="16" viewBox="0 0 16 16" fill="none" xmlns="http://www.w3.org/2000/svg">
<path fill-rule="evenodd" clip-rule="evenodd" d="M6.1111 15.1942C6.1111 14.7492 6.45933 14.3885 6.88888 14.3885H9.1111C9.54066 14.3885 9.88888 14.7492 9.88888 15.1942C9.88888 15.6393 9.54066 16 9.1111 16H6.88888C6.45933 16 6.1111 15.6393 6.1111 15.1942Z" fill="#FFAB00"/>
<path fill-rule="evenodd" clip-rule="evenodd" d="M4.30733 2.73568C5.28668 1.72109 6.61498 1.15111 8 1.15111C9.38501 1.15111 10.7133 1.72109 11.6927 2.73568C12.672 3.75027 13.2222 5.12634 13.2222 6.56118V10.59C13.2222 10.8342 13.3159 11.0684 13.4826 11.2411C13.6493 11.4138 13.8754 11.5108 14.1111 11.5108C14.5407 11.5108 14.8889 11.8716 14.8889 12.3166C14.8889 12.7616 14.5407 13.1223 14.1111 13.1223H1.88888C1.45933 13.1223 1.11111 12.7616 1.11111 12.3166C1.11111 11.8716 1.45933 11.5108 1.88888 11.5108C2.12463 11.5108 2.35072 11.4138 2.51742 11.2411C2.68412 11.0684 2.77777 10.8342 2.77777 10.59V6.56118C2.77777 5.12634 3.32797 3.75027 4.30733 2.73568ZM4.16598 11.5108H11.834C11.7245 11.2201 11.6667 10.9081 11.6667 10.59V6.56118C11.6667 5.55374 11.2804 4.58756 10.5927 3.87519C9.90509 3.16282 8.97246 2.76262 8 2.76262C7.02753 2.76262 6.0949 3.16282 5.40727 3.87519C4.71964 4.58756 4.33333 5.55374 4.33333 6.56118V10.59C4.33333 10.9081 4.27554 11.2201 4.16598 11.5108Z" fill="#FFAB00"/>
<path fill-rule="evenodd" clip-rule="evenodd" d="M4.18729 0.335793C4.43787 0.697242 4.35816 1.20069 4.00926 1.46028C3.25045 2.02485 2.63218 2.76835 2.20553 3.62936C1.77888 4.49038 1.55608 5.44419 1.55556 6.41203C1.55531 6.85704 1.20689 7.21758 0.777337 7.21733C0.347783 7.21708 -0.000243142 6.85613 1.27456e-07 6.41112C0.000668974 5.18763 0.282311 3.98186 0.821663 2.89341C1.36101 1.80495 2.1426 0.865058 3.10185 0.151355C3.45075 -0.108232 3.93672 -0.0256565 4.18729 0.335793Z" fill="#FFAB00"/>
<path fill-rule="evenodd" clip-rule="evenodd" d="M11.8127 0.335793C12.0633 -0.0256565 12.5492 -0.108232 12.8981 0.151355C13.8574 0.865058 14.639 1.80495 15.1783 2.89341C15.7177 3.98186 15.9993 5.18763 16 6.41112C16.0002 6.85613 15.6522 7.21708 15.2227 7.21733C14.7931 7.21758 14.4447 6.85704 14.4444 6.41203C14.4439 5.4442 14.2211 4.49038 13.7945 3.62936C13.3678 2.76835 12.7496 2.02485 11.9907 1.46028C11.6418 1.20069 11.5621 0.697242 11.8127 0.335793Z" fill="#FFAB00"/>
</svg>
