<svg width="24" height="24" viewBox="0 0 24 24" fill="none" xmlns="http://www.w3.org/2000/svg">
<path d="M23.4017 6.1C23.2687 5.56667 23.0028 5.1 22.6039 4.76667C22.205 4.43333 21.7396 4.1 21.2742 3.96667C19.4792 3.5 11.9668 3.5 11.9668 3.5C11.9668 3.5 4.45429 3.5 2.5928 4.03333C2.06094 4.16667 1.59557 4.43333 1.26316 4.83333C0.864266 5.23333 0.598338 5.7 0.465374 6.16667C0.132964 8.03333 0 9.96667 0 11.9C0 13.8333 0.132964 15.7667 0.531856 17.7C0.66482 18.2333 0.930748 18.7 1.32964 19.0333C1.72853 19.4333 2.19391 19.7 2.65928 19.8333C4.45429 20.3 11.9668 20.3 11.9668 20.3C11.9668 20.3 19.4792 20.3 21.3407 19.7667C21.8726 19.6333 22.3379 19.3667 22.6704 18.9667C23.0028 18.5667 23.3352 18.1 23.4681 17.6333C23.8006 15.7 24 13.7667 24 11.8333C23.9335 9.96667 23.8006 8.03333 23.4017 6.1Z" fill="#11142D"/>
<path d="M9.57349 8.30005V15.5L15.7563 11.9L9.57349 8.30005Z" fill="white"/>
</svg>
