<svg width="24" height="24" viewBox="0 0 24 24" fill="none" xmlns="http://www.w3.org/2000/svg">
<path fill-rule="evenodd" clip-rule="evenodd" d="M12 14.2768C12.4418 14.2768 12.8 14.6349 12.8 15.0768V19.9999C12.8 20.4417 12.4418 20.7999 12 20.7999C11.5581 20.7999 11.2 20.4417 11.2 19.9999V15.0768C11.2 14.6349 11.5581 14.2768 12 14.2768Z" fill="black"/>
<path fill-rule="evenodd" clip-rule="evenodd" d="M6.89214 20C6.89214 19.5581 7.25031 19.2 7.69214 19.2H16.3075C16.7494 19.2 17.1075 19.5581 17.1075 20C17.1075 20.4418 16.7494 20.8 16.3075 20.8H7.69214C7.25031 20.8 6.89214 20.4418 6.89214 20Z" fill="black"/>
<path fill-rule="evenodd" clip-rule="evenodd" d="M3.19995 3.99995C3.19995 3.55812 3.55812 3.19995 3.99995 3.19995H7.69226C7.90443 3.19995 8.10792 3.28424 8.25794 3.43427C8.40797 3.58429 8.49226 3.78778 8.49226 3.99995V11.3846C8.49226 11.8264 8.13409 12.1846 7.69226 12.1846H6.99995C4.90127 12.1846 3.19995 10.4832 3.19995 8.38457V3.99995ZM4.79995 4.79995V8.38457C4.79995 9.56348 5.72725 10.5258 6.89226 10.582V4.79995H4.79995Z" fill="black"/>
<path fill-rule="evenodd" clip-rule="evenodd" d="M20.7999 3.99995C20.7999 3.55812 20.4418 3.19995 20 3.19995H16.3076C16.0955 3.19995 15.892 3.28424 15.742 3.43427C15.5919 3.58429 15.5076 3.78778 15.5076 3.99995V11.3846C15.5076 11.8264 15.8658 12.1846 16.3076 12.1846H16.9999C19.0986 12.1846 20.7999 10.4832 20.7999 8.38457V3.99995ZM19.2 4.79995V8.38457C19.2 9.56348 18.2726 10.5258 17.1076 10.582V4.79995H19.2Z" fill="black"/>
<path fill-rule="evenodd" clip-rule="evenodd" d="M6.89214 3.99995C6.89214 3.55812 7.25043 3.19995 7.69226 3.19995H16.3076C16.7495 3.19995 17.1075 3.55812 17.1075 3.99995V10.7692C17.1075 13.5901 14.8207 15.8769 11.9998 15.8769C9.17893 15.8769 6.89214 13.5901 6.89214 10.7692V3.99995ZM8.49214 4.79995V10.7692C8.49214 12.7064 10.0627 14.2768 12 14.2768C13.9372 14.2768 15.5075 12.7064 15.5075 10.7692V4.79995H8.49214Z" fill="black"/>
</svg>
