<svg width="24" height="24" viewBox="0 0 24 24" fill="none" xmlns="http://www.w3.org/2000/svg">
<path fill-rule="evenodd" clip-rule="evenodd" d="M4.38383 2.2002C3.18785 2.2002 2.19922 3.18883 2.19922 4.38481V14.0771C2.19922 15.2731 3.18785 16.2617 4.38383 16.2617H7.73767V19.6152C7.73767 20.8112 8.7263 21.7998 9.92229 21.7998H19.6146C20.8211 21.7998 21.7992 20.8217 21.7992 19.6152V9.9229C21.7992 8.72691 20.8106 7.73828 19.6146 7.73828H16.2608V4.38481C16.2608 3.18883 15.2721 2.2002 14.0761 2.2002H4.38383ZM15.436 9.33828C15.4442 9.33853 15.4525 9.33866 15.4608 9.33866C15.469 9.33866 15.4773 9.33853 15.4855 9.33828H19.6146C19.9269 9.33828 20.1992 9.61057 20.1992 9.9229V19.6152C20.1992 19.9381 19.9375 20.1998 19.6146 20.1998H9.92229C9.60996 20.1998 9.33767 19.9275 9.33767 19.6152V15.4658C9.33768 15.4644 9.33768 15.4631 9.33768 15.4617C9.33768 15.4604 9.33768 15.459 9.33767 15.4577V9.9229C9.33767 9.61057 9.60996 9.33828 9.92229 9.33828H15.436ZM14.6608 7.73828V4.38481C14.6608 4.07248 14.3885 3.8002 14.0761 3.8002H4.38383C4.07151 3.8002 3.79922 4.07248 3.79922 4.38481V14.0771C3.79922 14.3894 4.07151 14.6617 4.38383 14.6617H7.73767V9.9229C7.73767 8.72691 8.7263 7.73828 9.92229 7.73828H14.6608Z" fill="white"/>
</svg>
