<svg width="16" height="16" viewBox="0 0 16 16" fill="none" xmlns="http://www.w3.org/2000/svg">
<path fill-rule="evenodd" clip-rule="evenodd" d="M1 14.5C1 14.2239 1.24251 14 1.54167 14H13.4583C13.7575 14 14 14.2239 14 14.5C14 14.7761 13.7575 15 13.4583 15H1.54167C1.24251 15 1 14.7761 1 14.5Z" fill="#11142D"/>
<path d="M12.4215 1C12.2644 1 12.1089 1.03137 11.9642 1.09226C11.8203 1.15277 11.69 1.24123 11.5806 1.35249L5.10608 7.79322C5.05802 7.84104 5.02314 7.90047 5.00486 7.96575L4.01456 11.5012C3.97628 11.6379 4.01472 11.7846 4.11511 11.8849C4.2155 11.9853 4.36223 12.0237 4.49894 11.9854L8.03572 10.9955C8.10102 10.9772 8.16047 10.9424 8.20831 10.8943L14.6513 4.42226L14.6523 4.42119C14.7623 4.31186 14.8497 4.18189 14.9093 4.03875C14.9692 3.89514 15 3.7411 15 3.58552C15 3.42995 14.9692 3.27591 14.9093 3.1323C14.8497 2.98915 14.7623 2.85918 14.6523 2.74984L14.6513 2.74879L13.2631 1.35331C13.1536 1.24166 13.0229 1.15292 12.8787 1.09226C12.734 1.03137 12.5785 1 12.4215 1Z" fill="#11142D"/>
</svg>
