<svg width="24" height="24" viewBox="0 0 24 24" fill="none" xmlns="http://www.w3.org/2000/svg">
<path fill-rule="evenodd" clip-rule="evenodd" d="M7.49995 4.79995C7.26872 4.79995 7.07134 4.87666 6.94674 4.97889C6.82659 5.07748 6.79995 5.17331 6.79995 5.23072V18.3087L11.4925 14.4584C11.7875 14.2164 12.2124 14.2164 12.5074 14.4584L17.2 18.3087V5.23072C17.2 5.17331 17.1733 5.07748 17.0532 4.97889C16.9286 4.87666 16.7312 4.79995 16.5 4.79995H7.49995ZM5.93184 3.74198C6.36986 3.38258 6.93553 3.19995 7.49995 3.19995H16.5C17.0644 3.19995 17.63 3.38258 18.0681 3.74198C18.5105 4.10502 18.8 4.63529 18.8 5.23072V20C18.8 20.3093 18.6216 20.5909 18.342 20.7231C18.0624 20.8554 17.7316 20.8146 17.4925 20.6184L12 16.1117L6.5074 20.6184C6.26828 20.8146 5.93748 20.8554 5.65787 20.7231C5.37826 20.5909 5.19995 20.3093 5.19995 20V5.23072C5.19995 4.63529 5.48938 4.10502 5.93184 3.74198Z" fill="#11142D"/>
</svg>
