<svg width="37" height="37" viewBox="0 0 37 37" fill="none" xmlns="http://www.w3.org/2000/svg">
<path d="M15.3276 0.00146484L14.2341 0.00596503L12.8615 0.0194656L11.8955 0.0389664L11.2805 0.0569672L10.3984 0.0944687L9.83891 0.12447L9.29889 0.161972L8.77987 0.205473L8.28034 0.256475C5.66874 0.550488 3.88066 1.18051 2.53061 2.53057C1.18055 3.88063 0.550523 5.6702 0.256511 8.28031L0.207009 8.77983L0.162007 9.29735L0.124505 9.83737L0.0930039 10.3984L0.0690029 10.9804L0.048002 11.5849L0.0315013 12.212L0.0210009 12.8615L0.00600025 14.2326L0.00150006 15.3276L0 20.2973L0.00600025 21.7674L0.0195008 23.1399L0.0390016 24.106L0.0570024 24.721L0.0945039 25.603L0.124505 26.1626L0.162007 26.7026L0.205509 27.2216L0.256511 27.7211C0.550523 30.3327 1.18055 32.1208 2.53061 33.4709C3.88066 34.8209 5.67024 35.4509 8.28034 35.745L8.77987 35.7945L9.29739 35.8395L9.83741 35.877L10.3984 35.9085L10.9805 35.9325L11.585 35.9535L12.212 35.97L12.8615 35.9805L14.2326 35.9955L15.3276 36L20.2973 36.0015L21.7674 35.9955L23.14 35.982L24.106 35.9625L24.721 35.9445L25.6031 35.907L26.1626 35.877L26.7026 35.8395L27.2216 35.796L27.7212 35.745C30.3328 35.4509 32.1208 34.8209 33.4709 33.4709C34.8209 32.1208 35.451 30.3312 35.745 27.7211L35.7945 27.2216L35.8395 26.7041L35.877 26.1641L35.9085 25.603L35.9325 25.021L35.9535 24.4165L35.97 23.7895L35.9805 23.1399L35.9955 21.7689L36 20.6738L36.0015 15.7041L35.9955 14.2341L35.982 12.8615L35.9625 11.8955L35.9445 11.2804L35.907 10.3984L35.877 9.83887L35.8395 9.29885L35.796 8.77983L35.745 8.28031C35.451 5.6687 34.8209 3.88063 33.4709 2.53057C32.1208 1.18051 30.3313 0.550488 27.7212 0.256475L27.2216 0.206973L26.7041 0.161972L26.1641 0.12447L25.6031 0.0929687L25.021 0.0689677L24.4165 0.0479668L23.7895 0.0314661L23.14 0.0209657L21.7689 0.00596503L20.6739 0.00146484H15.3276Z" fill="#11142D"/>
<path d="M19.0508 25.5026H19.5008V20.1024C22.5009 20.4024 24.751 22.6525 25.6511 25.5026H30.0012C28.8012 21.3024 25.8011 18.9023 23.851 18.0023C25.8011 16.9522 28.5012 14.2521 29.1012 10.502H25.201C24.301 13.5021 21.9009 16.2022 19.5008 16.5022V10.502H15.6006V20.8524C13.2005 20.2524 10.2004 17.4022 10.0504 10.502H6.00024C6.15025 19.8023 10.8004 25.5026 19.0508 25.5026Z" fill="white"/>
</svg>
