<svg width="24" height="24" viewBox="0 0 24 24" fill="none" xmlns="http://www.w3.org/2000/svg">
<path fill-rule="evenodd" clip-rule="evenodd" d="M3.99995 3.19971C4.44178 3.19971 4.79995 3.55788 4.79995 3.99971V19.1997H20C20.4418 19.1997 20.7999 19.5579 20.7999 19.9997C20.7999 20.4415 20.4418 20.7997 20 20.7997H3.99995C3.55812 20.7997 3.19995 20.4415 3.19995 19.9997V3.99971C3.19995 3.55788 3.55812 3.19971 3.99995 3.19971Z" fill="#11142D"/>
<path fill-rule="evenodd" clip-rule="evenodd" d="M14.7 7.49971C14.7 7.05788 15.0581 6.69971 15.5 6.69971H19.5C19.9418 6.69971 20.3 7.05788 20.3 7.49971V11.4997C20.3 11.9415 19.9418 12.2997 19.5 12.2997C19.0581 12.2997 18.7 11.9415 18.7 11.4997V8.29971H15.5C15.0581 8.29971 14.7 7.94154 14.7 7.49971Z" fill="#11142D"/>
<path fill-rule="evenodd" clip-rule="evenodd" d="M20.0656 6.93402C20.3781 7.24644 20.3781 7.75297 20.0656 8.06539L14.41 13.7211C14.167 13.9592 13.8402 14.0926 13.5 14.0926C13.1597 14.0926 12.833 13.9592 12.59 13.721L12.5842 13.7154L10.5 11.6311L7.56564 14.5654C7.25322 14.8778 6.74669 14.8778 6.43427 14.5654C6.12185 14.253 6.12185 13.7464 6.43427 13.434L9.58992 10.2784C9.83293 10.0402 10.1597 9.90678 10.5 9.90678C10.8402 9.90678 11.1669 10.0402 11.41 10.2784L11.4157 10.284L13.5 12.3683L18.9343 6.93402C19.2467 6.6216 19.7532 6.6216 20.0656 6.93402Z" fill="#11142D"/>
</svg>
