<svg width="24" height="24" viewBox="0 0 24 24" fill="none" xmlns="http://www.w3.org/2000/svg">
<path fill-rule="evenodd" clip-rule="evenodd" d="M14.5761 3.16927C12.6662 2.61115 10.6268 2.68729 8.76383 3.38627C6.90084 4.08525 5.31468 5.3694 4.24325 7.04611C4.00534 7.41841 3.51067 7.52736 3.13836 7.28946C2.76606 7.05155 2.6571 6.55687 2.89501 6.18457C4.15278 4.21626 6.01479 2.70879 8.20178 1.88824C10.3888 1.0677 12.7828 0.978314 15.0249 1.6335C17.267 2.28868 19.2362 3.65312 20.6373 5.52216C22.0383 7.3912 22.7956 9.6641 22.7956 12C22.7956 14.3358 22.0383 16.6087 20.6373 18.4777C19.2363 20.3468 17.267 21.7112 15.0249 22.3664C12.7828 23.0216 10.3888 22.9322 8.20178 22.1117C6.01479 21.2911 4.15278 19.7836 2.89501 17.8153C2.6571 17.443 2.76606 16.9484 3.13836 16.7104C3.51067 16.4725 4.00535 16.5815 4.24325 16.9538C5.31468 18.6305 6.90084 19.9146 8.76383 20.6136C10.6268 21.3126 12.6662 21.3888 14.5761 20.8306C16.4861 20.2725 18.1636 19.1102 19.357 17.5181C20.5505 15.9259 21.1956 13.9898 21.1956 12C21.1956 10.0101 20.5505 8.07398 19.357 6.48183C18.1636 4.88969 16.4861 3.72739 14.5761 3.16927ZM10.665 8.35741C10.9774 8.04499 11.484 8.04498 11.7964 8.3574L14.8733 11.4343C15.0234 11.5843 15.1076 11.7878 15.1076 11.9999C15.1076 12.2121 15.0234 12.4156 14.8733 12.5656L11.7964 15.6426C11.484 15.955 10.9775 15.955 10.665 15.6426C10.3526 15.3302 10.3526 14.8237 10.665 14.5113L12.3763 12.8L1.99995 12.8C1.55812 12.8 1.19995 12.4418 1.19995 12C1.19995 11.5581 1.55812 11.2 1.99995 11.2L12.3762 11.2L10.665 9.48878C10.3526 9.17637 10.3526 8.66983 10.665 8.35741Z" fill="#409B89"/>
</svg>
