<svg width="48" height="48" viewBox="0 0 48 48" fill="none" xmlns="http://www.w3.org/2000/svg">
<path fill-rule="evenodd" clip-rule="evenodd" d="M20.6087 7.20251C24.2418 6.14087 28.121 6.2857 31.6648 7.61528C35.2085 8.94487 38.2257 11.3875 40.2637 14.5769C40.7098 15.275 40.5055 16.2025 39.8074 16.6486C39.1093 17.0947 38.1818 16.8904 37.7358 16.1923C36.0471 13.5497 33.5472 11.5257 30.6109 10.4241C27.6747 9.32244 24.4604 9.20243 21.4502 10.0821C18.44 10.9617 15.7961 12.7936 13.9151 15.303C12.0341 17.8123 11.0173 20.8639 11.0173 24C11.0173 27.1361 12.0341 30.1877 13.9151 32.697C15.7961 35.2064 18.44 37.0383 21.4502 37.9179C24.4604 38.7976 27.6747 38.6776 30.6109 37.5759C33.5472 36.4742 36.0471 34.4503 37.7358 31.8077C38.1818 31.1096 39.1093 30.9053 39.8074 31.3514C40.5055 31.7975 40.7098 32.725 40.2637 33.4231C38.2257 36.6125 35.2085 39.0551 31.6648 40.3847C28.121 41.7143 24.2418 41.8591 20.6087 40.7975C16.9757 39.7358 13.7848 37.525 11.5146 34.4964C9.24445 31.4679 8.01733 27.7849 8.01733 24C8.01733 20.215 9.24445 16.5321 11.5147 13.5036C13.7848 10.475 16.9757 8.26415 20.6087 7.20251ZM32.2259 18.0165C32.8116 17.4307 33.7614 17.4307 34.3472 18.0165L39.2703 22.9395C39.5516 23.2208 39.7096 23.6023 39.7096 24.0001C39.7096 24.3979 39.5516 24.7795 39.2703 25.0608L34.3472 29.984C33.7614 30.5697 32.8117 30.5698 32.2259 29.984C31.6401 29.3982 31.6401 28.4484 32.2259 27.8627L34.5883 25.5001L18.5173 25.5001C17.6889 25.5001 17.0173 24.8286 17.0173 24.0001C17.0173 23.1717 17.6889 22.5001 18.5173 22.5001L34.5882 22.5001L32.2259 20.1378C31.6401 19.552 31.6401 18.6023 32.2259 18.0165Z" fill="#409B89"/>
</svg>
