<svg width="24" height="24" viewBox="0 0 24 24" fill="none" xmlns="http://www.w3.org/2000/svg">
<path fill-rule="evenodd" clip-rule="evenodd" d="M8.45718 3.8C8.45718 3.35817 8.09901 3 7.65718 3C7.21535 3 6.85718 3.35817 6.85718 3.8V5.72871V7.65714C6.85718 8.09897 7.21535 8.45714 7.65718 8.45714C8.09901 8.45714 8.45718 8.09897 8.45718 7.65714V6.52871H14.0857C14.5276 6.52871 14.8857 6.17054 14.8857 5.72871C14.8857 5.28688 14.5276 4.92871 14.0857 4.92871H8.45718V3.8ZM3.61089 5.5396C4.00204 5.14846 4.53255 4.92871 5.08571 4.92871C5.52754 4.92871 5.88571 5.28688 5.88571 5.72871C5.88571 6.17054 5.52754 6.52871 5.08571 6.52871C4.95689 6.52871 4.83335 6.57988 4.74226 6.67097C4.65117 6.76206 4.6 6.88561 4.6 7.01443V9.42871H19.7143V7.01443C19.7143 6.88561 19.6631 6.76206 19.572 6.67097C19.4809 6.57988 19.3574 6.52871 19.2286 6.52871H17.4572V7.65714C17.4572 8.09897 17.099 8.45714 16.6572 8.45714C16.2154 8.45714 15.8572 8.09897 15.8572 7.65714V5.7363L15.8571 5.72871L15.8572 5.72112V3.8C15.8572 3.35817 16.2154 3 16.6572 3C17.099 3 17.4572 3.35817 17.4572 3.8V4.92871H19.2286C19.7817 4.92871 20.3122 5.14846 20.7034 5.5396C21.0945 5.93075 21.3143 6.46126 21.3143 7.01443V10.2287V19.2287C21.3143 19.7819 21.0945 20.3124 20.7034 20.7035C20.3122 21.0947 19.7817 21.3144 19.2286 21.3144H5.08571C4.53255 21.3144 4.00204 21.0947 3.61089 20.7035C3.21974 20.3124 3 19.7819 3 19.2287V10.2287V7.01443C3 6.46126 3.21974 5.93075 3.61089 5.5396ZM4.6 19.2287V11.0287H19.7143V19.2287C19.7143 19.3575 19.6631 19.4811 19.572 19.5722C19.4809 19.6633 19.3574 19.7144 19.2286 19.7144H5.08571C4.9569 19.7144 4.83335 19.6633 4.74226 19.5722C4.65117 19.4811 4.6 19.3575 4.6 19.2287Z" fill="#11142D"/>
</svg>
