<svg width="36" height="36" viewBox="0 0 36 36" fill="none" xmlns="http://www.w3.org/2000/svg">
<path d="M35.1025 9.15C34.903 8.35 34.5042 7.65 33.9058 7.15C33.3075 6.65 32.6094 6.15 31.9114 5.95C29.2188 5.25 17.9501 5.25 17.9501 5.25C17.9501 5.25 6.68144 5.25 3.8892 6.05C3.09141 6.25 2.39335 6.65 1.89474 7.25C1.2964 7.85 0.897507 8.55 0.698061 9.25C0.199446 12.05 0 14.95 0 17.85C0 20.75 0.199446 23.65 0.797784 26.55C0.99723 27.35 1.39612 28.05 1.99446 28.55C2.5928 29.15 3.29086 29.55 3.98892 29.75C6.68144 30.45 17.9501 30.45 17.9501 30.45C17.9501 30.45 29.2188 30.45 32.0111 29.65C32.8089 29.45 33.5069 29.05 34.0055 28.45C34.5042 27.85 35.0028 27.15 35.2022 26.45C35.7008 23.55 36 20.65 36 17.75C35.9003 14.95 35.7008 12.05 35.1025 9.15Z" fill="#11142D"/>
<path d="M14.3601 12.45V23.25L23.6343 17.85L14.3601 12.45Z" fill="white"/>
</svg>
