<svg width="24" height="24" viewBox="0 0 24 24" fill="none" xmlns="http://www.w3.org/2000/svg">
<path fill-rule="evenodd" clip-rule="evenodd" d="M13.5 6C13.5 5.2 12.8 4.5 12 4.5C11.2 4.5 10.5 5.2 10.5 6C10.5 6.8 11.2 7.5 12 7.5C12.8 7.5 13.5 6.8 13.5 6ZM12 10.5C12.8 10.5 13.5 11.2 13.5 12C13.5 12.8 12.8 13.5 12 13.5C11.2 13.5 10.5 12.8 10.5 12C10.5 11.2 11.2 10.5 12 10.5ZM12 16.5C12.8 16.5 13.5 17.2 13.5 18C13.5 18.8 12.8 19.5 12 19.5C11.2 19.5 10.5 18.8 10.5 18C10.5 17.2 11.2 16.5 12 16.5Z" fill="#11142D"/>
</svg>
