<svg width="24" height="24" viewBox="0 0 24 24" fill="none" xmlns="http://www.w3.org/2000/svg">
<path fill-rule="evenodd" clip-rule="evenodd" d="M11.855 2.55752C10.1848 2.55752 8.58302 3.221 7.40201 4.40201C6.221 5.58302 5.55752 7.18481 5.55752 8.855C5.55752 9.65147 5.93303 10.843 6.59144 12.2689C7.23609 13.6649 8.10238 15.1832 8.97868 16.596C9.85333 18.0061 10.7293 19.2972 11.3872 20.2366C11.5596 20.4828 11.7169 20.7045 11.855 20.8977C11.9932 20.7045 12.1504 20.4828 12.3228 20.2366C12.9807 19.2972 13.8567 18.0061 14.7313 16.596C15.6076 15.1832 16.4739 13.6649 17.1186 12.2689C17.777 10.843 18.1525 9.65147 18.1525 8.855C18.1525 7.18481 17.489 5.58302 16.308 4.40201C15.127 3.221 13.5252 2.55752 11.855 2.55752ZM11.855 22.2212C11.2316 22.688 11.2314 22.6878 11.2314 22.6878L11.2258 22.6802L11.2098 22.6588L11.1491 22.5768C11.0962 22.5052 11.0191 22.4002 10.9211 22.2655C10.7253 21.9962 10.4461 21.608 10.1115 21.1301C9.44262 20.1752 8.54949 18.8589 7.65509 17.4169C6.76233 15.9776 5.85955 14.3991 5.1774 12.9218C4.50902 11.4744 4 10.0163 4 8.855C4 6.77173 4.82758 4.77378 6.30068 3.30068C7.77378 1.82758 9.77173 1 11.855 1C13.9383 1 15.9362 1.82758 17.4093 3.30068C18.8824 4.77378 19.71 6.77173 19.71 8.855C19.71 10.0163 19.201 11.4744 18.5326 12.9218C17.8505 14.3991 16.9477 15.9776 16.0549 17.4169C15.1605 18.8589 14.2674 20.1752 13.5985 21.1301C13.2639 21.608 12.9847 21.9962 12.7889 22.2655C12.691 22.4002 12.6138 22.5052 12.5609 22.5768L12.5002 22.6588L12.4842 22.6802L12.4789 22.6873C12.4789 22.6873 12.4784 22.688 11.855 22.2212ZM11.855 22.2212L12.4789 22.6873C12.3318 22.8837 12.1003 23 11.855 23C11.6097 23 11.3785 22.8842 11.2314 22.6878L11.855 22.2212Z" fill="#11142D"/>
<path fill-rule="evenodd" clip-rule="evenodd" d="M11.8548 7.27477C10.9822 7.27477 10.2748 7.98216 10.2748 8.85476C10.2748 9.72736 10.9822 10.4347 11.8548 10.4347C12.7274 10.4347 13.4347 9.72736 13.4347 8.85476C13.4347 7.98216 12.7274 7.27477 11.8548 7.27477ZM8.71725 8.85476C8.71725 7.12196 10.122 5.71725 11.8548 5.71725C13.5876 5.71725 14.9923 7.12196 14.9923 8.85476C14.9923 10.5876 13.5876 11.9923 11.8548 11.9923C10.122 11.9923 8.71725 10.5876 8.71725 8.85476Z" fill="#11142D"/>
</svg>
