<svg width="36" height="36" viewBox="0 0 36 36" fill="none" xmlns="http://www.w3.org/2000/svg">
<path fill-rule="evenodd" clip-rule="evenodd" d="M10.3077 9C9.58547 9 9 9.58547 9 10.3077C9 11.0299 9.58547 11.6154 10.3077 11.6154C11.0299 11.6154 11.6154 11.0299 11.6154 10.3077C11.6154 9.58547 11.0299 9 10.3077 9ZM7 10.3077C7 8.4809 8.4809 7 10.3077 7C12.1345 7 13.6154 8.4809 13.6154 10.3077C13.6154 12.1345 12.1345 13.6154 10.3077 13.6154C8.4809 13.6154 7 12.1345 7 10.3077Z" fill="#11142D"/>
<path fill-rule="evenodd" clip-rule="evenodd" d="M11.6154 10.3077C11.6154 9.75541 12.0632 9.30754 12.6155 9.30754H28.0001C28.5524 9.30754 29.0001 9.75525 29.0001 10.3075C29.0001 10.8598 28.5524 11.3075 28.0001 11.3075H12.6155C12.0632 11.3075 11.6154 10.86 11.6154 10.3077Z" fill="#11142D"/>
<path fill-rule="evenodd" clip-rule="evenodd" d="M18.0002 16.6925C17.2779 16.6925 16.6925 17.2779 16.6925 18.0002C16.6925 18.7224 17.2779 19.3078 18.0002 19.3078C18.7224 19.3078 19.3078 18.7224 19.3078 18.0002C19.3078 17.2779 18.7224 16.6925 18.0002 16.6925ZM14.6925 18.0002C14.6925 16.1734 16.1734 14.6925 18.0002 14.6925C19.8269 14.6925 21.3078 16.1734 21.3078 18.0002C21.3078 19.8269 19.8269 21.3078 18.0002 21.3078C16.1734 21.3078 14.6925 19.8269 14.6925 18.0002Z" fill="#11142D"/>
<path fill-rule="evenodd" clip-rule="evenodd" d="M7 18C7 17.4477 7.44772 17 8 17H15.6923C16.2446 17 16.6925 17.4479 16.6925 18.0002C16.6925 18.5524 16.2446 19 15.6923 19H8C7.44772 19 7 18.5523 7 18Z" fill="#11142D"/>
<path fill-rule="evenodd" clip-rule="evenodd" d="M19.3078 18.0002C19.3078 17.4479 19.7553 17 20.3075 17H27.9998C28.5521 17 28.9998 17.4477 28.9998 18C28.9998 18.5523 28.5521 19 27.9998 19H20.3075C19.7553 19 19.3078 18.5524 19.3078 18.0002Z" fill="#11142D"/>
<path fill-rule="evenodd" clip-rule="evenodd" d="M25.6922 24.3845C24.97 24.3845 24.3845 24.97 24.3845 25.6922C24.3845 26.4144 24.97 26.9999 25.6922 26.9999C26.4144 26.9999 26.9999 26.4144 26.9999 25.6922C26.9999 24.97 26.4144 24.3845 25.6922 24.3845ZM22.3845 25.6922C22.3845 23.8654 23.8654 22.3845 25.6922 22.3845C27.519 22.3845 28.9999 23.8654 28.9999 25.6922C28.9999 27.519 27.519 28.9999 25.6922 28.9999C23.8654 28.9999 22.3845 27.519 22.3845 25.6922Z" fill="#11142D"/>
<path fill-rule="evenodd" clip-rule="evenodd" d="M7 25.6925C7 25.1402 7.44772 24.6925 8 24.6925H23.3846C23.9369 24.6925 24.3845 25.1399 24.3845 25.6922C24.3845 26.2445 23.9369 26.6925 23.3846 26.6925H8C7.44772 26.6925 7 26.2447 7 25.6925Z" fill="#11142D"/>
</svg>
