<svg width="150" height="150" viewBox="0 0 150 150" fill="none" xmlns="http://www.w3.org/2000/svg">
<rect width="150" height="150" fill="white"/>
<path d="M120.577 126.74C120.577 125.714 120.239 125.391 119.235 125.369C118.486 125.369 117.796 125.369 117.084 125.369C116.14 125.369 115.833 125.069 115.825 124.147C115.825 121.774 115.825 119.401 115.825 117.027C115.825 116.091 116.065 115.858 116.994 115.836C117.744 115.836 118.493 115.836 119.243 115.836C120.194 115.836 120.569 115.461 120.577 114.532C120.577 112.193 120.577 109.848 120.577 107.509C120.577 106.52 120.202 106.183 119.19 106.16C118.501 106.16 117.811 106.16 117.129 106.16C116.027 106.16 115.825 105.943 115.825 104.819C115.825 102.54 115.825 100.262 115.825 97.9836C115.825 96.8969 116.102 96.6271 117.227 96.6196H119.1C120.254 96.6196 120.562 96.3123 120.599 95.1956C120.599 94.6635 120.599 94.1313 120.599 93.6067C120.599 91.9879 120.442 91.823 118.838 91.823H103.264C103.017 91.823 102.762 91.823 102.515 91.823C102.358 91.8416 102.2 91.8235 102.051 91.77C101.903 91.7165 101.77 91.6291 101.661 91.5148C101.553 91.4005 101.472 91.2625 101.427 91.1117C101.381 90.961 101.371 90.8016 101.398 90.6464C101.398 89.7995 101.398 88.9601 101.398 88.1132C101.398 87.2663 101.773 87.004 102.575 86.989C103.377 86.974 104.074 86.989 104.823 86.989C105.85 86.989 106.142 86.6817 106.157 85.6325C106.157 84.9429 106.157 84.2534 106.157 83.5714C106.157 82.5447 106.502 82.1999 107.491 82.1774C108.241 82.1774 108.923 82.1774 109.642 82.1774C110.601 82.1774 110.924 82.5297 110.939 83.489C110.939 84.2385 110.939 85.0479 110.939 85.8273C110.939 86.6068 111.306 86.944 111.928 86.974C112.867 87.014 113.804 87.014 114.738 86.974C114.993 86.9748 115.239 86.8796 115.426 86.7074C115.614 86.5351 115.729 86.2985 115.75 86.0447C115.789 85.7667 115.802 85.4856 115.788 85.2053C115.788 83.0168 115.788 80.8359 115.788 78.6475C115.788 77.6882 116.057 77.4259 117.017 77.4109C117.766 77.4109 118.456 77.4109 119.168 77.4109C120.187 77.4109 120.517 77.0511 120.539 76.0618C120.539 75.3723 120.539 74.6828 120.539 74.0008C120.539 72.9216 120.202 72.5768 119.153 72.5693C113.687 72.5693 108.221 72.5693 102.754 72.5693C101.69 72.5693 101.36 72.9141 101.338 73.9708C101.338 74.7203 101.338 75.4698 101.338 76.2192C101.338 76.9687 100.978 77.3359 100.176 77.3809C99.869 77.3809 99.5542 77.3809 99.2395 77.3809C97.2159 77.3809 95.1849 77.3809 93.1538 77.3809C92.0821 77.3809 91.7898 77.6657 91.7673 78.685C91.7673 79.4344 91.7673 80.2438 91.7673 81.0233C91.7673 81.8027 92.0896 82.14 92.9215 82.1625C93.7534 82.1849 94.4879 82.1625 95.2673 82.1625C96.1817 82.1625 96.5039 82.5072 96.5189 83.414C96.5189 84.6057 96.5189 85.7898 96.5189 86.974C96.5189 88.1581 96.5189 89.4097 96.5189 90.6314C96.5347 90.7727 96.5205 90.9158 96.4773 91.0514C96.4341 91.1869 96.3627 91.3118 96.268 91.4178C96.1732 91.5239 96.0571 91.6088 95.9273 91.667C95.7975 91.7252 95.6569 91.7554 95.5146 91.7556C95.2974 91.7668 95.0798 91.7668 94.8626 91.7556C92.6142 91.7556 90.4258 91.7556 88.2074 91.7556C87.2781 91.7556 86.9633 92.0853 86.9408 92.9922C86.9408 93.7416 86.9408 94.4911 86.9408 95.2405C86.9408 96.1849 87.2931 96.5221 88.2449 96.5446C88.9943 96.5446 89.7438 96.5446 90.4933 96.5446C91.3851 96.5446 91.7074 96.8969 91.7449 97.8037C91.7449 97.9911 91.7449 98.1784 91.7449 98.3658V113.925C91.7449 114.112 91.7449 114.299 91.7449 114.487C91.6999 115.326 91.3626 115.671 90.5382 115.723C90.2909 115.723 90.0436 115.723 89.7888 115.723C87.6603 115.723 85.5393 115.723 83.4108 115.723C82.5115 115.723 82.1218 116.076 82.1068 116.945C82.1068 119.321 82.1068 121.689 82.1068 124.065C82.1068 124.934 82.5115 125.301 83.3959 125.324C84.1453 125.324 84.8273 125.324 85.5468 125.324C86.6036 125.324 86.9408 124.964 86.9483 123.907C86.9483 123.158 86.9483 122.349 86.9483 121.569C86.9391 121.435 86.9574 121.301 87.0021 121.174C87.0468 121.048 87.117 120.932 87.2083 120.834C87.2996 120.735 87.4101 120.657 87.533 120.603C87.6558 120.549 87.7884 120.521 87.9226 120.52C88.1722 120.505 88.4225 120.505 88.6721 120.52C90.823 120.52 92.9815 120.52 95.1324 120.52C96.1967 120.52 96.5114 120.19 96.5264 119.111C96.5264 118.361 96.5264 117.612 96.5264 116.863C96.5264 116.113 96.8787 115.791 97.6356 115.768C98.3926 115.746 99.1945 115.768 99.9739 115.768C101.001 115.768 101.285 116.068 101.3 117.117C101.3 117.867 101.3 118.556 101.3 119.276C101.3 120.168 101.668 120.497 102.575 120.52C103.257 120.52 103.946 120.52 104.636 120.52C105.812 120.52 106.075 120.25 106.09 119.088C106.09 118.339 106.09 117.589 106.09 116.84C106.09 116.091 106.457 115.783 107.214 115.761C107.971 115.738 108.9 115.761 109.739 115.761C110.579 115.761 110.856 116.076 110.856 116.825C110.856 119.298 110.856 121.766 110.856 124.23C110.867 124.363 110.851 124.498 110.808 124.624C110.765 124.751 110.697 124.868 110.607 124.967C110.517 125.066 110.407 125.146 110.285 125.201C110.163 125.256 110.031 125.285 109.897 125.286C109.615 125.301 109.332 125.301 109.05 125.286H93.6935C93.4386 125.286 93.1913 125.286 92.944 125.286C92.1346 125.339 91.8273 125.639 91.8048 126.463C91.7823 127.288 91.8048 128.082 91.8048 128.899C91.8048 129.716 92.1121 130.038 93.0189 130.083C93.2363 130.083 93.4536 130.083 93.671 130.083H116.814C117.624 130.083 118.441 130.083 119.25 130.083C120.284 130.083 120.562 129.768 120.577 128.719C120.592 128.119 120.592 127.422 120.577 126.74ZM109.582 111.002C105.707 111.002 101.84 111.002 97.9729 111.002C96.9086 111.002 96.6014 110.694 96.5939 109.6C96.5939 105.763 96.5939 101.926 96.5939 98.0885C96.5939 96.9493 96.9011 96.642 98.0328 96.642C101.87 96.642 105.707 96.642 109.545 96.642C110.669 96.642 110.961 96.9493 110.961 98.141C110.961 100.045 110.961 101.948 110.961 103.852C110.961 105.755 110.961 107.719 110.961 109.653C110.977 109.836 110.952 110.02 110.887 110.192C110.823 110.364 110.721 110.52 110.589 110.648C110.457 110.775 110.298 110.872 110.124 110.931C109.95 110.989 109.764 111.009 109.582 110.987V111.002Z" fill="#11142D"/>
<path d="M15.015 95.4579C15.0675 96.2073 15.3897 96.5596 16.1167 96.5896C16.9861 96.5896 17.8629 96.5896 18.7398 96.5896C18.8819 96.5977 19.0242 96.5768 19.158 96.5282C19.2918 96.4796 19.4143 96.4043 19.5181 96.3068C19.6219 96.2094 19.7047 96.0918 19.7616 95.9613C19.8185 95.8309 19.8482 95.6902 19.849 95.5478C19.8682 95.2983 19.8682 95.0478 19.849 94.7983V86.0896C19.849 85.1827 19.849 84.2759 19.849 83.3766C19.849 82.4772 20.1713 82.2299 20.9807 82.2074C21.7901 82.1849 22.667 82.2074 23.5064 82.2074C23.6484 82.1972 23.791 82.2179 23.9243 82.2679C24.0576 82.3179 24.1786 82.3961 24.2789 82.4971C24.3792 82.5981 24.4565 82.7196 24.5056 82.8533C24.5547 82.987 24.5743 83.1297 24.5631 83.2716C24.5631 83.489 24.5631 83.7138 24.5631 83.9312C24.5631 86.0821 24.5631 88.2406 24.5631 90.3915C24.5631 91.4557 24.9304 91.8155 25.9646 91.838C26.6466 91.838 27.3361 91.838 28.0256 91.838C29.0224 91.838 29.3822 91.4557 29.4047 90.4739C29.4047 89.7245 29.4047 88.9151 29.4047 88.1356C29.3859 87.9871 29.4009 87.8363 29.4484 87.6944C29.496 87.5524 29.5749 87.423 29.6792 87.3157C29.7836 87.2085 29.9109 87.1261 30.0515 87.0747C30.192 87.0233 30.3424 87.0043 30.4914 87.0189C31.3308 87.0189 32.1777 87.0189 33.0171 87.0189C33.8565 87.0189 34.0813 87.3487 34.1188 88.1056C34.1188 88.4804 34.1188 88.8551 34.1188 89.2298C34.1188 91.2309 34.1188 93.232 34.1188 95.2255C34.1188 96.2298 34.486 96.5746 35.4753 96.597C36.2248 96.597 36.9742 96.597 37.7237 96.597C38.6155 96.597 38.9378 96.2223 38.9603 95.3155C38.9603 94.566 38.9603 93.8165 38.9603 93.0671C38.9603 92.1303 39.2526 91.8604 40.2044 91.838C40.9538 91.838 41.6434 91.838 42.3628 91.838C43.3821 91.838 43.7568 91.4333 43.7793 90.3915C43.7793 89.642 43.7793 88.9525 43.7793 88.2406C43.7793 87.3037 44.0791 87.0189 45.0309 87.0189C47.3393 87.0189 49.6551 87.0189 51.9634 87.0189C52.9827 87.0189 53.2975 87.3412 53.32 88.3605C53.32 89.1099 53.32 89.8594 53.32 90.6088C53.2982 90.7741 53.3146 90.9421 53.3677 91.1001C53.4208 91.2581 53.5093 91.4018 53.6264 91.5204C53.7435 91.6389 53.8862 91.7292 54.0435 91.7842C54.2008 91.8393 54.3686 91.8576 54.5341 91.838C55.3435 91.838 56.1604 91.838 56.9698 91.838C57.7793 91.838 58.079 91.4258 58.1015 90.6388C58.124 89.8519 58.1015 89.2673 58.1015 88.5778C58.1015 87.3112 58.3863 87.0264 59.6004 87.0264H66.3456C67.2899 87.0264 67.6946 86.6592 67.7021 85.7448C67.7021 83.3765 67.7021 81.0033 67.7021 78.625C67.7021 77.7931 67.3049 77.4483 66.473 77.4183C65.6411 77.3884 64.9741 77.4183 64.2246 77.4183C63.2054 77.4183 62.8831 77.7481 62.8681 78.7599C62.8681 79.4719 62.8681 80.1913 62.8681 80.9108C62.8681 81.8701 62.5833 82.1549 61.654 82.1699C60.9045 82.1699 60.0876 82.1699 59.3082 82.1699C58.5287 82.1699 58.1165 81.8551 58.0865 80.9933C58.0566 80.1314 58.0865 79.4269 58.0865 78.6474C58.0865 77.868 58.4463 77.4708 59.2932 77.4483C60.1401 77.4258 60.8595 77.4483 61.639 77.4483C62.4184 77.4483 62.8756 77.0586 62.8981 76.1742C62.8981 75.4248 62.8981 74.7353 62.8981 74.0158C62.8981 72.9515 63.2129 72.6518 64.3071 72.6368H66.2707C67.3574 72.6368 67.6646 72.959 67.6871 74.0308C67.6871 74.7802 67.6871 75.5971 67.6871 76.3766C67.6745 76.5105 67.6902 76.6457 67.7332 76.7732C67.7762 76.9007 67.8456 77.0177 67.9367 77.1166C68.0279 77.2156 68.1389 77.2943 68.2624 77.3475C68.386 77.4008 68.5194 77.4275 68.6539 77.4258C69.5901 77.4745 70.5282 77.4745 71.4644 77.4258C71.5989 77.4249 71.7318 77.397 71.8553 77.3438C71.9788 77.2905 72.0903 77.213 72.1832 77.1159C72.2762 77.0187 72.3487 76.9039 72.3965 76.7782C72.4442 76.6525 72.4662 76.5185 72.4612 76.3841C72.4612 76.1368 72.4612 75.8894 72.4612 75.6346C72.4612 73.4837 72.4612 71.3252 72.4612 69.1743C72.4612 68.185 72.7685 67.8927 73.7428 67.8777C74.4922 67.8777 75.2417 67.8777 75.9912 67.8777C76.868 67.8777 77.2353 67.473 77.2653 66.5961C77.2952 65.7192 77.2653 65.0372 77.2653 64.2578C77.2653 63.4784 76.8605 63.0362 75.9612 63.0362C73.6229 63.0362 71.2796 63.0362 68.9312 63.0362C68.0169 63.0362 67.6871 63.3659 67.6646 64.2653C67.6646 65.0148 67.6646 65.8317 67.6646 66.6111C67.6646 67.3905 67.2824 67.8102 66.458 67.8402C65.6336 67.8702 64.8991 67.8402 64.1197 67.8402C63.3403 67.8402 63.0255 67.413 63.0255 66.5287C63.0255 64.1903 63.0255 61.8445 63.0255 59.5062C63.0255 58.5544 63.3627 58.2321 64.337 58.2171C65.0865 58.2171 65.8959 58.2171 66.6754 58.2171C66.8251 58.2351 66.977 58.2198 67.1201 58.1724C67.2633 58.125 67.3943 58.0467 67.5038 57.9429C67.6132 57.8392 67.6985 57.7126 67.7535 57.5722C67.8085 57.4317 67.8319 57.2809 67.822 57.1304C67.8745 56.2568 67.8745 55.3809 67.822 54.5073C67.822 53.7578 67.3948 53.4805 66.6529 53.4356C66.4056 53.4356 66.1582 53.4356 65.9034 53.4356H45.5705C45.3209 53.4202 45.0707 53.4202 44.8211 53.4356C44.6877 53.4287 44.5545 53.4504 44.4303 53.4993C44.306 53.5481 44.1936 53.623 44.1007 53.7188C44.0077 53.8146 43.9363 53.9291 43.8912 54.0548C43.8461 54.1804 43.8284 54.3143 43.8393 54.4473C43.7993 55.3517 43.7993 56.2585 43.8393 57.1679C43.8393 57.9173 44.169 58.1497 44.9035 58.2021C45.1508 58.2021 45.4057 58.2021 45.653 58.2021H56.4302C56.6798 58.1872 56.9301 58.1872 57.1797 58.2021C57.3138 58.1985 57.4472 58.2232 57.5711 58.2747C57.695 58.3262 57.8066 58.4033 57.8986 58.5009C57.9906 58.5986 58.0609 58.7146 58.1049 58.8414C58.1489 58.9681 58.1657 59.1027 58.154 59.2364C58.154 61.7321 58.154 64.2353 58.154 66.731C58.1701 66.8674 58.1568 67.0056 58.1149 67.1364C58.073 67.2671 58.0035 67.3874 57.9111 67.489C57.8188 67.5906 57.7057 67.6712 57.5795 67.7253C57.4533 67.7794 57.317 67.8058 57.1797 67.8027C56.9301 67.8177 56.6798 67.8177 56.4302 67.8027C54.2718 67.8027 52.1208 67.8027 49.9624 67.8027C48.8981 67.8027 48.5909 68.14 48.5759 69.2192C48.5759 69.9087 48.5759 70.5907 48.5759 71.2802C48.5759 72.2321 48.9506 72.5768 49.8874 72.5993C50.6369 72.5993 51.4463 72.5993 52.2257 72.5993C53.0052 72.5993 53.3724 72.9665 53.3799 73.7685C53.3799 76.1667 53.3799 78.57 53.3799 80.9783C53.3799 81.7952 53.0502 82.1249 52.2407 82.1324C49.8075 82.1324 47.3717 82.1324 44.9335 82.1324C44.1166 82.1324 43.8767 81.8701 43.8468 81.0532C43.8168 80.2363 43.8468 79.5543 43.8468 78.8048C43.8468 77.7406 43.487 77.3884 42.4378 77.3884C40.1594 77.3884 37.8811 77.3884 35.6027 77.3884C34.5385 77.3884 34.1937 77.7331 34.1712 78.7823C34.1712 79.5318 34.1712 80.2813 34.1712 81.0307C34.1712 81.7802 33.9014 82.11 33.107 82.1324C32.3126 82.1549 31.4207 82.1324 30.5813 82.1324C29.7419 82.1324 29.4721 81.8327 29.4496 80.9783C29.4271 80.1239 29.4496 79.4194 29.4496 78.64C29.4496 77.7481 29.0674 77.4033 28.1755 77.3809C27.4261 77.3809 26.6766 77.3809 25.9272 77.3809C24.9753 77.3809 24.6606 77.0361 24.6456 76.0618C24.6456 75.3423 24.6456 74.6228 24.6456 73.9034C24.6456 72.9366 24.9828 72.6218 25.9496 72.6068C26.6991 72.6068 27.3811 72.6068 28.1006 72.6068C29.0974 72.6068 29.4271 72.247 29.4496 71.2353C29.4496 70.5757 29.4496 69.9237 29.4496 69.2642C29.4496 68.125 29.1348 67.8177 28.0032 67.8102C25.7548 67.8102 23.5064 67.8102 21.258 67.8102H20.8833C20.1713 67.8777 19.894 68.155 19.8415 68.882C19.8415 69.0993 19.8415 69.3167 19.8415 69.534V75.6571C19.8415 77.156 19.6092 77.4108 18.1253 77.4108C17.5332 77.4108 16.9411 77.4108 16.349 77.4108C15.3747 77.4108 15.0525 77.7556 15.0225 78.6999V95.0906C15.015 95.2105 15.0075 95.3379 15.015 95.4579Z" fill="#11142D"/>
<path d="M15.0226 47.5524C15.0163 47.6935 15.0392 47.8344 15.0899 47.9663C15.1406 48.0981 15.218 48.2181 15.3172 48.3187C15.4164 48.4193 15.5353 48.4983 15.6664 48.5509C15.7975 48.6034 15.9381 48.6284 16.0793 48.6241C16.2966 48.6241 16.5215 48.6241 16.7388 48.6241H46.9121C47.1616 48.6433 47.4121 48.6433 47.6616 48.6241C47.9143 48.6127 48.1531 48.5058 48.3299 48.3249C48.5066 48.144 48.608 47.9026 48.6134 47.6498C48.6246 47.4301 48.6246 47.21 48.6134 46.9903V16.712C48.6134 16.5247 48.6134 16.3373 48.6134 16.1499C48.6258 16.0008 48.6056 15.8508 48.5544 15.7102C48.5031 15.5696 48.4219 15.4418 48.3165 15.3357C48.211 15.2295 48.0838 15.1475 47.9436 15.0953C47.8033 15.043 47.6534 15.0219 47.5042 15.0332C47.2569 15.0332 47.0096 15.0332 46.7547 15.0332H16.7763C16.5515 15.0332 16.3341 15.0332 16.1168 15.0332C15.9687 15.0288 15.8212 15.0553 15.6839 15.1111C15.5467 15.1669 15.4225 15.2507 15.3195 15.3572C15.2165 15.4638 15.1369 15.5906 15.0858 15.7297C15.0346 15.8688 15.0131 16.017 15.0226 16.1649C15.0226 16.3523 15.0226 16.5397 15.0226 16.727V46.9903C15.0151 47.1776 15.0076 47.365 15.0226 47.5524ZM20.0215 20.0546C20.696 19.8448 42.5053 19.7923 43.6745 20.0546C43.7447 20.3478 43.7923 20.646 43.8169 20.9465C43.8169 28.1963 43.8169 35.4411 43.8169 42.6809C43.8169 43.7076 43.6969 43.8275 42.7002 43.8275H20.9658C20.6311 43.8032 20.2982 43.7582 19.969 43.6926C19.7741 42.1712 19.8416 20.7217 20.0215 20.0546Z" fill="#11142D"/>
<path d="M134.981 16.8246C134.981 16.5773 134.981 16.3225 134.981 16.0751C134.98 15.8065 134.874 15.549 134.687 15.3562C134.5 15.1635 134.245 15.0505 133.977 15.0409C133.76 15.0297 133.542 15.0297 133.325 15.0409H103.054C102.835 15.0296 102.614 15.0296 102.395 15.0409C102.128 15.0468 101.875 15.1567 101.688 15.3473C101.502 15.5378 101.398 15.7937 101.398 16.0602C101.398 16.2775 101.398 16.4948 101.398 16.7122V46.8855C101.398 47.0354 101.398 47.1928 101.398 47.3502C101.435 48.257 101.758 48.5943 102.642 48.6317H133.28C133.53 48.6467 133.78 48.6467 134.029 48.6317C134.282 48.6223 134.522 48.5172 134.7 48.3377C134.878 48.1582 134.981 47.9177 134.989 47.6649C135.004 47.4153 135.004 47.1651 134.989 46.9155L134.981 16.8246ZM130.125 42.4862C130.125 42.8609 130.125 43.2356 130.072 43.7228C129.615 43.7677 129.278 43.8277 128.948 43.8277H107.394C107.206 43.8277 107.019 43.8277 106.832 43.8277C106.745 43.8277 106.66 43.8106 106.58 43.7774C106.501 43.7441 106.428 43.6954 106.368 43.6341C106.307 43.5727 106.259 43.5 106.227 43.42C106.195 43.34 106.178 43.2544 106.179 43.1682C106.179 42.9508 106.179 42.7335 106.179 42.5086C106.179 35.3988 106.179 28.2814 106.179 21.1565C106.179 20.7893 106.239 20.407 106.277 19.9499C108.3 19.8374 110.257 19.9049 112.205 19.8974C114.154 19.8899 116.14 19.8974 118.111 19.8974H129.997C130.059 20.2821 130.099 20.6699 130.117 21.0591C130.117 24.5565 130.117 28.054 130.117 31.5515L130.125 42.4862Z" fill="#11142D"/>
<path d="M46.8447 101.386C36.8169 101.386 26.7916 101.386 16.7688 101.386C16.5814 101.386 16.3941 101.386 16.2067 101.386C15.3673 101.431 15.0525 101.761 15.0151 102.615V133.253C15.0001 133.503 15.0001 133.753 15.0151 134.003C15.031 134.254 15.138 134.491 15.3159 134.669C15.4939 134.847 15.7307 134.954 15.9819 134.97C16.2315 134.985 16.4817 134.985 16.7313 134.97H46.8222C48.4261 134.97 48.6209 134.782 48.6209 133.216V103.162C48.6209 101.574 48.4261 101.386 46.8447 101.386ZM43.8468 128.787C43.8468 129.176 43.7944 129.574 43.7494 130.076H19.984C19.933 129.768 19.898 129.458 19.8791 129.146C19.8791 121.807 19.8791 114.469 19.8791 107.135C19.89 106.908 19.915 106.683 19.954 106.46C20.3737 106.07 20.8309 106.183 21.2581 106.183H41.2987C41.8233 106.183 42.3554 106.183 42.8875 106.183C43.637 106.183 43.7869 106.37 43.8169 107.15C43.8169 107.3 43.8169 107.457 43.8169 107.614C43.8219 114.674 43.8219 121.732 43.8169 128.787H43.8468Z" fill="#11142D"/>
<path d="M80.8552 125.369C80.1657 125.369 79.4837 125.369 78.7942 125.369C77.715 125.369 77.4302 125.062 77.4227 123.952C77.4227 122.641 77.4227 121.329 77.4227 120.018C77.4227 117.455 77.4227 114.899 77.4227 112.336C77.4227 111.324 77.0629 110.987 76.0736 110.972C75.3242 110.972 74.5747 110.972 73.8253 110.972C73.0758 110.972 72.6486 110.627 72.6186 109.773C72.6186 109.151 72.6186 108.521 72.6186 107.899C72.6186 106.438 72.8585 106.198 74.2824 106.19C74.942 106.19 75.594 106.19 76.2535 106.19C77.003 106.19 77.4002 105.823 77.4302 105.044C77.4601 104.264 77.4302 103.357 77.4302 102.51C77.4434 102.36 77.4229 102.208 77.3703 102.066C77.3176 101.925 77.2341 101.796 77.1258 101.691C77.0175 101.585 76.887 101.505 76.7439 101.457C76.6008 101.408 76.4487 101.391 76.2985 101.409C73.8652 101.409 71.4295 101.409 68.9912 101.409C68.1743 101.409 67.867 101.746 67.8371 102.563C67.8071 103.38 67.8371 104.122 67.8371 104.901C67.8371 105.83 67.4998 106.138 66.593 106.153C65.8435 106.153 65.094 106.153 64.3446 106.153C63.4003 106.153 63.0405 106.55 63.0255 107.472C63.0255 108.221 63.0255 108.911 63.0255 109.63C63.0255 110.665 62.7182 110.972 61.6915 110.972C60.1926 110.972 58.6262 110.972 57.0973 110.972C56.2579 110.972 55.411 110.972 54.5716 110.972C54.4204 110.955 54.2673 110.971 54.1233 111.02C53.9793 111.07 53.848 111.15 53.739 111.256C53.63 111.362 53.5459 111.492 53.4929 111.634C53.4399 111.777 53.4192 111.929 53.4324 112.081C53.4324 112.328 53.4324 112.583 53.4324 112.83V129.506C53.4324 130.907 53.4324 132.316 53.4324 133.718C53.4324 134.625 53.7922 134.955 54.684 134.977C55.4335 134.977 56.1829 134.977 56.9324 134.977C57.8917 134.977 58.199 134.647 58.2215 133.665C58.2215 132.916 58.2215 132.227 58.2215 131.507C58.2215 130.54 58.5737 130.195 59.5106 130.173C60.26 130.173 61.0095 130.173 61.7589 130.173C62.6583 130.173 62.9881 130.54 63.003 131.44C63.003 132.189 63.003 132.938 63.003 133.688C63.003 134.625 63.3703 134.962 64.3221 134.977C65.0416 134.977 65.7611 134.977 66.4805 134.977C67.4623 134.977 67.8371 134.61 67.8446 133.613C67.8446 131.365 67.8446 129.056 67.8446 126.778C67.8446 125.721 67.4848 125.384 66.4281 125.369C65.6786 125.369 64.9292 125.369 64.1797 125.369C63.4302 125.369 63.0405 124.994 63.033 124.207C63.033 121.799 63.033 119.393 63.033 116.99C63.033 116.188 63.3253 115.851 64.0598 115.843C66.563 115.843 69.0587 115.843 71.5544 115.843C72.2289 115.843 72.5062 116.151 72.5662 116.818C72.5662 117.065 72.5662 117.312 72.5662 117.567V133.021C72.5662 133.238 72.5662 133.463 72.5662 133.68C72.6111 134.625 72.9484 134.97 73.8852 134.985C74.6047 134.985 75.3242 134.985 76.0437 134.985C77.0405 134.985 77.3852 134.64 77.4077 133.635C77.4077 132.924 77.4077 132.204 77.4077 131.485C77.4077 130.518 77.7374 130.195 78.7043 130.173C79.4537 130.173 80.2032 130.173 80.9526 130.173C81.8595 130.173 82.1368 129.881 82.1668 128.996C82.1967 128.112 82.1668 127.43 82.1668 126.651C82.1593 125.661 81.867 125.391 80.8552 125.369Z" fill="#11142D"/>
<path d="M56.8649 29.4228C56.1154 29.4228 55.306 29.4228 54.5265 29.4228C54.3772 29.4109 54.2271 29.4321 54.0869 29.4848C53.9467 29.5376 53.8199 29.6206 53.7154 29.7279C53.611 29.8352 53.5314 29.9643 53.4825 30.1058C53.4336 30.2474 53.4164 30.398 53.4323 30.547C53.4323 31.3939 53.4323 32.2332 53.4323 33.0801C53.4323 33.927 53.7771 34.2118 54.6015 34.2193C57.0073 34.2193 59.4055 34.2193 61.8113 34.2193C62.7107 34.2193 63.0179 33.8671 63.0404 32.9377C63.0404 32.1883 63.0404 31.5063 63.0404 30.7868C63.0404 29.7675 63.3552 29.4752 64.3969 29.4602C64.959 29.4602 65.5211 29.4602 66.0832 29.4602C67.5822 29.3703 67.8969 29.8275 67.837 31.169C67.837 31.8585 67.837 32.548 67.837 33.23C67.837 33.912 68.1517 34.1818 68.7513 34.2043C69.7156 34.2493 70.6824 34.2493 71.6517 34.2043C72.2513 34.2043 72.5286 33.8521 72.6035 33.245C72.6148 33.0253 72.6148 32.8052 72.6035 32.5855V26.1926C72.6035 24.881 72.8734 24.6262 74.2149 24.6262C76.8005 24.6262 79.3937 24.6262 81.9868 24.6262C83.2684 24.6262 84.55 24.6262 85.824 24.6262C86.626 24.6262 86.9932 24.259 86.9932 23.4795C86.9932 21.0463 86.9932 18.6105 86.9932 16.1723C86.9932 15.4228 86.596 15.0481 85.8165 15.0256C85.0371 15.0031 84.2577 15.0256 83.4782 15.0256C82.5564 15.0256 82.1817 15.4078 82.1592 16.3447C82.1592 17.0941 82.1592 17.7761 82.1592 18.4956C82.1592 19.5299 81.8594 19.8222 80.8101 19.8372C79.9408 19.8372 79.0639 19.8372 78.187 19.8372C75.1892 19.8372 72.1913 19.8372 69.1935 19.8372C68.0693 19.8372 67.8295 20.092 67.8145 21.2312C67.8145 21.9806 67.8145 22.6701 67.8145 23.3821C67.8145 24.244 67.4547 24.5738 66.6153 24.5962C65.7759 24.6187 65.049 24.5962 64.2695 24.5962C63.3627 24.5962 63.0479 24.259 63.0329 23.3371C63.0329 22.183 63.0329 21.0288 63.0329 19.8746C63.0329 18.7205 63.0329 17.4988 63.0329 16.3147C63.0329 15.3779 62.6657 15.0331 61.7139 15.0181C60.9944 15.0181 60.2749 15.0181 59.5554 15.0181C58.5736 15.0181 58.2064 15.3854 58.1839 16.3746C58.1839 17.1241 58.1839 17.8136 58.1839 18.5256C58.1839 19.5149 57.8841 19.8072 56.8948 19.8297C56.1454 19.8297 55.3959 19.8297 54.6465 19.8297C53.7696 19.8297 53.4548 20.1594 53.4323 21.0138C53.4098 21.8682 53.4323 22.5802 53.4323 23.3596C53.4323 24.259 53.7921 24.5962 54.6914 24.6187C55.4409 24.6187 56.2503 24.6187 57.0297 24.6187C57.8092 24.6187 58.1614 24.956 58.1839 25.7654C58.2064 26.5748 58.1839 27.3243 58.1839 28.1037C58.1464 29.1155 57.8541 29.4078 56.8649 29.4228Z" fill="#11142D"/>
<path d="M96.5565 57.0781C96.5565 57.8276 96.2417 58.1423 95.4622 58.1648C94.6828 58.1873 93.9034 58.1648 93.1239 58.1648C92.0672 58.1648 91.8498 57.94 91.8348 56.9057C91.8348 56.1563 91.8348 55.3468 91.8348 54.5674C91.8495 54.4089 91.8285 54.2491 91.7732 54.0998C91.718 53.9505 91.6299 53.8156 91.5156 53.7048C91.4012 53.5941 91.2635 53.5104 91.1125 53.4599C90.9615 53.4094 90.8012 53.3935 90.6432 53.4132C89.8937 53.4132 89.0843 53.4132 88.3049 53.4132C87.3456 53.4132 87.0083 53.758 86.9933 54.7098C86.9933 55.894 86.9933 57.0781 86.9933 58.2622C86.9933 59.4464 86.9933 60.5706 86.9933 61.7248C86.9933 62.6391 86.6636 62.9689 85.7642 62.9913C85.0148 62.9913 84.2053 62.9913 83.4259 62.9913C82.6465 62.9913 82.1968 63.3736 82.1893 64.1905C82.1593 66.5888 82.1593 68.992 82.1893 71.4003C82.1893 72.2247 82.594 72.5695 83.4259 72.5919C84.2578 72.6144 84.9923 72.5919 85.7717 72.5919C86.6711 72.5919 87.0008 72.2397 87.0233 71.3403C87.0233 70.5909 87.0233 69.774 87.0233 68.9945C87.0233 68.2151 87.3306 67.8703 88.155 67.8479C88.9794 67.8254 89.6539 67.8479 90.4034 67.8479C91.4376 67.8479 91.8199 67.4581 91.8423 66.4389C91.8423 65.6894 91.8423 64.9399 91.8423 64.1905C91.8423 63.441 92.1571 63.0513 92.9665 63.0363C93.776 63.0213 94.5929 63.0363 95.4023 63.0363C96.2117 63.0363 96.5415 63.3811 96.564 64.168C96.5864 64.9549 96.564 65.7344 96.564 66.5138C96.564 67.4731 96.2342 67.7954 95.2674 67.8104C94.5179 67.8104 93.7685 67.8104 93.019 67.8104C92.1196 67.8104 91.8348 68.1027 91.8124 68.987C91.7899 69.8714 91.8124 70.6134 91.8124 71.4228C91.8124 72.2322 92.1496 72.5845 93.0415 72.5919C95.4098 72.5919 97.7856 72.5919 100.154 72.5919C101.038 72.5919 101.383 72.2247 101.413 71.3254C101.413 70.5759 101.413 69.8864 101.413 69.1744C101.413 68.0952 101.668 67.8553 102.732 67.8404C103.422 67.8404 104.111 67.8404 104.793 67.8404C105.82 67.8404 106.15 67.4881 106.172 66.4988C106.172 65.7494 106.172 64.9999 106.172 64.2504C106.172 63.3286 105.835 63.0138 104.92 62.9988C104.171 62.9988 103.422 62.9988 102.672 62.9988C101.758 62.9988 101.428 62.6766 101.413 61.7697C101.398 60.8629 101.413 59.7762 101.413 58.7719C101.413 57.4303 101.413 56.0888 101.413 54.7473C101.413 53.788 101.046 53.4432 100.116 53.4207C99.3669 53.4207 98.6175 53.4207 97.868 53.4207C96.9312 53.4207 96.5864 53.788 96.564 54.7398C96.549 55.5192 96.5789 56.2987 96.5565 57.0781Z" fill="#11142D"/>
<path d="M32.9496 62.9988C32.2601 62.9988 31.5781 62.9988 30.8886 62.9988C29.7119 62.9988 29.3897 63.306 29.3897 64.4977V66.2889C29.3897 67.5255 29.7119 67.8478 30.941 67.8478C33.092 67.8478 35.2504 67.8478 37.4014 67.8478C38.6905 67.8478 39.0052 67.5255 39.0052 66.2514C39.0052 62.5041 39.0052 58.6968 39.0052 54.9196C39.0052 54.7697 39.0052 54.6123 39.0052 54.4549C39.0073 54.1864 38.9041 53.9278 38.7178 53.7345C38.5315 53.5411 38.2768 53.4285 38.0085 53.4206C37.7589 53.4057 37.5086 53.4057 37.259 53.4206H16.4989C15.3073 53.4206 15 53.7204 15 54.9196V61.5598C15 62.699 15.3223 63.0587 16.439 63.0587H27.9507C29.1124 63.0587 29.4496 62.729 29.4496 61.5598C29.4496 60.8103 29.4496 60.1208 29.4496 59.4088C29.4496 58.6968 29.7944 58.3071 30.5288 58.2771C31.2633 58.2472 32.2151 58.2771 33.0545 58.2771C33.8939 58.2771 34.1487 58.6444 34.1637 59.4613C34.1787 60.2782 34.1637 61.0202 34.1637 61.7996C34.1562 62.7065 33.8864 62.9838 32.9496 62.9988Z" fill="#11142D"/>
<path d="M133.437 82.1624C129.66 82.1624 125.883 82.1624 122.106 82.1624C121.978 82.1624 121.851 82.1624 121.731 82.1624C121.573 82.1522 121.414 82.1761 121.266 82.2327C121.118 82.2893 120.984 82.3771 120.873 82.4902C120.762 82.6034 120.677 82.7391 120.623 82.8882C120.569 83.0372 120.548 83.1961 120.562 83.3541C120.562 84.1635 120.562 84.9729 120.562 85.7823C120.562 86.5917 120.974 86.9964 121.866 87.0114C122.615 87.0114 123.365 87.0114 124.114 87.0114C125.013 87.0114 125.343 87.3487 125.366 88.2555C125.366 89.005 125.366 89.7545 125.366 90.5039C125.366 91.4407 125.74 91.793 126.685 91.823C127.434 91.823 128.116 91.823 128.836 91.823C129.892 91.823 130.117 92.0478 130.125 93.0896C130.125 95.3979 130.125 97.7087 130.125 100.022C130.125 101.064 129.833 101.341 128.791 101.364H127.944C125.95 101.364 123.949 101.364 121.948 101.364C120.899 101.364 120.569 101.708 120.554 102.773C120.554 103.522 120.554 104.212 120.554 104.931C120.554 105.778 120.921 106.108 121.753 106.153H133.37C133.557 106.164 133.745 106.164 133.932 106.153C134.074 106.158 134.215 106.134 134.346 106.081C134.478 106.029 134.597 105.949 134.695 105.847C134.793 105.745 134.869 105.623 134.917 105.49C134.965 105.357 134.985 105.215 134.974 105.073C134.974 104.856 134.974 104.639 134.974 104.421V83.7288C134.974 82.4997 134.652 82.1624 133.437 82.1624Z" fill="#11142D"/>
<path d="M86.9783 34.2418C86.9783 35.4635 86.9783 36.6776 86.9783 37.8917C86.9956 38.0399 86.9796 38.1902 86.9315 38.3315C86.8835 38.4728 86.8046 38.6016 86.7005 38.7085C86.5964 38.8155 86.4698 38.8979 86.3298 38.9498C86.1899 39.0016 86.0402 39.0217 85.8915 39.0084C85.6742 39.0084 85.4494 39.0084 85.232 39.0084H78.7642C77.7449 39.0084 77.4151 39.3382 77.3926 40.335C77.3926 41.0844 77.3926 41.7739 77.3926 42.4859C77.3926 43.4827 77.7599 43.8274 78.7567 43.8574C79.4687 43.8574 80.1881 43.8574 80.9076 43.8574C81.8969 43.8574 82.1292 44.0973 82.1442 45.0641C82.1442 45.8135 82.1442 46.6304 82.1442 47.4099C82.1442 48.1893 82.5489 48.5865 83.3883 48.609C84.2277 48.6315 84.9472 48.609 85.7267 48.609C86.6335 48.609 86.9633 48.2493 86.9857 47.3574C86.9857 46.608 86.9857 45.8585 86.9857 45.109C86.9857 44.1497 87.2705 43.8724 88.1999 43.8499C88.5147 43.8499 88.8219 43.8499 89.1367 43.8499C91.6174 43.9024 91.8947 43.8499 91.8123 41.2193C91.8123 40.8746 91.8123 40.5373 91.8123 40.1926C91.8123 39.3157 92.1271 39.0384 93.0189 39.0234C93.7684 39.0234 94.5178 39.0234 95.2673 39.0234C96.2116 39.0234 96.5564 38.6712 96.5639 37.7193C96.5639 35.376 96.5639 33.0352 96.5639 30.6969C96.5639 29.7601 96.2041 29.4228 95.2373 29.4153H88.3123C87.2855 29.4153 86.9708 29.7526 86.9558 30.7643C86.9708 31.9335 86.9783 33.0877 86.9783 34.2418Z" fill="#11142D"/>
<path d="M87.0083 84.5834C87.0083 82.6123 87.0083 80.6487 87.0083 78.6776C87.0083 77.7782 86.6636 77.426 85.7792 77.4035C85.0298 77.4035 84.2803 77.4035 83.5308 77.4035C82.534 77.4035 82.1893 77.7708 82.1593 78.7675C82.1593 79.517 82.1593 80.2665 82.1593 81.0159C82.1593 81.7654 81.897 82.1326 81.0426 82.1551C80.3831 82.1551 79.7311 82.1551 79.0715 82.1551C77.7 82.1551 77.4077 82.4399 77.4077 83.7814C77.4077 84.4634 77.4077 85.1529 77.4077 85.8424C77.4077 86.5319 77.033 86.9516 76.2386 86.9741C75.4441 86.9966 74.6722 86.9741 73.8928 86.9741C73.1133 86.9741 72.6486 87.3339 72.6112 88.2182C72.6112 88.7429 72.6112 89.275 72.6112 89.8071C72.6112 91.5833 72.6112 93.367 72.6112 95.1433C72.6112 96.2525 72.9559 96.5747 74.1101 96.5822C74.7621 96.5822 75.4217 96.5822 76.0737 96.5822C77.1304 96.5822 77.4602 96.2375 77.4752 95.1732C77.4752 94.4238 77.4752 93.6144 77.4752 92.8349C77.4752 92.0555 77.7974 91.8831 78.4645 91.8306C78.7118 91.8306 78.9591 91.8306 79.2139 91.8306H85.4869C86.7235 91.8306 87.0458 91.5009 87.0458 90.2868C87.0258 88.3881 87.0133 86.487 87.0083 84.5834Z" fill="#11142D"/>
<path d="M114.379 58.1799C113.629 58.1799 112.88 58.1799 112.13 58.1799C111.381 58.1799 111.013 57.8651 110.998 57.0332C110.983 56.2013 110.998 55.4068 110.998 54.5974C111.019 54.4406 111.004 54.2812 110.953 54.1313C110.903 53.9815 110.818 53.8452 110.707 53.733C110.595 53.6208 110.46 53.5357 110.31 53.4841C110.161 53.4326 110.001 53.4161 109.844 53.4358C109.095 53.4358 108.405 53.4358 107.686 53.4358C106.472 53.4358 106.187 53.7655 106.187 55.0096C106.187 56.0739 106.187 57.1381 106.187 58.1948C106.187 59.2516 106.187 60.3833 106.187 61.4775C106.187 62.7141 106.509 63.0439 107.686 63.0514C108.248 63.0514 108.81 63.0514 109.372 63.0514C110.691 62.9539 111.058 63.5235 110.983 64.6177C110.95 65.2718 110.95 65.9272 110.983 66.5813C110.983 67.4582 111.358 67.8404 112.228 67.8779C112.977 67.8779 113.726 67.8779 114.476 67.8779C115.435 67.8779 115.817 67.4582 115.825 66.4689C115.825 64.2205 115.825 61.9047 115.825 59.6263C115.802 58.5696 115.413 58.2023 114.379 58.1799Z" fill="#11142D"/>
<path d="M80.5704 106.145C79.9183 106.145 79.2588 106.145 78.6068 106.145C78.4413 106.125 78.2735 106.144 78.1162 106.199C77.9589 106.254 77.8162 106.344 77.6991 106.463C77.582 106.581 77.4935 106.725 77.4404 106.883C77.3872 107.041 77.3709 107.209 77.3926 107.374C77.3926 108.124 77.3926 108.873 77.3926 109.623C77.3926 110.679 77.7299 110.994 78.8166 110.994H85.5618C86.6785 110.994 87.0007 110.672 87.0007 109.548C87.0007 107.644 87.0007 105.74 87.0007 103.837C87.0007 101.836 87.0007 99.8422 87.0007 97.8411C87.0007 97.0242 86.6785 96.6195 85.9365 96.582C85.0328 96.5333 84.1271 96.5333 83.2234 96.582C83.0811 96.582 82.9403 96.6105 82.8091 96.6658C82.678 96.7212 82.5593 96.8023 82.4601 96.9043C82.3609 97.0063 82.2831 97.1272 82.2315 97.2598C82.1798 97.3924 82.1552 97.534 82.1592 97.6763C82.148 97.8935 82.148 98.1111 82.1592 98.3283C82.1592 100.419 82.1592 102.51 82.1592 104.601C82.1817 105.898 81.9119 106.205 80.5704 106.145Z" fill="#11142D"/>
<path d="M133.625 130.135C132.913 130.135 132.193 130.135 131.474 130.135C130.485 130.135 130.192 129.836 130.162 128.854C130.162 128.104 130.162 127.422 130.162 126.703C130.162 125.669 129.848 125.391 128.791 125.376C128.109 125.376 127.419 125.376 126.737 125.376C125.718 125.376 125.388 125.721 125.366 126.718C125.366 127.37 125.366 128.029 125.366 128.681C125.366 129.873 125.111 130.128 123.949 130.135C123.297 130.135 122.645 130.135 121.986 130.135C120.929 130.135 120.569 130.503 120.554 131.537C120.554 132.226 120.554 132.908 120.554 133.598C120.554 134.647 120.914 134.984 121.971 134.984H127.779C129.743 134.984 131.706 134.984 133.677 134.984C134.614 134.984 134.959 134.617 134.974 133.673C134.974 132.923 134.974 132.241 134.974 131.522C134.959 130.525 134.614 130.158 133.625 130.135Z" fill="#11142D"/>
<path d="M74.1026 58.2098C76.291 58.2098 78.4795 58.2098 80.6679 58.2098C80.8526 58.2212 81.0378 58.2212 81.2225 58.2098C81.837 58.1349 82.1443 57.8651 82.1668 57.2505C82.2018 56.3162 82.2018 55.3793 82.1668 54.44C82.1668 53.788 81.8146 53.5032 81.155 53.4357C80.9077 53.4357 80.6604 53.4357 80.4056 53.4357C79.7835 53.4357 79.1615 53.4357 78.5319 53.4357C77.7825 53.4357 77.4752 53.076 77.4227 52.334C77.4227 52.1167 77.4227 51.8919 77.4227 51.6745C77.4227 49.5535 77.4227 47.4251 77.4227 45.3041C77.4227 44.1724 77.1079 43.8801 75.9688 43.8651H74.0951C72.8885 43.8651 72.5962 44.1649 72.5962 45.364C72.5962 47.2752 72.5962 49.1788 72.5962 51.0824V56.7034C72.5812 57.9175 72.8585 58.2023 74.1026 58.2098Z" fill="#11142D"/>
<path d="M67.837 35.5687C67.837 34.6019 67.4248 34.2196 66.4505 34.1971C65.7985 34.1971 65.139 34.1971 64.4869 34.1971C63.3253 34.1971 62.988 34.5494 62.988 35.6961V41.4145C62.988 43.378 62.988 45.3491 62.988 47.3127C62.988 48.2271 63.3253 48.5868 64.2022 48.6093C65.079 48.6318 65.8285 48.6093 66.6379 48.6093C66.7957 48.625 66.955 48.6061 67.1047 48.5537C67.2544 48.5013 67.3908 48.4168 67.5044 48.3061C67.6179 48.1954 67.7059 48.0612 67.7621 47.9129C67.8182 47.7646 67.8413 47.6058 67.8295 47.4476C67.8408 47.2304 67.8408 47.0128 67.8295 46.7956V38.4691C67.8445 37.5023 67.8595 36.5355 67.837 35.5687Z" fill="#11142D"/>
<path d="M130.132 124.17C130.114 124.336 130.134 124.504 130.19 124.662C130.246 124.819 130.336 124.962 130.455 125.079C130.574 125.197 130.718 125.286 130.876 125.34C131.035 125.394 131.203 125.412 131.369 125.391C132.148 125.421 132.928 125.421 133.707 125.391C134.629 125.391 134.974 125.002 134.974 124.042C134.974 121.734 134.974 119.418 134.974 117.11C134.974 116.098 134.659 115.806 133.602 115.791C132.545 115.776 131.354 115.791 130.23 115.791C129.105 115.791 127.794 115.791 126.58 115.791C125.703 115.791 125.396 116.121 125.366 116.982C125.336 117.844 125.366 118.549 125.366 119.328C125.366 120.108 125.733 120.557 126.632 120.58C127.382 120.58 128.131 120.58 128.881 120.58C129.81 120.58 130.102 120.895 130.125 121.824C130.14 122.611 130.102 123.39 130.132 124.17Z" fill="#11142D"/>
<path d="M125.381 73.9261C125.381 74.6081 125.381 75.2976 125.381 75.9796C125.381 77.0888 125.718 77.4186 126.835 77.4261C127.951 77.4336 129.016 77.4261 130.11 77.4261C131.204 77.4261 132.418 77.4261 133.565 77.4261C134.711 77.4261 134.981 77.0813 134.989 76.0396C134.989 75.2901 134.989 74.6081 134.989 73.8961C134.989 72.9593 134.622 72.5995 133.677 72.592C131.339 72.592 129.001 72.592 126.662 72.592C125.718 72.5995 125.381 72.9668 125.381 73.9261Z" fill="#11142D"/>
<path d="M59.4281 96.5897C61.7964 96.5897 64.1647 96.5897 66.533 96.5897C67.4173 96.5897 67.7771 96.2225 67.8146 95.3381C67.8146 94.5886 67.8146 93.8392 67.8146 93.0897C67.8146 92.1529 67.4398 91.8156 66.488 91.8006C65.3338 91.8006 64.1797 91.8006 63.033 91.8006C61.8863 91.8006 60.5972 91.8006 59.3831 91.8006C58.5512 91.8006 58.184 92.1679 58.154 92.9923C58.124 93.8167 58.154 94.5512 58.154 95.3306C58.154 96.11 58.5662 96.5897 59.4281 96.5897Z" fill="#11142D"/>
<path d="M58.1915 40.1701C58.1915 39.3681 57.8317 39.0459 57.0373 39.0234C56.2429 39.0009 55.4185 39.0234 54.609 39.0234C53.7996 39.0234 53.4324 39.3906 53.4324 40.23C53.4324 42.6283 53.4324 45.0266 53.4324 47.4248C53.4324 48.2567 53.8071 48.6015 54.654 48.624C55.5009 48.6465 56.1529 48.624 56.9024 48.624C57.9367 48.624 58.214 48.3317 58.2289 47.2675C58.2439 46.2032 58.2289 45.0191 58.2289 43.9024C58.199 42.6808 58.214 41.4142 58.1915 40.1701Z" fill="#11142D"/>
<path d="M58.1914 97.8037C58.1914 96.9568 57.8317 96.6046 57.0073 96.5746C56.1829 96.5446 55.3885 96.5746 54.579 96.5746C53.7696 96.5746 53.4174 96.9643 53.4099 97.7362C53.4099 100.164 53.4099 102.593 53.4099 105.021C53.4099 105.83 53.7471 106.145 54.5566 106.175C55.366 106.205 56.1154 106.175 56.8949 106.175C57.9067 106.175 58.184 105.898 58.1989 104.901C58.1989 103.747 58.1989 102.593 58.1989 101.446C58.1989 100.299 58.2139 99.0178 58.1914 97.8037Z" fill="#11142D"/>
<path d="M53.4323 93.1345C53.4323 92.1377 53.0801 91.8154 52.0608 91.808C50.9067 91.808 49.7525 91.808 48.6058 91.808C47.4591 91.808 46.2975 91.808 45.1508 91.808C44.0041 91.808 43.8392 92.0853 43.8242 93.157C43.8242 93.9064 43.8242 94.6559 43.8242 95.4054C43.8242 96.1548 44.1615 96.597 45.0234 96.597C47.4217 96.597 49.8199 96.597 52.2182 96.597C53.0426 96.597 53.3949 96.2223 53.4248 95.3829C53.4548 94.5435 53.4323 93.884 53.4323 93.1345Z" fill="#11142D"/>
<path d="M95.4022 43.8426C94.5928 43.8126 93.7833 43.8126 92.9739 43.8426C92.0896 43.8426 91.8048 44.1424 91.7973 45.0417C91.7973 47.44 91.7973 49.8383 91.7973 52.2366C91.7973 53.061 92.1645 53.4132 93.0039 53.4357C93.8433 53.4582 94.5028 53.4357 95.2523 53.4357C96.2416 53.4357 96.5788 53.061 96.5863 52.0567C96.5863 50.9025 96.5863 49.7558 96.5863 48.6017C96.5863 47.4475 96.5863 46.2334 96.5863 45.0492C96.5713 44.1799 96.2716 43.8651 95.4022 43.8426Z" fill="#11142D"/>
<path d="M88.0575 77.4111C88.9569 77.4561 89.8637 77.4561 90.7631 77.4111C90.9054 77.4134 91.0466 77.3863 91.1779 77.3316C91.3092 77.2768 91.4278 77.1955 91.5263 77.0928C91.6248 76.9901 91.701 76.8682 91.7502 76.7347C91.7995 76.6012 91.8206 76.459 91.8123 76.3169C91.8573 75.4475 91.8573 74.5782 91.8123 73.7088C91.819 73.5588 91.794 73.409 91.7387 73.2694C91.6834 73.1297 91.5992 73.0034 91.4916 72.8986C91.384 72.7938 91.2554 72.713 91.1144 72.6615C90.9733 72.6099 90.8229 72.5888 90.6731 72.5996C89.8038 72.5996 88.9344 72.5546 88.065 72.5996C87.9156 72.5912 87.7661 72.6153 87.6268 72.6704C87.4876 72.7254 87.362 72.81 87.2587 72.9183C87.1554 73.0266 87.0768 73.1561 87.0284 73.2977C86.98 73.4394 86.9629 73.5899 86.9783 73.7388C86.9783 74.1435 86.9783 74.5482 86.9783 74.9529V76.2569C87.0233 76.9839 87.3455 77.3736 88.0575 77.4111Z" fill="#11142D"/>
<path d="M124.174 63.0062C123.365 63.0062 122.555 63.0062 121.746 63.0062C121.589 62.9866 121.431 63.0022 121.281 63.0519C121.132 63.1015 120.995 63.184 120.882 63.2932C120.768 63.4024 120.681 63.5356 120.625 63.683C120.57 63.8304 120.548 63.9884 120.562 64.1453C120.527 64.9847 120.527 65.8241 120.562 66.6635C120.547 66.8204 120.567 66.9787 120.62 67.1271C120.673 67.2755 120.757 67.4106 120.868 67.5227C120.979 67.6349 121.113 67.7214 121.26 67.7762C121.408 67.8311 121.566 67.8529 121.723 67.8402C122.563 67.8802 123.402 67.8802 124.241 67.8402C124.991 67.8402 125.343 67.413 125.388 66.6411C125.388 66.2363 125.388 65.8316 125.388 65.4269C125.388 65.0222 125.388 64.6175 125.388 64.2128C125.381 63.3809 124.991 63.0212 124.174 63.0062Z" fill="#11142D"/>
<path d="M76.3209 34.2043C75.4216 34.1594 74.5147 34.2043 73.6154 34.2043C73.4803 34.2023 73.3462 34.2275 73.2212 34.2785C73.0961 34.3294 72.9826 34.4051 72.8874 34.501C72.7922 34.5968 72.7174 34.7109 72.6674 34.8363C72.6173 34.9618 72.5931 35.0961 72.5961 35.2311C72.5474 36.1623 72.5474 37.0954 72.5961 38.0266C72.5961 38.6786 73.0308 38.9934 73.7128 39.0309C74.1175 39.0309 74.5222 39.0309 74.9269 39.0309C75.3316 39.0309 75.7963 39.0309 76.231 39.0309C76.388 39.0506 76.5474 39.0349 76.6974 38.9848C76.8475 38.9347 76.9844 38.8516 77.0981 38.7415C77.2117 38.6315 77.2992 38.4973 77.3541 38.3489C77.409 38.2005 77.4298 38.0417 77.4151 37.8842C77.4526 37.0448 77.4526 36.1979 77.4151 35.3585C77.4291 35.2085 77.4109 35.0573 77.3617 34.915C77.3125 34.7727 77.2335 34.6425 77.1299 34.5332C77.0262 34.4239 76.9005 34.338 76.761 34.2813C76.6214 34.2246 76.4714 34.1983 76.3209 34.2043Z" fill="#11142D"/>
<path d="M124.227 120.565C123.387 120.53 122.548 120.53 121.708 120.565C121.552 120.55 121.393 120.571 121.246 120.625C121.098 120.68 120.964 120.767 120.854 120.879C120.744 120.992 120.661 121.128 120.61 121.277C120.56 121.426 120.543 121.585 120.562 121.741C120.562 122.551 120.562 123.36 120.562 124.17C120.562 124.979 120.951 125.361 121.768 125.391C122.585 125.421 123.387 125.391 124.197 125.391C125.006 125.391 125.358 124.994 125.396 124.162C125.396 123.757 125.396 123.353 125.396 122.948C125.396 122.543 125.396 122.139 125.396 121.734C125.336 120.962 124.999 120.625 124.227 120.565Z" fill="#11142D"/>
<path d="M134.974 59.2964C134.982 59.155 134.961 59.0134 134.912 58.8804C134.864 58.7474 134.788 58.6258 134.69 58.5232C134.593 58.4206 134.475 58.3392 134.344 58.284C134.214 58.2288 134.074 58.2009 133.932 58.2022C133.031 58.1535 132.128 58.1535 131.226 58.2022C131.084 58.2002 130.943 58.2267 130.811 58.2802C130.679 58.3337 130.559 58.4132 130.459 58.5138C130.358 58.6144 130.279 58.7342 130.225 58.866C130.172 58.9979 130.145 59.1391 130.147 59.2814C130.102 60.1808 130.102 61.0876 130.147 61.987C130.146 62.129 130.174 62.2697 130.23 62.4003C130.285 62.531 130.368 62.6486 130.471 62.7458C130.575 62.843 130.697 62.9176 130.831 62.9651C130.965 63.0125 131.107 63.0316 131.249 63.0212C132.148 63.0212 133.048 63.0587 133.947 63.0212C134.081 63.0232 134.214 62.9985 134.338 62.9484C134.462 62.8984 134.575 62.824 134.669 62.7298C134.764 62.6355 134.84 62.5233 134.891 62.3996C134.942 62.2759 134.967 62.1432 134.966 62.0094C134.966 61.5748 134.966 61.1401 134.966 60.7054C134.974 60.2332 134.996 59.7611 134.974 59.2964Z" fill="#11142D"/>
<path d="M90.7256 130.15C89.8244 130.102 88.9212 130.102 88.0201 130.15C87.8784 130.15 87.7381 130.179 87.608 130.235C87.4779 130.291 87.3608 130.374 87.2638 130.477C87.1668 130.58 87.0921 130.702 87.0443 130.836C86.9965 130.969 86.9766 131.111 86.9858 131.252C86.9858 131.679 86.9858 132.122 86.9858 132.556V133.86C86.9781 134.009 87.002 134.158 87.056 134.297C87.1099 134.436 87.1927 134.562 87.2989 134.667C87.4051 134.772 87.5323 134.853 87.6721 134.905C87.8119 134.957 87.9611 134.979 88.11 134.969C88.9494 134.969 89.7888 134.969 90.6282 134.969C90.7848 134.987 90.9435 134.971 91.093 134.921C91.2425 134.87 91.3792 134.788 91.4935 134.68C91.6078 134.571 91.6969 134.439 91.7546 134.292C91.8123 134.145 91.8371 133.988 91.8273 133.83C91.8623 132.991 91.8623 132.152 91.8273 131.312C91.8377 131.162 91.8168 131.011 91.7659 130.87C91.715 130.728 91.6353 130.598 91.5317 130.489C91.4281 130.38 91.303 130.293 91.1642 130.235C91.0255 130.177 90.8761 130.148 90.7256 130.15Z" fill="#11142D"/>
<path d="M91.8049 18.7954C91.7957 18.9296 91.814 19.0643 91.8586 19.1912C91.9033 19.3182 91.9733 19.4346 92.0645 19.5335C92.1557 19.6325 92.2661 19.7117 92.389 19.7665C92.5119 19.8213 92.6447 19.8504 92.7792 19.8522C93.7153 19.9046 94.6536 19.9046 95.5897 19.8522C95.7165 19.8552 95.8427 19.8328 95.9608 19.7863C96.0789 19.7398 96.1865 19.6701 96.2773 19.5815C96.3681 19.4928 96.4402 19.3868 96.4894 19.2699C96.5387 19.1529 96.564 19.0273 96.564 18.9004C96.6089 17.9335 96.6089 16.9592 96.564 15.9999C96.5683 15.8725 96.5461 15.7456 96.4988 15.6271C96.4516 15.5087 96.3802 15.4014 96.2894 15.3119C96.1985 15.2225 96.0901 15.1528 95.9709 15.1074C95.8518 15.062 95.7245 15.0418 95.5972 15.0481C94.6678 15.0106 93.7235 15.0106 92.7867 15.0481C92.6526 15.0457 92.5195 15.0712 92.3957 15.1231C92.272 15.1749 92.1605 15.2519 92.0681 15.3492C91.9758 15.4464 91.9047 15.5618 91.8594 15.6881C91.8141 15.8143 91.7955 15.9486 91.8049 16.0824C91.8049 16.5171 91.8049 16.9518 91.8049 17.3939C91.8049 17.8361 91.7824 18.3308 91.8049 18.7954Z" fill="#11142D"/>
<path d="M40.0695 72.5994C40.9463 72.5994 41.8232 72.5994 42.6926 72.5994C42.8431 72.615 42.9953 72.5975 43.1384 72.5483C43.2815 72.4991 43.4122 72.4193 43.5213 72.3144C43.6305 72.2096 43.7154 72.0822 43.7703 71.9411C43.8253 71.8001 43.8488 71.6488 43.8393 71.4977C43.888 70.624 43.888 69.7483 43.8393 68.8746C43.8393 68.1701 43.4121 67.8479 42.6701 67.8179C42.2654 67.8179 41.8607 67.8179 41.456 67.8179C41.0513 67.8179 40.5791 67.8179 40.1444 67.8179C39.395 67.8179 39.0427 68.1701 39.0202 68.9046C39.0202 69.7815 39.0202 70.6583 39.0202 71.5277C39.0081 71.6696 39.0267 71.8124 39.0748 71.9464C39.1229 72.0805 39.1994 72.2025 39.299 72.3043C39.3986 72.406 39.519 72.4851 39.652 72.536C39.785 72.587 39.9274 72.6086 40.0695 72.5994Z" fill="#11142D"/>
<path d="M45.001 63.0062C44.1916 63.0062 43.8543 63.3509 43.8319 64.1454C43.8094 64.9398 43.8319 65.8317 43.8319 66.6785C43.8319 67.5254 44.1841 67.7952 44.9036 67.8327C45.7774 67.8777 46.6529 67.8777 47.5267 67.8327C47.6694 67.8426 47.8125 67.8219 47.9465 67.772C48.0805 67.7221 48.2023 67.6442 48.3037 67.5435C48.4052 67.4427 48.484 67.3215 48.5348 67.1878C48.5856 67.0542 48.6073 66.9112 48.5984 66.7685C48.6434 65.8691 48.6434 64.9548 48.5984 64.0554C48.6076 63.9133 48.586 63.7709 48.535 63.638C48.4841 63.505 48.405 63.3846 48.3033 63.285C48.2015 63.1853 48.0795 63.1089 47.9454 63.0608C47.8114 63.0126 47.6686 62.994 47.5267 63.0062C47.092 63.0062 46.6498 63.0062 46.2152 63.0062C45.8104 62.9987 45.4057 62.9837 45.001 63.0062Z" fill="#11142D"/>
<path d="M77.4152 76.3468C77.4049 76.4819 77.4226 76.6177 77.4673 76.7456C77.512 76.8735 77.5826 76.9908 77.6749 77.09C77.7671 77.1893 77.8789 77.2684 78.0031 77.3223C78.1274 77.3763 78.2615 77.404 78.397 77.4036C79.3306 77.456 80.2664 77.456 81.2 77.4036C81.3299 77.4036 81.4584 77.3777 81.5781 77.3273C81.6978 77.2769 81.8062 77.2032 81.897 77.1103C81.9878 77.0174 82.0591 76.9073 82.1067 76.7865C82.1543 76.6657 82.1773 76.5366 82.1743 76.4068C82.1743 75.9721 82.1743 75.5299 82.1743 75.0952C82.1743 74.6306 82.1743 74.1584 82.1743 73.6937C82.1857 73.5596 82.1692 73.4247 82.1258 73.2973C82.0824 73.1699 82.0132 73.0529 81.9223 72.9536C81.8315 72.8543 81.7211 72.7749 81.5981 72.7205C81.475 72.666 81.342 72.6375 81.2075 72.637C80.2738 72.5883 79.3382 72.5883 78.4045 72.637C78.2731 72.6339 78.1424 72.6576 78.0205 72.7067C77.8986 72.7557 77.7879 72.8292 77.6953 72.9225C77.6027 73.0158 77.5301 73.127 77.482 73.2493C77.4338 73.3716 77.4111 73.5024 77.4152 73.6338C77.3702 74.5406 77.3702 75.4475 77.4152 76.3468Z" fill="#11142D"/>
<path d="M43.8317 76.3167C43.8177 76.4581 43.8342 76.6009 43.8799 76.7354C43.9256 76.87 43.9996 76.9932 44.0968 77.0968C44.194 77.2004 44.3123 77.2821 44.4437 77.3362C44.575 77.3904 44.7165 77.4159 44.8585 77.4109C45.7597 77.4596 46.6628 77.4596 47.564 77.4109C47.7069 77.4192 47.8499 77.3964 47.9831 77.3441C48.1163 77.2918 48.2366 77.2112 48.3356 77.1079C48.4347 77.0046 48.5101 76.881 48.5567 76.7457C48.6034 76.6104 48.6201 76.4666 48.6058 76.3242C48.6058 75.4548 48.6058 74.5779 48.6058 73.7086C48.6212 73.5662 48.6055 73.4223 48.5598 73.2866C48.5141 73.1509 48.4395 73.0268 48.3412 72.9228C48.2428 72.8187 48.1231 72.7373 47.9902 72.684C47.8573 72.6308 47.7145 72.607 47.5715 72.6143C46.6722 72.5619 45.7653 72.5694 44.8585 72.6143C44.7168 72.6106 44.5759 72.6369 44.4451 72.6915C44.3143 72.7461 44.1966 72.8277 44.0996 72.9311C44.0026 73.0344 43.9286 73.1571 43.8824 73.2911C43.8363 73.4251 43.819 73.5674 43.8317 73.7086C43.8317 74.1433 43.8317 74.5854 43.8317 75.0201C43.8317 75.4548 43.8017 75.882 43.8317 76.3167Z" fill="#11142D"/>
<path d="M76.3659 77.4111C75.4665 77.4111 74.5597 77.4111 73.6528 77.4111C73.5185 77.3996 73.3832 77.4163 73.2557 77.4602C73.1282 77.5041 73.0113 77.5741 72.9125 77.6659C72.8137 77.7576 72.7351 77.8691 72.6819 77.993C72.6287 78.1169 72.6021 78.2505 72.6036 78.3854C72.5549 79.3191 72.5549 80.2547 72.6036 81.1884C72.6014 81.3231 72.6269 81.4568 72.6785 81.5813C72.7302 81.7057 72.8069 81.8182 72.9039 81.9117C73.001 82.0052 73.1162 82.0777 73.2425 82.1248C73.3687 82.1718 73.5033 82.1924 73.6379 82.1851C74.0725 82.1851 74.5072 82.1851 74.9419 82.1851H76.3509C76.988 82.1177 77.3702 81.8254 77.4002 81.2108C77.4526 80.2773 77.4526 79.3414 77.4002 78.4079C77.4035 78.2728 77.3788 78.1386 77.3275 78.0136C77.2762 77.8886 77.1995 77.7757 77.1023 77.682C77.005 77.5882 76.8893 77.5158 76.7626 77.4691C76.6358 77.4225 76.5007 77.4027 76.3659 77.4111Z" fill="#11142D"/>
<path d="M82.1817 30.5997C82.1854 30.5373 82.1854 30.4748 82.1817 30.4124C82.1068 29.8053 81.8369 29.4755 81.2374 29.4531C80.3005 29.4081 79.3637 29.4081 78.4344 29.4531C78.3002 29.4445 78.1658 29.4643 78.0398 29.5111C77.9138 29.5579 77.799 29.6306 77.7029 29.7246C77.6068 29.8186 77.5315 29.9317 77.4819 30.0566C77.4324 30.1816 77.4096 30.3155 77.4151 30.4498C77.4151 31.3867 77.4151 32.3235 77.4151 33.2528C77.4062 33.3801 77.4248 33.5078 77.4695 33.6273C77.5141 33.7468 77.584 33.8554 77.6742 33.9456C77.7644 34.0358 77.8729 34.1056 77.9924 34.1503C78.112 34.195 78.2397 34.2135 78.3669 34.2046C79.2963 34.2421 80.2331 34.2421 81.1699 34.2046C81.8444 34.2046 82.1217 33.8824 82.1742 33.2154C82.1742 32.7807 82.1742 32.346 82.1742 31.9113L82.1817 30.5997Z" fill="#11142D"/>
<path d="M130.132 54.35C130.14 54.2309 130.122 54.1116 130.081 53.9997C130.039 53.8878 129.975 53.7859 129.891 53.7004C129.808 53.615 129.708 53.548 129.597 53.5036C129.486 53.4593 129.367 53.4387 129.248 53.4431C128.289 53.3982 127.314 53.3982 126.355 53.4431C126.228 53.437 126.101 53.4569 125.982 53.5018C125.863 53.5467 125.754 53.6155 125.663 53.7041C125.572 53.7926 125.5 53.8989 125.451 54.0165C125.402 54.134 125.379 54.2603 125.381 54.3875C125.381 55.3543 125.336 56.3211 125.381 57.2804C125.381 57.8725 125.748 58.1498 126.37 58.1947C126.805 58.1947 127.239 58.1947 127.674 58.1947C128.109 58.1947 128.678 58.1947 129.173 58.1947C129.788 58.1423 130.102 57.8575 130.125 57.2504C130.177 56.2836 130.177 55.3168 130.132 54.35Z" fill="#11142D"/>
<path d="M119.535 53.4282C118.628 53.4282 117.721 53.4282 116.822 53.4282C116.125 53.4282 115.833 53.788 115.795 54.5075C115.795 54.9421 115.795 55.3768 115.795 55.8115C115.795 56.2462 115.795 56.6884 115.795 57.1231C115.795 57.8725 116.11 58.1648 116.814 58.1948C117.721 58.1948 118.62 58.1948 119.527 58.1948C120.232 58.1948 120.539 57.8501 120.569 57.1306C120.569 56.2612 120.569 55.3843 120.569 54.515C120.583 54.3732 120.567 54.2301 120.521 54.0953C120.474 53.9606 120.4 53.8374 120.301 53.7342C120.203 53.6311 120.084 53.5503 119.952 53.4975C119.819 53.4447 119.677 53.421 119.535 53.4282Z" fill="#11142D"/>
<path d="M106.149 102.36C106.158 102.234 106.14 102.108 106.096 101.989C106.052 101.87 105.984 101.762 105.896 101.671C105.807 101.581 105.701 101.51 105.583 101.463C105.465 101.417 105.339 101.396 105.213 101.401C104.278 101.366 103.341 101.366 102.402 101.401C102.268 101.393 102.133 101.414 102.007 101.463C101.881 101.511 101.767 101.585 101.672 101.681C101.577 101.777 101.504 101.891 101.456 102.017C101.409 102.144 101.389 102.278 101.398 102.413C101.36 103.342 101.36 104.279 101.398 105.216C101.391 105.343 101.411 105.469 101.458 105.588C101.504 105.706 101.575 105.813 101.665 105.902C101.756 105.99 101.865 106.059 101.984 106.102C102.103 106.145 102.231 106.163 102.357 106.153C103.316 106.19 104.291 106.19 105.25 106.153C105.369 106.158 105.488 106.139 105.599 106.096C105.71 106.053 105.811 105.987 105.895 105.904C105.979 105.82 106.046 105.72 106.089 105.609C106.133 105.498 106.154 105.38 106.149 105.261C106.149 104.796 106.149 104.324 106.149 103.859C106.157 103.387 106.187 102.855 106.149 102.36Z" fill="#11142D"/>
<path d="M26.0846 39.0385H37.6113C38.6905 39.0385 39.0278 38.7162 39.0278 37.6595C39.0278 33.7872 39.0278 29.915 39.0278 26.0428C39.0278 24.9786 38.6905 24.6188 37.6413 24.6188C33.774 24.6188 29.8993 24.6188 26.0246 24.6188C24.9604 24.6188 24.6081 24.9636 24.6006 26.0128C24.6006 29.88 24.6006 33.7498 24.6006 37.622C24.6081 38.7237 24.9529 39.0385 26.0846 39.0385Z" fill="#11142D"/>
<path d="M124.002 24.6188C120.127 24.6188 116.26 24.6188 112.385 24.6188C111.313 24.6188 110.969 24.9561 110.969 26.0053C110.969 29.8825 110.969 33.7548 110.969 37.622C110.969 38.7312 111.291 39.0385 112.467 39.0385H123.957C125.021 39.0385 125.388 38.7012 125.388 37.6595C125.388 33.7922 125.388 29.9225 125.388 26.0503C125.381 24.9786 125.043 24.6188 124.002 24.6188Z" fill="#11142D"/>
<path d="M37.6113 110.972H26.0846C24.9454 110.972 24.5856 111.287 24.5856 112.388C24.5856 116.266 24.5856 120.138 24.5856 124.005C24.5856 125.054 24.9454 125.392 26.0171 125.399C29.8943 125.399 33.7665 125.399 37.6338 125.399C38.6755 125.399 39.0128 125.039 39.0128 123.975C39.0128 120.098 39.0128 116.226 39.0128 112.358C39.0278 111.302 38.6905 110.972 37.6113 110.972Z" fill="#11142D"/>
</svg>
