<svg width="200" height="200" viewBox="0 0 200 200" fill="none" xmlns="http://www.w3.org/2000/svg">
<rect width="200" height="200" fill="white"/>
<path d="M160.813 169.036C160.813 167.666 160.363 167.236 159.023 167.206C158.023 167.206 157.103 167.206 156.153 167.206C154.893 167.206 154.483 166.806 154.473 165.576C154.473 162.41 154.473 159.243 154.473 156.076C154.473 154.826 154.793 154.516 156.033 154.486C157.033 154.486 158.033 154.486 159.033 154.486C160.303 154.486 160.803 153.986 160.813 152.746C160.813 149.626 160.813 146.496 160.813 143.376C160.813 142.056 160.313 141.606 158.963 141.576C158.043 141.576 157.123 141.576 156.213 141.576C154.743 141.576 154.473 141.286 154.473 139.786C154.473 136.746 154.473 133.706 154.473 130.666C154.473 129.216 154.843 128.856 156.343 128.846H158.843C160.383 128.846 160.793 128.436 160.843 126.946C160.843 126.236 160.843 125.526 160.843 124.826C160.843 122.666 160.633 122.446 158.493 122.446H137.713C137.383 122.446 137.043 122.446 136.713 122.446C136.504 122.471 136.292 122.447 136.094 122.376C135.897 122.304 135.718 122.188 135.574 122.035C135.429 121.883 135.322 121.699 135.261 121.497C135.2 121.296 135.187 121.084 135.223 120.876C135.223 119.746 135.223 118.626 135.223 117.496C135.223 116.366 135.723 116.016 136.793 115.996C137.863 115.976 138.793 115.996 139.793 115.996C141.163 115.996 141.553 115.586 141.573 114.186C141.573 113.266 141.573 112.346 141.573 111.436C141.573 110.066 142.033 109.606 143.353 109.576C144.353 109.576 145.263 109.576 146.223 109.576C147.503 109.576 147.933 110.046 147.953 111.326C147.953 112.326 147.953 113.406 147.953 114.446C147.953 115.486 148.443 115.936 149.273 115.976C150.526 116.03 151.776 116.03 153.023 115.976C153.362 115.977 153.69 115.85 153.94 115.621C154.19 115.391 154.345 115.075 154.373 114.736C154.425 114.365 154.441 113.99 154.423 113.616C154.423 110.696 154.423 107.786 154.423 104.866C154.423 103.586 154.783 103.236 156.063 103.216C157.063 103.216 157.983 103.216 158.933 103.216C160.293 103.216 160.733 102.736 160.763 101.416C160.763 100.496 160.763 99.5764 160.763 98.6664C160.763 97.2264 160.313 96.7663 158.913 96.7563C151.619 96.7563 144.326 96.7563 137.033 96.7563C135.613 96.7563 135.173 97.2164 135.143 98.6264C135.143 99.6264 135.143 100.626 135.143 101.626C135.143 102.626 134.663 103.116 133.593 103.176C133.183 103.176 132.763 103.176 132.343 103.176C129.643 103.176 126.933 103.176 124.223 103.176C122.793 103.176 122.403 103.556 122.373 104.916C122.373 105.916 122.373 106.996 122.373 108.036C122.373 109.076 122.803 109.526 123.913 109.556C125.023 109.586 126.003 109.556 127.043 109.556C128.263 109.556 128.693 110.016 128.713 111.226C128.713 112.816 128.713 114.396 128.713 115.976C128.713 117.556 128.713 119.226 128.713 120.856C128.734 121.045 128.715 121.236 128.657 121.417C128.599 121.598 128.504 121.764 128.378 121.906C128.251 122.047 128.096 122.161 127.923 122.238C127.75 122.316 127.562 122.356 127.373 122.356C127.083 122.371 126.792 122.371 126.503 122.356C123.503 122.356 120.583 122.356 117.623 122.356C116.383 122.356 115.963 122.796 115.933 124.006C115.933 125.006 115.933 126.006 115.933 127.006C115.933 128.266 116.403 128.716 117.673 128.746C118.673 128.746 119.673 128.746 120.673 128.746C121.863 128.746 122.293 129.216 122.343 130.426C122.343 130.676 122.343 130.926 122.343 131.176V151.936C122.343 152.186 122.343 152.436 122.343 152.686C122.283 153.806 121.833 154.266 120.733 154.336C120.403 154.336 120.073 154.336 119.733 154.336C116.893 154.336 114.063 154.336 111.223 154.336C110.023 154.336 109.503 154.806 109.483 155.966C109.483 159.136 109.483 162.296 109.483 165.466C109.483 166.626 110.023 167.116 111.203 167.146C112.203 167.146 113.113 167.146 114.073 167.146C115.483 167.146 115.933 166.666 115.943 165.256C115.943 164.256 115.943 163.176 115.943 162.136C115.93 161.958 115.955 161.779 116.014 161.61C116.074 161.441 116.168 161.286 116.289 161.155C116.411 161.024 116.559 160.919 116.723 160.847C116.887 160.775 117.064 160.737 117.243 160.736C117.576 160.716 117.91 160.716 118.243 160.736C121.113 160.736 123.993 160.736 126.863 160.736C128.283 160.736 128.703 160.296 128.723 158.856C128.723 157.856 128.723 156.856 128.723 155.856C128.723 154.856 129.193 154.426 130.203 154.396C131.213 154.366 132.283 154.396 133.323 154.396C134.693 154.396 135.073 154.796 135.093 156.196C135.093 157.196 135.093 158.116 135.093 159.076C135.093 160.266 135.583 160.706 136.793 160.736C137.703 160.736 138.623 160.736 139.543 160.736C141.113 160.736 141.463 160.376 141.483 158.826C141.483 157.826 141.483 156.826 141.483 155.826C141.483 154.826 141.973 154.416 142.983 154.386C143.993 154.356 145.233 154.386 146.353 154.386C147.473 154.386 147.843 154.806 147.843 155.806C147.843 159.106 147.843 162.4 147.843 165.686C147.858 165.864 147.836 166.044 147.779 166.213C147.721 166.382 147.63 166.538 147.51 166.67C147.39 166.803 147.244 166.909 147.081 166.982C146.918 167.055 146.741 167.094 146.563 167.096C146.186 167.116 145.809 167.116 145.433 167.096H124.943C124.603 167.096 124.273 167.096 123.943 167.096C122.863 167.166 122.453 167.566 122.423 168.666C122.393 169.766 122.423 170.826 122.423 171.916C122.423 173.006 122.833 173.436 124.043 173.496C124.333 173.496 124.623 173.496 124.913 173.496H155.793C156.873 173.496 157.963 173.496 159.043 173.496C160.423 173.496 160.793 173.076 160.813 171.676C160.833 170.876 160.833 169.946 160.813 169.036ZM146.143 148.036C140.973 148.036 135.813 148.036 130.653 148.036C129.233 148.036 128.823 147.626 128.813 146.166C128.813 141.046 128.813 135.926 128.813 130.806C128.813 129.286 129.223 128.876 130.733 128.876C135.853 128.876 140.973 128.876 146.093 128.876C147.593 128.876 147.983 129.286 147.983 130.876C147.983 133.416 147.983 135.956 147.983 138.496C147.983 141.036 147.983 143.656 147.983 146.236C148.004 146.481 147.97 146.727 147.884 146.956C147.798 147.186 147.662 147.393 147.486 147.564C147.31 147.734 147.098 147.863 146.865 147.942C146.633 148.02 146.386 148.045 146.143 148.016V148.036Z" fill="#11142D"/>
<path d="M19.9625 127.296C20.0325 128.296 20.4625 128.766 21.4325 128.806C22.5925 128.806 23.7625 128.806 24.9325 128.806C25.1221 128.817 25.312 128.789 25.4905 128.724C25.6691 128.66 25.8325 128.559 25.971 128.429C26.1094 128.299 26.22 128.142 26.2959 127.968C26.3718 127.794 26.4115 127.606 26.4125 127.416C26.4382 127.083 26.4382 126.749 26.4125 126.416V114.796C26.4125 113.586 26.4125 112.376 26.4125 111.176C26.4125 109.976 26.8425 109.646 27.9225 109.616C29.0025 109.586 30.1725 109.616 31.2925 109.616C31.482 109.603 31.6722 109.63 31.8501 109.697C32.028 109.764 32.1894 109.868 32.3232 110.003C32.4571 110.138 32.5603 110.3 32.6257 110.478C32.6912 110.657 32.7174 110.847 32.7025 111.036C32.7025 111.326 32.7025 111.626 32.7025 111.916C32.7025 114.786 32.7025 117.666 32.7025 120.536C32.7025 121.956 33.1925 122.436 34.5725 122.466C35.4825 122.466 36.4025 122.466 37.3225 122.466C38.6525 122.466 39.1325 121.956 39.1625 120.646C39.1625 119.646 39.1625 118.566 39.1625 117.526C39.1375 117.328 39.1575 117.127 39.2209 116.938C39.2843 116.748 39.3896 116.575 39.5289 116.432C39.6682 116.289 39.8379 116.179 40.0255 116.111C40.2131 116.042 40.4138 116.017 40.6125 116.036C41.7325 116.036 42.8625 116.036 43.9825 116.036C45.1025 116.036 45.4025 116.476 45.4525 117.486C45.4525 117.986 45.4525 118.486 45.4525 118.986C45.4525 121.656 45.4525 124.326 45.4525 126.986C45.4525 128.326 45.9425 128.786 47.2625 128.816C48.2625 128.816 49.2625 128.816 50.2625 128.816C51.4525 128.816 51.8825 128.316 51.9125 127.106C51.9125 126.106 51.9125 125.106 51.9125 124.106C51.9125 122.856 52.3025 122.496 53.5725 122.466C54.5725 122.466 55.4925 122.466 56.4525 122.466C57.8125 122.466 58.3125 121.926 58.3425 120.536C58.3425 119.536 58.3425 118.616 58.3425 117.666C58.3425 116.416 58.7425 116.036 60.0125 116.036C63.0925 116.036 66.1825 116.036 69.2625 116.036C70.6225 116.036 71.0425 116.466 71.0725 117.826C71.0725 118.826 71.0725 119.826 71.0725 120.826C71.0435 121.047 71.0653 121.271 71.1362 121.482C71.207 121.693 71.3251 121.884 71.4814 122.043C71.6377 122.201 71.828 122.321 72.0379 122.395C72.2478 122.468 72.4717 122.493 72.6925 122.466C73.7725 122.466 74.8625 122.466 75.9425 122.466C77.0225 122.466 77.4225 121.916 77.4525 120.866C77.4825 119.816 77.4525 119.036 77.4525 118.116C77.4525 116.426 77.8325 116.046 79.4525 116.046H88.4525C89.7125 116.046 90.2525 115.556 90.2625 114.336C90.2625 111.176 90.2625 108.01 90.2625 104.836C90.2625 103.726 89.7325 103.266 88.6225 103.226C87.5125 103.186 86.6225 103.226 85.6225 103.226C84.2625 103.226 83.8325 103.666 83.8125 105.016C83.8125 105.966 83.8125 106.926 83.8125 107.886C83.8125 109.166 83.4325 109.546 82.1925 109.566C81.1925 109.566 80.1025 109.566 79.0625 109.566C78.0225 109.566 77.4725 109.146 77.4325 107.996C77.3925 106.846 77.4325 105.906 77.4325 104.866C77.4325 103.826 77.9125 103.296 79.0425 103.266C80.1725 103.236 81.1325 103.266 82.1725 103.266C83.2125 103.266 83.8225 102.746 83.8525 101.566C83.8525 100.566 83.8525 99.6463 83.8525 98.6863C83.8525 97.2663 84.2725 96.8663 85.7325 96.8463H88.3525C89.8025 96.8463 90.2125 97.2763 90.2425 98.7063C90.2425 99.7063 90.2425 100.796 90.2425 101.836C90.2257 102.015 90.2466 102.195 90.304 102.365C90.3614 102.536 90.4539 102.692 90.5756 102.824C90.6972 102.956 90.8453 103.061 91.0102 103.132C91.175 103.203 91.353 103.239 91.5325 103.236C92.7817 103.301 94.0334 103.301 95.2825 103.236C95.4619 103.235 95.6393 103.198 95.804 103.127C95.9688 103.056 96.1176 102.952 96.2416 102.823C96.3657 102.693 96.4624 102.54 96.5261 102.372C96.5898 102.204 96.6192 102.026 96.6125 101.846C96.6125 101.516 96.6125 101.186 96.6125 100.846C96.6125 97.9763 96.6125 95.0963 96.6125 92.2263C96.6125 90.9063 97.0225 90.5163 98.3225 90.4963C99.3225 90.4963 100.323 90.4963 101.323 90.4963C102.493 90.4963 102.983 89.9563 103.023 88.7863C103.063 87.6163 103.023 86.7063 103.023 85.6663C103.023 84.6263 102.483 84.0363 101.283 84.0363C98.1625 84.0363 95.0359 84.0363 91.9025 84.0363C90.6825 84.0363 90.2425 84.4763 90.2125 85.6763C90.2125 86.6763 90.2125 87.7663 90.2125 88.8063C90.2125 89.8463 89.7025 90.4063 88.6025 90.4463C87.5025 90.4863 86.5225 90.4463 85.4825 90.4463C84.4425 90.4463 84.0225 89.8763 84.0225 88.6963C84.0225 85.5763 84.0225 82.4463 84.0225 79.3263C84.0225 78.0563 84.4725 77.6263 85.7725 77.6063C86.7725 77.6063 87.8525 77.6063 88.8925 77.6063C89.0923 77.6302 89.2949 77.6099 89.486 77.5466C89.677 77.4834 89.8518 77.3788 89.9978 77.2404C90.1439 77.102 90.2577 76.9331 90.3311 76.7457C90.4045 76.5584 90.4357 76.3571 90.4225 76.1563C90.4925 74.9907 90.4925 73.8219 90.4225 72.6563C90.4225 71.6563 89.8525 71.2863 88.8625 71.2263C88.5325 71.2263 88.2025 71.2263 87.8625 71.2263H60.7325C60.3995 71.2058 60.0655 71.2058 59.7325 71.2263C59.5546 71.2172 59.3768 71.2462 59.2111 71.3113C59.0453 71.3765 58.8953 71.4763 58.7713 71.6042C58.6473 71.732 58.552 71.8849 58.4918 72.0525C58.4317 72.2202 58.408 72.3988 58.4225 72.5763C58.3692 73.783 58.3692 74.993 58.4225 76.2063C58.4225 77.2063 58.8625 77.5163 59.8425 77.5863C60.1725 77.5863 60.5125 77.5863 60.8425 77.5863H75.2225C75.5555 77.5663 75.8895 77.5663 76.2225 77.5863C76.4015 77.5814 76.5794 77.6144 76.7448 77.6831C76.9101 77.7518 77.059 77.8547 77.1818 77.985C77.3045 78.1153 77.3983 78.2701 77.4571 78.4392C77.5158 78.6083 77.5381 78.788 77.5225 78.9663C77.5225 82.2963 77.5225 85.6363 77.5225 88.9663C77.544 89.1483 77.5262 89.3327 77.4703 89.5072C77.4144 89.6816 77.3217 89.8421 77.1985 89.9777C77.0753 90.1132 76.9243 90.2208 76.756 90.293C76.5876 90.3652 76.4057 90.4004 76.2225 90.3963C75.8895 90.4163 75.5555 90.4163 75.2225 90.3963C72.3425 90.3963 69.4725 90.3963 66.5925 90.3963C65.1725 90.3963 64.7625 90.8463 64.7425 92.2863C64.7425 93.2063 64.7425 94.1163 64.7425 95.0363C64.7425 96.3063 65.2425 96.7663 66.4925 96.7963C67.4925 96.7963 68.5725 96.7963 69.6125 96.7963C70.6525 96.7963 71.1425 97.2863 71.1525 98.3563C71.1525 101.556 71.1525 104.763 71.1525 107.976C71.1525 109.066 70.7125 109.506 69.6325 109.516C66.3859 109.516 63.1358 109.516 59.8825 109.516C58.7925 109.516 58.4725 109.166 58.4325 108.076C58.3925 106.986 58.4325 106.076 58.4325 105.076C58.4325 103.656 57.9525 103.186 56.5525 103.186C53.5125 103.186 50.4725 103.186 47.4325 103.186C46.0125 103.186 45.5525 103.646 45.5225 105.046C45.5225 106.046 45.5225 107.046 45.5225 108.046C45.5225 109.046 45.1625 109.486 44.1025 109.516C43.0425 109.546 41.8525 109.516 40.7325 109.516C39.6125 109.516 39.2525 109.116 39.2225 107.976C39.1925 106.836 39.2225 105.896 39.2225 104.856C39.2225 103.666 38.7125 103.206 37.5225 103.176C36.5225 103.176 35.5225 103.176 34.5225 103.176C33.2525 103.176 32.8325 102.716 32.8125 101.416C32.8125 100.456 32.8125 99.4963 32.8125 98.5363C32.8125 97.2463 33.2625 96.8263 34.5525 96.8063C35.5525 96.8063 36.4625 96.8063 37.4225 96.8063C38.7525 96.8063 39.1925 96.3263 39.2225 94.9763C39.2225 94.0963 39.2225 93.2263 39.2225 92.3463C39.2225 90.8263 38.8025 90.4163 37.2925 90.4063C34.2925 90.4063 31.2925 90.4063 28.2925 90.4063H27.7925C26.8425 90.4963 26.4725 90.8663 26.4025 91.8363C26.4025 92.1263 26.4025 92.4163 26.4025 92.7063V100.876C26.4025 102.876 26.0925 103.216 24.1125 103.216C23.3225 103.216 22.5325 103.216 21.7425 103.216C20.4425 103.216 20.0125 103.676 19.9725 104.936V126.806C19.9625 126.966 19.9525 127.136 19.9625 127.296Z" fill="#11142D"/>
<path d="M19.9726 63.3764C19.9643 63.5647 19.9949 63.7527 20.0625 63.9287C20.1302 64.1046 20.2334 64.2647 20.3657 64.3989C20.4981 64.5331 20.6567 64.6386 20.8317 64.7087C21.0066 64.7788 21.1942 64.8121 21.3826 64.8064C21.6726 64.8064 21.9726 64.8064 22.2626 64.8064H62.5226C62.8555 64.832 63.1898 64.832 63.5226 64.8064C63.8597 64.7913 64.1785 64.6485 64.4143 64.4072C64.6501 64.1658 64.7853 63.8438 64.7926 63.5064C64.8076 63.2133 64.8076 62.9195 64.7926 62.6264V22.2264C64.7926 21.9764 64.7926 21.7264 64.7926 21.4764C64.8091 21.2774 64.7822 21.0772 64.7138 20.8896C64.6454 20.7021 64.5371 20.5316 64.3964 20.3899C64.2557 20.2482 64.0859 20.1388 63.8988 20.0691C63.7117 19.9995 63.5117 19.9713 63.3126 19.9864C62.9826 19.9864 62.6526 19.9864 62.3126 19.9864H22.3126C22.0126 19.9864 21.7226 19.9864 21.4326 19.9864C21.235 19.9804 21.0383 20.0158 20.8551 20.0902C20.6719 20.1647 20.5063 20.2766 20.3689 20.4187C20.2314 20.5609 20.1252 20.7301 20.0569 20.9157C19.9887 21.1013 19.96 21.2991 19.9726 21.4964C19.9726 21.7464 19.9726 21.9964 19.9726 22.2464V62.6264C19.9626 62.8764 19.9526 63.1264 19.9726 63.3764ZM26.6426 26.6864C27.5426 26.4064 56.6426 26.3364 58.2026 26.6864C58.2963 27.0776 58.3599 27.4755 58.3926 27.8764C58.3926 37.5497 58.3926 47.2164 58.3926 56.8764C58.3926 58.2464 58.2326 58.4064 56.9026 58.4064H27.9026C27.456 58.3739 27.0118 58.3138 26.5726 58.2264C26.3126 56.1964 26.4026 27.5764 26.6426 26.6864Z" fill="#11142D"/>
<path d="M180.033 22.3766C180.033 22.0466 180.033 21.7066 180.033 21.3766C180.03 21.0182 179.889 20.6745 179.64 20.4174C179.39 20.1602 179.051 20.0095 178.693 19.9966C178.403 19.9816 178.112 19.9816 177.823 19.9966H137.433C137.139 19.9816 136.846 19.9816 136.553 19.9966C136.197 20.0044 135.859 20.1512 135.61 20.4054C135.362 20.6596 135.222 21.001 135.223 21.3566C135.223 21.6466 135.223 21.9366 135.223 22.2266V62.4866C135.223 62.6866 135.223 62.8966 135.223 63.1066C135.273 64.3166 135.703 64.7666 136.883 64.8166H177.763C178.096 64.8366 178.429 64.8366 178.763 64.8166C179.1 64.8041 179.42 64.6638 179.657 64.4243C179.895 64.1848 180.033 63.8639 180.043 63.5266C180.063 63.1936 180.063 62.8596 180.043 62.5266L180.033 22.3766ZM173.553 56.6166C173.553 57.1166 173.553 57.6166 173.483 58.2666C172.873 58.3266 172.423 58.4066 171.983 58.4066H143.223C142.973 58.4066 142.723 58.4066 142.473 58.4066C142.357 58.4066 142.243 58.3838 142.137 58.3394C142.031 58.2951 141.935 58.2301 141.854 58.1483C141.773 58.0664 141.709 57.9693 141.666 57.8626C141.623 57.7559 141.601 57.6417 141.603 57.5266C141.603 57.2366 141.603 56.9466 141.603 56.6466C141.603 47.1599 141.603 37.6633 141.603 28.1566C141.603 27.6666 141.683 27.1566 141.733 26.5466C144.433 26.3966 147.043 26.4866 149.643 26.4766C152.243 26.4666 154.893 26.4766 157.523 26.4766H173.383C173.464 26.9899 173.518 27.5074 173.543 28.0266C173.543 32.6933 173.543 37.3599 173.543 42.0266L173.553 56.6166Z" fill="#11142D"/>
<path d="M62.4326 135.207C49.0526 135.207 35.6759 135.207 22.3026 135.207C22.0526 135.207 21.8026 135.207 21.5526 135.207C20.4326 135.267 20.0126 135.707 19.9626 136.847V177.727C19.9426 178.06 19.9426 178.394 19.9626 178.727C19.9838 179.062 20.1266 179.378 20.364 179.615C20.6015 179.853 20.9174 179.995 21.2526 180.017C21.5856 180.037 21.9196 180.037 22.2526 180.017H62.4026C64.5426 180.017 64.8026 179.767 64.8026 177.677V137.577C64.8026 135.457 64.5426 135.207 62.4326 135.207ZM58.4326 171.767C58.4326 172.287 58.3626 172.817 58.3026 173.487H26.5926C26.5246 173.076 26.4779 172.662 26.4526 172.247C26.4526 162.453 26.4526 152.663 26.4526 142.877C26.4672 142.575 26.5006 142.274 26.5526 141.977C27.1126 141.457 27.7226 141.607 28.2926 141.607H55.0326C55.7326 141.607 56.4426 141.607 57.1526 141.607C58.1526 141.607 58.3526 141.857 58.3926 142.897C58.3926 143.097 58.3926 143.307 58.3926 143.517C58.3993 152.937 58.3993 162.353 58.3926 171.767H58.4326Z" fill="#11142D"/>
<path d="M107.813 167.206C106.893 167.206 105.983 167.206 105.063 167.206C103.623 167.206 103.243 166.796 103.233 165.316C103.233 163.566 103.233 161.816 103.233 160.066C103.233 156.646 103.233 153.236 103.233 149.816C103.233 148.466 102.753 148.016 101.433 147.996C100.433 147.996 99.4326 147.996 98.4326 147.996C97.4326 147.996 96.8626 147.536 96.8226 146.396C96.8226 145.566 96.8226 144.726 96.8226 143.896C96.8226 141.946 97.1426 141.626 99.0426 141.616C99.9226 141.616 100.793 141.616 101.673 141.616C102.673 141.616 103.203 141.126 103.243 140.086C103.283 139.046 103.243 137.836 103.243 136.706C103.26 136.505 103.233 136.303 103.163 136.114C103.092 135.925 102.981 135.754 102.836 135.613C102.692 135.472 102.518 135.366 102.327 135.3C102.136 135.235 101.933 135.213 101.733 135.236C98.4859 135.236 95.2359 135.236 91.9826 135.236C90.8926 135.236 90.4826 135.686 90.4426 136.776C90.4026 137.866 90.4426 138.856 90.4426 139.896C90.4426 141.136 89.9926 141.546 88.7826 141.566C87.7826 141.566 86.7826 141.566 85.7826 141.566C84.5226 141.566 84.0426 142.096 84.0226 143.326C84.0226 144.326 84.0226 145.246 84.0226 146.206C84.0226 147.586 83.6126 147.996 82.2426 147.996C80.2426 147.996 78.1526 147.996 76.1126 147.996C74.9926 147.996 73.8626 147.996 72.7426 147.996C72.5408 147.973 72.3365 147.996 72.1444 148.061C71.9523 148.127 71.7771 148.234 71.6317 148.376C71.4862 148.518 71.374 148.69 71.3033 148.88C71.2325 149.07 71.205 149.274 71.2226 149.476C71.2226 149.806 71.2226 150.146 71.2226 150.476V172.726C71.2226 174.596 71.2226 176.476 71.2226 178.346C71.2226 179.556 71.7026 179.996 72.8926 180.026C73.8926 180.026 74.8926 180.026 75.8926 180.026C77.1726 180.026 77.5826 179.586 77.6126 178.276C77.6126 177.276 77.6126 176.356 77.6126 175.396C77.6126 174.106 78.0826 173.646 79.3326 173.616C80.3326 173.616 81.3326 173.616 82.3326 173.616C83.5326 173.616 83.9726 174.106 83.9926 175.306C83.9926 176.306 83.9926 177.306 83.9926 178.306C83.9926 179.556 84.4826 180.006 85.7526 180.026C86.7126 180.026 87.6726 180.026 88.6326 180.026C89.9426 180.026 90.4426 179.536 90.4526 178.206C90.4526 175.206 90.4526 172.126 90.4526 169.086C90.4526 167.676 89.9726 167.226 88.5626 167.206C87.5626 167.206 86.5626 167.206 85.5626 167.206C84.5626 167.206 84.0426 166.706 84.0326 165.656C84.0326 162.443 84.0326 159.233 84.0326 156.026C84.0326 154.956 84.4226 154.506 85.4026 154.496C88.7426 154.496 92.0726 154.496 95.4026 154.496C96.3026 154.496 96.6726 154.906 96.7526 155.796C96.7526 156.126 96.7526 156.456 96.7526 156.796V177.416C96.7526 177.706 96.7526 178.006 96.7526 178.296C96.8126 179.556 97.2626 180.016 98.5126 180.036C99.4726 180.036 100.433 180.036 101.393 180.036C102.723 180.036 103.183 179.576 103.213 178.236C103.213 177.286 103.213 176.326 103.213 175.366C103.213 174.076 103.653 173.646 104.943 173.616C105.943 173.616 106.943 173.616 107.943 173.616C109.153 173.616 109.523 173.226 109.563 172.046C109.603 170.866 109.563 169.956 109.563 168.916C109.553 167.596 109.163 167.236 107.813 167.206Z" fill="#11142D"/>
<path d="M75.8024 39.1862C74.8024 39.1862 73.7224 39.1862 72.6824 39.1862C72.4832 39.1704 72.2829 39.1987 72.0959 39.2691C71.9088 39.3394 71.7396 39.4502 71.6002 39.5934C71.4608 39.7366 71.3547 39.9088 71.2894 40.0977C71.2241 40.2865 71.2012 40.4875 71.2224 40.6862C71.2224 41.8162 71.2224 42.9362 71.2224 44.0662C71.2224 45.1962 71.6824 45.5762 72.7824 45.5862C75.9924 45.5862 79.1924 45.5862 82.4024 45.5862C83.6024 45.5862 84.0124 45.1162 84.0424 43.8762C84.0424 42.8762 84.0424 41.9662 84.0424 41.0062C84.0424 39.6462 84.4624 39.2562 85.8524 39.2362C86.6024 39.2362 87.3524 39.2362 88.1024 39.2362C90.1024 39.1162 90.5224 39.7262 90.4424 41.5162C90.4424 42.4362 90.4424 43.3562 90.4424 44.2662C90.4424 45.1762 90.8624 45.5362 91.6624 45.5662C92.9491 45.6262 94.2391 45.6262 95.5324 45.5662C96.3324 45.5662 96.7024 45.0962 96.8024 44.2862C96.8175 43.9931 96.8175 43.6994 96.8024 43.4062V34.8762C96.8024 33.1262 97.1624 32.7862 98.9524 32.7862C102.402 32.7862 105.862 32.7862 109.322 32.7862C111.032 32.7862 112.742 32.7862 114.442 32.7862C115.512 32.7862 116.002 32.2962 116.002 31.2562C116.002 28.0096 116.002 24.7596 116.002 21.5062C116.002 20.5062 115.472 20.0062 114.432 19.9762C113.392 19.9462 112.352 19.9762 111.312 19.9762C110.082 19.9762 109.582 20.4862 109.552 21.7362C109.552 22.7362 109.552 23.6462 109.552 24.6062C109.552 25.9862 109.152 26.3762 107.752 26.3962C106.592 26.3962 105.422 26.3962 104.252 26.3962C100.252 26.3962 96.2524 26.3962 92.2524 26.3962C90.7524 26.3962 90.4324 26.7362 90.4124 28.2562C90.4124 29.2562 90.4124 30.1762 90.4124 31.1262C90.4124 32.2762 89.9324 32.7162 88.8124 32.7462C87.6924 32.7762 86.7224 32.7462 85.6824 32.7462C84.4724 32.7462 84.0524 32.2962 84.0324 31.0662C84.0324 29.5262 84.0324 27.9862 84.0324 26.4462C84.0324 24.9062 84.0324 23.2762 84.0324 21.6962C84.0324 20.4462 83.5424 19.9862 82.2724 19.9662C81.3124 19.9662 80.3524 19.9662 79.3924 19.9662C78.0824 19.9662 77.5924 20.4562 77.5624 21.7762C77.5624 22.7762 77.5624 23.6962 77.5624 24.6462C77.5624 25.9662 77.1624 26.3562 75.8424 26.3862C74.8424 26.3862 73.8424 26.3862 72.8424 26.3862C71.6724 26.3862 71.2524 26.8262 71.2224 27.9662C71.1924 29.1062 71.2224 30.0562 71.2224 31.0962C71.2224 32.2962 71.7024 32.7462 72.9024 32.7762C73.9024 32.7762 74.9824 32.7762 76.0224 32.7762C77.0624 32.7762 77.5324 33.2262 77.5624 34.3062C77.5924 35.3862 77.5624 36.3862 77.5624 37.4262C77.5124 38.7762 77.1224 39.1662 75.8024 39.1862Z" fill="#11142D"/>
<path d="M128.763 76.0865C128.763 77.0865 128.343 77.5065 127.303 77.5365C126.263 77.5665 125.223 77.5365 124.183 77.5365C122.773 77.5365 122.483 77.2365 122.463 75.8565C122.463 74.8565 122.463 73.7765 122.463 72.7365C122.482 72.525 122.454 72.3118 122.38 72.1126C122.307 71.9134 122.189 71.7333 122.037 71.5855C121.884 71.4378 121.7 71.3261 121.499 71.2588C121.297 71.1915 121.083 71.1702 120.873 71.1965C119.873 71.1965 118.793 71.1965 117.753 71.1965C116.473 71.1965 116.023 71.6565 116.003 72.9265C116.003 74.5065 116.003 76.0865 116.003 77.6665C116.003 79.2465 116.003 80.7465 116.003 82.2865C116.003 83.5065 115.563 83.9465 114.363 83.9765C113.363 83.9765 112.283 83.9765 111.243 83.9765C110.203 83.9765 109.603 84.4865 109.593 85.5765C109.553 88.7765 109.553 91.9832 109.593 95.1965C109.593 96.2965 110.133 96.7565 111.243 96.7865C112.353 96.8165 113.333 96.7865 114.373 96.7865C115.573 96.7865 116.013 96.3165 116.043 95.1165C116.043 94.1165 116.043 93.0265 116.043 91.9865C116.043 90.9465 116.453 90.4865 117.553 90.4565C118.653 90.4265 119.553 90.4565 120.553 90.4565C121.933 90.4565 122.443 89.9365 122.473 88.5765C122.473 87.5765 122.473 86.5765 122.473 85.5765C122.473 84.5765 122.893 84.0565 123.973 84.0365C125.053 84.0165 126.143 84.0365 127.223 84.0365C128.303 84.0365 128.743 84.4965 128.773 85.5465C128.803 86.5965 128.773 87.6365 128.773 88.6765C128.773 89.9565 128.333 90.3865 127.043 90.4065C126.043 90.4065 125.043 90.4065 124.043 90.4065C122.843 90.4065 122.463 90.7965 122.433 91.9765C122.403 93.1565 122.433 94.1465 122.433 95.2265C122.433 96.3065 122.883 96.7765 124.073 96.7865C127.233 96.7865 130.403 96.7865 133.563 96.7865C134.743 96.7865 135.203 96.2965 135.243 95.0965C135.243 94.0965 135.243 93.1765 135.243 92.2265C135.243 90.7865 135.583 90.4665 137.003 90.4465C137.923 90.4465 138.843 90.4465 139.753 90.4465C141.123 90.4465 141.563 89.9765 141.593 88.6565C141.593 87.6565 141.593 86.6565 141.593 85.6565C141.593 84.4265 141.143 84.0065 139.923 83.9865C138.923 83.9865 137.923 83.9865 136.923 83.9865C135.703 83.9865 135.263 83.5565 135.243 82.3465C135.223 81.1365 135.243 79.6865 135.243 78.3465C135.243 76.5565 135.243 74.7665 135.243 72.9765C135.243 71.6965 134.753 71.2365 133.513 71.2065C132.513 71.2065 131.513 71.2065 130.513 71.2065C129.263 71.2065 128.803 71.6965 128.773 72.9665C128.753 74.0065 128.793 75.0465 128.763 76.0865Z" fill="#11142D"/>
<path d="M43.8925 83.9864C42.9725 83.9864 42.0625 83.9864 41.1425 83.9864C39.5725 83.9864 39.1425 84.3964 39.1425 85.9864V88.3764C39.1425 90.0264 39.5725 90.4564 41.2125 90.4564C44.0825 90.4564 46.9625 90.4564 49.8325 90.4564C51.5525 90.4564 51.9725 90.0264 51.9725 88.3264C51.9725 83.3264 51.9725 78.2464 51.9725 73.2064C51.9725 73.0064 51.9725 72.7964 51.9725 72.5864C51.9753 72.2281 51.8376 71.8831 51.589 71.6251C51.3404 71.3671 51.0006 71.2168 50.6425 71.2064C50.3095 71.1864 49.9755 71.1864 49.6425 71.2064H21.9425C20.3525 71.2064 19.9425 71.6064 19.9425 73.2064V82.0664C19.9425 83.5864 20.3725 84.0664 21.8625 84.0664H37.2225C38.7725 84.0664 39.2225 83.6264 39.2225 82.0664C39.2225 81.0664 39.2225 80.1464 39.2225 79.1964C39.2225 78.2464 39.6825 77.7264 40.6625 77.6864C41.6425 77.6464 42.9125 77.6864 44.0325 77.6864C45.1525 77.6864 45.4925 78.1764 45.5125 79.2664C45.5325 80.3564 45.5125 81.3464 45.5125 82.3864C45.5025 83.5964 45.1425 83.9664 43.8925 83.9864Z" fill="#11142D"/>
<path d="M177.973 109.556C172.933 109.556 167.893 109.556 162.853 109.556C162.683 109.556 162.513 109.556 162.353 109.556C162.142 109.543 161.93 109.575 161.733 109.65C161.535 109.726 161.356 109.843 161.208 109.994C161.06 110.145 160.946 110.326 160.875 110.525C160.803 110.724 160.775 110.936 160.793 111.146C160.793 112.226 160.793 113.306 160.793 114.386C160.793 115.466 161.343 116.006 162.533 116.026C163.533 116.026 164.533 116.026 165.533 116.026C166.733 116.026 167.173 116.476 167.203 117.686C167.203 118.686 167.203 119.686 167.203 120.686C167.203 121.936 167.703 122.406 168.963 122.446C169.963 122.446 170.873 122.446 171.833 122.446C173.243 122.446 173.543 122.746 173.553 124.136C173.553 127.216 173.553 130.3 173.553 133.386C173.553 134.776 173.163 135.146 171.773 135.176H170.643C167.983 135.176 165.313 135.176 162.643 135.176C161.243 135.176 160.803 135.636 160.783 137.056C160.783 138.056 160.783 138.976 160.783 139.936C160.783 141.066 161.273 141.506 162.383 141.566H177.883C178.132 141.581 178.383 141.581 178.633 141.566C178.821 141.574 179.01 141.541 179.185 141.471C179.361 141.401 179.519 141.294 179.651 141.158C179.782 141.022 179.883 140.86 179.947 140.682C180.011 140.504 180.037 140.315 180.023 140.126C180.023 139.836 180.023 139.546 180.023 139.256V111.646C180.023 110.006 179.593 109.556 177.973 109.556Z" fill="#11142D"/>
<path d="M115.983 45.6163C115.983 47.2463 115.983 48.8663 115.983 50.4863C116.006 50.6841 115.984 50.8845 115.92 51.073C115.856 51.2615 115.751 51.4334 115.612 51.5761C115.473 51.7188 115.304 51.8288 115.117 51.898C114.931 51.9672 114.731 51.994 114.533 51.9763C114.243 51.9763 113.943 51.9763 113.653 51.9763H105.023C103.663 51.9763 103.223 52.4163 103.193 53.7463C103.193 54.7463 103.193 55.6663 103.193 56.6163C103.193 57.9463 103.683 58.4063 105.013 58.4463C105.963 58.4463 106.923 58.4463 107.883 58.4463C109.203 58.4463 109.513 58.7663 109.533 60.0563C109.533 61.0563 109.533 62.1463 109.533 63.1863C109.533 64.2263 110.073 64.7563 111.193 64.7863C112.313 64.8163 113.273 64.7863 114.312 64.7863C115.523 64.7863 115.963 64.3063 115.993 63.1163C115.993 62.1163 115.993 61.1163 115.993 60.1163C115.993 58.8363 116.373 58.4663 117.613 58.4363C118.033 58.4363 118.443 58.4363 118.863 58.4363C122.173 58.5063 122.543 58.4363 122.433 54.9263C122.433 54.4663 122.433 54.0163 122.433 53.5563C122.433 52.3863 122.853 52.0163 124.043 51.9963C125.043 51.9963 126.043 51.9963 127.043 51.9963C128.303 51.9963 128.763 51.5263 128.773 50.2563C128.773 47.1296 128.773 44.0063 128.773 40.8863C128.773 39.6363 128.293 39.1863 127.003 39.1763H117.763C116.393 39.1763 115.973 39.6263 115.953 40.9763C115.973 42.5363 115.983 44.0763 115.983 45.6163Z" fill="#11142D"/>
<path d="M116.023 112.787C116.023 110.157 116.023 107.537 116.023 104.907C116.023 103.707 115.563 103.237 114.383 103.207C113.383 103.207 112.383 103.207 111.383 103.207C110.053 103.207 109.593 103.697 109.553 105.027C109.553 106.027 109.553 107.027 109.553 108.027C109.553 109.027 109.203 109.517 108.063 109.547C107.183 109.547 106.313 109.547 105.433 109.547C103.603 109.547 103.213 109.927 103.213 111.717C103.213 112.627 103.213 113.547 103.213 114.467C103.213 115.387 102.713 115.947 101.653 115.977C100.593 116.007 99.5626 115.977 98.5226 115.977C97.4826 115.977 96.8626 116.457 96.8126 117.637C96.8126 118.337 96.8126 119.047 96.8126 119.757C96.8126 122.127 96.8126 124.507 96.8126 126.877C96.8126 128.357 97.2726 128.787 98.8126 128.797C99.6826 128.797 100.563 128.797 101.433 128.797C102.843 128.797 103.283 128.337 103.303 126.917C103.303 125.917 103.303 124.837 103.303 123.797C103.303 122.757 103.733 122.527 104.623 122.457C104.953 122.457 105.283 122.457 105.623 122.457H113.993C115.643 122.457 116.073 122.017 116.073 120.397C116.046 117.863 116.029 115.327 116.023 112.787Z" fill="#11142D"/>
<path d="M152.542 77.5566C151.542 77.5566 150.542 77.5566 149.542 77.5566C148.542 77.5566 148.052 77.1366 148.032 76.0266C148.012 74.9166 148.032 73.8566 148.032 72.7766C148.06 72.5674 148.039 72.3546 147.972 72.1546C147.904 71.9547 147.792 71.7729 147.643 71.6232C147.495 71.4735 147.313 71.3599 147.114 71.2911C146.914 71.2224 146.702 71.2003 146.492 71.2266C145.492 71.2266 144.572 71.2266 143.612 71.2266C141.992 71.2266 141.612 71.6666 141.612 73.3266C141.612 74.7466 141.612 76.1666 141.612 77.5766C141.612 78.9866 141.612 80.4966 141.612 81.9566C141.612 83.6066 142.042 84.0466 143.612 84.0566C144.362 84.0566 145.112 84.0566 145.862 84.0566C147.622 83.9266 148.112 84.6866 148.012 86.1466C147.967 87.0193 147.967 87.8938 148.012 88.7666C148.012 89.9366 148.512 90.4466 149.672 90.4966C150.672 90.4966 151.672 90.4966 152.672 90.4966C153.952 90.4966 154.462 89.9366 154.472 88.6166C154.472 85.6166 154.472 82.5266 154.472 79.4866C154.442 78.0766 153.922 77.5866 152.542 77.5566Z" fill="#11142D"/>
<path d="M107.432 141.556C106.562 141.556 105.682 141.556 104.812 141.556C104.592 141.53 104.368 141.555 104.158 141.628C103.948 141.701 103.758 141.822 103.601 141.98C103.445 142.138 103.327 142.33 103.256 142.541C103.185 142.752 103.164 142.976 103.192 143.196C103.192 144.196 103.192 145.196 103.192 146.196C103.192 147.606 103.642 148.026 105.092 148.026H114.092C115.582 148.026 116.012 147.596 116.012 146.096C116.012 143.556 116.012 141.016 116.012 138.476C116.012 135.806 116.012 133.146 116.012 130.476C116.012 129.386 115.582 128.846 114.592 128.796C113.387 128.731 112.178 128.731 110.972 128.796C110.783 128.796 110.595 128.834 110.42 128.908C110.245 128.982 110.086 129.09 109.954 129.226C109.822 129.362 109.718 129.524 109.649 129.701C109.58 129.878 109.547 130.066 109.552 130.256C109.538 130.546 109.538 130.836 109.552 131.126C109.552 133.916 109.552 136.706 109.552 139.496C109.582 141.226 109.222 141.636 107.432 141.556Z" fill="#11142D"/>
<path d="M178.223 173.566C177.273 173.566 176.313 173.566 175.353 173.566C174.033 173.566 173.643 173.166 173.603 171.856C173.603 170.856 173.603 169.946 173.603 168.986C173.603 167.606 173.183 167.236 171.773 167.216C170.863 167.216 169.943 167.216 169.033 167.216C167.673 167.216 167.233 167.676 167.203 169.006C167.203 169.876 167.203 170.756 167.203 171.626C167.203 173.216 166.863 173.556 165.313 173.566C164.443 173.566 163.573 173.566 162.693 173.566C161.283 173.566 160.803 174.056 160.783 175.436C160.783 176.356 160.783 177.266 160.783 178.186C160.783 179.586 161.263 180.036 162.673 180.036H170.423C173.043 180.036 175.663 180.036 178.293 180.036C179.543 180.036 180.003 179.546 180.023 178.286C180.023 177.286 180.023 176.376 180.023 175.416C180.003 174.086 179.543 173.596 178.223 173.566Z" fill="#11142D"/>
<path d="M98.8026 77.5965C101.723 77.5965 104.643 77.5965 107.563 77.5965C107.809 77.6118 108.056 77.6118 108.303 77.5965C109.123 77.4965 109.533 77.1365 109.563 76.3165C109.609 75.0699 109.609 73.8199 109.563 72.5665C109.563 71.6965 109.093 71.3165 108.213 71.2265C107.883 71.2265 107.553 71.2265 107.213 71.2265C106.383 71.2265 105.553 71.2265 104.713 71.2265C103.713 71.2265 103.303 70.7465 103.233 69.7565C103.233 69.4665 103.233 69.1665 103.233 68.8765C103.233 66.0465 103.233 63.2065 103.233 60.3765C103.233 58.8665 102.813 58.4765 101.293 58.4565H98.7926C97.1826 58.4565 96.7926 58.8565 96.7926 60.4565C96.7926 63.0065 96.7926 65.5465 96.7926 68.0865V75.5865C96.7726 77.2065 97.1426 77.5865 98.8026 77.5965Z" fill="#11142D"/>
<path d="M90.4425 47.3866C90.4425 46.0966 89.8925 45.5866 88.5925 45.5566C87.7225 45.5566 86.8425 45.5566 85.9725 45.5566C84.4225 45.5566 83.9725 46.0266 83.9725 47.5566V55.1866C83.9725 57.8066 83.9725 60.4366 83.9725 63.0566C83.9725 64.2766 84.4225 64.7566 85.5925 64.7866C86.7625 64.8166 87.7625 64.7866 88.8425 64.7866C89.0531 64.8076 89.2657 64.7823 89.4654 64.7124C89.6651 64.6425 89.8471 64.5298 89.9987 64.3821C90.1502 64.2344 90.2675 64.0553 90.3425 63.8574C90.4174 63.6595 90.4482 63.4477 90.4325 63.2366C90.4475 62.9468 90.4475 62.6564 90.4325 62.3666V51.2566C90.4525 49.9666 90.4725 48.6766 90.4425 47.3866Z" fill="#11142D"/>
<path d="M173.562 165.606C173.538 165.828 173.564 166.052 173.639 166.263C173.714 166.473 173.835 166.663 173.994 166.82C174.152 166.977 174.344 167.096 174.555 167.168C174.766 167.24 174.991 167.263 175.212 167.236C176.252 167.276 177.292 167.276 178.332 167.236C179.562 167.236 180.022 166.716 180.022 165.436C180.022 162.356 180.022 159.266 180.022 156.186C180.022 154.836 179.602 154.446 178.192 154.426C176.782 154.406 175.192 154.426 173.692 154.426C172.192 154.426 170.442 154.426 168.822 154.426C167.652 154.426 167.242 154.866 167.202 156.016C167.162 157.166 167.202 158.106 167.202 159.146C167.202 160.186 167.692 160.786 168.892 160.816C169.892 160.816 170.892 160.816 171.892 160.816C173.132 160.816 173.522 161.236 173.552 162.476C173.572 163.526 173.522 164.566 173.562 165.606Z" fill="#11142D"/>
<path d="M167.223 98.5666C167.223 99.4766 167.223 100.397 167.223 101.307C167.223 102.787 167.673 103.227 169.163 103.237C170.653 103.247 172.073 103.237 173.533 103.237C174.993 103.237 176.613 103.237 178.143 103.237C179.673 103.237 180.033 102.777 180.043 101.387C180.043 100.387 180.043 99.4766 180.043 98.5266C180.043 97.2766 179.553 96.7966 178.293 96.7866C175.173 96.7866 172.053 96.7866 168.933 96.7866C167.673 96.7966 167.223 97.2866 167.223 98.5666Z" fill="#11142D"/>
<path d="M79.2225 128.807C82.3825 128.807 85.5425 128.807 88.7025 128.807C89.8825 128.807 90.3625 128.317 90.4125 127.137C90.4125 126.137 90.4125 125.137 90.4125 124.137C90.4125 122.887 89.9125 122.437 88.6425 122.417C87.1025 122.417 85.5625 122.417 84.0325 122.417C82.5025 122.417 80.7825 122.417 79.1625 122.417C78.0525 122.417 77.5625 122.907 77.5225 124.007C77.4825 125.107 77.5225 126.087 77.5225 127.127C77.5225 128.167 78.0725 128.807 79.2225 128.807Z" fill="#11142D"/>
<path d="M77.5725 53.5262C77.5725 52.4562 77.0925 52.0262 76.0325 51.9962C74.9725 51.9662 73.8725 51.9962 72.7925 51.9962C71.7125 51.9962 71.2225 52.4862 71.2225 53.6062C71.2225 56.8062 71.2225 60.0062 71.2225 63.2062C71.2225 64.3162 71.7225 64.7762 72.8525 64.8062C73.9825 64.8362 74.8525 64.8062 75.8525 64.8062C77.2325 64.8062 77.6025 64.4162 77.6225 62.9962C77.6425 61.5762 77.6225 59.9962 77.6225 58.5062C77.5825 56.8762 77.6025 55.1862 77.5725 53.5262Z" fill="#11142D"/>
<path d="M77.5725 130.426C77.5725 129.296 77.0925 128.826 75.9925 128.786C74.8925 128.746 73.8325 128.786 72.7525 128.786C71.6725 128.786 71.2025 129.306 71.1925 130.336C71.1925 133.576 71.1925 136.816 71.1925 140.056C71.1925 141.136 71.6425 141.556 72.7225 141.596C73.8025 141.636 74.8025 141.596 75.8425 141.596C77.1925 141.596 77.5625 141.226 77.5825 139.896C77.5825 138.356 77.5825 136.816 77.5825 135.286C77.5825 133.756 77.6025 132.046 77.5725 130.426Z" fill="#11142D"/>
<path d="M71.2225 124.196C71.2225 122.866 70.7525 122.436 69.3925 122.426C67.8525 122.426 66.3125 122.426 64.7825 122.426C63.2525 122.426 61.7025 122.426 60.1725 122.426C58.6425 122.426 58.4225 122.796 58.4025 124.226C58.4025 125.226 58.4025 126.226 58.4025 127.226C58.4025 128.226 58.8525 128.816 60.0025 128.816C63.2025 128.816 66.4025 128.816 69.6025 128.816C70.7025 128.816 71.1725 128.316 71.2125 127.196C71.2525 126.076 71.2225 125.196 71.2225 124.196Z" fill="#11142D"/>
<path d="M127.222 58.4265C126.142 58.3865 125.062 58.3865 123.982 58.4265C122.802 58.4265 122.422 58.8265 122.412 60.0265C122.412 63.2265 122.412 66.4265 122.412 69.6265C122.412 70.7265 122.902 71.1965 124.022 71.2265C125.142 71.2565 126.022 71.2265 127.022 71.2265C128.342 71.2265 128.792 70.7265 128.802 69.3865C128.802 67.8465 128.802 66.3165 128.802 64.7765C128.802 63.2365 128.802 61.6165 128.802 60.0365C128.782 58.8765 128.382 58.4565 127.222 58.4265Z" fill="#11142D"/>
<path d="M117.423 103.217C118.623 103.277 119.833 103.277 121.033 103.217C121.222 103.22 121.411 103.184 121.586 103.111C121.761 103.037 121.92 102.929 122.051 102.792C122.182 102.655 122.284 102.492 122.35 102.314C122.415 102.136 122.444 101.946 122.433 101.757C122.493 100.597 122.493 99.4367 122.433 98.2767C122.442 98.0765 122.408 97.8767 122.334 97.6904C122.261 97.5041 122.148 97.3355 122.005 97.1957C121.861 97.0559 121.689 96.9481 121.501 96.8793C121.313 96.8105 121.112 96.7824 120.913 96.7967C119.753 96.7967 118.593 96.7367 117.433 96.7967C117.233 96.7855 117.034 96.8177 116.848 96.8912C116.662 96.9646 116.495 97.0774 116.357 97.222C116.219 97.3665 116.114 97.5392 116.049 97.7282C115.985 97.9172 115.962 98.118 115.983 98.3167C115.983 98.8567 115.983 99.3967 115.983 99.9367V101.677C116.043 102.647 116.473 103.167 117.423 103.217Z" fill="#11142D"/>
<path d="M165.612 83.9963C164.532 83.9963 163.452 83.9963 162.372 83.9963C162.164 83.9702 161.952 83.991 161.753 84.0573C161.553 84.1235 161.371 84.2335 161.22 84.3792C161.068 84.5249 160.951 84.7026 160.877 84.8994C160.803 85.0961 160.774 85.3069 160.792 85.5163C160.746 86.6363 160.746 87.7563 160.792 88.8763C160.773 89.0856 160.799 89.2967 160.87 89.4948C160.94 89.6928 161.054 89.873 161.201 90.0227C161.349 90.1723 161.528 90.2878 161.725 90.361C161.922 90.4341 162.133 90.4633 162.342 90.4463C163.462 90.4996 164.582 90.4996 165.702 90.4463C166.702 90.4463 167.172 89.8763 167.232 88.8463C167.232 88.3063 167.232 87.7663 167.232 87.2263C167.232 86.6863 167.232 86.1463 167.232 85.6063C167.222 84.4963 166.702 84.0163 165.612 83.9963Z" fill="#11142D"/>
<path d="M101.763 45.5662C100.563 45.5062 99.3525 45.5662 98.1525 45.5662C97.9723 45.5635 97.7934 45.5971 97.6265 45.6651C97.4596 45.7331 97.3082 45.8341 97.1812 45.962C97.0542 46.0899 96.9544 46.2421 96.8876 46.4095C96.8208 46.5769 96.7885 46.756 96.7925 46.9362C96.7275 48.1787 96.7275 49.4237 96.7925 50.6662C96.7925 51.5362 97.3725 51.9562 98.2825 52.0062C98.8225 52.0062 99.3625 52.0062 99.9025 52.0062C100.443 52.0062 101.063 52.0062 101.643 52.0062C101.852 52.0326 102.065 52.0116 102.265 51.9448C102.465 51.878 102.648 51.767 102.799 51.6202C102.951 51.4733 103.068 51.2943 103.141 51.0963C103.214 50.8983 103.242 50.6864 103.223 50.4762C103.273 49.3562 103.273 48.2262 103.223 47.1062C103.241 46.9061 103.217 46.7044 103.151 46.5145C103.086 46.3245 102.98 46.1508 102.842 46.005C102.704 45.8592 102.536 45.7446 102.35 45.6689C102.163 45.5932 101.963 45.5582 101.763 45.5662Z" fill="#11142D"/>
<path d="M165.683 160.796C164.563 160.75 163.443 160.75 162.323 160.796C162.113 160.777 161.902 160.805 161.705 160.877C161.508 160.95 161.33 161.066 161.183 161.216C161.036 161.367 160.925 161.548 160.858 161.747C160.79 161.946 160.768 162.158 160.793 162.366C160.793 163.446 160.793 164.526 160.793 165.606C160.793 166.686 161.313 167.196 162.403 167.236C163.493 167.276 164.563 167.236 165.643 167.236C166.723 167.236 167.193 166.706 167.243 165.596C167.243 165.056 167.243 164.516 167.243 163.976C167.243 163.436 167.243 162.896 167.243 162.356C167.163 161.326 166.713 160.876 165.683 160.796Z" fill="#11142D"/>
<path d="M180.022 79.0463C180.033 78.8577 180.006 78.6687 179.94 78.4913C179.875 78.3138 179.775 78.1516 179.644 78.0147C179.514 77.8779 179.357 77.7692 179.183 77.6955C179.009 77.6218 178.821 77.5847 178.632 77.5863C177.43 77.5213 176.225 77.5213 175.022 77.5863C174.833 77.5837 174.644 77.6191 174.468 77.6905C174.292 77.7619 174.133 77.8679 173.998 78.0021C173.864 78.1364 173.758 78.2962 173.687 78.4721C173.615 78.648 173.58 78.8365 173.582 79.0264C173.522 80.2264 173.522 81.4364 173.582 82.6364C173.581 82.8258 173.618 83.0137 173.692 83.1879C173.767 83.3622 173.877 83.5191 174.015 83.6488C174.153 83.7785 174.316 83.8782 174.495 83.9414C174.674 84.0047 174.863 84.0302 175.052 84.0163C176.252 84.0163 177.452 84.0663 178.652 84.0163C178.831 84.019 179.008 83.986 179.174 83.9192C179.339 83.8525 179.49 83.7533 179.617 83.6275C179.743 83.5017 179.844 83.3519 179.911 83.1869C179.979 83.0218 180.014 82.8449 180.012 82.6664C180.012 82.0864 180.012 81.5064 180.012 80.9264C180.022 80.2964 180.052 79.6663 180.022 79.0463Z" fill="#11142D"/>
<path d="M120.983 173.586C119.78 173.521 118.575 173.521 117.373 173.586C117.184 173.586 116.996 173.624 116.823 173.699C116.649 173.774 116.493 173.884 116.364 174.022C116.234 174.16 116.134 174.323 116.071 174.501C116.007 174.679 115.98 174.868 115.993 175.056C115.993 175.626 115.993 176.216 115.993 176.796V178.536C115.982 178.735 116.014 178.934 116.086 179.119C116.158 179.305 116.269 179.473 116.41 179.613C116.552 179.753 116.722 179.861 116.908 179.931C117.095 180 117.294 180.029 117.493 180.016C118.613 180.016 119.733 180.016 120.853 180.016C121.062 180.04 121.273 180.018 121.473 179.951C121.672 179.884 121.855 179.774 122.007 179.63C122.16 179.485 122.279 179.308 122.356 179.112C122.432 178.917 122.466 178.706 122.453 178.496C122.499 177.376 122.499 176.256 122.453 175.136C122.466 174.936 122.439 174.735 122.371 174.546C122.303 174.357 122.196 174.184 122.058 174.038C121.92 173.893 121.753 173.777 121.568 173.699C121.383 173.622 121.183 173.583 120.983 173.586Z" fill="#11142D"/>
<path d="M122.423 25.0062C122.41 25.1853 122.435 25.3651 122.494 25.5344C122.554 25.7037 122.647 25.8591 122.769 25.9911C122.891 26.1231 123.038 26.2289 123.202 26.302C123.366 26.3751 123.543 26.4139 123.723 26.4163C124.972 26.4862 126.224 26.4862 127.473 26.4163C127.642 26.4203 127.81 26.3904 127.968 26.3283C128.125 26.2663 128.269 26.1734 128.39 26.0551C128.511 25.9367 128.607 25.7954 128.673 25.6393C128.739 25.4832 128.773 25.3156 128.773 25.1463C128.833 23.8563 128.833 22.5562 128.773 21.2762C128.778 21.1062 128.749 20.9368 128.686 20.7788C128.623 20.6208 128.528 20.4776 128.406 20.3582C128.285 20.2389 128.14 20.146 127.981 20.0854C127.822 20.0248 127.653 19.9979 127.483 20.0063C126.243 19.9563 124.983 19.9563 123.733 20.0063C123.554 20.003 123.376 20.0371 123.211 20.1062C123.046 20.1754 122.897 20.2781 122.774 20.4079C122.651 20.5377 122.556 20.6917 122.495 20.8601C122.435 21.0286 122.41 21.2077 122.423 21.3863C122.423 21.9663 122.423 22.5463 122.423 23.1363C122.423 23.7262 122.393 24.3862 122.423 25.0062Z" fill="#11142D"/>
<path d="M53.3925 96.7965C54.5625 96.7965 55.7325 96.7965 56.8925 96.7965C57.0934 96.8172 57.2964 96.794 57.4873 96.7283C57.6783 96.6626 57.8526 96.5561 57.9983 96.4162C58.1439 96.2763 58.2573 96.1063 58.3305 95.9181C58.4038 95.7299 58.4352 95.528 58.4225 95.3265C58.4875 94.1607 58.4875 92.9923 58.4225 91.8265C58.4225 90.8865 57.8525 90.4565 56.8625 90.4165C56.3225 90.4165 55.7825 90.4165 55.2425 90.4165C54.7025 90.4165 54.0725 90.4165 53.4925 90.4165C52.4925 90.4165 52.0225 90.8865 51.9925 91.8665C51.9925 93.0365 51.9925 94.2065 51.9925 95.3665C51.9763 95.5558 52.0011 95.7464 52.0653 95.9252C52.1295 96.104 52.2315 96.2669 52.3644 96.4027C52.4974 96.5384 52.658 96.6439 52.8355 96.7119C53.0129 96.7798 53.2029 96.8087 53.3925 96.7965Z" fill="#11142D"/>
<path d="M59.9726 83.9963C58.8926 83.9963 58.4426 84.4563 58.4126 85.5163C58.3826 86.5763 58.4126 87.7663 58.4126 88.8963C58.4126 90.0263 58.8826 90.3863 59.8426 90.4363C61.0085 90.4963 62.1767 90.4963 63.3426 90.4363C63.533 90.4495 63.7239 90.4219 63.9027 90.3553C64.0815 90.2888 64.244 90.1848 64.3794 90.0504C64.5148 89.9159 64.6199 89.7541 64.6877 89.5758C64.7555 89.3975 64.7845 89.2067 64.7726 89.0163C64.8326 87.8163 64.8326 86.5963 64.7726 85.3963C64.7848 85.2067 64.756 85.0167 64.688 84.8393C64.62 84.6618 64.5146 84.5012 64.3788 84.3683C64.243 84.2354 64.0802 84.1333 63.9013 84.0691C63.7225 84.0049 63.5319 83.9801 63.3426 83.9963C62.7626 83.9963 62.1726 83.9963 61.5926 83.9963C61.0526 83.9863 60.5126 83.9663 59.9726 83.9963Z" fill="#11142D"/>
<path d="M103.223 101.797C103.209 101.977 103.232 102.158 103.292 102.329C103.352 102.499 103.446 102.656 103.569 102.788C103.692 102.921 103.841 103.026 104.007 103.098C104.173 103.17 104.352 103.207 104.533 103.207C105.778 103.277 107.027 103.277 108.273 103.207C108.446 103.207 108.617 103.172 108.777 103.105C108.937 103.038 109.082 102.939 109.203 102.815C109.324 102.691 109.419 102.545 109.482 102.383C109.546 102.222 109.577 102.05 109.573 101.877C109.573 101.297 109.573 100.707 109.573 100.127C109.573 99.5066 109.573 98.8766 109.573 98.2566C109.588 98.0777 109.566 97.8976 109.508 97.7276C109.45 97.5577 109.358 97.4015 109.236 97.2691C109.115 97.1366 108.968 97.0307 108.804 96.958C108.64 96.8853 108.462 96.8473 108.283 96.8466C107.037 96.7816 105.788 96.7816 104.543 96.8466C104.367 96.8424 104.193 96.8741 104.03 96.9396C103.868 97.0051 103.72 97.103 103.596 97.2275C103.473 97.352 103.376 97.5004 103.312 97.6636C103.247 97.8267 103.217 98.0013 103.223 98.1766C103.163 99.3866 103.163 100.597 103.223 101.797Z" fill="#11142D"/>
<path d="M58.4124 101.756C58.3938 101.945 58.4157 102.136 58.4767 102.315C58.5377 102.495 58.6364 102.659 58.7661 102.797C58.8959 102.936 59.0537 103.044 59.2289 103.117C59.4042 103.189 59.5929 103.223 59.7824 103.216C60.9849 103.281 62.19 103.281 63.3924 103.216C63.5831 103.227 63.7738 103.197 63.9516 103.127C64.1293 103.057 64.2898 102.95 64.422 102.812C64.5541 102.674 64.6548 102.509 64.717 102.329C64.7792 102.148 64.8016 101.956 64.7824 101.766C64.7824 100.606 64.7824 99.4364 64.7824 98.2764C64.8029 98.0865 64.782 97.8944 64.721 97.7134C64.6601 97.5324 64.5606 97.3667 64.4294 97.2279C64.2982 97.0891 64.1384 96.9804 63.9611 96.9094C63.7838 96.8383 63.5932 96.8066 63.4024 96.8164C62.2024 96.7464 60.9924 96.7564 59.7824 96.8164C59.5934 96.8114 59.4054 96.8465 59.2309 96.9193C59.0564 96.9921 58.8992 97.1011 58.7698 97.239C58.6404 97.3769 58.5417 97.5406 58.4801 97.7194C58.4185 97.8982 58.3954 98.0881 58.4124 98.2764C58.4124 98.8564 58.4124 99.4464 58.4124 100.026C58.4124 100.606 58.3724 101.176 58.4124 101.756Z" fill="#11142D"/>
<path d="M101.823 103.217C100.623 103.217 99.4125 103.217 98.2025 103.217C98.0233 103.201 97.8428 103.224 97.6726 103.282C97.5025 103.341 97.3465 103.434 97.2147 103.557C97.0828 103.679 96.978 103.828 96.9071 103.993C96.8361 104.158 96.8005 104.337 96.8025 104.517C96.7375 105.762 96.7375 107.011 96.8025 108.257C96.7995 108.436 96.8335 108.615 96.9025 108.781C96.9714 108.947 97.0738 109.097 97.2033 109.222C97.3327 109.347 97.4865 109.443 97.6549 109.506C97.8234 109.569 98.003 109.596 98.1825 109.587C98.7625 109.587 99.3425 109.587 99.9225 109.587H101.803C102.653 109.497 103.163 109.107 103.203 108.287C103.273 107.041 103.273 105.792 103.203 104.547C103.207 104.366 103.174 104.187 103.106 104.021C103.037 103.854 102.935 103.703 102.805 103.578C102.675 103.453 102.521 103.356 102.352 103.294C102.183 103.232 102.002 103.205 101.823 103.217Z" fill="#11142D"/>
<path d="M109.582 40.7566C109.587 40.6734 109.587 40.5899 109.582 40.5066C109.482 39.6966 109.122 39.2566 108.322 39.2266C107.072 39.1666 105.822 39.1666 104.582 39.2266C104.404 39.2153 104.224 39.2417 104.056 39.3041C103.888 39.3665 103.735 39.4635 103.606 39.5889C103.478 39.7143 103.378 39.8653 103.312 40.032C103.246 40.1987 103.215 40.3774 103.222 40.5566C103.222 41.8066 103.222 43.0566 103.222 44.2966C103.211 44.4665 103.235 44.6369 103.295 44.7963C103.355 44.9558 103.448 45.1006 103.568 45.221C103.689 45.3414 103.833 45.4345 103.993 45.4942C104.152 45.5538 104.323 45.5785 104.492 45.5666C105.732 45.6166 106.982 45.6166 108.232 45.5666C109.132 45.5666 109.502 45.1366 109.572 44.2466C109.572 43.6666 109.572 43.0866 109.572 42.5066L109.582 40.7566Z" fill="#11142D"/>
<path d="M173.563 72.4464C173.572 72.2875 173.549 72.1283 173.494 71.979C173.438 71.8297 173.352 71.6937 173.241 71.5797C173.13 71.4657 172.996 71.3763 172.848 71.3171C172.7 71.258 172.542 71.2305 172.383 71.2364C171.103 71.1764 169.803 71.1764 168.523 71.2364C168.353 71.2282 168.184 71.2548 168.025 71.3147C167.866 71.3746 167.721 71.4664 167.599 71.5845C167.478 71.7027 167.381 71.8445 167.316 72.0014C167.252 72.1582 167.22 72.3267 167.223 72.4964C167.223 73.7864 167.163 75.0764 167.223 76.3564C167.223 77.1464 167.713 77.5164 168.543 77.5764C169.123 77.5764 169.703 77.5764 170.283 77.5764C170.863 77.5764 171.623 77.5764 172.283 77.5764C173.103 77.5064 173.523 77.1264 173.553 76.3164C173.623 75.0264 173.623 73.7364 173.563 72.4464Z" fill="#11142D"/>
<path d="M159.422 71.2165C158.212 71.2165 157.002 71.2165 155.802 71.2165C154.872 71.2165 154.482 71.6965 154.432 72.6565C154.432 73.2365 154.432 73.8165 154.432 74.3965C154.432 74.9765 154.432 75.5665 154.432 76.1465C154.432 77.1465 154.852 77.5365 155.792 77.5765C157.002 77.5765 158.202 77.5765 159.412 77.5765C160.352 77.5765 160.762 77.1165 160.802 76.1565C160.802 74.9965 160.802 73.8265 160.802 72.6665C160.821 72.4774 160.799 72.2864 160.738 72.1066C160.676 71.9269 160.576 71.7625 160.445 71.6248C160.314 71.4872 160.155 71.3794 159.978 71.3089C159.802 71.2385 159.612 71.2069 159.422 71.2165Z" fill="#11142D"/>
<path d="M141.562 136.506C141.574 136.338 141.55 136.169 141.491 136.01C141.433 135.852 141.342 135.708 141.224 135.587C141.106 135.466 140.964 135.371 140.807 135.309C140.65 135.247 140.481 135.219 140.312 135.226C139.066 135.18 137.816 135.18 136.562 135.226C136.383 135.216 136.203 135.244 136.035 135.308C135.867 135.373 135.715 135.472 135.588 135.6C135.462 135.727 135.364 135.88 135.301 136.049C135.237 136.217 135.211 136.397 135.222 136.576C135.172 137.816 135.172 139.066 135.222 140.316C135.213 140.486 135.241 140.655 135.302 140.812C135.364 140.97 135.458 141.113 135.579 141.231C135.7 141.35 135.845 141.441 136.005 141.499C136.164 141.556 136.334 141.579 136.502 141.566C137.782 141.616 139.082 141.616 140.362 141.566C140.521 141.573 140.679 141.548 140.827 141.49C140.976 141.433 141.11 141.346 141.223 141.234C141.336 141.122 141.424 140.988 141.482 140.841C141.541 140.693 141.568 140.535 141.562 140.376C141.562 139.756 141.562 139.126 141.562 138.506C141.572 137.876 141.612 137.166 141.562 136.506Z" fill="#11142D"/>
<path d="M34.7326 52.0164H50.1126C51.5526 52.0164 52.0026 51.5864 52.0026 50.1764C52.0026 45.0097 52.0026 39.843 52.0026 34.6764C52.0026 33.2564 51.5526 32.7764 50.1526 32.7764C44.9926 32.7764 39.8226 32.7764 34.6526 32.7764C33.2326 32.7764 32.7626 33.2364 32.7526 34.6364C32.7526 39.7964 32.7526 44.9597 32.7526 50.1264C32.7626 51.5964 33.2226 52.0164 34.7326 52.0164Z" fill="#11142D"/>
<path d="M165.383 32.7764C160.213 32.7764 155.053 32.7764 149.883 32.7764C148.453 32.7764 147.993 33.2264 147.993 34.6264C147.993 39.7997 147.993 44.9664 147.993 50.1264C147.993 51.6064 148.423 52.0164 149.993 52.0164H165.323C166.743 52.0164 167.233 51.5664 167.233 50.1764C167.233 45.0164 167.233 39.853 167.233 34.6864C167.223 33.2564 166.773 32.7764 165.383 32.7764Z" fill="#11142D"/>
<path d="M50.1125 147.997H34.7325C33.2125 147.997 32.7325 148.417 32.7325 149.887C32.7325 155.06 32.7325 160.227 32.7325 165.387C32.7325 166.787 33.2125 167.237 34.6425 167.247C39.8159 167.247 44.9825 167.247 50.1425 167.247C51.5325 167.247 51.9825 166.767 51.9825 165.347C51.9825 160.173 51.9825 155.007 51.9825 149.847C52.0025 148.437 51.5525 147.997 50.1125 147.997Z" fill="#11142D"/>
</svg>
