<svg width="36" height="36" viewBox="0 0 36 36" fill="none" xmlns="http://www.w3.org/2000/svg">
<g id="WhatsappToUser_btn_pc">
<path id="Vector" d="M0.901533 17.7844C0.900696 20.8091 1.69102 23.7625 3.19381 26.3657L0.757812 35.2599L9.85995 32.8733C12.3775 34.2439 15.1982 34.962 18.0646 34.9622H18.0721C27.5347 34.9622 35.2374 27.2622 35.2415 17.798C35.2433 13.2119 33.4589 8.89942 30.217 5.65495C26.9756 2.41077 22.6646 0.623187 18.0714 0.621094C8.60777 0.621094 0.90558 8.32063 0.901673 17.7844" fill="#4FB229"/>
<path id="Vector_2" d="M13.6292 10.3466C13.2963 9.60661 12.9459 9.59168 12.6293 9.5787C12.37 9.56754 12.0737 9.56837 11.7776 9.56837C11.4812 9.56837 10.9997 9.67986 10.5926 10.1243C10.1852 10.5691 9.03711 11.6441 9.03711 13.8305C9.03711 16.017 10.6296 18.13 10.8516 18.4267C11.0739 18.723 13.926 23.3533 18.443 25.1346C22.1971 26.6149 22.961 26.3205 23.7758 26.2463C24.5906 26.1723 26.4052 25.1716 26.7753 24.1339C27.1458 23.0963 27.1458 22.2069 27.0347 22.021C26.9237 21.8359 26.6273 21.7247 26.1829 21.5025C25.7383 21.2802 23.5535 20.2051 23.1462 20.0568C22.7387 19.9086 22.4425 19.8347 22.1461 20.2796C21.8498 20.7239 20.9987 21.7247 20.7393 22.021C20.4802 22.3181 20.2208 22.3551 19.7765 22.1328C19.3319 21.9098 17.9006 21.4411 16.2026 19.9273C14.8815 18.7494 13.9896 17.2947 13.7304 16.8497C13.4711 16.4054 13.7026 16.1646 13.9254 15.9432C14.1251 15.744 14.37 15.4242 14.5924 15.1648C14.814 14.9053 14.8879 14.7201 15.0361 14.4238C15.1845 14.1271 15.1102 13.8676 14.9993 13.6453C14.8879 13.423 14.0244 11.2254 13.6292 10.3467" fill="white"/>
</g>
</svg>
