<svg width="24" height="24" viewBox="0 0 24 24" fill="none" xmlns="http://www.w3.org/2000/svg">
<path d="M11.8 7.3999C9.4 7.3999 7.5 9.2999 7.5 11.6999C7.5 14.0999 9.4 15.9999 11.8 15.9999C14.2 15.9999 16.1 14.0999 16.1 11.6999C16.1 9.2999 14.2 7.3999 11.8 7.3999ZM11.8 14.3999C10.3 14.3999 9.1 13.1999 9.1 11.6999C9.1 10.1999 10.3 8.9999 11.8 8.9999C13.3 8.9999 14.5 10.1999 14.5 11.6999C14.5 13.1999 13.3 14.3999 11.8 14.3999Z" fill="#006174"/>
<path d="M21.4 10.8C21.3 10.6 21.1 10.3 20.9 10.1L12.3 2.2C12.2 2.1 12 2 11.8 2C11.6 2 11.5 2.1 11.3 2.2L2.7 10.1C2.5 10.3 2.3 10.6 2.2 10.8C2.1 11.1 2 11.4 2 11.7V19.4C2 20 2.2 20.5 2.6 20.9C3 21.3 3.6 21.5 4.1 21.5H11.8H19.5C20 21.5 20.6 21.3 21 20.9C21.4 20.5 21.6 20 21.6 19.4V11.7C21.6 11.4 21.5 11.1 21.4 10.8ZM11.8 20H7.5C7.9 19.6 8.4 19.2 8.9 18.9C9.8 18.4 10.7 18.1 11.8 18.1C12.8 18.1 13.8 18.4 14.7 18.9C15.2 19.2 15.7 19.6 16.1 20H11.8ZM19.9 11.7V19.4C19.9 19.5 19.8 19.7 19.7 19.8C19.6 19.9 19.5 20 19.3 20H18.1C17.5 19 16.6 18.1 15.5 17.5C14.3 16.8 13.1 16.5 11.8 16.5C10.5 16.5 9.3 16.8 8.1 17.5C7 18.1 6.1 19 5.5 20H4.3C4.1 20 4 19.9 3.9 19.8C3.8 19.7 3.7 19.5 3.7 19.4V11.7C3.7 11.6 3.7 11.5 3.7 11.5C3.7 11.4 3.8 11.3 3.8 11.3L11.8 3.9L19.8 11.3C19.7807 11.2822 19.9 11.4 19.9 11.5C19.9 11.5 19.9 11.6 19.9 11.7Z" fill="#006174"/>
</svg>
