<svg width="24" height="24" viewBox="0 0 24 24" fill="none" xmlns="http://www.w3.org/2000/svg">
<path d="M21 16C20.6 16 20.2 16.4 20.2 16.8C20.2 18.4 16.8 20.2 12 20.2C7.19995 20.2 3.79995 18.4 3.79995 16.8C3.79995 16.4 3.39995 16 2.99995 16C2.59995 16 2.19995 16.4 2.19995 16.8C2.19995 19.6 6.39995 21.8 12 21.8C17.6 21.8 21.7999 19.7 21.7999 16.8C21.7999 16.4 21.4 16 21 16Z" fill="#006174"/>
<path d="M9.2999 15.7998C9.5999 15.7998 9.9999 15.8998 10.4999 15.8998C10.9999 15.8998 11.5999 15.7998 11.9999 15.6998C12.3999 15.7998 12.9999 15.8998 13.4999 15.8998C13.9999 15.8998 14.3999 15.8998 14.6999 15.7998C15.6999 15.6998 17.4999 15.3998 18.4999 14.3998C20.5999 12.2998 21.1999 6.7998 21.1999 6.5998C21.1999 6.3998 21.0999 6.0998 20.9999 5.9998C20.7999 5.7998 20.5999 5.6998 20.3999 5.7998C18.6999 5.9998 17.0999 6.29981 15.4999 6.79981C14.4999 4.59981 12.8999 2.6998 12.7999 2.5998C12.4999 2.1998 11.8999 2.1998 11.5999 2.5998C11.4999 2.6998 9.8999 4.69981 8.8999 6.79981C7.2999 6.29981 5.6999 5.8998 3.9999 5.7998C3.7999 5.7998 3.4999 5.8998 3.3999 5.9998C2.9999 6.0998 2.8999 6.2998 2.8999 6.4998C2.8999 6.6998 3.3999 12.1998 5.5999 14.2998C6.5999 15.3998 8.3999 15.6998 9.2999 15.7998ZM19.3999 7.39981C19.0999 9.19981 18.4999 12.0998 17.2999 13.2998C16.6999 13.8998 15.1999 14.1998 13.9999 14.2998C15.0999 13.0998 16.1999 11.2998 16.1999 9.9998C16.1999 9.4998 16.0999 8.89981 15.8999 8.29981C17.0999 7.79981 18.1999 7.59981 19.3999 7.39981ZM11.9999 4.2998C13.0999 5.7998 14.6999 8.2998 14.6999 9.8998C14.6999 11.1998 12.7999 13.3998 11.9999 13.8998C11.2999 13.3998 9.2999 11.2998 9.2999 9.8998C9.2999 8.2998 10.8999 5.7998 11.9999 4.2998ZM7.9999 8.1998C7.8999 8.7998 7.6999 9.3998 7.6999 9.8998C7.6999 11.1998 8.7999 12.9998 9.8999 14.1998C8.6999 14.0998 7.2999 13.7998 6.5999 13.1998C5.3999 11.9998 4.7999 9.09981 4.4999 7.29981C5.7999 7.59981 6.8999 7.7998 7.9999 8.1998Z" fill="#006174"/>
</svg>
