<svg width="24" height="24" viewBox="0 0 24 24" fill="none" xmlns="http://www.w3.org/2000/svg">
<path fill-rule="evenodd" clip-rule="evenodd" d="M4.17145 10.5083C4.17145 10.0665 4.52962 9.70829 4.97145 9.70829H19.9998C20.4416 9.70829 20.7998 10.0665 20.7998 10.5083V19.0032C20.7998 19.9973 19.9939 20.8032 18.9998 20.8032H5.97145C4.97734 20.8032 4.17145 19.9973 4.17145 19.0032V10.5083ZM5.77145 11.3083V19.0032C5.77145 19.1137 5.861 19.2032 5.97145 19.2032H18.9998C19.1102 19.2032 19.1998 19.1137 19.1998 19.0032V11.3083H5.77145Z" fill="white"/>
<path fill-rule="evenodd" clip-rule="evenodd" d="M4.19665 10.7153C4.311 11.1421 4.74967 11.3954 5.17645 11.281L19.6927 7.39142C20.1194 7.27706 20.3727 6.83839 20.2584 6.41162L19.5476 3.75889C19.2903 2.79865 18.3033 2.2288 17.343 2.4861L4.75865 5.85807C3.79841 6.11536 3.22856 7.10237 3.48585 8.06261L4.19665 10.7153ZM5.53508 9.52849L5.03133 7.6485C5.00275 7.54181 5.06606 7.43214 5.17276 7.40355L17.7571 4.03158C17.8638 4.00299 17.9735 4.06631 18.0021 4.173L18.5058 6.05299L5.53508 9.52849Z" fill="white"/>
<path fill-rule="evenodd" clip-rule="evenodd" d="M7.61633 16.6658C7.61633 16.224 7.9745 15.8658 8.41633 15.8658H10.0957C10.5375 15.8658 10.8957 16.224 10.8957 16.6658C10.8957 17.1077 10.5375 17.4658 10.0957 17.4658H8.41633C7.9745 17.4658 7.61633 17.1077 7.61633 16.6658Z" fill="white"/>
<path fill-rule="evenodd" clip-rule="evenodd" d="M8.79186 10.2248C8.359 10.1362 8.07991 9.71349 8.16849 9.28063L9.0082 5.17716C9.09678 4.7443 9.51949 4.46521 9.95234 4.55379C10.3852 4.64237 10.6643 5.06507 10.5757 5.49793L9.736 9.6014C9.64743 10.0343 9.22472 10.3133 8.79186 10.2248Z" fill="white"/>
<path fill-rule="evenodd" clip-rule="evenodd" d="M13.5333 8.95437C13.1004 8.86579 12.8213 8.44309 12.9099 8.01023L13.7496 3.90676C13.8382 3.47391 14.2609 3.19481 14.6938 3.28339C15.1266 3.37197 15.4057 3.79467 15.3171 4.22753L14.4774 8.331C14.3889 8.76386 13.9661 9.04295 13.5333 8.95437Z" fill="white"/>
</svg>
