<svg width="24" height="24" viewBox="0 0 24 24" fill="none" xmlns="http://www.w3.org/2000/svg">
<path fill-rule="evenodd" clip-rule="evenodd" d="M7.15378 3.8002C6.83091 3.8002 6.56916 4.06194 6.56916 4.38481V7.15404C6.56916 7.47692 6.83091 7.73866 7.15378 7.73866H19.6153C19.9382 7.73866 20.1999 7.47692 20.1999 7.15404V4.38481C20.1999 4.06194 19.9382 3.8002 19.6153 3.8002H7.15378ZM4.96916 4.38481C4.96916 3.17828 5.94725 2.2002 7.15378 2.2002H19.6153C20.8218 2.2002 21.7999 3.17828 21.7999 4.38481V7.15404C21.7999 8.36057 20.8218 9.33866 19.6153 9.33866H7.15378C5.94725 9.33866 4.96916 8.36057 4.96916 7.15404V4.38481Z" fill="white"/>
<path fill-rule="evenodd" clip-rule="evenodd" d="M4.38457 6.56963C4.22952 6.56963 4.08082 6.63122 3.97118 6.74086C3.86154 6.8505 3.79995 6.99919 3.79995 7.15424V8.53886C3.79995 9.06113 4.00742 9.56201 4.37673 9.93132C4.74603 10.3006 5.24691 10.5081 5.76918 10.5081H10.6153C11.562 10.5081 12.4698 10.8841 13.1392 11.5535C13.8085 12.2229 14.1846 13.1307 14.1846 14.0773V15.4619C14.1846 15.9038 13.8264 16.2619 13.3846 16.2619C12.9427 16.2619 12.5846 15.9038 12.5846 15.4619V14.0773C12.5846 13.555 12.3771 13.0542 12.0078 12.6849C11.6385 12.3156 11.1376 12.1081 10.6153 12.1081H5.76918C4.82256 12.1081 3.91472 11.732 3.24535 11.0627C2.57599 10.3933 2.19995 9.48548 2.19995 8.53886V7.15424C2.19995 6.57485 2.43012 6.01918 2.83981 5.60949C3.24951 5.19979 3.80517 4.96963 4.38457 4.96963H5.76918C6.21101 4.96963 6.56918 5.3278 6.56918 5.76963C6.56918 6.21146 6.21101 6.56963 5.76918 6.56963H4.38457Z" fill="white"/>
<path fill-rule="evenodd" clip-rule="evenodd" d="M12.6922 16.2618C12.5372 16.2618 12.3885 16.3234 12.2788 16.433C12.1692 16.5426 12.1076 16.6913 12.1076 16.8464V21.0002C12.1076 21.4421 11.7494 21.8002 11.3076 21.8002C10.8658 21.8002 10.5076 21.4421 10.5076 21.0002V16.8464C10.5076 16.267 10.7378 15.7113 11.1475 15.3016C11.5571 14.8919 12.1128 14.6618 12.6922 14.6618H14.0768C14.6562 14.6618 15.2119 14.8919 15.6216 15.3016C16.0313 15.7113 16.2614 16.267 16.2614 16.8464V21.0002C16.2614 21.4421 15.9033 21.8002 15.4614 21.8002C15.0196 21.8002 14.6614 21.4421 14.6614 21.0002V16.8464C14.6614 16.6913 14.5998 16.5426 14.4902 16.433C14.3806 16.3234 14.2319 16.2618 14.0768 16.2618H12.6922Z" fill="white"/>
</svg>
