<svg width="24" height="24" viewBox="0 0 24 24" fill="none" xmlns="http://www.w3.org/2000/svg">
<path fill-rule="evenodd" clip-rule="evenodd" d="M4.08107 12.504L11.9871 19.817L19.8958 12.5014C21.8438 10.57 21.4427 7.69407 19.7841 6.02856C18.9722 5.2132 17.8947 4.73656 16.7013 4.82218C15.5076 4.90781 14.0753 5.56587 12.5885 7.26087C12.4364 7.43418 12.217 7.53349 11.9865 7.53332C11.7559 7.53315 11.5367 7.43353 11.3849 7.26C9.89687 5.55871 8.46802 4.89783 7.28014 4.81016C6.09341 4.72257 5.02292 5.19678 4.21494 6.01151C2.564 7.67625 2.15977 10.5612 4.08107 12.504ZM11.9881 5.5651C10.4819 4.06951 8.90971 3.32607 7.3979 3.2145C5.6825 3.08789 4.1695 3.78511 3.07887 4.88486C0.935778 7.04586 0.280645 10.9541 2.95829 13.644C2.96604 13.6518 2.97396 13.6595 2.98203 13.6669L11.4438 21.4941C11.7504 21.7777 12.2237 21.7777 12.5303 21.4941L20.9921 13.6669C20.9984 13.6611 21.0046 13.6552 21.0106 13.6492C23.7278 10.969 23.0699 7.06049 20.9179 4.89954C19.8233 3.80043 18.3054 3.10299 16.5868 3.22628C15.0716 3.33497 13.4957 4.07389 11.9881 5.5651Z" fill="#006174"/>
<path fill-rule="evenodd" clip-rule="evenodd" d="M10.5891 8.19436C10.8973 8.20601 11.1714 8.39385 11.2935 8.67713L13.2104 13.1244L14.4762 11.5643C14.6281 11.377 14.8563 11.2683 15.0974 11.2683H17.4399C17.8817 11.2683 18.2399 11.6265 18.2399 12.0683C18.2399 12.5101 17.8817 12.8683 17.4399 12.8683H15.4785L13.6202 15.1588C13.4438 15.3762 13.1667 15.4856 12.8894 15.4473C12.6122 15.409 12.3751 15.2285 12.2643 14.9715L10.4886 10.852L9.65704 12.4395C9.51896 12.7031 9.24597 12.8683 8.94838 12.8683H6.55708C6.11526 12.8683 5.75708 12.5101 5.75708 12.0683C5.75708 11.6265 6.11526 11.2683 6.55708 11.2683H8.46432L9.85018 8.62258C9.99331 8.34933 10.2808 8.18271 10.5891 8.19436Z" fill="#006174"/>
</svg>
