<svg width="24" height="24" viewBox="0 0 24 24" fill="none" xmlns="http://www.w3.org/2000/svg">
<path d="M12 2.2002C6.59995 2.2002 2.19995 6.6002 2.19995 12.0002C2.19995 17.4002 6.59995 21.8002 12 21.8002C17.4 21.8002 21.7999 17.4002 21.7999 12.0002C21.7999 6.6002 17.4 2.2002 12 2.2002ZM18.6 16.8002C18 16.3002 17.4 15.7002 17 15.0002C16.5 14.1002 16.2 13.1002 16.2 12.0002C16.2 11.0002 16.5 9.9002 17 9.0002C17.4 8.3002 17.9 7.7002 18.6 7.2002C19.6 8.6002 20.2 10.2002 20.2 12.0002C20.2 13.8002 19.6 15.5002 18.6 16.8002ZM8.29995 8.2002C7.89995 7.4002 7.19995 6.6002 6.49995 6.0002C7.79995 4.8002 9.39995 4.0002 11.2 3.9002V20.2002C9.39995 20.0002 7.69995 19.2002 6.49995 18.1002C7.29995 17.5002 7.89995 16.7002 8.39995 15.9002C8.99995 14.7002 9.39995 13.4002 9.39995 12.1002C9.29995 10.7002 8.99995 9.4002 8.29995 8.2002ZM12.8 3.8002C14.6 4.0002 16.3 4.8002 17.5 5.9002C16.7 6.5002 16.1 7.3002 15.6 8.1002C15 9.3002 14.6 10.6002 14.6 11.9002C14.6 13.2002 14.9 14.5002 15.6 15.7002C16.1 16.6002 16.7 17.3002 17.5 17.9002C16.2 19.1002 14.6 19.9002 12.8 20.0002V3.8002ZM5.39995 7.2002C5.99995 7.7002 6.59995 8.3002 6.99995 9.0002C7.49995 9.9002 7.79995 11.0002 7.79995 12.0002C7.79995 13.0002 7.49995 14.1002 6.99995 15.0002C6.59995 15.7002 6.09995 16.3002 5.39995 16.8002C4.39995 15.4002 3.79995 13.8002 3.79995 12.0002C3.79995 10.2002 4.39995 8.5002 5.39995 7.2002Z" fill="#006174"/>
</svg>
