<svg width="24" height="24" viewBox="0 0 24 24" fill="none" xmlns="http://www.w3.org/2000/svg">
<path fill-rule="evenodd" clip-rule="evenodd" d="M5.38673 9.05242C5.6074 8.66964 6.09658 8.53822 6.47936 8.75888L20.3994 16.7835C20.7821 17.0042 20.9136 17.4934 20.6929 17.8761C20.4722 18.2589 19.983 18.3903 19.6003 18.1697L5.68026 10.145C5.29749 9.92438 5.16607 9.43519 5.38673 9.05242Z" fill="#006174"/>
<path fill-rule="evenodd" clip-rule="evenodd" d="M6.76918 4.79971C5.68161 4.79971 4.79995 5.68136 4.79995 6.76894C4.79995 7.85651 5.68161 8.73817 6.76918 8.73817C7.85676 8.73817 8.73841 7.85651 8.73841 6.76894C8.73841 5.68136 7.85676 4.79971 6.76918 4.79971ZM3.19995 6.76894C3.19995 4.79771 4.79795 3.19971 6.76918 3.19971C8.74041 3.19971 10.3384 4.79771 10.3384 6.76894C10.3384 8.74017 8.74041 10.3382 6.76918 10.3382C4.79795 10.3382 3.19995 8.74017 3.19995 6.76894Z" fill="#006174"/>
<path fill-rule="evenodd" clip-rule="evenodd" d="M20.6929 6.12273C20.9136 6.50551 20.7821 6.99469 20.3994 7.21536L6.47936 15.24C6.09658 15.4606 5.6074 15.3292 5.38673 14.9464C5.16607 14.5637 5.29749 14.0745 5.68026 13.8538L19.6003 5.8292C19.983 5.60853 20.4722 5.73995 20.6929 6.12273Z" fill="#006174"/>
<path fill-rule="evenodd" clip-rule="evenodd" d="M6.76918 15.2615C5.68161 15.2615 4.79995 16.1432 4.79995 17.2307C4.79995 18.3183 5.68161 19.2 6.76918 19.2C7.85676 19.2 8.73841 18.3183 8.73841 17.2307C8.73841 16.1432 7.85676 15.2615 6.76918 15.2615ZM3.19995 17.2307C3.19995 15.2595 4.79795 13.6615 6.76918 13.6615C8.74041 13.6615 10.3384 15.2595 10.3384 17.2307C10.3384 19.202 8.74041 20.8 6.76918 20.8C4.79795 20.8 3.19995 19.202 3.19995 17.2307Z" fill="#006174"/>
</svg>
