<svg width="24" height="24" viewBox="0 0 24 24" fill="none" xmlns="http://www.w3.org/2000/svg">
<path d="M20.9045 7.29748C20.8777 7.15189 20.8205 7.01358 20.7367 6.89151C20.653 6.76945 20.5445 6.66637 20.4183 6.58896L17.6398 9.36746C17.5102 9.50191 17.3548 9.60886 17.1829 9.68191C17.0111 9.75496 16.8263 9.79261 16.6395 9.79261C16.4528 9.79261 16.2679 9.75496 16.0961 9.68191C15.9242 9.60886 15.7688 9.50191 15.6393 9.36746L14.5834 8.42277C14.3289 8.16308 14.1863 7.81394 14.1863 7.45029C14.1863 7.08665 14.3289 6.73751 14.5834 6.47782L17.3619 3.69932C17.3013 3.55697 17.2102 3.42968 17.095 3.32645C16.9797 3.22322 16.8432 3.14658 16.6951 3.10194C15.7256 2.90861 14.7214 2.99137 13.7966 3.34079C12.8719 3.6902 12.0639 4.29224 11.4645 5.07836C10.8651 5.86448 10.4985 6.80309 10.4065 7.78734C10.3202 8.70933 10.478 9.63665 10.8626 10.4766L3.4069 17.9323C2.85653 18.4827 2.86565 19.3778 3.42714 19.9169L4.2062 20.6648C4.7496 21.1864 5.60975 21.18 6.14529 20.6503L13.6866 13.1906C14.5023 13.5275 15.3907 13.6556 16.2711 13.5612C17.2447 13.4569 18.1702 13.0845 18.9447 12.4856C19.7193 11.8867 20.3125 11.0847 20.6585 10.1688C21.0045 9.25285 21.0896 8.25891 20.9045 7.29748Z" stroke="white" stroke-width="1.6" stroke-linecap="round" stroke-linejoin="round"/>
</svg>
