<svg width="24" height="25" viewBox="0 0 24 25" fill="none" xmlns="http://www.w3.org/2000/svg">
<path fill-rule="evenodd" clip-rule="evenodd" d="M3.1162 12.5431C2.93687 12.8121 2.79995 13.2298 2.79995 13.7312C2.79995 14.2325 2.93687 14.6502 3.1162 14.9192C3.29925 15.1938 3.46428 15.2389 3.53841 15.2389C3.61254 15.2389 3.77757 15.1938 3.96063 14.9192C4.13996 14.6502 4.27687 14.2325 4.27687 13.7312C4.27687 13.2298 4.13996 12.8121 3.96063 12.5431C3.77757 12.2686 3.61254 12.2235 3.53841 12.2235C3.46428 12.2235 3.29925 12.2686 3.1162 12.5431ZM1.78492 11.6556C2.15867 11.095 2.76287 10.6235 3.53841 10.6235C4.31395 10.6235 4.91815 11.095 5.29191 11.6556C5.6694 12.2219 5.87687 12.958 5.87687 13.7312C5.87687 14.5043 5.6694 15.2405 5.29191 15.8067C4.91815 16.3674 4.31395 16.8389 3.53841 16.8389C2.76287 16.8389 2.15867 16.3674 1.78492 15.8067C1.40743 15.2405 1.19995 14.5043 1.19995 13.7312C1.19995 12.958 1.40743 12.2219 1.78492 11.6556Z" fill="#006174"/>
<path fill-rule="evenodd" clip-rule="evenodd" d="M7.73154 5.61986C7.55221 5.88885 7.41529 6.30655 7.41529 6.80789C7.41529 7.30923 7.55221 7.72692 7.73154 7.99591C7.9146 8.2705 8.07963 8.31558 8.15376 8.31558C8.22788 8.31558 8.39292 8.2705 8.57597 7.99591C8.7553 7.72692 8.89222 7.30923 8.89222 6.80789C8.89222 6.30655 8.7553 5.88885 8.57597 5.61986C8.39292 5.34528 8.22788 5.3002 8.15376 5.3002C8.07963 5.3002 7.9146 5.34528 7.73154 5.61986ZM6.40026 4.73234C6.77402 4.17171 7.37822 3.7002 8.15376 3.7002C8.9293 3.7002 9.53349 4.17171 9.90725 4.73234C10.2847 5.29857 10.4922 6.03473 10.4922 6.80789C10.4922 7.58105 10.2847 8.3172 9.90725 8.88343C9.53349 9.44407 8.9293 9.91558 8.15376 9.91558C7.37822 9.91558 6.77402 9.44407 6.40026 8.88343C6.02277 8.3172 5.81529 7.58105 5.81529 6.80789C5.81529 6.03473 6.02277 5.29857 6.40026 4.73234Z" fill="#006174"/>
<path fill-rule="evenodd" clip-rule="evenodd" d="M15.4239 5.61986C15.2445 5.88885 15.1076 6.30655 15.1076 6.80789C15.1076 7.30923 15.2445 7.72692 15.4239 7.99591C15.6069 8.2705 15.772 8.31558 15.8461 8.31558C15.9202 8.31558 16.0852 8.2705 16.2683 7.99591C16.4476 7.72692 16.5845 7.30923 16.5845 6.80789C16.5845 6.30655 16.4476 5.88885 16.2683 5.61986C16.0852 5.34528 15.9202 5.3002 15.8461 5.3002C15.772 5.3002 15.6069 5.34528 15.4239 5.61986ZM14.0926 4.73234C14.4663 4.17171 15.0705 3.7002 15.8461 3.7002C16.6216 3.7002 17.2258 4.17171 17.5996 4.73234C17.9771 5.29857 18.1845 6.03473 18.1845 6.80789C18.1845 7.58105 17.9771 8.3172 17.5996 8.88343C17.2258 9.44407 16.6216 9.91558 15.8461 9.91558C15.0705 9.91558 14.4663 9.44407 14.0926 8.88343C13.7151 8.3172 13.5076 7.58105 13.5076 6.80789C13.5076 6.03473 13.7151 5.29857 14.0926 4.73234Z" fill="#006174"/>
<path fill-rule="evenodd" clip-rule="evenodd" d="M20.0392 12.5431C19.8599 12.8121 19.723 13.2298 19.723 13.7312C19.723 14.2325 19.8599 14.6502 20.0392 14.9192C20.2223 15.1938 20.3873 15.2389 20.4614 15.2389C20.5356 15.2389 20.7006 15.1938 20.8836 14.9192C21.063 14.6502 21.1999 14.2325 21.1999 13.7312C21.1999 13.2298 21.063 12.8121 20.8836 12.5431C20.7006 12.2686 20.5356 12.2235 20.4614 12.2235C20.3873 12.2235 20.2223 12.2686 20.0392 12.5431ZM18.7079 11.6556C19.0817 11.095 19.6859 10.6235 20.4614 10.6235C21.237 10.6235 21.8412 11.095 22.2149 11.6556C22.5924 12.2219 22.7999 12.958 22.7999 13.7312C22.7999 14.5043 22.5924 15.2405 22.2149 15.8067C21.8412 16.3674 21.237 16.8389 20.4614 16.8389C19.6859 16.8389 19.0817 16.3674 18.7079 15.8067C18.3304 15.2405 18.123 14.5043 18.123 13.7312C18.123 12.958 18.3304 12.2219 18.7079 11.6556Z" fill="#006174"/>
<path fill-rule="evenodd" clip-rule="evenodd" d="M9.19022 13.7835C8.51819 14.7277 8.18461 15.9115 8.18461 16.8081C8.18461 17.4951 8.56724 18.0365 9.29078 18.4468C10.0305 18.8663 11.0399 19.085 12 19.085C12.9601 19.085 13.9695 18.8663 14.7092 18.4468C15.4327 18.0365 15.8154 17.4951 15.8154 16.8081C15.8154 15.9115 15.4818 14.7277 14.8098 13.7835C14.1503 12.857 13.2171 12.2235 12 12.2235C10.7829 12.2235 9.84971 12.857 9.19022 13.7835ZM7.88668 12.8557C8.76566 11.6208 10.1402 10.6235 12 10.6235C13.8598 10.6235 15.2343 11.6208 16.1133 12.8557C16.9797 14.0731 17.4154 15.5816 17.4154 16.8081C17.4154 18.2442 16.5519 19.2412 15.4985 19.8386C14.4612 20.4268 13.163 20.685 12 20.685C10.837 20.685 9.53875 20.4268 8.50151 19.8386C7.44813 19.2412 6.58461 18.2442 6.58461 16.8081C6.58461 15.5816 7.02026 14.0731 7.88668 12.8557Z" fill="#006174"/>
</svg>
