<svg width="24" height="24" viewBox="0 0 24 24" fill="none" xmlns="http://www.w3.org/2000/svg">
<path fill-rule="evenodd" clip-rule="evenodd" d="M11.6819 2.26565C11.8848 2.17773 12.1151 2.17773 12.318 2.26565L22.318 6.59839C22.6106 6.72516 22.8 7.01358 22.8 7.33245C22.8 7.65132 22.6106 7.93974 22.318 8.06651L12.318 12.3993C12.1151 12.4872 11.8848 12.4872 11.6819 12.3993L1.6819 8.06651C1.38931 7.93974 1.19995 7.65132 1.19995 7.33245C1.19995 7.01358 1.38931 6.72516 1.6819 6.59839L11.6819 2.26565ZM4.01222 7.33245L12 10.7933L19.9877 7.33245L12 3.87157L4.01222 7.33245Z" fill="#006174"/>
<path fill-rule="evenodd" clip-rule="evenodd" d="M6.53549 8.50993C6.97731 8.509 7.33624 8.86642 7.33717 9.30825L7.34644 13.7177C7.36795 13.7394 7.39159 13.7627 7.41738 13.7873C7.59619 13.9583 7.87709 14.1953 8.26692 14.4351C9.04141 14.9116 10.2609 15.409 11.9994 15.409C13.738 15.409 14.96 14.9115 15.7371 14.4347C16.1282 14.1947 16.4103 13.9575 16.59 13.7863C16.6156 13.7619 16.6391 13.7388 16.6605 13.7174L16.6596 9.3101C16.6595 8.86827 17.0176 8.51002 17.4594 8.50993C17.9013 8.50984 18.2595 8.86793 18.2596 9.30976L18.2606 14.0239C18.2606 14.1988 18.2034 14.3688 18.0976 14.508L17.4606 14.0241C18.0976 14.508 18.0979 14.5077 18.0976 14.508L18.0952 14.5112L18.0922 14.5151L18.0842 14.5254C18.078 14.5333 18.07 14.5432 18.0604 14.555C18.041 14.5787 18.0147 14.61 17.9813 14.6478C17.9144 14.7234 17.8189 14.8254 17.6937 14.9447C17.4434 15.1831 17.073 15.4922 16.574 15.7984C15.5708 16.414 14.0622 17.009 11.9994 17.009C9.93659 17.009 8.42992 16.4139 7.42858 15.7979C6.93049 15.4915 6.56106 15.1823 6.31151 14.9436C6.18667 14.8242 6.09148 14.7222 6.02485 14.6464C5.99152 14.6086 5.96529 14.5772 5.94601 14.5535C5.93636 14.5417 5.92846 14.5317 5.92227 14.5238L5.91426 14.5135L5.91122 14.5096L5.90994 14.5079C5.90966 14.5075 5.90881 14.5064 6.54708 14.0241L5.90881 14.5064C5.80421 14.368 5.74745 14.1993 5.74708 14.0258L5.73717 9.31161C5.73624 8.86978 6.09366 8.51086 6.53549 8.50993Z" fill="#006174"/>
<path fill-rule="evenodd" clip-rule="evenodd" d="M3.83887 7.34402C4.2807 7.34402 4.63887 7.70219 4.63887 8.14402V17.2065C4.63887 17.6483 4.2807 18.0065 3.83887 18.0065C3.39704 18.0065 3.03887 17.6483 3.03887 17.2065V8.14402C3.03887 7.70219 3.39704 7.34402 3.83887 7.34402Z" fill="#006174"/>
<path fill-rule="evenodd" clip-rule="evenodd" d="M3.83887 18.0065C3.26455 18.0065 2.79995 18.4721 2.79995 19.0464C2.79995 19.6208 3.26553 20.0863 3.83986 20.0863C4.41418 20.0863 4.87976 19.6208 4.87976 19.0464C4.87976 18.4721 4.4132 18.0065 3.83887 18.0065ZM1.19995 19.0464C1.19995 17.5884 2.38188 16.4065 3.83986 16.4065C5.29783 16.4065 6.47976 17.5884 6.47976 19.0464C6.47976 20.5044 5.29783 21.6863 3.83986 21.6863C2.38188 21.6863 1.19995 20.5044 1.19995 19.0464Z" fill="#006174"/>
</svg>
