<svg width="24" height="24" viewBox="0 0 24 24" fill="none" xmlns="http://www.w3.org/2000/svg">
<path fill-rule="evenodd" clip-rule="evenodd" d="M3.1162 12.0427C2.93687 12.3117 2.79995 12.7293 2.79995 13.2307C2.79995 13.732 2.93687 14.1497 3.1162 14.4187C3.29925 14.6933 3.46428 14.7384 3.53841 14.7384C3.61254 14.7384 3.77757 14.6933 3.96063 14.4187C4.13996 14.1497 4.27687 13.732 4.27687 13.2307C4.27687 12.7293 4.13996 12.3117 3.96063 12.0427C3.77757 11.7681 3.61254 11.723 3.53841 11.723C3.46428 11.723 3.29925 11.7681 3.1162 12.0427ZM1.78492 11.1551C2.15867 10.5945 2.76287 10.123 3.53841 10.123C4.31395 10.123 4.91815 10.5945 5.29191 11.1551C5.6694 11.7214 5.87687 12.4575 5.87687 13.2307C5.87687 14.0038 5.6694 14.74 5.29191 15.3062C4.91815 15.8669 4.31395 16.3384 3.53841 16.3384C2.76287 16.3384 2.15867 15.8669 1.78492 15.3062C1.40743 14.74 1.19995 14.0038 1.19995 13.2307C1.19995 12.4575 1.40743 11.7214 1.78492 11.1551Z" fill="#006174"/>
<path fill-rule="evenodd" clip-rule="evenodd" d="M7.73154 5.11937C7.55221 5.38837 7.41529 5.80606 7.41529 6.3074C7.41529 6.80874 7.55221 7.22643 7.73154 7.49542C7.9146 7.77001 8.07963 7.81509 8.15376 7.81509C8.22788 7.81509 8.39292 7.77001 8.57597 7.49542C8.7553 7.22643 8.89222 6.80874 8.89222 6.3074C8.89222 5.80606 8.7553 5.38837 8.57597 5.11937C8.39292 4.84479 8.22788 4.79971 8.15376 4.79971C8.07963 4.79971 7.9146 4.84479 7.73154 5.11937ZM6.40026 4.23185C6.77402 3.67122 7.37822 3.19971 8.15376 3.19971C8.9293 3.19971 9.5335 3.67122 9.90725 4.23185C10.2847 4.79808 10.4922 5.53424 10.4922 6.3074C10.4922 7.08056 10.2847 7.81672 9.90725 8.38294C9.5335 8.94358 8.9293 9.41509 8.15376 9.41509C7.37822 9.41509 6.77402 8.94358 6.40026 8.38294C6.02277 7.81672 5.81529 7.08056 5.81529 6.3074C5.81529 5.53424 6.02277 4.79808 6.40026 4.23185Z" fill="#006174"/>
<path fill-rule="evenodd" clip-rule="evenodd" d="M15.4239 5.11937C15.2445 5.38837 15.1076 5.80606 15.1076 6.3074C15.1076 6.80874 15.2445 7.22643 15.4239 7.49542C15.6069 7.77001 15.772 7.81509 15.8461 7.81509C15.9202 7.81509 16.0852 7.77001 16.2683 7.49542C16.4476 7.22643 16.5845 6.80874 16.5845 6.3074C16.5845 5.80606 16.4476 5.38837 16.2683 5.11937C16.0852 4.84479 15.9202 4.79971 15.8461 4.79971C15.772 4.79971 15.6069 4.84479 15.4239 5.11937ZM14.0926 4.23185C14.4663 3.67122 15.0705 3.19971 15.8461 3.19971C16.6216 3.19971 17.2258 3.67122 17.5996 4.23185C17.9771 4.79808 18.1845 5.53424 18.1845 6.3074C18.1845 7.08056 17.9771 7.81672 17.5996 8.38294C17.2258 8.94358 16.6216 9.41509 15.8461 9.41509C15.0705 9.41509 14.4663 8.94358 14.0926 8.38294C13.7151 7.81672 13.5076 7.08056 13.5076 6.3074C13.5076 5.53424 13.7151 4.79808 14.0926 4.23185Z" fill="#006174"/>
<path fill-rule="evenodd" clip-rule="evenodd" d="M20.0392 12.0427C19.8599 12.3117 19.723 12.7293 19.723 13.2307C19.723 13.732 19.8599 14.1497 20.0392 14.4187C20.2223 14.6933 20.3873 14.7384 20.4614 14.7384C20.5356 14.7384 20.7006 14.6933 20.8836 14.4187C21.063 14.1497 21.1999 13.732 21.1999 13.2307C21.1999 12.7293 21.063 12.3117 20.8836 12.0427C20.7006 11.7681 20.5356 11.723 20.4614 11.723C20.3873 11.723 20.2223 11.7681 20.0392 12.0427ZM18.7079 11.1551C19.0817 10.5945 19.6859 10.123 20.4614 10.123C21.237 10.123 21.8412 10.5945 22.2149 11.1551C22.5924 11.7214 22.7999 12.4575 22.7999 13.2307C22.7999 14.0038 22.5924 14.74 22.2149 15.3062C21.8412 15.8669 21.237 16.3384 20.4614 16.3384C19.6859 16.3384 19.0817 15.8669 18.7079 15.3062C18.3304 14.74 18.123 14.0038 18.123 13.2307C18.123 12.4575 18.3304 11.7214 18.7079 11.1551Z" fill="#006174"/>
<path fill-rule="evenodd" clip-rule="evenodd" d="M9.19022 13.283C8.51819 14.2273 8.18461 15.411 8.18461 16.3076C8.18461 16.9946 8.56724 17.536 9.29078 17.9463C10.0305 18.3658 11.0399 18.5845 12 18.5845C12.9601 18.5845 13.9695 18.3658 14.7092 17.9463C15.4327 17.536 15.8154 16.9946 15.8154 16.3076C15.8154 15.411 15.4818 14.2273 14.8098 13.283C14.1503 12.3565 13.2171 11.723 12 11.723C10.7829 11.723 9.84971 12.3565 9.19022 13.283ZM7.88668 12.3553C8.76566 11.1203 10.1402 10.123 12 10.123C13.8598 10.123 15.2343 11.1203 16.1133 12.3553C16.9797 13.5726 17.4154 15.0811 17.4154 16.3076C17.4154 17.7437 16.5519 18.7407 15.4985 19.3381C14.4612 19.9263 13.163 20.1845 12 20.1845C10.837 20.1845 9.53875 19.9263 8.50151 19.3381C7.44813 18.7407 6.58461 17.7437 6.58461 16.3076C6.58461 15.0811 7.02026 13.5726 7.88668 12.3553Z" fill="#006174"/>
</svg>
