<svg width="24" height="24" viewBox="0 0 24 24" fill="none" xmlns="http://www.w3.org/2000/svg">
<path fill-rule="evenodd" clip-rule="evenodd" d="M3.79995 4.79971V15.6612H20.2V4.79971H3.79995ZM2.19995 4.69201C2.19995 3.88296 2.88321 3.19971 3.69226 3.19971H20.3076C21.1318 3.19971 21.8 3.86784 21.8 4.69201V15.7689C21.8 16.578 21.1167 17.2612 20.3076 17.2612H3.69226C2.88321 17.2612 2.19995 16.578 2.19995 15.7689V4.69201Z" fill="#006174"/>
<path fill-rule="evenodd" clip-rule="evenodd" d="M10.9124 15.7185C11.3227 15.8826 11.5222 16.3481 11.3581 16.7584L9.9735 20.2199C9.80941 20.6301 9.34383 20.8297 8.93361 20.6656C8.52338 20.5015 8.32385 20.0359 8.48794 19.6257L9.87255 16.1641C10.0366 15.7539 10.5022 15.5544 10.9124 15.7185Z" fill="#006174"/>
<path fill-rule="evenodd" clip-rule="evenodd" d="M13.0875 15.7185C13.4977 15.5544 13.9633 15.7539 14.1273 16.1641L15.512 19.6257C15.6761 20.0359 15.4765 20.5015 15.0663 20.6656C14.6561 20.8297 14.1905 20.6301 14.0264 20.2199L12.6418 16.7584C12.4777 16.3481 12.6772 15.8826 13.0875 15.7185Z" fill="#006174"/>
<path fill-rule="evenodd" clip-rule="evenodd" d="M7.0461 19.9228C7.0461 19.481 7.40428 19.1228 7.84611 19.1228H16.1538C16.5956 19.1228 16.9538 19.481 16.9538 19.9228C16.9538 20.3646 16.5956 20.7228 16.1538 20.7228H7.84611C7.40428 20.7228 7.0461 20.3646 7.0461 19.9228Z" fill="#006174"/>
<path fill-rule="evenodd" clip-rule="evenodd" d="M8.05621 11.1434C8.37126 10.8336 8.87777 10.8379 9.18754 11.1529C9.69582 11.6699 10.6548 12.1995 12 12.1995C13.3451 12.1995 14.3041 11.6699 14.8124 11.1529C15.1221 10.8379 15.6286 10.8336 15.9437 11.1434C16.2587 11.4531 16.263 11.9596 15.9533 12.2747C15.1425 13.0994 13.7717 13.7995 12 13.7995C10.2282 13.7995 8.85745 13.0994 8.04663 12.2747C7.73687 11.9596 7.74115 11.4531 8.05621 11.1434Z" fill="#006174"/>
<path fill-rule="evenodd" clip-rule="evenodd" d="M10.2985 7.8077C10.3489 7.70288 10.3772 7.58536 10.3772 7.46125C10.3772 7.01942 10.019 6.66125 9.57718 6.66125C8.94401 6.66125 8.43072 7.17453 8.43072 7.8077C8.43072 8.44087 8.94401 8.95416 9.57718 8.95416C10.019 8.95416 10.3772 8.59599 10.3772 8.15416C10.3772 8.03005 10.3489 7.91253 10.2985 7.8077Z" fill="#006174"/>
<path fill-rule="evenodd" clip-rule="evenodd" d="M8.77676 7.46136C8.77676 7.01953 9.13535 6.66125 9.57718 6.66125C10.2103 6.66125 10.7232 7.17465 10.7232 7.80782C10.7232 8.44099 10.2103 8.95416 9.57718 8.95416C9.13535 8.95416 8.77676 8.5961 8.77676 8.15427C8.77676 8.03016 8.80503 7.91264 8.85547 7.80782C8.80503 7.70299 8.77676 7.58547 8.77676 7.46136Z" fill="#006174"/>
<path fill-rule="evenodd" clip-rule="evenodd" d="M15.1445 7.8074C15.1948 7.70265 15.223 7.58524 15.223 7.46125C15.223 7.01942 14.8649 6.66125 14.423 6.66125C13.79 6.66125 13.2769 7.17439 13.2769 7.8074C13.2769 8.44041 13.79 8.95355 14.423 8.95355C14.8649 8.95355 15.223 8.59538 15.223 8.15355C15.223 8.02956 15.1948 7.91215 15.1445 7.8074Z" fill="#006174"/>
<path fill-rule="evenodd" clip-rule="evenodd" d="M13.6225 7.46136C13.6225 7.01953 13.9812 6.66125 14.423 6.66125C15.056 6.66125 15.5687 7.17451 15.5687 7.80751C15.5687 8.44052 15.056 8.95355 14.423 8.95355C13.9812 8.95355 13.6225 8.59549 13.6225 8.15367C13.6225 8.02967 13.6508 7.91226 13.7011 7.80751C13.6508 7.70276 13.6225 7.58535 13.6225 7.46136Z" fill="#006174"/>
</svg>
