<svg width="24" height="24" viewBox="0 0 24 24" fill="none" xmlns="http://www.w3.org/2000/svg">
<path fill-rule="evenodd" clip-rule="evenodd" d="M14.7197 4.2018H8.58787C8.08578 4.18055 7.58995 4.32162 7.17405 4.60443C6.75179 4.89157 6.43513 5.30903 6.27242 5.79304L6.27144 5.79595L5.26871 8.81718H3.53841C2.91821 8.81718 2.32342 9.06356 1.88487 9.5021C1.44633 9.94065 1.19995 10.5354 1.19995 11.1556V14.2326C1.19995 14.8528 1.44633 15.4476 1.88487 15.8861C2.32342 16.3247 2.91821 16.571 3.53841 16.571H4.30764C4.74947 16.571 5.10765 16.2129 5.10765 15.771C5.10765 15.3292 4.74947 14.971 4.30764 14.971H3.53841C3.34256 14.971 3.15473 14.8932 3.01624 14.7547C2.87775 14.6163 2.79995 14.4284 2.79995 14.2326V11.1556C2.79995 10.9598 2.87775 10.772 3.01624 10.6335C3.15473 10.495 3.34256 10.4172 3.53841 10.4172H5.84611C6.19083 10.4172 6.49679 10.1964 6.60538 9.86918L7.78902 6.30287L7.78942 6.30168C7.84092 6.14934 7.94075 6.01796 8.07375 5.92752C8.20709 5.83684 8.36645 5.79231 8.52748 5.80071C8.54137 5.80144 8.55528 5.8018 8.56918 5.8018H14.7384C14.7523 5.8018 14.7662 5.80144 14.7801 5.80071C14.9411 5.79231 15.1005 5.83684 15.2338 5.92752C15.3651 6.01675 15.464 6.14585 15.5161 6.29562L16.6205 9.8543C16.7244 10.189 17.0341 10.4172 17.3846 10.4172H20.4615C20.6573 10.4172 20.8452 10.495 20.9837 10.6335C21.1222 10.772 21.2 10.9598 21.2 11.1556V14.2326C21.2 14.4284 21.1222 14.6163 20.9837 14.7547C20.8452 14.8932 20.6573 14.971 20.4615 14.971H19.6923C19.2504 14.971 18.8923 15.3292 18.8923 15.771C18.8923 16.2129 19.2504 16.571 19.6923 16.571H20.4615C21.0817 16.571 21.6765 16.3247 22.115 15.8861C22.5536 15.4476 22.8 14.8528 22.8 14.2326V11.1556C22.8 10.5354 22.5536 9.94065 22.115 9.5021C21.6765 9.06356 21.0817 8.81718 20.4615 8.81718H17.9739L17.0409 5.81083L17.0352 5.79304C16.8725 5.30902 16.5558 4.89157 16.1335 4.60443C15.7176 4.32162 15.2218 4.18055 14.7197 4.2018Z" fill="#006174"/>
<path fill-rule="evenodd" clip-rule="evenodd" d="M17.383 14.2605C18.2165 14.2605 18.8923 14.9363 18.8923 15.7699C18.8923 16.6034 18.2165 17.2792 17.383 17.2792C16.5494 17.2792 15.8736 16.6034 15.8736 15.7699C15.8736 14.9363 16.5494 14.2605 17.383 14.2605ZM20.4923 15.7699C20.4923 14.0526 19.1002 12.6605 17.383 12.6605C15.6657 12.6605 14.2736 14.0526 14.2736 15.7699C14.2736 17.4871 15.6657 18.8792 17.383 18.8792C19.1002 18.8792 20.4923 17.4871 20.4923 15.7699Z" fill="#006174"/>
<path fill-rule="evenodd" clip-rule="evenodd" d="M6.61364 14.2605C7.44722 14.2605 8.12297 14.9363 8.12297 15.7699C8.12297 16.6034 7.44722 17.2792 6.61364 17.2792C5.78007 17.2792 5.10432 16.6034 5.10432 15.7699C5.10432 14.9363 5.78007 14.2605 6.61364 14.2605ZM9.72297 15.7699C9.72297 14.0526 8.33088 12.6605 6.61364 12.6605C4.89641 12.6605 3.50432 14.0526 3.50432 15.7699C3.50432 17.4871 4.89641 18.8792 6.61364 18.8792C8.33088 18.8792 9.72297 17.4871 9.72297 15.7699Z" fill="#006174"/>
<path fill-rule="evenodd" clip-rule="evenodd" d="M15.8737 15.7712C15.8737 15.3294 15.5155 14.9712 15.0737 14.9712L8.92308 14.9712C8.48125 14.9712 8.12308 15.3294 8.12308 15.7712C8.12308 16.213 8.48125 16.5712 8.92308 16.5712L15.0737 16.5712C15.5155 16.5712 15.8737 16.213 15.8737 15.7712Z" fill="#006174"/>
</svg>
