<svg width="24" height="24" viewBox="0 0 24 24" fill="none" xmlns="http://www.w3.org/2000/svg">
<path fill-rule="evenodd" clip-rule="evenodd" d="M12 15.5084C12.4418 15.5084 12.8 15.8666 12.8 16.3084V20.0007C12.8 20.4426 12.4418 20.8007 12 20.8007C11.5582 20.8007 11.2 20.4426 11.2 20.0007V16.3084C11.2 15.8666 11.5582 15.5084 12 15.5084Z" fill="white"/>
<path fill-rule="evenodd" clip-rule="evenodd" d="M9.10061 3.33071C9.47041 3.08892 9.9662 3.19269 10.208 3.56249L12 6.30314L13.7919 3.56249C14.0337 3.19269 14.5295 3.08892 14.8993 3.33071C15.2691 3.5725 15.3729 4.06829 15.1311 4.43809L12.9558 7.76499L20.6695 19.5625C20.8303 19.8084 20.8434 20.1225 20.7036 20.3809C20.5638 20.6393 20.2937 20.8003 20 20.8003H3.99995C3.7062 20.8003 3.43607 20.6393 3.2963 20.3809C3.15654 20.1225 3.16962 19.8084 3.33038 19.5625L11.0441 7.76499L8.86884 4.43809C8.62705 4.06829 8.73082 3.5725 9.10061 3.33071ZM12 9.22685L5.47886 19.2003H18.521L12 9.22685Z" fill="white"/>
</svg>
