<svg width="24" height="24" viewBox="0 0 24 24" fill="none" xmlns="http://www.w3.org/2000/svg">
<path fill-rule="evenodd" clip-rule="evenodd" d="M16.0545 8.55841C15.9 8.51865 15.7379 8.51855 15.5834 8.55812C15.4324 8.59678 15.2933 8.67208 15.1784 8.77728L9.38191 14.5737C9.27443 14.6854 9.19642 14.8222 9.15497 14.9716C9.11308 15.1225 9.10985 15.2816 9.14557 15.4341C9.18128 15.5866 9.25479 15.7277 9.35933 15.8444C9.46388 15.961 9.59609 16.0495 9.7438 16.1017L9.75687 16.1063L19.015 19.5575C19.1701 19.6114 19.3371 19.6214 19.4976 19.5865C19.6599 19.5512 19.8091 19.4712 19.9284 19.3557C20.0477 19.2402 20.1325 19.0937 20.173 18.9326C20.2123 18.7767 20.2087 18.6132 20.1627 18.4593L16.7305 9.2146C16.7267 9.20426 16.7231 9.19384 16.7196 9.18335C16.6703 9.03161 16.5835 8.89478 16.4673 8.78553C16.351 8.67628 16.209 8.59816 16.0545 8.55841ZM15.1866 7.0081C15.6021 6.90173 16.0378 6.902 16.4532 7.00887C16.8686 7.11574 17.2502 7.32577 17.5628 7.61947C17.871 7.90904 18.1022 8.27071 18.2357 8.67179L21.6703 17.923C21.6747 17.9348 21.6788 17.9468 21.6826 17.9588C21.8233 18.4009 21.8379 18.8734 21.7246 19.3233C21.6113 19.7732 21.3747 20.1825 21.0413 20.5052C20.708 20.8279 20.2913 21.0512 19.8379 21.1499C19.3846 21.2485 18.9128 21.2187 18.4755 21.0638L18.4632 21.0594L9.20387 17.6079C8.80593 17.466 8.44975 17.2268 8.16776 16.9122C7.88408 16.5956 7.68461 16.2127 7.5877 15.7989C7.49079 15.385 7.49957 14.9534 7.61321 14.5438C7.72686 14.1342 7.94173 13.7598 8.23803 13.455L8.24589 13.4469L14.0576 7.63536C14.0637 7.62926 14.0699 7.62325 14.0762 7.61735C14.3891 7.32403 14.7711 7.11447 15.1866 7.0081Z" fill="white"/>
<path fill-rule="evenodd" clip-rule="evenodd" d="M6.9978 12.3797C6.50255 12.2672 5.98321 12.3419 5.53974 12.5894C5.15392 12.8047 4.66661 12.6665 4.45131 12.2806C4.23601 11.8948 4.37424 11.4075 4.76006 11.1922C5.54843 10.7523 6.47168 10.6195 7.35209 10.8194C7.78295 10.9172 8.05292 11.3458 7.95508 11.7767C7.85725 12.2075 7.42866 12.4775 6.9978 12.3797Z" fill="white"/>
<path fill-rule="evenodd" clip-rule="evenodd" d="M7.96466 5.13396C8.40228 5.1948 8.70772 5.59888 8.64688 6.0365C8.57591 6.54699 8.69399 7.06581 8.97888 7.4953C9.22311 7.86349 9.12263 8.35995 8.75444 8.60418C8.38625 8.84842 7.88979 8.74793 7.64555 8.37974C7.1449 7.62499 6.93741 6.71326 7.06212 5.81618C7.12296 5.37856 7.52705 5.07312 7.96466 5.13396Z" fill="white"/>
<path fill-rule="evenodd" clip-rule="evenodd" d="M11.7506 2.23942C12.1706 2.37653 12.4 2.82817 12.2629 3.24818C11.8361 4.55541 11.8923 5.97232 12.4212 7.24167C12.5911 7.64952 12.3982 8.11789 11.9904 8.28781C11.5825 8.45774 11.1141 8.26486 10.9442 7.85702C10.2681 6.23425 10.1963 4.42285 10.7419 2.75166C10.879 2.33165 11.3306 2.10231 11.7506 2.23942Z" fill="white"/>
<path fill-rule="evenodd" clip-rule="evenodd" d="M3.69346 6.65726C3.75227 6.65726 3.79995 6.60958 3.79995 6.55077C3.79995 6.49196 3.75227 6.44428 3.69346 6.44428C3.63465 6.44428 3.58697 6.49196 3.58697 6.55077C3.58697 6.60958 3.63465 6.65726 3.69346 6.65726ZM2.19995 6.55077C2.19995 5.72593 2.86862 5.05726 3.69346 5.05726C4.5183 5.05726 5.18697 5.72593 5.18697 6.55077C5.18697 7.37561 4.5183 8.04428 3.69346 8.04428C2.86862 8.04428 2.19995 7.37561 2.19995 6.55077Z" fill="white"/>
</svg>
