<svg width="24" height="24" viewBox="0 0 24 24" fill="none" xmlns="http://www.w3.org/2000/svg">
<path fill-rule="evenodd" clip-rule="evenodd" d="M10.4629 19.7111C10.0551 19.7111 9.72459 20.0416 9.72459 20.4493C9.72459 20.8571 10.0551 21.1876 10.4629 21.1876C10.8706 21.1876 11.2012 20.8571 11.2012 20.4493C11.2012 20.0416 10.8706 19.7111 10.4629 19.7111ZM8.12459 20.4493C8.12459 19.1579 9.17148 18.1111 10.4629 18.1111C11.7543 18.1111 12.8012 19.1579 12.8012 20.4493C12.8012 21.7407 11.7543 22.7876 10.4629 22.7876C9.17148 22.7876 8.12459 21.7407 8.12459 20.4493Z" fill="white"/>
<path fill-rule="evenodd" clip-rule="evenodd" d="M17.3852 19.7111C16.9775 19.7111 16.6469 20.0416 16.6469 20.4493C16.6469 20.8571 16.9775 21.1876 17.3852 21.1876C17.793 21.1876 18.1235 20.8571 18.1235 20.4493C18.1235 20.0416 17.793 19.7111 17.3852 19.7111ZM15.0469 20.4493C15.0469 19.1579 16.0938 18.1111 17.3852 18.1111C18.6766 18.1111 19.7235 19.1579 19.7235 20.4493C19.7235 21.7407 18.6766 22.7876 17.3852 22.7876C16.0938 22.7876 15.0469 21.7407 15.0469 20.4493Z" fill="white"/>
<path fill-rule="evenodd" clip-rule="evenodd" d="M7.48765 1.23162C8.58686 1.12594 9.69544 1.28359 10.7216 1.69152C11.7478 2.09946 12.662 2.74594 13.3887 3.57745C14.1154 4.40897 14.6335 5.4016 14.9003 6.47318C15.007 6.90192 14.746 7.33601 14.3172 7.44274C13.8885 7.54947 13.4544 7.28843 13.3477 6.85968C13.1423 6.03469 12.7434 5.27048 12.1839 4.6303C11.6245 3.99013 10.9206 3.49241 10.1306 3.17835C9.34052 2.86429 8.48704 2.74292 7.64077 2.82428C6.7945 2.90564 5.97978 3.1874 5.26405 3.64623C4.54832 4.10506 3.95216 4.72777 3.52494 5.4628C3.09771 6.19783 2.8517 7.02405 2.80727 7.87306C2.76284 8.72208 2.92126 9.56946 3.26943 10.3451C3.6176 11.1207 4.1455 11.8022 4.80943 12.3332C5.15446 12.6092 5.21045 13.1126 4.93448 13.4577C4.65851 13.8027 4.15508 13.8587 3.81004 13.5827C2.94767 12.893 2.26199 12.0078 1.80975 11.0003C1.35752 9.99288 1.15174 8.89222 1.20945 7.78945C1.26717 6.68667 1.58671 5.6135 2.14163 4.65877C2.69655 3.70405 3.47089 2.89522 4.40054 2.29925C5.3302 1.70328 6.38843 1.3373 7.48765 1.23162Z" fill="white"/>
<path fill-rule="evenodd" clip-rule="evenodd" d="M11.0287 5.30067C11.3411 5.61309 11.3411 6.11962 11.0287 6.43204L8.72124 8.73946C8.40882 9.05188 7.90228 9.05188 7.58986 8.73946C7.27745 8.42704 7.27745 7.92051 7.58986 7.60809L9.89728 5.30067C10.2097 4.98825 10.7162 4.98825 11.0287 5.30067Z" fill="white"/>
<path fill-rule="evenodd" clip-rule="evenodd" d="M6.18357 14.6474C6.91056 13.9204 7.89658 13.512 8.92471 13.512H11.2321C11.674 13.512 12.0321 13.8702 12.0321 14.312V15.8503C12.0321 16.2921 11.674 16.6503 11.2321 16.6503C10.7903 16.6503 10.4321 16.2921 10.4321 15.8503V15.112H8.92471C8.32093 15.112 7.74188 15.3518 7.31494 15.7788C6.888 16.2057 6.64815 16.7848 6.64815 17.3885V20.4651C6.64815 20.9069 6.28998 21.2651 5.84815 21.2651C5.40632 21.2651 5.04815 20.9069 5.04815 20.4651V17.3885C5.04815 16.3604 5.45657 15.3744 6.18357 14.6474Z" fill="white"/>
<path fill-rule="evenodd" clip-rule="evenodd" d="M11.117 11.1044C11.5555 10.6659 12.1503 10.4195 12.7704 10.4195H20.4618C21.082 10.4195 21.6767 10.6659 22.1152 11.1044C22.5537 11.5429 22.8001 12.1377 22.8001 12.7578V20.4492C22.8001 20.891 22.4419 21.2492 22.0001 21.2492C21.5583 21.2492 21.2001 20.891 21.2001 20.4492V12.7578C21.2001 12.562 21.1223 12.3742 20.9839 12.2358C20.8454 12.0973 20.6576 12.0195 20.4618 12.0195H12.7704C12.5746 12.0195 12.3868 12.0973 12.2484 12.2358C12.1099 12.3742 12.0321 12.562 12.0321 12.7578V15.8344C12.0321 16.2762 11.674 16.6344 11.2321 16.6344C10.7903 16.6344 10.4321 16.2762 10.4321 15.8344V12.7578C10.4321 12.1377 10.6785 11.5429 11.117 11.1044Z" fill="white"/>
</svg>
