<svg width="24" height="24" viewBox="0 0 24 24" fill="none" xmlns="http://www.w3.org/2000/svg">
<path fill-rule="evenodd" clip-rule="evenodd" d="M15.8461 2.79971C12.8893 2.79971 10.4923 5.19671 10.4923 8.15355C10.4923 11.1104 12.8893 13.5074 15.8461 13.5074C18.803 13.5074 21.2 11.1104 21.2 8.15355C21.2 5.19671 18.803 2.79971 15.8461 2.79971ZM8.8923 8.15355C8.8923 4.31305 12.0056 1.19971 15.8461 1.19971C19.6866 1.19971 22.8 4.31305 22.8 8.15355C22.8 11.9941 19.6866 15.1074 15.8461 15.1074C12.0056 15.1074 8.8923 11.9941 8.8923 8.15355Z" fill="white"/>
<path fill-rule="evenodd" clip-rule="evenodd" d="M15.8461 5.81505C16.288 5.81505 16.6461 6.17322 16.6461 6.61505V9.69197C16.6461 10.1338 16.288 10.492 15.8461 10.492C15.4043 10.492 15.0461 10.1338 15.0461 9.69197V6.61505C15.0461 6.17322 15.4043 5.81505 15.8461 5.81505Z" fill="white"/>
<path fill-rule="evenodd" clip-rule="evenodd" d="M1.38539 17.6415C1.66825 17.3021 2.1727 17.2562 2.51212 17.5391L6.27171 20.6721C6.6809 21.0131 7.1967 21.1998 7.72936 21.1998H17.641C17.9072 21.1998 18.123 20.984 18.123 20.7178C18.123 19.7435 17.3332 18.9537 16.3589 18.9537H9.46811C9.02629 18.9537 8.66811 18.5955 8.66811 18.1537C8.66811 17.7118 9.02629 17.3537 9.46811 17.3537H16.3589C18.2169 17.3537 19.723 18.8598 19.723 20.7178C19.723 21.8677 18.7909 22.7998 17.641 22.7998H7.72936C6.8224 22.7998 5.94415 22.4819 5.24741 21.9012L1.48782 18.7683C1.1484 18.4854 1.10254 17.981 1.38539 17.6415Z" fill="white"/>
<path fill-rule="evenodd" clip-rule="evenodd" d="M1.19997 12.769C1.19997 12.3272 1.55814 11.969 1.99997 11.969H6.11008C7.13831 11.969 8.12442 12.3775 8.85148 13.1045L10.6426 14.8956C11.5923 15.8453 11.5923 17.385 10.6426 18.3347C9.69291 19.2844 8.15319 19.2844 7.20352 18.3347L6.04967 17.1809C5.73725 16.8684 5.73725 16.3619 6.04967 16.0495C6.36209 15.7371 6.86862 15.7371 7.18104 16.0495L8.33489 17.2033C8.65972 17.5282 9.18638 17.5282 9.51121 17.2033C9.83604 16.8785 9.83604 16.3518 9.51121 16.027L7.72011 14.2359C7.2931 13.8089 6.71396 13.569 6.11008 13.569H1.99997C1.55814 13.569 1.19997 13.2108 1.19997 12.769Z" fill="white"/>
</svg>
