<svg width="32" height="32" viewBox="0 0 32 32" fill="none" xmlns="http://www.w3.org/2000/svg">
<mask id="mask0_10616_227044" style="mask-type:luminance" maskUnits="userSpaceOnUse" x="0" y="0" width="32" height="32">
<path d="M32 0H0V32H32V0Z" fill="white"/>
</mask>
<g mask="url(#mask0_10616_227044)">
<path d="M16 32C24.8366 32 32 24.8366 32 16C32 7.16344 24.8366 0 16 0C7.16344 0 0 7.16344 0 16C0 24.8366 7.16344 32 16 32Z" fill="#FAFAFC"/>
<path d="M15.9693 17.9386C19.436 17.9386 22.2462 15.1283 22.2462 11.6617C22.2462 8.19504 19.436 5.38477 15.9693 5.38477C12.5027 5.38477 9.69238 8.19504 9.69238 11.6617C9.69238 15.1283 12.5027 17.9386 15.9693 17.9386Z" fill="#C0C5D5"/>
<path d="M15.9999 31.8467C20.0614 31.8467 23.7537 30.3082 26.5537 27.8159C26.4614 27.2928 26.3999 26.7697 26.3076 26.1851C25.6614 22.0928 23.3537 17.262 20.1537 20.2774C17.5999 22.6774 14.0307 21.0159 12.5845 19.8774C11.5076 19.139 8.70759 18.2159 6.30759 20.2774C5.13836 21.262 4.18451 23.3851 3.44604 25.6313C6.30759 29.4159 10.8614 31.8467 15.9999 31.8467Z" fill="#C0C5D5"/>
</g>
</svg>
