<svg width="26" height="26" viewBox="0 0 26 26" fill="none" xmlns="http://www.w3.org/2000/svg">
<rect x="0.5" y="0.5" width="25" height="25" rx="12.5" fill="#00DAB3"/>
<path fill-rule="evenodd" clip-rule="evenodd" d="M10.1714 9.22857C10.1714 7.77685 11.3483 6.6 12.8 6.6C14.2517 6.6 15.4286 7.77685 15.4286 9.22857C15.4286 10.6803 14.2517 11.8571 12.8 11.8571C11.3483 11.8571 10.1714 10.6803 10.1714 9.22857ZM12.8 5C10.4646 5 8.57141 6.8932 8.57141 9.22857C8.57141 10.5132 9.14423 11.664 10.0484 12.4395C9.28893 12.7755 8.59025 13.251 7.99167 13.8496C6.71643 15.1248 6 16.8544 6 18.6579C6 19.0997 6.35817 19.4579 6.8 19.4579C7.24183 19.4579 7.6 19.0997 7.6 18.6579C7.6 17.2788 8.14786 15.9561 9.12304 14.981C10.0982 14.0058 11.4209 13.4579 12.8 13.4579C14.1791 13.4579 15.5018 14.0058 16.477 14.981C17.4521 15.9561 18 17.2788 18 18.6579C18 19.0997 18.3582 19.4579 18.8 19.4579C19.2418 19.4579 19.6 19.0997 19.6 18.6579C19.6 16.8544 18.8836 15.1248 17.6083 13.8496C17.0097 13.251 16.3111 12.7755 15.5516 12.4395C16.4557 11.664 17.0286 10.5132 17.0286 9.22857C17.0286 6.8932 15.1354 5 12.8 5Z" fill="#11142D"/>
<rect x="0.5" y="0.5" width="25" height="25" rx="12.5" stroke="white"/>
</svg>
