<svg width="26" height="26" viewBox="0 0 26 26" fill="none" xmlns="http://www.w3.org/2000/svg">
<rect x="0.5" y="0.5" width="25" height="25" rx="12.5" fill="#00DAB3"/>
<path fill-rule="evenodd" clip-rule="evenodd" d="M11.7763 8.37221C12.1166 7.9941 12.559 7.8002 13 7.8002C13.441 7.8002 13.8833 7.9941 14.2236 8.37221C14.5202 8.7018 14.7137 9.14532 14.7604 9.62891H11.2395C11.2863 9.14532 11.4797 8.7018 11.7763 8.37221ZM9.63512 9.62891C9.68486 8.76571 10.0156 7.93677 10.5871 7.30186C11.2112 6.60833 12.077 6.2002 13 6.2002C13.923 6.2002 14.7887 6.60833 15.4129 7.30186C15.9843 7.93677 16.3151 8.76571 16.3648 9.62891H17.1538C18.5979 9.62891 19.8 10.7779 19.8 12.2334V17.1958C19.8 18.6514 18.5979 19.8003 17.1538 19.8003H8.84611C7.40198 19.8003 6.19995 18.6514 6.19995 17.1958V12.2334C6.19995 10.7779 7.40198 9.62891 8.84611 9.62891H9.63512ZM7.79995 12.2334C7.79995 11.6957 8.25103 11.2289 8.84611 11.2289H17.1538C17.7489 11.2289 18.2 11.6957 18.2 12.2334V17.1958C18.2 17.7335 17.7489 18.2003 17.1538 18.2003H8.84611C8.25103 18.2003 7.79995 17.7335 7.79995 17.1958V12.2334Z" fill="#11142D"/>
<rect x="0.5" y="0.5" width="25" height="25" rx="12.5" stroke="white"/>
</svg>
