<svg width="18" height="18" viewBox="0 0 18 18" fill="none" xmlns="http://www.w3.org/2000/svg">
<rect x="0.5" y="0.5" width="17" height="17" rx="8.5" fill="#00DAB3"/>
<path fill-rule="evenodd" clip-rule="evenodd" d="M10.3527 9.67845C11.33 9.18391 12 8.1702 12 7C12 5.34315 10.6569 4 9 4C7.34315 4 6 5.34315 6 7C6 8.1702 6.67 9.18392 7.64732 9.67846C6.49663 9.9862 5.44315 10.6813 4.61498 11.681C4.43881 11.8937 4.46839 12.2089 4.68104 12.385C4.89369 12.5612 5.20889 12.5316 5.38505 12.319C6.36258 11.139 7.66596 10.5 9.00001 10.5C10.3341 10.5 11.6374 11.139 12.615 12.319C12.7911 12.5316 13.1063 12.5612 13.319 12.385C13.5316 12.2089 13.5612 11.8937 13.3851 11.681C12.5569 10.6813 11.5034 9.98619 10.3527 9.67845ZM9 9C10.1046 9 11 8.10457 11 7C11 5.89543 10.1046 5 9 5C7.89543 5 7 5.89543 7 7C7 8.10457 7.89543 9 9 9Z" fill="#11142D"/>
<rect x="0.5" y="0.5" width="17" height="17" rx="8.5" stroke="white"/>
</svg>
