<svg width="18" height="18" viewBox="0 0 18 18" fill="none" xmlns="http://www.w3.org/2000/svg">
<rect x="0.5" y="0.5" width="17" height="17" rx="8.5" fill="#C0C5D5"/>
<path fill-rule="evenodd" clip-rule="evenodd" d="M7.94215 4.94594C8.22409 4.65945 8.60477 4.5 9 4.5C9.39523 4.5 9.77591 4.65945 10.0578 4.94594C10.3065 5.19858 10.4602 5.53183 10.4933 5.88721H7.50672C7.53978 5.53183 7.69351 5.19858 7.94215 4.94594ZM6.5041 5.88721C6.53898 5.27083 6.79539 4.68551 7.22942 4.2445C7.69763 3.76876 8.33436 3.5 9 3.5C9.66564 3.5 10.3024 3.76876 10.7706 4.2445C11.2046 4.68551 11.461 5.27083 11.4959 5.88721H12.4615C13.3112 5.88721 14 6.55762 14 7.38461V11.5025C14 12.3295 13.3112 12.9999 12.4615 12.9999H5.53846C4.68879 12.9999 4 12.3295 4 11.5025V7.38461C4 6.55762 4.68879 5.88721 5.53846 5.88721H6.5041ZM5 7.38461C5 7.13523 5.21541 6.88721 5.53846 6.88721H12.4615C12.7846 6.88721 13 7.13523 13 7.38461V11.5025C13 11.7519 12.7846 11.9999 12.4615 11.9999H5.53846C5.21541 11.9999 5 11.7519 5 11.5025V7.38461Z" fill="white"/>
<rect x="0.5" y="0.5" width="17" height="17" rx="8.5" stroke="white"/>
</svg>
